<?xml version="1.0" encoding="utf-8" standalone="no"?>
<!DOCTYPE svg PUBLIC "-//W3C//DTD SVG 1.1//EN"
  "http://www.w3.org/Graphics/SVG/1.1/DTD/svg11.dtd">
<svg xmlns:xlink="http://www.w3.org/1999/xlink" width="376.845pt" height="282.790125pt" viewBox="0 0 376.845 282.790125" xmlns="http://www.w3.org/2000/svg" version="1.1">
 <metadata>
  <rdf:RDF xmlns:dc="http://purl.org/dc/elements/1.1/" xmlns:cc="http://creativecommons.org/ns#" xmlns:rdf="http://www.w3.org/1999/02/22-rdf-syntax-ns#">
   <cc:Work>
    <dc:type rdf:resource="http://purl.org/dc/dcmitype/StillImage"/>
    <dc:date>2023-08-22T15:53:03.505806</dc:date>
    <dc:format>image/svg+xml</dc:format>
    <dc:creator>
     <cc:Agent>
      <dc:title>Matplotlib v3.5.2, https://matplotlib.org/</dc:title>
     </cc:Agent>
    </dc:creator>
   </cc:Work>
  </rdf:RDF>
 </metadata>
 <defs>
  <style type="text/css">*{stroke-linejoin: round; stroke-linecap: butt}</style>
 </defs>
 <g id="figure_1">
  <g id="patch_1">
   <path d="M 0 282.790125 
L 376.845 282.790125 
L 376.845 0 
L 0 0 
L 0 282.790125 
z
" style="fill: none"/>
  </g>
  <g id="axes_1">
   <g id="patch_2">
    <path d="M 19.725 266.112 
L 376.845 266.112 
L 376.845 0 
L 19.725 0 
L 19.725 266.112 
z
" style="fill: none"/>
   </g>
   <g id="patch_3">
    <path d="M 35.957727 266.112 
L 47.834585 266.112 
L 47.834585 265.847586 
L 35.957727 265.847586 
z
" clip-path="url(#p0fedd2d0db)" style="fill: #0000ff; opacity: 0.7"/>
   </g>
   <g id="patch_4">
    <path d="M 47.834585 266.112 
L 59.711444 266.112 
L 59.711444 266.112 
L 47.834585 266.112 
z
" clip-path="url(#p0fedd2d0db)" style="fill: #0000ff; opacity: 0.7"/>
   </g>
   <g id="patch_5">
    <path d="M 59.711444 266.112 
L 71.588302 266.112 
L 71.588302 265.847586 
L 59.711444 265.847586 
z
" clip-path="url(#p0fedd2d0db)" style="fill: #0000ff; opacity: 0.7"/>
   </g>
   <g id="patch_6">
    <path d="M 71.588302 266.112 
L 83.46516 266.112 
L 83.46516 264.261099 
L 71.588302 264.261099 
z
" clip-path="url(#p0fedd2d0db)" style="fill: #0000ff; opacity: 0.7"/>
   </g>
   <g id="patch_7">
    <path d="M 83.46516 266.112 
L 95.342018 266.112 
L 95.342018 263.732271 
L 83.46516 263.732271 
z
" clip-path="url(#p0fedd2d0db)" style="fill: #0000ff; opacity: 0.7"/>
   </g>
   <g id="patch_8">
    <path d="M 95.342018 266.112 
L 107.218876 266.112 
L 107.218876 263.732271 
L 95.342018 263.732271 
z
" clip-path="url(#p0fedd2d0db)" style="fill: #0000ff; opacity: 0.7"/>
   </g>
   <g id="patch_9">
    <path d="M 107.218876 266.112 
L 119.095734 266.112 
L 119.095734 260.559298 
L 107.218876 260.559298 
z
" clip-path="url(#p0fedd2d0db)" style="fill: #0000ff; opacity: 0.7"/>
   </g>
   <g id="patch_10">
    <path d="M 119.095734 266.112 
L 130.972593 266.112 
L 130.972593 258.708398 
L 119.095734 258.708398 
z
" clip-path="url(#p0fedd2d0db)" style="fill: #0000ff; opacity: 0.7"/>
   </g>
   <g id="patch_11">
    <path d="M 130.972593 266.112 
L 142.849451 266.112 
L 142.849451 255.535425 
L 130.972593 255.535425 
z
" clip-path="url(#p0fedd2d0db)" style="fill: #0000ff; opacity: 0.7"/>
   </g>
   <g id="patch_12">
    <path d="M 142.849451 266.112 
L 154.726309 266.112 
L 154.726309 251.040381 
L 142.849451 251.040381 
z
" clip-path="url(#p0fedd2d0db)" style="fill: #0000ff; opacity: 0.7"/>
   </g>
   <g id="patch_13">
    <path d="M 154.726309 266.112 
L 166.603167 266.112 
L 166.603167 248.660652 
L 154.726309 248.660652 
z
" clip-path="url(#p0fedd2d0db)" style="fill: #0000ff; opacity: 0.7"/>
   </g>
   <g id="patch_14">
    <path d="M 166.603167 266.112 
L 178.480025 266.112 
L 178.480025 243.636779 
L 166.603167 243.636779 
z
" clip-path="url(#p0fedd2d0db)" style="fill: #0000ff; opacity: 0.7"/>
   </g>
   <g id="patch_15">
    <path d="M 178.480025 266.112 
L 190.356883 266.112 
L 190.356883 239.670563 
L 178.480025 239.670563 
z
" clip-path="url(#p0fedd2d0db)" style="fill: #0000ff; opacity: 0.7"/>
   </g>
   <g id="patch_16">
    <path d="M 190.356883 266.112 
L 202.233742 266.112 
L 202.233742 237.819662 
L 190.356883 237.819662 
z
" clip-path="url(#p0fedd2d0db)" style="fill: #0000ff; opacity: 0.7"/>
   </g>
   <g id="patch_17">
    <path d="M 202.233742 266.112 
L 214.1106 266.112 
L 214.1106 239.141734 
L 202.233742 239.141734 
z
" clip-path="url(#p0fedd2d0db)" style="fill: #0000ff; opacity: 0.7"/>
   </g>
   <g id="patch_18">
    <path d="M 214.1106 266.112 
L 225.987458 266.112 
L 225.987458 240.992635 
L 214.1106 240.992635 
z
" clip-path="url(#p0fedd2d0db)" style="fill: #0000ff; opacity: 0.7"/>
   </g>
   <g id="patch_19">
    <path d="M 225.987458 266.112 
L 237.864316 266.112 
L 237.864316 247.074165 
L 225.987458 247.074165 
z
" clip-path="url(#p0fedd2d0db)" style="fill: #0000ff; opacity: 0.7"/>
   </g>
   <g id="patch_20">
    <path d="M 237.864316 266.112 
L 249.741174 266.112 
L 249.741174 249.718309 
L 237.864316 249.718309 
z
" clip-path="url(#p0fedd2d0db)" style="fill: #0000ff; opacity: 0.7"/>
   </g>
   <g id="patch_21">
    <path d="M 249.741174 266.112 
L 261.618032 266.112 
L 261.618032 256.064254 
L 249.741174 256.064254 
z
" clip-path="url(#p0fedd2d0db)" style="fill: #0000ff; opacity: 0.7"/>
   </g>
   <g id="patch_22">
    <path d="M 261.618032 266.112 
L 273.494891 266.112 
L 273.494891 256.857497 
L 261.618032 256.857497 
z
" clip-path="url(#p0fedd2d0db)" style="fill: #0000ff; opacity: 0.7"/>
   </g>
   <g id="patch_23">
    <path d="M 273.494891 266.112 
L 285.371749 266.112 
L 285.371749 259.501641 
L 273.494891 259.501641 
z
" clip-path="url(#p0fedd2d0db)" style="fill: #0000ff; opacity: 0.7"/>
   </g>
   <g id="patch_24">
    <path d="M 285.371749 266.112 
L 297.248607 266.112 
L 297.248607 260.823713 
L 285.371749 260.823713 
z
" clip-path="url(#p0fedd2d0db)" style="fill: #0000ff; opacity: 0.7"/>
   </g>
   <g id="patch_25">
    <path d="M 297.248607 266.112 
L 309.125465 266.112 
L 309.125465 263.203442 
L 297.248607 263.203442 
z
" clip-path="url(#p0fedd2d0db)" style="fill: #0000ff; opacity: 0.7"/>
   </g>
   <g id="patch_26">
    <path d="M 309.125465 266.112 
L 321.002323 266.112 
L 321.002323 265.054343 
L 309.125465 265.054343 
z
" clip-path="url(#p0fedd2d0db)" style="fill: #0000ff; opacity: 0.7"/>
   </g>
   <g id="patch_27">
    <path d="M 321.002323 266.112 
L 332.879182 266.112 
L 332.879182 264.789928 
L 321.002323 264.789928 
z
" clip-path="url(#p0fedd2d0db)" style="fill: #0000ff; opacity: 0.7"/>
   </g>
   <g id="patch_28">
    <path d="M 265.820008 266.112 
L 269.611698 266.112 
L 269.611698 265.283765 
L 265.820008 265.283765 
z
" clip-path="url(#p0fedd2d0db)" style="fill: #ff0000; opacity: 0.9"/>
   </g>
   <g id="patch_29">
    <path d="M 269.611698 266.112 
L 273.403389 266.112 
L 273.403389 266.112 
L 269.611698 266.112 
z
" clip-path="url(#p0fedd2d0db)" style="fill: #ff0000; opacity: 0.9"/>
   </g>
   <g id="patch_30">
    <path d="M 273.403389 266.112 
L 277.19508 266.112 
L 277.19508 266.112 
L 273.403389 266.112 
z
" clip-path="url(#p0fedd2d0db)" style="fill: #ff0000; opacity: 0.9"/>
   </g>
   <g id="patch_31">
    <path d="M 277.19508 266.112 
L 280.98677 266.112 
L 280.98677 266.112 
L 277.19508 266.112 
z
" clip-path="url(#p0fedd2d0db)" style="fill: #ff0000; opacity: 0.9"/>
   </g>
   <g id="patch_32">
    <path d="M 280.98677 266.112 
L 284.778461 266.112 
L 284.778461 266.112 
L 280.98677 266.112 
z
" clip-path="url(#p0fedd2d0db)" style="fill: #ff0000; opacity: 0.9"/>
   </g>
   <g id="patch_33">
    <path d="M 284.778461 266.112 
L 288.570151 266.112 
L 288.570151 266.112 
L 284.778461 266.112 
z
" clip-path="url(#p0fedd2d0db)" style="fill: #ff0000; opacity: 0.9"/>
   </g>
   <g id="patch_34">
    <path d="M 288.570151 266.112 
L 292.361842 266.112 
L 292.361842 265.283765 
L 288.570151 265.283765 
z
" clip-path="url(#p0fedd2d0db)" style="fill: #ff0000; opacity: 0.9"/>
   </g>
   <g id="patch_35">
    <path d="M 292.361842 266.112 
L 296.153533 266.112 
L 296.153533 263.627294 
L 292.361842 263.627294 
z
" clip-path="url(#p0fedd2d0db)" style="fill: #ff0000; opacity: 0.9"/>
   </g>
   <g id="patch_36">
    <path d="M 296.153533 266.112 
L 299.945223 266.112 
L 299.945223 265.283765 
L 296.153533 265.283765 
z
" clip-path="url(#p0fedd2d0db)" style="fill: #ff0000; opacity: 0.9"/>
   </g>
   <g id="patch_37">
    <path d="M 299.945223 266.112 
L 303.736914 266.112 
L 303.736914 257.829647 
L 299.945223 257.829647 
z
" clip-path="url(#p0fedd2d0db)" style="fill: #ff0000; opacity: 0.9"/>
   </g>
   <g id="patch_38">
    <path d="M 303.736914 266.112 
L 307.528604 266.112 
L 307.528604 253.688471 
L 303.736914 253.688471 
z
" clip-path="url(#p0fedd2d0db)" style="fill: #ff0000; opacity: 0.9"/>
   </g>
   <g id="patch_39">
    <path d="M 307.528604 266.112 
L 311.320295 266.112 
L 311.320295 256.173176 
L 307.528604 256.173176 
z
" clip-path="url(#p0fedd2d0db)" style="fill: #ff0000; opacity: 0.9"/>
   </g>
   <g id="patch_40">
    <path d="M 311.320295 266.112 
L 315.111986 266.112 
L 315.111986 252.032 
L 311.320295 252.032 
z
" clip-path="url(#p0fedd2d0db)" style="fill: #ff0000; opacity: 0.9"/>
   </g>
   <g id="patch_41">
    <path d="M 315.111986 266.112 
L 318.903676 266.112 
L 318.903676 250.375529 
L 315.111986 250.375529 
z
" clip-path="url(#p0fedd2d0db)" style="fill: #ff0000; opacity: 0.9"/>
   </g>
   <g id="patch_42">
    <path d="M 318.903676 266.112 
L 322.695367 266.112 
L 322.695367 246.234353 
L 318.903676 246.234353 
z
" clip-path="url(#p0fedd2d0db)" style="fill: #ff0000; opacity: 0.9"/>
   </g>
   <g id="patch_43">
    <path d="M 322.695367 266.112 
L 326.487057 266.112 
L 326.487057 228.841412 
L 322.695367 228.841412 
z
" clip-path="url(#p0fedd2d0db)" style="fill: #ff0000; opacity: 0.9"/>
   </g>
   <g id="patch_44">
    <path d="M 326.487057 266.112 
L 330.278748 266.112 
L 330.278748 214.761412 
L 326.487057 214.761412 
z
" clip-path="url(#p0fedd2d0db)" style="fill: #ff0000; opacity: 0.9"/>
   </g>
   <g id="patch_45">
    <path d="M 330.278748 266.112 
L 334.070439 266.112 
L 334.070439 210.620235 
L 330.278748 210.620235 
z
" clip-path="url(#p0fedd2d0db)" style="fill: #ff0000; opacity: 0.9"/>
   </g>
   <g id="patch_46">
    <path d="M 334.070439 266.112 
L 337.862129 266.112 
L 337.862129 220.559059 
L 334.070439 220.559059 
z
" clip-path="url(#p0fedd2d0db)" style="fill: #ff0000; opacity: 0.9"/>
   </g>
   <g id="patch_47">
    <path d="M 337.862129 266.112 
L 341.65382 266.112 
L 341.65382 203.166118 
L 337.862129 203.166118 
z
" clip-path="url(#p0fedd2d0db)" style="fill: #ff0000; opacity: 0.9"/>
   </g>
   <g id="patch_48">
    <path d="M 341.65382 266.112 
L 345.44551 266.112 
L 345.44551 205.650824 
L 341.65382 205.650824 
z
" clip-path="url(#p0fedd2d0db)" style="fill: #ff0000; opacity: 0.9"/>
   </g>
   <g id="patch_49">
    <path d="M 345.44551 266.112 
L 349.237201 266.112 
L 349.237201 207.307294 
L 345.44551 207.307294 
z
" clip-path="url(#p0fedd2d0db)" style="fill: #ff0000; opacity: 0.9"/>
   </g>
   <g id="patch_50">
    <path d="M 349.237201 266.112 
L 353.028892 266.112 
L 353.028892 208.135529 
L 349.237201 208.135529 
z
" clip-path="url(#p0fedd2d0db)" style="fill: #ff0000; opacity: 0.9"/>
   </g>
   <g id="patch_51">
    <path d="M 353.028892 266.112 
L 356.820582 266.112 
L 356.820582 206.479059 
L 353.028892 206.479059 
z
" clip-path="url(#p0fedd2d0db)" style="fill: #ff0000; opacity: 0.9"/>
   </g>
   <g id="patch_52">
    <path d="M 356.820582 266.112 
L 360.612273 266.112 
L 360.612273 12.672 
L 356.820582 12.672 
z
" clip-path="url(#p0fedd2d0db)" style="fill: #ff0000; opacity: 0.9"/>
   </g>
   <g id="patch_53">
    <path d="M 35.957727 266.112 
L 48.943909 266.112 
L 48.943909 261.033629 
L 35.957727 261.033629 
z
" clip-path="url(#p0fedd2d0db)" style="fill: #008000; opacity: 0.5"/>
   </g>
   <g id="patch_54">
    <path d="M 48.943909 266.112 
L 61.930091 266.112 
L 61.930091 263.451901 
L 48.943909 263.451901 
z
" clip-path="url(#p0fedd2d0db)" style="fill: #008000; opacity: 0.5"/>
   </g>
   <g id="patch_55">
    <path d="M 61.930091 266.112 
L 74.916273 266.112 
L 74.916273 262.968246 
L 61.930091 262.968246 
z
" clip-path="url(#p0fedd2d0db)" style="fill: #008000; opacity: 0.5"/>
   </g>
   <g id="patch_56">
    <path d="M 74.916273 266.112 
L 87.902455 266.112 
L 87.902455 262.726419 
L 74.916273 262.726419 
z
" clip-path="url(#p0fedd2d0db)" style="fill: #008000; opacity: 0.5"/>
   </g>
   <g id="patch_57">
    <path d="M 87.902455 266.112 
L 100.888636 266.112 
L 100.888636 261.275456 
L 87.902455 261.275456 
z
" clip-path="url(#p0fedd2d0db)" style="fill: #008000; opacity: 0.5"/>
   </g>
   <g id="patch_58">
    <path d="M 100.888636 266.112 
L 113.874818 266.112 
L 113.874818 257.889875 
L 100.888636 257.889875 
z
" clip-path="url(#p0fedd2d0db)" style="fill: #008000; opacity: 0.5"/>
   </g>
   <g id="patch_59">
    <path d="M 113.874818 266.112 
L 126.861 266.112 
L 126.861 254.02064 
L 113.874818 254.02064 
z
" clip-path="url(#p0fedd2d0db)" style="fill: #008000; opacity: 0.5"/>
   </g>
   <g id="patch_60">
    <path d="M 126.861 266.112 
L 139.847182 266.112 
L 139.847182 254.02064 
L 126.861 254.02064 
z
" clip-path="url(#p0fedd2d0db)" style="fill: #008000; opacity: 0.5"/>
   </g>
   <g id="patch_61">
    <path d="M 139.847182 266.112 
L 152.833364 266.112 
L 152.833364 256.438912 
L 139.847182 256.438912 
z
" clip-path="url(#p0fedd2d0db)" style="fill: #008000; opacity: 0.5"/>
   </g>
   <g id="patch_62">
    <path d="M 152.833364 266.112 
L 165.819545 266.112 
L 165.819545 250.635059 
L 152.833364 250.635059 
z
" clip-path="url(#p0fedd2d0db)" style="fill: #008000; opacity: 0.5"/>
   </g>
   <g id="patch_63">
    <path d="M 165.819545 266.112 
L 178.805727 266.112 
L 178.805727 252.569677 
L 165.819545 252.569677 
z
" clip-path="url(#p0fedd2d0db)" style="fill: #008000; opacity: 0.5"/>
   </g>
   <g id="patch_64">
    <path d="M 178.805727 266.112 
L 191.791909 266.112 
L 191.791909 248.216787 
L 178.805727 248.216787 
z
" clip-path="url(#p0fedd2d0db)" style="fill: #008000; opacity: 0.5"/>
   </g>
   <g id="patch_65">
    <path d="M 191.791909 266.112 
L 204.778091 266.112 
L 204.778091 247.97496 
L 191.791909 247.97496 
z
" clip-path="url(#p0fedd2d0db)" style="fill: #008000; opacity: 0.5"/>
   </g>
   <g id="patch_66">
    <path d="M 204.778091 266.112 
L 217.764273 266.112 
L 217.764273 252.086022 
L 204.778091 252.086022 
z
" clip-path="url(#p0fedd2d0db)" style="fill: #008000; opacity: 0.5"/>
   </g>
   <g id="patch_67">
    <path d="M 217.764273 266.112 
L 230.750455 266.112 
L 230.750455 248.700442 
L 217.764273 248.700442 
z
" clip-path="url(#p0fedd2d0db)" style="fill: #008000; opacity: 0.5"/>
   </g>
   <g id="patch_68">
    <path d="M 230.750455 266.112 
L 243.736636 266.112 
L 243.736636 250.635059 
L 230.750455 250.635059 
z
" clip-path="url(#p0fedd2d0db)" style="fill: #008000; opacity: 0.5"/>
   </g>
   <g id="patch_69">
    <path d="M 243.736636 266.112 
L 256.722818 266.112 
L 256.722818 252.569677 
L 243.736636 252.569677 
z
" clip-path="url(#p0fedd2d0db)" style="fill: #008000; opacity: 0.5"/>
   </g>
   <g id="patch_70">
    <path d="M 256.722818 266.112 
L 269.709 266.112 
L 269.709 254.02064 
L 256.722818 254.02064 
z
" clip-path="url(#p0fedd2d0db)" style="fill: #008000; opacity: 0.5"/>
   </g>
   <g id="patch_71">
    <path d="M 269.709 266.112 
L 282.695182 266.112 
L 282.695182 257.406221 
L 269.709 257.406221 
z
" clip-path="url(#p0fedd2d0db)" style="fill: #008000; opacity: 0.5"/>
   </g>
   <g id="patch_72">
    <path d="M 282.695182 266.112 
L 295.681364 266.112 
L 295.681364 256.438912 
L 282.695182 256.438912 
z
" clip-path="url(#p0fedd2d0db)" style="fill: #008000; opacity: 0.5"/>
   </g>
   <g id="patch_73">
    <path d="M 295.681364 266.112 
L 308.667545 266.112 
L 308.667545 260.549974 
L 295.681364 260.549974 
z
" clip-path="url(#p0fedd2d0db)" style="fill: #008000; opacity: 0.5"/>
   </g>
   <g id="patch_74">
    <path d="M 308.667545 266.112 
L 321.653727 266.112 
L 321.653727 260.06632 
L 308.667545 260.06632 
z
" clip-path="url(#p0fedd2d0db)" style="fill: #008000; opacity: 0.5"/>
   </g>
   <g id="patch_75">
    <path d="M 321.653727 266.112 
L 334.639909 266.112 
L 334.639909 260.791802 
L 321.653727 260.791802 
z
" clip-path="url(#p0fedd2d0db)" style="fill: #008000; opacity: 0.5"/>
   </g>
   <g id="patch_76">
    <path d="M 334.639909 266.112 
L 347.626091 266.112 
L 347.626091 264.41921 
L 334.639909 264.41921 
z
" clip-path="url(#p0fedd2d0db)" style="fill: #008000; opacity: 0.5"/>
   </g>
   <g id="patch_77">
    <path d="M 347.626091 266.112 
L 360.612273 266.112 
L 360.612273 260.06632 
L 347.626091 260.06632 
z
" clip-path="url(#p0fedd2d0db)" style="fill: #008000; opacity: 0.5"/>
   </g>
   <g id="matplotlib.axis_1">
    <g id="xtick_1">
     <g id="line2d_1">
      <defs>
       <path id="m44ac832e14" d="M 0 0 
L 0 3.5 
" style="stroke: #000000; stroke-width: 0.8"/>
      </defs>
      <g>
       <use xlink:href="#m44ac832e14" x="35.957727" y="266.112" style="stroke: #000000; stroke-width: 0.8"/>
      </g>
     </g>
     <g id="text_1">
      <!-- −1.00 -->
      <g transform="translate(20.635071 280.710438)scale(0.1 -0.1)">
       <defs>
        <path id="DejaVuSans-2212" d="M 678 2272 
L 4684 2272 
L 4684 1741 
L 678 1741 
L 678 2272 
z
" transform="scale(0.015625)"/>
        <path id="DejaVuSans-31" d="M 794 531 
L 1825 531 
L 1825 4091 
L 703 3866 
L 703 4441 
L 1819 4666 
L 2450 4666 
L 2450 531 
L 3481 531 
L 3481 0 
L 794 0 
L 794 531 
z
" transform="scale(0.015625)"/>
        <path id="DejaVuSans-2e" d="M 684 794 
L 1344 794 
L 1344 0 
L 684 0 
L 684 794 
z
" transform="scale(0.015625)"/>
        <path id="DejaVuSans-30" d="M 2034 4250 
Q 1547 4250 1301 3770 
Q 1056 3291 1056 2328 
Q 1056 1369 1301 889 
Q 1547 409 2034 409 
Q 2525 409 2770 889 
Q 3016 1369 3016 2328 
Q 3016 3291 2770 3770 
Q 2525 4250 2034 4250 
z
M 2034 4750 
Q 2819 4750 3233 4129 
Q 3647 3509 3647 2328 
Q 3647 1150 3233 529 
Q 2819 -91 2034 -91 
Q 1250 -91 836 529 
Q 422 1150 422 2328 
Q 422 3509 836 4129 
Q 1250 4750 2034 4750 
z
" transform="scale(0.015625)"/>
       </defs>
       <use xlink:href="#DejaVuSans-2212"/>
       <use xlink:href="#DejaVuSans-31" x="83.789062"/>
       <use xlink:href="#DejaVuSans-2e" x="147.412109"/>
       <use xlink:href="#DejaVuSans-30" x="179.199219"/>
       <use xlink:href="#DejaVuSans-30" x="242.822266"/>
      </g>
     </g>
    </g>
    <g id="xtick_2">
     <g id="line2d_2">
      <g>
       <use xlink:href="#m44ac832e14" x="76.539545" y="266.112" style="stroke: #000000; stroke-width: 0.8"/>
      </g>
     </g>
     <g id="text_2">
      <!-- −0.75 -->
      <g transform="translate(61.216889 280.710438)scale(0.1 -0.1)">
       <defs>
        <path id="DejaVuSans-37" d="M 525 4666 
L 3525 4666 
L 3525 4397 
L 1831 0 
L 1172 0 
L 2766 4134 
L 525 4134 
L 525 4666 
z
" transform="scale(0.015625)"/>
        <path id="DejaVuSans-35" d="M 691 4666 
L 3169 4666 
L 3169 4134 
L 1269 4134 
L 1269 2991 
Q 1406 3038 1543 3061 
Q 1681 3084 1819 3084 
Q 2600 3084 3056 2656 
Q 3513 2228 3513 1497 
Q 3513 744 3044 326 
Q 2575 -91 1722 -91 
Q 1428 -91 1123 -41 
Q 819 9 494 109 
L 494 744 
Q 775 591 1075 516 
Q 1375 441 1709 441 
Q 2250 441 2565 725 
Q 2881 1009 2881 1497 
Q 2881 1984 2565 2268 
Q 2250 2553 1709 2553 
Q 1456 2553 1204 2497 
Q 953 2441 691 2322 
L 691 4666 
z
" transform="scale(0.015625)"/>
       </defs>
       <use xlink:href="#DejaVuSans-2212"/>
       <use xlink:href="#DejaVuSans-30" x="83.789062"/>
       <use xlink:href="#DejaVuSans-2e" x="147.412109"/>
       <use xlink:href="#DejaVuSans-37" x="179.199219"/>
       <use xlink:href="#DejaVuSans-35" x="242.822266"/>
      </g>
     </g>
    </g>
    <g id="xtick_3">
     <g id="line2d_3">
      <g>
       <use xlink:href="#m44ac832e14" x="117.121364" y="266.112" style="stroke: #000000; stroke-width: 0.8"/>
      </g>
     </g>
     <g id="text_3">
      <!-- −0.50 -->
      <g transform="translate(101.798707 280.710438)scale(0.1 -0.1)">
       <use xlink:href="#DejaVuSans-2212"/>
       <use xlink:href="#DejaVuSans-30" x="83.789062"/>
       <use xlink:href="#DejaVuSans-2e" x="147.412109"/>
       <use xlink:href="#DejaVuSans-35" x="179.199219"/>
       <use xlink:href="#DejaVuSans-30" x="242.822266"/>
      </g>
     </g>
    </g>
    <g id="xtick_4">
     <g id="line2d_4">
      <g>
       <use xlink:href="#m44ac832e14" x="157.703182" y="266.112" style="stroke: #000000; stroke-width: 0.8"/>
      </g>
     </g>
     <g id="text_4">
      <!-- −0.25 -->
      <g transform="translate(142.380526 280.710438)scale(0.1 -0.1)">
       <defs>
        <path id="DejaVuSans-32" d="M 1228 531 
L 3431 531 
L 3431 0 
L 469 0 
L 469 531 
Q 828 903 1448 1529 
Q 2069 2156 2228 2338 
Q 2531 2678 2651 2914 
Q 2772 3150 2772 3378 
Q 2772 3750 2511 3984 
Q 2250 4219 1831 4219 
Q 1534 4219 1204 4116 
Q 875 4013 500 3803 
L 500 4441 
Q 881 4594 1212 4672 
Q 1544 4750 1819 4750 
Q 2544 4750 2975 4387 
Q 3406 4025 3406 3419 
Q 3406 3131 3298 2873 
Q 3191 2616 2906 2266 
Q 2828 2175 2409 1742 
Q 1991 1309 1228 531 
z
" transform="scale(0.015625)"/>
       </defs>
       <use xlink:href="#DejaVuSans-2212"/>
       <use xlink:href="#DejaVuSans-30" x="83.789062"/>
       <use xlink:href="#DejaVuSans-2e" x="147.412109"/>
       <use xlink:href="#DejaVuSans-32" x="179.199219"/>
       <use xlink:href="#DejaVuSans-35" x="242.822266"/>
      </g>
     </g>
    </g>
    <g id="xtick_5">
     <g id="line2d_5">
      <g>
       <use xlink:href="#m44ac832e14" x="198.285" y="266.112" style="stroke: #000000; stroke-width: 0.8"/>
      </g>
     </g>
     <g id="text_5">
      <!-- 0.00 -->
      <g transform="translate(187.152187 280.710438)scale(0.1 -0.1)">
       <use xlink:href="#DejaVuSans-30"/>
       <use xlink:href="#DejaVuSans-2e" x="63.623047"/>
       <use xlink:href="#DejaVuSans-30" x="95.410156"/>
       <use xlink:href="#DejaVuSans-30" x="159.033203"/>
      </g>
     </g>
    </g>
    <g id="xtick_6">
     <g id="line2d_6">
      <g>
       <use xlink:href="#m44ac832e14" x="238.866818" y="266.112" style="stroke: #000000; stroke-width: 0.8"/>
      </g>
     </g>
     <g id="text_6">
      <!-- 0.25 -->
      <g transform="translate(227.734006 280.710438)scale(0.1 -0.1)">
       <use xlink:href="#DejaVuSans-30"/>
       <use xlink:href="#DejaVuSans-2e" x="63.623047"/>
       <use xlink:href="#DejaVuSans-32" x="95.410156"/>
       <use xlink:href="#DejaVuSans-35" x="159.033203"/>
      </g>
     </g>
    </g>
    <g id="xtick_7">
     <g id="line2d_7">
      <g>
       <use xlink:href="#m44ac832e14" x="279.448636" y="266.112" style="stroke: #000000; stroke-width: 0.8"/>
      </g>
     </g>
     <g id="text_7">
      <!-- 0.50 -->
      <g transform="translate(268.315824 280.710438)scale(0.1 -0.1)">
       <use xlink:href="#DejaVuSans-30"/>
       <use xlink:href="#DejaVuSans-2e" x="63.623047"/>
       <use xlink:href="#DejaVuSans-35" x="95.410156"/>
       <use xlink:href="#DejaVuSans-30" x="159.033203"/>
      </g>
     </g>
    </g>
    <g id="xtick_8">
     <g id="line2d_8">
      <g>
       <use xlink:href="#m44ac832e14" x="320.030455" y="266.112" style="stroke: #000000; stroke-width: 0.8"/>
      </g>
     </g>
     <g id="text_8">
      <!-- 0.75 -->
      <g transform="translate(308.897642 280.710438)scale(0.1 -0.1)">
       <use xlink:href="#DejaVuSans-30"/>
       <use xlink:href="#DejaVuSans-2e" x="63.623047"/>
       <use xlink:href="#DejaVuSans-37" x="95.410156"/>
       <use xlink:href="#DejaVuSans-35" x="159.033203"/>
      </g>
     </g>
    </g>
    <g id="xtick_9">
     <g id="line2d_9">
      <g>
       <use xlink:href="#m44ac832e14" x="360.612273" y="266.112" style="stroke: #000000; stroke-width: 0.8"/>
      </g>
     </g>
     <g id="text_9">
      <!-- 1.00 -->
      <g transform="translate(349.47946 280.710438)scale(0.1 -0.1)">
       <use xlink:href="#DejaVuSans-31"/>
       <use xlink:href="#DejaVuSans-2e" x="63.623047"/>
       <use xlink:href="#DejaVuSans-30" x="95.410156"/>
       <use xlink:href="#DejaVuSans-30" x="159.033203"/>
      </g>
     </g>
    </g>
   </g>
   <g id="matplotlib.axis_2">
    <g id="ytick_1">
     <g id="line2d_10">
      <defs>
       <path id="m42c60faa43" d="M 0 0 
L -3.5 0 
" style="stroke: #000000; stroke-width: 0.8"/>
      </defs>
      <g>
       <use xlink:href="#m42c60faa43" x="19.725" y="266.112" style="stroke: #000000; stroke-width: 0.8"/>
      </g>
     </g>
     <g id="text_10">
      <!-- 0 -->
      <g transform="translate(6.3625 269.911219)scale(0.1 -0.1)">
       <use xlink:href="#DejaVuSans-30"/>
      </g>
     </g>
    </g>
    <g id="ytick_2">
     <g id="line2d_11">
      <g>
       <use xlink:href="#m42c60faa43" x="19.725" y="227.419648" style="stroke: #000000; stroke-width: 0.8"/>
      </g>
     </g>
     <g id="text_11">
      <!-- 2 -->
      <g transform="translate(6.3625 231.218867)scale(0.1 -0.1)">
       <use xlink:href="#DejaVuSans-32"/>
      </g>
     </g>
    </g>
    <g id="ytick_3">
     <g id="line2d_12">
      <g>
       <use xlink:href="#m42c60faa43" x="19.725" y="188.727296" style="stroke: #000000; stroke-width: 0.8"/>
      </g>
     </g>
     <g id="text_12">
      <!-- 4 -->
      <g transform="translate(6.3625 192.526515)scale(0.1 -0.1)">
       <defs>
        <path id="DejaVuSans-34" d="M 2419 4116 
L 825 1625 
L 2419 1625 
L 2419 4116 
z
M 2253 4666 
L 3047 4666 
L 3047 1625 
L 3713 1625 
L 3713 1100 
L 3047 1100 
L 3047 0 
L 2419 0 
L 2419 1100 
L 313 1100 
L 313 1709 
L 2253 4666 
z
" transform="scale(0.015625)"/>
       </defs>
       <use xlink:href="#DejaVuSans-34"/>
      </g>
     </g>
    </g>
    <g id="ytick_4">
     <g id="line2d_13">
      <g>
       <use xlink:href="#m42c60faa43" x="19.725" y="150.034944" style="stroke: #000000; stroke-width: 0.8"/>
      </g>
     </g>
     <g id="text_13">
      <!-- 6 -->
      <g transform="translate(6.3625 153.834163)scale(0.1 -0.1)">
       <defs>
        <path id="DejaVuSans-36" d="M 2113 2584 
Q 1688 2584 1439 2293 
Q 1191 2003 1191 1497 
Q 1191 994 1439 701 
Q 1688 409 2113 409 
Q 2538 409 2786 701 
Q 3034 994 3034 1497 
Q 3034 2003 2786 2293 
Q 2538 2584 2113 2584 
z
M 3366 4563 
L 3366 3988 
Q 3128 4100 2886 4159 
Q 2644 4219 2406 4219 
Q 1781 4219 1451 3797 
Q 1122 3375 1075 2522 
Q 1259 2794 1537 2939 
Q 1816 3084 2150 3084 
Q 2853 3084 3261 2657 
Q 3669 2231 3669 1497 
Q 3669 778 3244 343 
Q 2819 -91 2113 -91 
Q 1303 -91 875 529 
Q 447 1150 447 2328 
Q 447 3434 972 4092 
Q 1497 4750 2381 4750 
Q 2619 4750 2861 4703 
Q 3103 4656 3366 4563 
z
" transform="scale(0.015625)"/>
       </defs>
       <use xlink:href="#DejaVuSans-36"/>
      </g>
     </g>
    </g>
    <g id="ytick_5">
     <g id="line2d_14">
      <g>
       <use xlink:href="#m42c60faa43" x="19.725" y="111.342593" style="stroke: #000000; stroke-width: 0.8"/>
      </g>
     </g>
     <g id="text_14">
      <!-- 8 -->
      <g transform="translate(6.3625 115.141811)scale(0.1 -0.1)">
       <defs>
        <path id="DejaVuSans-38" d="M 2034 2216 
Q 1584 2216 1326 1975 
Q 1069 1734 1069 1313 
Q 1069 891 1326 650 
Q 1584 409 2034 409 
Q 2484 409 2743 651 
Q 3003 894 3003 1313 
Q 3003 1734 2745 1975 
Q 2488 2216 2034 2216 
z
M 1403 2484 
Q 997 2584 770 2862 
Q 544 3141 544 3541 
Q 544 4100 942 4425 
Q 1341 4750 2034 4750 
Q 2731 4750 3128 4425 
Q 3525 4100 3525 3541 
Q 3525 3141 3298 2862 
Q 3072 2584 2669 2484 
Q 3125 2378 3379 2068 
Q 3634 1759 3634 1313 
Q 3634 634 3220 271 
Q 2806 -91 2034 -91 
Q 1263 -91 848 271 
Q 434 634 434 1313 
Q 434 1759 690 2068 
Q 947 2378 1403 2484 
z
M 1172 3481 
Q 1172 3119 1398 2916 
Q 1625 2713 2034 2713 
Q 2441 2713 2670 2916 
Q 2900 3119 2900 3481 
Q 2900 3844 2670 4047 
Q 2441 4250 2034 4250 
Q 1625 4250 1398 4047 
Q 1172 3844 1172 3481 
z
" transform="scale(0.015625)"/>
       </defs>
       <use xlink:href="#DejaVuSans-38"/>
      </g>
     </g>
    </g>
    <g id="ytick_6">
     <g id="line2d_15">
      <g>
       <use xlink:href="#m42c60faa43" x="19.725" y="72.650241" style="stroke: #000000; stroke-width: 0.8"/>
      </g>
     </g>
     <g id="text_15">
      <!-- 10 -->
      <g transform="translate(0 76.449459)scale(0.1 -0.1)">
       <use xlink:href="#DejaVuSans-31"/>
       <use xlink:href="#DejaVuSans-30" x="63.623047"/>
      </g>
     </g>
    </g>
    <g id="ytick_7">
     <g id="line2d_16">
      <g>
       <use xlink:href="#m42c60faa43" x="19.725" y="33.957889" style="stroke: #000000; stroke-width: 0.8"/>
      </g>
     </g>
     <g id="text_16">
      <!-- 12 -->
      <g transform="translate(0 37.757108)scale(0.1 -0.1)">
       <use xlink:href="#DejaVuSans-31"/>
       <use xlink:href="#DejaVuSans-32" x="63.623047"/>
      </g>
     </g>
    </g>
   </g>
   <g id="patch_78">
    <path d="M 19.725 266.112 
L 19.725 0 
" style="fill: none; stroke: #000000; stroke-width: 0.8; stroke-linejoin: miter; stroke-linecap: square"/>
   </g>
   <g id="patch_79">
    <path d="M 376.845 266.112 
L 376.845 0 
" style="fill: none; stroke: #000000; stroke-width: 0.8; stroke-linejoin: miter; stroke-linecap: square"/>
   </g>
   <g id="patch_80">
    <path d="M 19.725 266.112 
L 376.845 266.112 
" style="fill: none; stroke: #000000; stroke-width: 0.8; stroke-linejoin: miter; stroke-linecap: square"/>
   </g>
   <g id="patch_81">
    <path d="M 19.725 0 
L 376.845 0 
" style="fill: none; stroke: #000000; stroke-width: 0.8; stroke-linejoin: miter; stroke-linecap: square"/>
   </g>
   <g id="legend_1">
    <g id="patch_82">
     <path d="M 26.725 52.034375 
L 132.510938 52.034375 
Q 134.510938 52.034375 134.510938 50.034375 
L 134.510938 7 
Q 134.510938 5 132.510938 5 
L 26.725 5 
Q 24.725 5 24.725 7 
L 24.725 50.034375 
Q 24.725 52.034375 26.725 52.034375 
z
" style="fill: #ffffff; opacity: 0.8; stroke: #cccccc; stroke-linejoin: miter"/>
    </g>
    <g id="patch_83">
     <path d="M 28.725 16.598438 
L 48.725 16.598438 
L 48.725 9.598438 
L 28.725 9.598438 
z
" style="fill: #0000ff; opacity: 0.7"/>
    </g>
    <g id="text_17">
     <!-- tanh -->
     <g transform="translate(56.725 16.598438)scale(0.1 -0.1)">
      <defs>
       <path id="DejaVuSans-74" d="M 1172 4494 
L 1172 3500 
L 2356 3500 
L 2356 3053 
L 1172 3053 
L 1172 1153 
Q 1172 725 1289 603 
Q 1406 481 1766 481 
L 2356 481 
L 2356 0 
L 1766 0 
Q 1100 0 847 248 
Q 594 497 594 1153 
L 594 3053 
L 172 3053 
L 172 3500 
L 594 3500 
L 594 4494 
L 1172 4494 
z
" transform="scale(0.015625)"/>
       <path id="DejaVuSans-61" d="M 2194 1759 
Q 1497 1759 1228 1600 
Q 959 1441 959 1056 
Q 959 750 1161 570 
Q 1363 391 1709 391 
Q 2188 391 2477 730 
Q 2766 1069 2766 1631 
L 2766 1759 
L 2194 1759 
z
M 3341 1997 
L 3341 0 
L 2766 0 
L 2766 531 
Q 2569 213 2275 61 
Q 1981 -91 1556 -91 
Q 1019 -91 701 211 
Q 384 513 384 1019 
Q 384 1609 779 1909 
Q 1175 2209 1959 2209 
L 2766 2209 
L 2766 2266 
Q 2766 2663 2505 2880 
Q 2244 3097 1772 3097 
Q 1472 3097 1187 3025 
Q 903 2953 641 2809 
L 641 3341 
Q 956 3463 1253 3523 
Q 1550 3584 1831 3584 
Q 2591 3584 2966 3190 
Q 3341 2797 3341 1997 
z
" transform="scale(0.015625)"/>
       <path id="DejaVuSans-6e" d="M 3513 2113 
L 3513 0 
L 2938 0 
L 2938 2094 
Q 2938 2591 2744 2837 
Q 2550 3084 2163 3084 
Q 1697 3084 1428 2787 
Q 1159 2491 1159 1978 
L 1159 0 
L 581 0 
L 581 3500 
L 1159 3500 
L 1159 2956 
Q 1366 3272 1645 3428 
Q 1925 3584 2291 3584 
Q 2894 3584 3203 3211 
Q 3513 2838 3513 2113 
z
" transform="scale(0.015625)"/>
       <path id="DejaVuSans-68" d="M 3513 2113 
L 3513 0 
L 2938 0 
L 2938 2094 
Q 2938 2591 2744 2837 
Q 2550 3084 2163 3084 
Q 1697 3084 1428 2787 
Q 1159 2491 1159 1978 
L 1159 0 
L 581 0 
L 581 4863 
L 1159 4863 
L 1159 2956 
Q 1366 3272 1645 3428 
Q 1925 3584 2291 3584 
Q 2894 3584 3203 3211 
Q 3513 2838 3513 2113 
z
" transform="scale(0.015625)"/>
      </defs>
      <use xlink:href="#DejaVuSans-74"/>
      <use xlink:href="#DejaVuSans-61" x="39.208984"/>
      <use xlink:href="#DejaVuSans-6e" x="100.488281"/>
      <use xlink:href="#DejaVuSans-68" x="163.867188"/>
     </g>
    </g>
    <g id="patch_84">
     <path d="M 28.725 31.276563 
L 48.725 31.276563 
L 48.725 24.276563 
L 28.725 24.276563 
z
" style="fill: #ff0000; opacity: 0.9"/>
    </g>
    <g id="text_18">
     <!-- 1st Derivative -->
     <g transform="translate(56.725 31.276563)scale(0.1 -0.1)">
      <defs>
       <path id="DejaVuSans-73" d="M 2834 3397 
L 2834 2853 
Q 2591 2978 2328 3040 
Q 2066 3103 1784 3103 
Q 1356 3103 1142 2972 
Q 928 2841 928 2578 
Q 928 2378 1081 2264 
Q 1234 2150 1697 2047 
L 1894 2003 
Q 2506 1872 2764 1633 
Q 3022 1394 3022 966 
Q 3022 478 2636 193 
Q 2250 -91 1575 -91 
Q 1294 -91 989 -36 
Q 684 19 347 128 
L 347 722 
Q 666 556 975 473 
Q 1284 391 1588 391 
Q 1994 391 2212 530 
Q 2431 669 2431 922 
Q 2431 1156 2273 1281 
Q 2116 1406 1581 1522 
L 1381 1569 
Q 847 1681 609 1914 
Q 372 2147 372 2553 
Q 372 3047 722 3315 
Q 1072 3584 1716 3584 
Q 2034 3584 2315 3537 
Q 2597 3491 2834 3397 
z
" transform="scale(0.015625)"/>
       <path id="DejaVuSans-20" transform="scale(0.015625)"/>
       <path id="DejaVuSans-44" d="M 1259 4147 
L 1259 519 
L 2022 519 
Q 2988 519 3436 956 
Q 3884 1394 3884 2338 
Q 3884 3275 3436 3711 
Q 2988 4147 2022 4147 
L 1259 4147 
z
M 628 4666 
L 1925 4666 
Q 3281 4666 3915 4102 
Q 4550 3538 4550 2338 
Q 4550 1131 3912 565 
Q 3275 0 1925 0 
L 628 0 
L 628 4666 
z
" transform="scale(0.015625)"/>
       <path id="DejaVuSans-65" d="M 3597 1894 
L 3597 1613 
L 953 1613 
Q 991 1019 1311 708 
Q 1631 397 2203 397 
Q 2534 397 2845 478 
Q 3156 559 3463 722 
L 3463 178 
Q 3153 47 2828 -22 
Q 2503 -91 2169 -91 
Q 1331 -91 842 396 
Q 353 884 353 1716 
Q 353 2575 817 3079 
Q 1281 3584 2069 3584 
Q 2775 3584 3186 3129 
Q 3597 2675 3597 1894 
z
M 3022 2063 
Q 3016 2534 2758 2815 
Q 2500 3097 2075 3097 
Q 1594 3097 1305 2825 
Q 1016 2553 972 2059 
L 3022 2063 
z
" transform="scale(0.015625)"/>
       <path id="DejaVuSans-72" d="M 2631 2963 
Q 2534 3019 2420 3045 
Q 2306 3072 2169 3072 
Q 1681 3072 1420 2755 
Q 1159 2438 1159 1844 
L 1159 0 
L 581 0 
L 581 3500 
L 1159 3500 
L 1159 2956 
Q 1341 3275 1631 3429 
Q 1922 3584 2338 3584 
Q 2397 3584 2469 3576 
Q 2541 3569 2628 3553 
L 2631 2963 
z
" transform="scale(0.015625)"/>
       <path id="DejaVuSans-69" d="M 603 3500 
L 1178 3500 
L 1178 0 
L 603 0 
L 603 3500 
z
M 603 4863 
L 1178 4863 
L 1178 4134 
L 603 4134 
L 603 4863 
z
" transform="scale(0.015625)"/>
       <path id="DejaVuSans-76" d="M 191 3500 
L 800 3500 
L 1894 563 
L 2988 3500 
L 3597 3500 
L 2284 0 
L 1503 0 
L 191 3500 
z
" transform="scale(0.015625)"/>
      </defs>
      <use xlink:href="#DejaVuSans-31"/>
      <use xlink:href="#DejaVuSans-73" x="63.623047"/>
      <use xlink:href="#DejaVuSans-74" x="115.722656"/>
      <use xlink:href="#DejaVuSans-20" x="154.931641"/>
      <use xlink:href="#DejaVuSans-44" x="186.71875"/>
      <use xlink:href="#DejaVuSans-65" x="263.720703"/>
      <use xlink:href="#DejaVuSans-72" x="325.244141"/>
      <use xlink:href="#DejaVuSans-69" x="366.357422"/>
      <use xlink:href="#DejaVuSans-76" x="394.140625"/>
      <use xlink:href="#DejaVuSans-61" x="453.320312"/>
      <use xlink:href="#DejaVuSans-74" x="514.599609"/>
      <use xlink:href="#DejaVuSans-69" x="553.808594"/>
      <use xlink:href="#DejaVuSans-76" x="581.591797"/>
      <use xlink:href="#DejaVuSans-65" x="640.771484"/>
     </g>
    </g>
    <g id="patch_85">
     <path d="M 28.725 45.954688 
L 48.725 45.954688 
L 48.725 38.954688 
L 28.725 38.954688 
z
" style="fill: #008000; opacity: 0.5"/>
    </g>
    <g id="text_19">
     <!-- 2nd Derivative -->
     <g transform="translate(56.725 45.954688)scale(0.1 -0.1)">
      <defs>
       <path id="DejaVuSans-64" d="M 2906 2969 
L 2906 4863 
L 3481 4863 
L 3481 0 
L 2906 0 
L 2906 525 
Q 2725 213 2448 61 
Q 2172 -91 1784 -91 
Q 1150 -91 751 415 
Q 353 922 353 1747 
Q 353 2572 751 3078 
Q 1150 3584 1784 3584 
Q 2172 3584 2448 3432 
Q 2725 3281 2906 2969 
z
M 947 1747 
Q 947 1113 1208 752 
Q 1469 391 1925 391 
Q 2381 391 2643 752 
Q 2906 1113 2906 1747 
Q 2906 2381 2643 2742 
Q 2381 3103 1925 3103 
Q 1469 3103 1208 2742 
Q 947 2381 947 1747 
z
" transform="scale(0.015625)"/>
      </defs>
      <use xlink:href="#DejaVuSans-32"/>
      <use xlink:href="#DejaVuSans-6e" x="63.623047"/>
      <use xlink:href="#DejaVuSans-64" x="127.001953"/>
      <use xlink:href="#DejaVuSans-20" x="190.478516"/>
      <use xlink:href="#DejaVuSans-44" x="222.265625"/>
      <use xlink:href="#DejaVuSans-65" x="299.267578"/>
      <use xlink:href="#DejaVuSans-72" x="360.791016"/>
      <use xlink:href="#DejaVuSans-69" x="401.904297"/>
      <use xlink:href="#DejaVuSans-76" x="429.6875"/>
      <use xlink:href="#DejaVuSans-61" x="488.867188"/>
      <use xlink:href="#DejaVuSans-74" x="550.146484"/>
      <use xlink:href="#DejaVuSans-69" x="589.355469"/>
      <use xlink:href="#DejaVuSans-76" x="617.138672"/>
      <use xlink:href="#DejaVuSans-65" x="676.318359"/>
     </g>
    </g>
   </g>
  </g>
 </g>
 <defs>
  <clipPath id="p0fedd2d0db">
   <rect x="19.725" y="0" width="357.12" height="266.112"/>
  </clipPath>
 </defs>
</svg>
