<?xml version="1.0" encoding="utf-8" standalone="no"?>
<!DOCTYPE svg PUBLIC "-//W3C//DTD SVG 1.1//EN"
  "http://www.w3.org/Graphics/SVG/1.1/DTD/svg11.dtd">
<svg xmlns:xlink="http://www.w3.org/1999/xlink" width="397.946562pt" height="282.790125pt" viewBox="0 0 397.946562 282.790125" xmlns="http://www.w3.org/2000/svg" version="1.1">
 <metadata>
  <rdf:RDF xmlns:dc="http://purl.org/dc/elements/1.1/" xmlns:cc="http://creativecommons.org/ns#" xmlns:rdf="http://www.w3.org/1999/02/22-rdf-syntax-ns#">
   <cc:Work>
    <dc:type rdf:resource="http://purl.org/dc/dcmitype/StillImage"/>
    <dc:date>2023-08-22T15:40:56.943221</dc:date>
    <dc:format>image/svg+xml</dc:format>
    <dc:creator>
     <cc:Agent>
      <dc:title>Matplotlib v3.5.2, https://matplotlib.org/</dc:title>
     </cc:Agent>
    </dc:creator>
   </cc:Work>
  </rdf:RDF>
 </metadata>
 <defs>
  <style type="text/css">*{stroke-linejoin: round; stroke-linecap: butt}</style>
 </defs>
 <g id="figure_1">
  <g id="patch_1">
   <path d="M 0 282.790125 
L 397.946562 282.790125 
L 397.946562 0 
L 0 0 
L 0 282.790125 
z
" style="fill: none"/>
  </g>
  <g id="axes_1">
   <g id="patch_2">
    <path d="M 37.645313 266.112 
L 394.765313 266.112 
L 394.765313 0 
L 37.645313 0 
L 37.645313 266.112 
z
" style="fill: none"/>
   </g>
   <g id="matplotlib.axis_1">
    <g id="xtick_1">
     <g id="line2d_1">
      <defs>
       <path id="mcaa76b1ec7" d="M 0 0 
L 0 3.5 
" style="stroke: #000000; stroke-width: 0.8"/>
      </defs>
      <g>
       <use xlink:href="#mcaa76b1ec7" x="37.645313" y="266.112" style="stroke: #000000; stroke-width: 0.8"/>
      </g>
     </g>
     <g id="text_1">
      <!-- −4 -->
      <g transform="translate(30.274219 280.710438)scale(0.1 -0.1)">
       <defs>
        <path id="DejaVuSans-2212" d="M 678 2272 
L 4684 2272 
L 4684 1741 
L 678 1741 
L 678 2272 
z
" transform="scale(0.015625)"/>
        <path id="DejaVuSans-34" d="M 2419 4116 
L 825 1625 
L 2419 1625 
L 2419 4116 
z
M 2253 4666 
L 3047 4666 
L 3047 1625 
L 3713 1625 
L 3713 1100 
L 3047 1100 
L 3047 0 
L 2419 0 
L 2419 1100 
L 313 1100 
L 313 1709 
L 2253 4666 
z
" transform="scale(0.015625)"/>
       </defs>
       <use xlink:href="#DejaVuSans-2212"/>
       <use xlink:href="#DejaVuSans-34" x="83.789062"/>
      </g>
     </g>
    </g>
    <g id="xtick_2">
     <g id="line2d_2">
      <g>
       <use xlink:href="#mcaa76b1ec7" x="82.285313" y="266.112" style="stroke: #000000; stroke-width: 0.8"/>
      </g>
     </g>
     <g id="text_2">
      <!-- −3 -->
      <g transform="translate(74.914219 280.710438)scale(0.1 -0.1)">
       <defs>
        <path id="DejaVuSans-33" d="M 2597 2516 
Q 3050 2419 3304 2112 
Q 3559 1806 3559 1356 
Q 3559 666 3084 287 
Q 2609 -91 1734 -91 
Q 1441 -91 1130 -33 
Q 819 25 488 141 
L 488 750 
Q 750 597 1062 519 
Q 1375 441 1716 441 
Q 2309 441 2620 675 
Q 2931 909 2931 1356 
Q 2931 1769 2642 2001 
Q 2353 2234 1838 2234 
L 1294 2234 
L 1294 2753 
L 1863 2753 
Q 2328 2753 2575 2939 
Q 2822 3125 2822 3475 
Q 2822 3834 2567 4026 
Q 2313 4219 1838 4219 
Q 1578 4219 1281 4162 
Q 984 4106 628 3988 
L 628 4550 
Q 988 4650 1302 4700 
Q 1616 4750 1894 4750 
Q 2613 4750 3031 4423 
Q 3450 4097 3450 3541 
Q 3450 3153 3228 2886 
Q 3006 2619 2597 2516 
z
" transform="scale(0.015625)"/>
       </defs>
       <use xlink:href="#DejaVuSans-2212"/>
       <use xlink:href="#DejaVuSans-33" x="83.789062"/>
      </g>
     </g>
    </g>
    <g id="xtick_3">
     <g id="line2d_3">
      <g>
       <use xlink:href="#mcaa76b1ec7" x="126.925313" y="266.112" style="stroke: #000000; stroke-width: 0.8"/>
      </g>
     </g>
     <g id="text_3">
      <!-- −2 -->
      <g transform="translate(119.554219 280.710438)scale(0.1 -0.1)">
       <defs>
        <path id="DejaVuSans-32" d="M 1228 531 
L 3431 531 
L 3431 0 
L 469 0 
L 469 531 
Q 828 903 1448 1529 
Q 2069 2156 2228 2338 
Q 2531 2678 2651 2914 
Q 2772 3150 2772 3378 
Q 2772 3750 2511 3984 
Q 2250 4219 1831 4219 
Q 1534 4219 1204 4116 
Q 875 4013 500 3803 
L 500 4441 
Q 881 4594 1212 4672 
Q 1544 4750 1819 4750 
Q 2544 4750 2975 4387 
Q 3406 4025 3406 3419 
Q 3406 3131 3298 2873 
Q 3191 2616 2906 2266 
Q 2828 2175 2409 1742 
Q 1991 1309 1228 531 
z
" transform="scale(0.015625)"/>
       </defs>
       <use xlink:href="#DejaVuSans-2212"/>
       <use xlink:href="#DejaVuSans-32" x="83.789062"/>
      </g>
     </g>
    </g>
    <g id="xtick_4">
     <g id="line2d_4">
      <g>
       <use xlink:href="#mcaa76b1ec7" x="171.565313" y="266.112" style="stroke: #000000; stroke-width: 0.8"/>
      </g>
     </g>
     <g id="text_4">
      <!-- −1 -->
      <g transform="translate(164.194219 280.710438)scale(0.1 -0.1)">
       <defs>
        <path id="DejaVuSans-31" d="M 794 531 
L 1825 531 
L 1825 4091 
L 703 3866 
L 703 4441 
L 1819 4666 
L 2450 4666 
L 2450 531 
L 3481 531 
L 3481 0 
L 794 0 
L 794 531 
z
" transform="scale(0.015625)"/>
       </defs>
       <use xlink:href="#DejaVuSans-2212"/>
       <use xlink:href="#DejaVuSans-31" x="83.789062"/>
      </g>
     </g>
    </g>
    <g id="xtick_5">
     <g id="line2d_5">
      <g>
       <use xlink:href="#mcaa76b1ec7" x="216.205313" y="266.112" style="stroke: #000000; stroke-width: 0.8"/>
      </g>
     </g>
     <g id="text_5">
      <!-- 0 -->
      <g transform="translate(213.024063 280.710438)scale(0.1 -0.1)">
       <defs>
        <path id="DejaVuSans-30" d="M 2034 4250 
Q 1547 4250 1301 3770 
Q 1056 3291 1056 2328 
Q 1056 1369 1301 889 
Q 1547 409 2034 409 
Q 2525 409 2770 889 
Q 3016 1369 3016 2328 
Q 3016 3291 2770 3770 
Q 2525 4250 2034 4250 
z
M 2034 4750 
Q 2819 4750 3233 4129 
Q 3647 3509 3647 2328 
Q 3647 1150 3233 529 
Q 2819 -91 2034 -91 
Q 1250 -91 836 529 
Q 422 1150 422 2328 
Q 422 3509 836 4129 
Q 1250 4750 2034 4750 
z
" transform="scale(0.015625)"/>
       </defs>
       <use xlink:href="#DejaVuSans-30"/>
      </g>
     </g>
    </g>
    <g id="xtick_6">
     <g id="line2d_6">
      <g>
       <use xlink:href="#mcaa76b1ec7" x="260.845313" y="266.112" style="stroke: #000000; stroke-width: 0.8"/>
      </g>
     </g>
     <g id="text_6">
      <!-- 1 -->
      <g transform="translate(257.664063 280.710438)scale(0.1 -0.1)">
       <use xlink:href="#DejaVuSans-31"/>
      </g>
     </g>
    </g>
    <g id="xtick_7">
     <g id="line2d_7">
      <g>
       <use xlink:href="#mcaa76b1ec7" x="305.485313" y="266.112" style="stroke: #000000; stroke-width: 0.8"/>
      </g>
     </g>
     <g id="text_7">
      <!-- 2 -->
      <g transform="translate(302.304063 280.710438)scale(0.1 -0.1)">
       <use xlink:href="#DejaVuSans-32"/>
      </g>
     </g>
    </g>
    <g id="xtick_8">
     <g id="line2d_8">
      <g>
       <use xlink:href="#mcaa76b1ec7" x="350.125313" y="266.112" style="stroke: #000000; stroke-width: 0.8"/>
      </g>
     </g>
     <g id="text_8">
      <!-- 3 -->
      <g transform="translate(346.944063 280.710438)scale(0.1 -0.1)">
       <use xlink:href="#DejaVuSans-33"/>
      </g>
     </g>
    </g>
    <g id="xtick_9">
     <g id="line2d_9">
      <g>
       <use xlink:href="#mcaa76b1ec7" x="394.765313" y="266.112" style="stroke: #000000; stroke-width: 0.8"/>
      </g>
     </g>
     <g id="text_9">
      <!-- 4 -->
      <g transform="translate(391.584063 280.710438)scale(0.1 -0.1)">
       <use xlink:href="#DejaVuSans-34"/>
      </g>
     </g>
    </g>
   </g>
   <g id="matplotlib.axis_2">
    <g id="ytick_1">
     <g id="line2d_10">
      <defs>
       <path id="mcde23c5521" d="M 0 0 
L -3.5 0 
" style="stroke: #000000; stroke-width: 0.8"/>
      </defs>
      <g>
       <use xlink:href="#mcde23c5521" x="37.645313" y="254.016" style="stroke: #000000; stroke-width: 0.8"/>
      </g>
     </g>
     <g id="text_10">
      <!-- −1.00 -->
      <g transform="translate(0 257.815219)scale(0.1 -0.1)">
       <defs>
        <path id="DejaVuSans-2e" d="M 684 794 
L 1344 794 
L 1344 0 
L 684 0 
L 684 794 
z
" transform="scale(0.015625)"/>
       </defs>
       <use xlink:href="#DejaVuSans-2212"/>
       <use xlink:href="#DejaVuSans-31" x="83.789062"/>
       <use xlink:href="#DejaVuSans-2e" x="147.412109"/>
       <use xlink:href="#DejaVuSans-30" x="179.199219"/>
       <use xlink:href="#DejaVuSans-30" x="242.822266"/>
      </g>
     </g>
    </g>
    <g id="ytick_2">
     <g id="line2d_11">
      <g>
       <use xlink:href="#mcde23c5521" x="37.645313" y="223.776" style="stroke: #000000; stroke-width: 0.8"/>
      </g>
     </g>
     <g id="text_11">
      <!-- −0.75 -->
      <g transform="translate(0 227.575219)scale(0.1 -0.1)">
       <defs>
        <path id="DejaVuSans-37" d="M 525 4666 
L 3525 4666 
L 3525 4397 
L 1831 0 
L 1172 0 
L 2766 4134 
L 525 4134 
L 525 4666 
z
" transform="scale(0.015625)"/>
        <path id="DejaVuSans-35" d="M 691 4666 
L 3169 4666 
L 3169 4134 
L 1269 4134 
L 1269 2991 
Q 1406 3038 1543 3061 
Q 1681 3084 1819 3084 
Q 2600 3084 3056 2656 
Q 3513 2228 3513 1497 
Q 3513 744 3044 326 
Q 2575 -91 1722 -91 
Q 1428 -91 1123 -41 
Q 819 9 494 109 
L 494 744 
Q 775 591 1075 516 
Q 1375 441 1709 441 
Q 2250 441 2565 725 
Q 2881 1009 2881 1497 
Q 2881 1984 2565 2268 
Q 2250 2553 1709 2553 
Q 1456 2553 1204 2497 
Q 953 2441 691 2322 
L 691 4666 
z
" transform="scale(0.015625)"/>
       </defs>
       <use xlink:href="#DejaVuSans-2212"/>
       <use xlink:href="#DejaVuSans-30" x="83.789062"/>
       <use xlink:href="#DejaVuSans-2e" x="147.412109"/>
       <use xlink:href="#DejaVuSans-37" x="179.199219"/>
       <use xlink:href="#DejaVuSans-35" x="242.822266"/>
      </g>
     </g>
    </g>
    <g id="ytick_3">
     <g id="line2d_12">
      <g>
       <use xlink:href="#mcde23c5521" x="37.645313" y="193.536" style="stroke: #000000; stroke-width: 0.8"/>
      </g>
     </g>
     <g id="text_12">
      <!-- −0.50 -->
      <g transform="translate(0 197.335219)scale(0.1 -0.1)">
       <use xlink:href="#DejaVuSans-2212"/>
       <use xlink:href="#DejaVuSans-30" x="83.789062"/>
       <use xlink:href="#DejaVuSans-2e" x="147.412109"/>
       <use xlink:href="#DejaVuSans-35" x="179.199219"/>
       <use xlink:href="#DejaVuSans-30" x="242.822266"/>
      </g>
     </g>
    </g>
    <g id="ytick_4">
     <g id="line2d_13">
      <g>
       <use xlink:href="#mcde23c5521" x="37.645313" y="163.296" style="stroke: #000000; stroke-width: 0.8"/>
      </g>
     </g>
     <g id="text_13">
      <!-- −0.25 -->
      <g transform="translate(0 167.095219)scale(0.1 -0.1)">
       <use xlink:href="#DejaVuSans-2212"/>
       <use xlink:href="#DejaVuSans-30" x="83.789062"/>
       <use xlink:href="#DejaVuSans-2e" x="147.412109"/>
       <use xlink:href="#DejaVuSans-32" x="179.199219"/>
       <use xlink:href="#DejaVuSans-35" x="242.822266"/>
      </g>
     </g>
    </g>
    <g id="ytick_5">
     <g id="line2d_14">
      <g>
       <use xlink:href="#mcde23c5521" x="37.645313" y="133.056" style="stroke: #000000; stroke-width: 0.8"/>
      </g>
     </g>
     <g id="text_14">
      <!-- 0.00 -->
      <g transform="translate(8.379688 136.855219)scale(0.1 -0.1)">
       <use xlink:href="#DejaVuSans-30"/>
       <use xlink:href="#DejaVuSans-2e" x="63.623047"/>
       <use xlink:href="#DejaVuSans-30" x="95.410156"/>
       <use xlink:href="#DejaVuSans-30" x="159.033203"/>
      </g>
     </g>
    </g>
    <g id="ytick_6">
     <g id="line2d_15">
      <g>
       <use xlink:href="#mcde23c5521" x="37.645313" y="102.816" style="stroke: #000000; stroke-width: 0.8"/>
      </g>
     </g>
     <g id="text_15">
      <!-- 0.25 -->
      <g transform="translate(8.379688 106.615219)scale(0.1 -0.1)">
       <use xlink:href="#DejaVuSans-30"/>
       <use xlink:href="#DejaVuSans-2e" x="63.623047"/>
       <use xlink:href="#DejaVuSans-32" x="95.410156"/>
       <use xlink:href="#DejaVuSans-35" x="159.033203"/>
      </g>
     </g>
    </g>
    <g id="ytick_7">
     <g id="line2d_16">
      <g>
       <use xlink:href="#mcde23c5521" x="37.645313" y="72.576" style="stroke: #000000; stroke-width: 0.8"/>
      </g>
     </g>
     <g id="text_16">
      <!-- 0.50 -->
      <g transform="translate(8.379688 76.375219)scale(0.1 -0.1)">
       <use xlink:href="#DejaVuSans-30"/>
       <use xlink:href="#DejaVuSans-2e" x="63.623047"/>
       <use xlink:href="#DejaVuSans-35" x="95.410156"/>
       <use xlink:href="#DejaVuSans-30" x="159.033203"/>
      </g>
     </g>
    </g>
    <g id="ytick_8">
     <g id="line2d_17">
      <g>
       <use xlink:href="#mcde23c5521" x="37.645313" y="42.336" style="stroke: #000000; stroke-width: 0.8"/>
      </g>
     </g>
     <g id="text_17">
      <!-- 0.75 -->
      <g transform="translate(8.379688 46.135219)scale(0.1 -0.1)">
       <use xlink:href="#DejaVuSans-30"/>
       <use xlink:href="#DejaVuSans-2e" x="63.623047"/>
       <use xlink:href="#DejaVuSans-37" x="95.410156"/>
       <use xlink:href="#DejaVuSans-35" x="159.033203"/>
      </g>
     </g>
    </g>
    <g id="ytick_9">
     <g id="line2d_18">
      <g>
       <use xlink:href="#mcde23c5521" x="37.645313" y="12.096" style="stroke: #000000; stroke-width: 0.8"/>
      </g>
     </g>
     <g id="text_18">
      <!-- 1.00 -->
      <g transform="translate(8.379688 15.895219)scale(0.1 -0.1)">
       <use xlink:href="#DejaVuSans-31"/>
       <use xlink:href="#DejaVuSans-2e" x="63.623047"/>
       <use xlink:href="#DejaVuSans-30" x="95.410156"/>
       <use xlink:href="#DejaVuSans-30" x="159.033203"/>
      </g>
     </g>
    </g>
   </g>
   <g id="line2d_19">
    <path d="M 37.645313 133.056 
L 41.252585 133.056 
L 44.859858 133.056 
L 48.467131 133.056 
L 52.074403 133.056 
L 55.681676 133.056 
L 59.288949 133.056 
L 62.896222 133.056 
L 66.503494 133.056 
L 70.110767 133.056 
L 73.71804 133.056 
L 77.325313 133.056 
L 80.932585 133.056 
L 84.539858 133.056 
L 88.147131 133.056 
L 91.754403 133.056 
L 95.361676 133.056 
L 98.968949 133.056 
L 102.576222 133.056 
L 106.183494 133.056 
L 109.790767 133.056 
L 113.39804 133.056 
L 117.005313 133.056 
L 120.612585 133.056 
L 124.219858 133.056 
L 127.827131 133.056 
L 131.434403 133.056 
L 135.041676 133.056 
L 138.648949 133.056 
L 142.256222 133.056 
L 145.863494 133.056 
L 149.470767 133.056 
L 153.07804 133.056 
L 156.685313 133.056 
L 160.292585 133.056 
L 163.899858 133.056 
L 167.507131 133.056 
L 171.114403 133.056 
L 174.721676 133.056 
L 178.328949 133.056 
L 181.936222 133.056 
L 185.543494 133.056 
L 189.150767 133.056 
L 192.75804 133.056 
L 196.365313 133.056 
L 199.972585 133.056 
L 203.579858 133.056 
L 207.187131 133.056 
L 210.794403 133.056 
L 214.401676 133.056 
L 218.008949 133.056 
L 221.616222 133.056 
L 225.223494 133.056 
L 228.830767 133.056 
L 232.43804 133.056 
L 236.045313 133.056 
L 239.652585 133.056 
L 243.259858 133.056 
L 246.867131 133.056 
L 250.474403 133.056 
L 254.081676 133.056 
L 257.688949 133.056 
L 261.296222 133.056 
L 264.903494 133.056 
L 268.510767 133.056 
L 272.11804 133.056 
L 275.725313 133.056 
L 279.332585 133.056 
L 282.939858 133.056 
L 286.547131 133.056 
L 290.154403 133.056 
L 293.761676 133.056 
L 297.368949 133.056 
L 300.976222 133.056 
L 304.583494 133.056 
L 308.190767 133.056 
L 311.79804 133.056 
L 315.405313 133.056 
L 319.012585 133.056 
L 322.619858 133.056 
L 326.227131 133.056 
L 329.834403 133.056 
L 333.441676 133.056 
L 337.048949 133.056 
L 340.656222 133.056 
L 344.263494 133.056 
L 347.870767 133.056 
L 351.47804 133.056 
L 355.085313 133.056 
L 358.692585 133.056 
L 362.299858 133.056 
L 365.907131 133.056 
L 369.514403 133.056 
L 373.121676 133.056 
L 376.728949 133.056 
L 380.336222 133.056 
L 383.943494 133.056 
L 387.550767 133.056 
L 391.15804 133.056 
L 394.765313 133.056 
" clip-path="url(#p2cd4f09b98)" style="fill: none; stroke-dasharray: 9.6,2.4,1.5,2.4; stroke-dashoffset: 0; stroke: #000000; stroke-width: 1.5"/>
   </g>
   <g id="line2d_20">
    <path d="M 216.205313 283.790125 
L 216.205313 274.786909 
L 216.205313 265.012364 
L 216.205313 255.237818 
L 216.205313 245.463273 
L 216.205313 235.688727 
L 216.205313 225.914182 
L 216.205313 216.139636 
L 216.205313 206.365091 
L 216.205313 196.590545 
L 216.205313 186.816 
L 216.205313 177.041455 
L 216.205313 167.266909 
L 216.205313 157.492364 
L 216.205313 147.717818 
L 216.205313 137.943273 
L 216.205313 128.168727 
L 216.205313 118.394182 
L 216.205313 108.619636 
L 216.205313 98.845091 
L 216.205313 89.070545 
L 216.205313 79.296 
L 216.205313 69.521455 
L 216.205313 59.746909 
L 216.205313 49.972364 
L 216.205313 40.197818 
L 216.205313 30.423273 
L 216.205313 20.648727 
L 216.205313 10.874182 
L 216.205313 1.099636 
L 216.205313 -1 
" clip-path="url(#p2cd4f09b98)" style="fill: none; stroke-dasharray: 9.6,2.4,1.5,2.4; stroke-dashoffset: 0; stroke: #000000; stroke-width: 1.5"/>
   </g>
   <g id="line2d_21">
    <path d="M 37.645313 253.934872 
L 41.252585 253.920647 
L 44.859858 253.903929 
L 48.467131 253.884282 
L 52.074403 253.861192 
L 55.681676 253.834057 
L 59.288949 253.802171 
L 62.896222 253.764703 
L 66.503494 253.720677 
L 70.110767 253.668949 
L 73.71804 253.608176 
L 77.325313 253.536781 
L 80.932585 253.452918 
L 84.539858 253.354418 
L 88.147131 253.238743 
L 91.754403 253.10292 
L 95.361676 252.943468 
L 98.968949 252.756316 
L 102.576222 252.536707 
L 106.183494 252.279088 
L 109.790767 251.976986 
L 113.39804 251.622863 
L 117.005313 251.207958 
L 120.612585 250.722109 
L 124.219858 250.153555 
L 127.827131 249.488726 
L 131.434403 248.712013 
L 135.041676 247.80553 
L 138.648949 246.748882 
L 142.256222 245.518936 
L 145.863494 244.089631 
L 149.470767 242.431831 
L 153.07804 240.513278 
L 156.685313 238.298659 
L 160.292585 235.74986 
L 163.899858 232.826454 
L 167.507131 229.486486 
L 171.114403 225.687627 
L 174.721676 221.388741 
L 178.328949 216.551917 
L 181.936222 211.144934 
L 185.543494 205.144123 
L 189.150767 198.537468 
L 192.75804 191.327723 
L 196.365313 183.535227 
L 199.972585 175.200038 
L 203.579858 166.382983 
L 207.187131 157.165269 
L 210.794403 147.646432 
L 214.401676 137.940615 
L 218.008949 128.171385 
L 221.616222 118.465568 
L 225.223494 108.946731 
L 228.830767 99.729017 
L 232.43804 90.911962 
L 236.045313 82.576773 
L 239.652585 74.784277 
L 243.259858 67.574532 
L 246.867131 60.967877 
L 250.474403 54.967066 
L 254.081676 49.560083 
L 257.688949 44.723259 
L 261.296222 40.424373 
L 264.903494 36.625514 
L 268.510767 33.285546 
L 272.11804 30.36214 
L 275.725313 27.813341 
L 279.332585 25.598722 
L 282.939858 23.680169 
L 286.547131 22.022369 
L 290.154403 20.593064 
L 293.761676 19.363118 
L 297.368949 18.30647 
L 300.976222 17.399987 
L 304.583494 16.623274 
L 308.190767 15.958445 
L 311.79804 15.389891 
L 315.405313 14.904042 
L 319.012585 14.489137 
L 322.619858 14.135014 
L 326.227131 13.832912 
L 329.834403 13.575293 
L 333.441676 13.355684 
L 337.048949 13.168532 
L 340.656222 13.00908 
L 344.263494 12.873257 
L 347.870767 12.757582 
L 351.47804 12.659082 
L 355.085313 12.575219 
L 358.692585 12.503824 
L 362.299858 12.443051 
L 365.907131 12.391323 
L 369.514403 12.347297 
L 373.121676 12.309829 
L 376.728949 12.277943 
L 380.336222 12.250808 
L 383.943494 12.227718 
L 387.550767 12.208071 
L 391.15804 12.191353 
L 394.765313 12.177128 
" clip-path="url(#p2cd4f09b98)" style="fill: none; stroke: #0000ff; stroke-width: 3; stroke-linecap: square"/>
   </g>
   <g id="line2d_22">
    <path d="M 37.645313 132.893799 
L 41.252585 132.865369 
L 44.859858 132.831962 
L 48.467131 132.792707 
L 52.074403 132.746582 
L 55.681676 132.692389 
L 59.288949 132.628721 
L 62.896222 132.553928 
L 66.503494 132.466075 
L 70.110767 132.362893 
L 73.71804 132.241726 
L 77.325313 132.099461 
L 80.932585 131.932456 
L 84.539858 131.736454 
L 88.147131 131.506481 
L 91.754403 131.236733 
L 95.361676 130.920446 
L 98.968949 130.54975 
L 102.576222 130.115505 
L 106.183494 129.607118 
L 109.790767 129.012344 
L 113.39804 128.317074 
L 117.005313 127.505104 
L 120.612585 126.557914 
L 124.219858 125.454444 
L 127.827131 124.170899 
L 131.434403 122.680601 
L 135.041676 120.953925 
L 138.648949 118.958362 
L 142.256222 116.658765 
L 145.863494 114.017852 
L 149.470767 110.997062 
L 153.07804 107.55786 
L 156.685313 103.663602 
L 160.292585 99.282085 
L 163.899858 94.388853 
L 167.507131 88.97132 
L 171.114403 83.033651 
L 174.721676 76.602227 
L 178.328949 69.731319 
L 181.936222 62.50838 
L 185.543494 55.058115 
L 189.150767 47.544269 
L 192.75804 40.168038 
L 196.365313 33.162074 
L 199.972585 26.779531 
L 203.579858 21.278274 
L 207.187131 16.901364 
L 210.794403 13.855926 
L 214.401676 12.293251 
L 218.008949 12.293251 
L 221.616222 13.855926 
L 225.223494 16.901364 
L 228.830767 21.278274 
L 232.43804 26.779531 
L 236.045313 33.162074 
L 239.652585 40.168038 
L 243.259858 47.544269 
L 246.867131 55.058115 
L 250.474403 62.50838 
L 254.081676 69.731319 
L 257.688949 76.602227 
L 261.296222 83.033651 
L 264.903494 88.97132 
L 268.510767 94.388853 
L 272.11804 99.282085 
L 275.725313 103.663602 
L 279.332585 107.55786 
L 282.939858 110.997062 
L 286.547131 114.017852 
L 290.154403 116.658765 
L 293.761676 118.958362 
L 297.368949 120.953925 
L 300.976222 122.680601 
L 304.583494 124.170899 
L 308.190767 125.454444 
L 311.79804 126.557914 
L 315.405313 127.505104 
L 319.012585 128.317074 
L 322.619858 129.012344 
L 326.227131 129.607118 
L 329.834403 130.115505 
L 333.441676 130.54975 
L 337.048949 130.920446 
L 340.656222 131.236733 
L 344.263494 131.506481 
L 347.870767 131.736454 
L 351.47804 131.932456 
L 355.085313 132.099461 
L 358.692585 132.241726 
L 362.299858 132.362893 
L 365.907131 132.466075 
L 369.514403 132.553928 
L 373.121676 132.628721 
L 376.728949 132.692389 
L 380.336222 132.746582 
L 383.943494 132.792707 
L 387.550767 132.831962 
L 391.15804 132.865369 
L 394.765313 132.893799 
" clip-path="url(#p2cd4f09b98)" style="fill: none; stroke: #ff0000; stroke-width: 3; stroke-linecap: square"/>
   </g>
   <g id="line2d_23">
    <path d="M 37.645313 132.731815 
L 41.252585 132.675039 
L 44.859858 132.608339 
L 48.467131 132.529987 
L 52.074403 132.437955 
L 55.681676 132.329871 
L 59.288949 132.202952 
L 62.896222 132.053942 
L 66.503494 131.87903 
L 70.110767 131.673764 
L 73.71804 131.432943 
L 77.325313 131.150501 
L 80.932585 130.819373 
L 84.539858 130.431343 
L 88.147131 129.976876 
L 91.754403 129.444931 
L 95.361676 128.822762 
L 98.968949 128.0957 
L 102.576222 127.246932 
L 106.183494 126.257283 
L 109.790767 125.105016 
L 113.39804 123.765662 
L 117.005313 122.211931 
L 120.612585 120.41373 
L 124.219858 118.338348 
L 127.827131 115.950899 
L 131.434403 113.215105 
L 135.041676 110.094568 
L 138.648949 106.554659 
L 142.256222 102.565239 
L 145.863494 98.104368 
L 149.470767 93.163231 
L 153.07804 87.752417 
L 156.685313 81.909603 
L 160.292585 75.708551 
L 163.899858 69.268982 
L 167.507131 62.76653 
L 171.114403 56.441391 
L 174.721676 50.603676 
L 178.328949 45.632846 
L 181.936222 41.968229 
L 185.543494 40.087728 
L 189.150767 40.472771 
L 192.75804 43.559611 
L 196.365313 49.680204 
L 199.972585 58.999791 
L 203.579858 71.461846 
L 207.187131 86.753035 
L 210.794403 104.299708 
L 214.401676 123.302701 
L 218.008949 142.809299 
L 221.616222 161.812292 
L 225.223494 179.358965 
L 228.830767 194.650154 
L 232.43804 207.112209 
L 236.045313 216.431796 
L 239.652585 222.552389 
L 243.259858 225.639229 
L 246.867131 226.024272 
L 250.474403 224.143771 
L 254.081676 220.479154 
L 257.688949 215.508324 
L 261.296222 209.670609 
L 264.903494 203.34547 
L 268.510767 196.843018 
L 272.11804 190.403449 
L 275.725313 184.202397 
L 279.332585 178.359583 
L 282.939858 172.948769 
L 286.547131 168.007632 
L 290.154403 163.546761 
L 293.761676 159.557341 
L 297.368949 156.017432 
L 300.976222 152.896895 
L 304.583494 150.161101 
L 308.190767 147.773652 
L 311.79804 145.69827 
L 315.405313 143.900069 
L 319.012585 142.346338 
L 322.619858 141.006984 
L 326.227131 139.854717 
L 329.834403 138.865068 
L 333.441676 138.0163 
L 337.048949 137.289238 
L 340.656222 136.667069 
L 344.263494 136.135124 
L 347.870767 135.680657 
L 351.47804 135.292627 
L 355.085313 134.961499 
L 358.692585 134.679057 
L 362.299858 134.438236 
L 365.907131 134.23297 
L 369.514403 134.058058 
L 373.121676 133.909048 
L 376.728949 133.782129 
L 380.336222 133.674045 
L 383.943494 133.582013 
L 387.550767 133.503661 
L 391.15804 133.436961 
L 394.765313 133.380185 
" clip-path="url(#p2cd4f09b98)" style="fill: none; stroke: #bf00bf; stroke-width: 3; stroke-linecap: square"/>
   </g>
   <g id="patch_3">
    <path d="M 37.645313 266.112 
L 37.645313 0 
" style="fill: none; stroke: #000000; stroke-width: 0.8; stroke-linejoin: miter; stroke-linecap: square"/>
   </g>
   <g id="patch_4">
    <path d="M 394.765313 266.112 
L 394.765313 0 
" style="fill: none; stroke: #000000; stroke-width: 0.8; stroke-linejoin: miter; stroke-linecap: square"/>
   </g>
   <g id="patch_5">
    <path d="M 37.645313 266.112 
L 394.765313 266.112 
" style="fill: none; stroke: #000000; stroke-width: 0.8; stroke-linejoin: miter; stroke-linecap: square"/>
   </g>
   <g id="patch_6">
    <path d="M 37.645313 0 
L 394.765313 0 
" style="fill: none; stroke: #000000; stroke-width: 0.8; stroke-linejoin: miter; stroke-linecap: square"/>
   </g>
   <g id="legend_1">
    <g id="patch_7">
     <path d="M 47.445312 72.848125 
L 195.545625 72.848125 
Q 198.345625 72.848125 198.345625 70.048125 
L 198.345625 9.8 
Q 198.345625 7 195.545625 7 
L 47.445312 7 
Q 44.645313 7 44.645313 9.8 
L 44.645313 70.048125 
Q 44.645313 72.848125 47.445312 72.848125 
z
" style="fill: #ffffff; opacity: 0.8; stroke: #cccccc; stroke-linejoin: miter"/>
    </g>
    <g id="line2d_24">
     <path d="M 50.245313 18.337813 
L 64.245313 18.337813 
L 78.245313 18.337813 
" style="fill: none; stroke: #0000ff; stroke-width: 3; stroke-linecap: square"/>
    </g>
    <g id="text_19">
     <!-- tanh -->
     <g transform="translate(89.445312 23.237813)scale(0.14 -0.14)">
      <defs>
       <path id="DejaVuSans-74" d="M 1172 4494 
L 1172 3500 
L 2356 3500 
L 2356 3053 
L 1172 3053 
L 1172 1153 
Q 1172 725 1289 603 
Q 1406 481 1766 481 
L 2356 481 
L 2356 0 
L 1766 0 
Q 1100 0 847 248 
Q 594 497 594 1153 
L 594 3053 
L 172 3053 
L 172 3500 
L 594 3500 
L 594 4494 
L 1172 4494 
z
" transform="scale(0.015625)"/>
       <path id="DejaVuSans-61" d="M 2194 1759 
Q 1497 1759 1228 1600 
Q 959 1441 959 1056 
Q 959 750 1161 570 
Q 1363 391 1709 391 
Q 2188 391 2477 730 
Q 2766 1069 2766 1631 
L 2766 1759 
L 2194 1759 
z
M 3341 1997 
L 3341 0 
L 2766 0 
L 2766 531 
Q 2569 213 2275 61 
Q 1981 -91 1556 -91 
Q 1019 -91 701 211 
Q 384 513 384 1019 
Q 384 1609 779 1909 
Q 1175 2209 1959 2209 
L 2766 2209 
L 2766 2266 
Q 2766 2663 2505 2880 
Q 2244 3097 1772 3097 
Q 1472 3097 1187 3025 
Q 903 2953 641 2809 
L 641 3341 
Q 956 3463 1253 3523 
Q 1550 3584 1831 3584 
Q 2591 3584 2966 3190 
Q 3341 2797 3341 1997 
z
" transform="scale(0.015625)"/>
       <path id="DejaVuSans-6e" d="M 3513 2113 
L 3513 0 
L 2938 0 
L 2938 2094 
Q 2938 2591 2744 2837 
Q 2550 3084 2163 3084 
Q 1697 3084 1428 2787 
Q 1159 2491 1159 1978 
L 1159 0 
L 581 0 
L 581 3500 
L 1159 3500 
L 1159 2956 
Q 1366 3272 1645 3428 
Q 1925 3584 2291 3584 
Q 2894 3584 3203 3211 
Q 3513 2838 3513 2113 
z
" transform="scale(0.015625)"/>
       <path id="DejaVuSans-68" d="M 3513 2113 
L 3513 0 
L 2938 0 
L 2938 2094 
Q 2938 2591 2744 2837 
Q 2550 3084 2163 3084 
Q 1697 3084 1428 2787 
Q 1159 2491 1159 1978 
L 1159 0 
L 581 0 
L 581 4863 
L 1159 4863 
L 1159 2956 
Q 1366 3272 1645 3428 
Q 1925 3584 2291 3584 
Q 2894 3584 3203 3211 
Q 3513 2838 3513 2113 
z
" transform="scale(0.015625)"/>
      </defs>
      <use xlink:href="#DejaVuSans-74"/>
      <use xlink:href="#DejaVuSans-61" x="39.208984"/>
      <use xlink:href="#DejaVuSans-6e" x="100.488281"/>
      <use xlink:href="#DejaVuSans-68" x="163.867188"/>
     </g>
    </g>
    <g id="line2d_25">
     <path d="M 50.245313 38.887188 
L 64.245313 38.887188 
L 78.245313 38.887188 
" style="fill: none; stroke: #ff0000; stroke-width: 3; stroke-linecap: square"/>
    </g>
    <g id="text_20">
     <!-- 1st Derivative -->
     <g transform="translate(89.445312 43.787188)scale(0.14 -0.14)">
      <defs>
       <path id="DejaVuSans-73" d="M 2834 3397 
L 2834 2853 
Q 2591 2978 2328 3040 
Q 2066 3103 1784 3103 
Q 1356 3103 1142 2972 
Q 928 2841 928 2578 
Q 928 2378 1081 2264 
Q 1234 2150 1697 2047 
L 1894 2003 
Q 2506 1872 2764 1633 
Q 3022 1394 3022 966 
Q 3022 478 2636 193 
Q 2250 -91 1575 -91 
Q 1294 -91 989 -36 
Q 684 19 347 128 
L 347 722 
Q 666 556 975 473 
Q 1284 391 1588 391 
Q 1994 391 2212 530 
Q 2431 669 2431 922 
Q 2431 1156 2273 1281 
Q 2116 1406 1581 1522 
L 1381 1569 
Q 847 1681 609 1914 
Q 372 2147 372 2553 
Q 372 3047 722 3315 
Q 1072 3584 1716 3584 
Q 2034 3584 2315 3537 
Q 2597 3491 2834 3397 
z
" transform="scale(0.015625)"/>
       <path id="DejaVuSans-20" transform="scale(0.015625)"/>
       <path id="DejaVuSans-44" d="M 1259 4147 
L 1259 519 
L 2022 519 
Q 2988 519 3436 956 
Q 3884 1394 3884 2338 
Q 3884 3275 3436 3711 
Q 2988 4147 2022 4147 
L 1259 4147 
z
M 628 4666 
L 1925 4666 
Q 3281 4666 3915 4102 
Q 4550 3538 4550 2338 
Q 4550 1131 3912 565 
Q 3275 0 1925 0 
L 628 0 
L 628 4666 
z
" transform="scale(0.015625)"/>
       <path id="DejaVuSans-65" d="M 3597 1894 
L 3597 1613 
L 953 1613 
Q 991 1019 1311 708 
Q 1631 397 2203 397 
Q 2534 397 2845 478 
Q 3156 559 3463 722 
L 3463 178 
Q 3153 47 2828 -22 
Q 2503 -91 2169 -91 
Q 1331 -91 842 396 
Q 353 884 353 1716 
Q 353 2575 817 3079 
Q 1281 3584 2069 3584 
Q 2775 3584 3186 3129 
Q 3597 2675 3597 1894 
z
M 3022 2063 
Q 3016 2534 2758 2815 
Q 2500 3097 2075 3097 
Q 1594 3097 1305 2825 
Q 1016 2553 972 2059 
L 3022 2063 
z
" transform="scale(0.015625)"/>
       <path id="DejaVuSans-72" d="M 2631 2963 
Q 2534 3019 2420 3045 
Q 2306 3072 2169 3072 
Q 1681 3072 1420 2755 
Q 1159 2438 1159 1844 
L 1159 0 
L 581 0 
L 581 3500 
L 1159 3500 
L 1159 2956 
Q 1341 3275 1631 3429 
Q 1922 3584 2338 3584 
Q 2397 3584 2469 3576 
Q 2541 3569 2628 3553 
L 2631 2963 
z
" transform="scale(0.015625)"/>
       <path id="DejaVuSans-69" d="M 603 3500 
L 1178 3500 
L 1178 0 
L 603 0 
L 603 3500 
z
M 603 4863 
L 1178 4863 
L 1178 4134 
L 603 4134 
L 603 4863 
z
" transform="scale(0.015625)"/>
       <path id="DejaVuSans-76" d="M 191 3500 
L 800 3500 
L 1894 563 
L 2988 3500 
L 3597 3500 
L 2284 0 
L 1503 0 
L 191 3500 
z
" transform="scale(0.015625)"/>
      </defs>
      <use xlink:href="#DejaVuSans-31"/>
      <use xlink:href="#DejaVuSans-73" x="63.623047"/>
      <use xlink:href="#DejaVuSans-74" x="115.722656"/>
      <use xlink:href="#DejaVuSans-20" x="154.931641"/>
      <use xlink:href="#DejaVuSans-44" x="186.71875"/>
      <use xlink:href="#DejaVuSans-65" x="263.720703"/>
      <use xlink:href="#DejaVuSans-72" x="325.244141"/>
      <use xlink:href="#DejaVuSans-69" x="366.357422"/>
      <use xlink:href="#DejaVuSans-76" x="394.140625"/>
      <use xlink:href="#DejaVuSans-61" x="453.320312"/>
      <use xlink:href="#DejaVuSans-74" x="514.599609"/>
      <use xlink:href="#DejaVuSans-69" x="553.808594"/>
      <use xlink:href="#DejaVuSans-76" x="581.591797"/>
      <use xlink:href="#DejaVuSans-65" x="640.771484"/>
     </g>
    </g>
    <g id="line2d_26">
     <path d="M 50.245313 59.436563 
L 64.245313 59.436563 
L 78.245313 59.436563 
" style="fill: none; stroke: #bf00bf; stroke-width: 3; stroke-linecap: square"/>
    </g>
    <g id="text_21">
     <!-- 2nd Derivative -->
     <g transform="translate(89.445312 64.336563)scale(0.14 -0.14)">
      <defs>
       <path id="DejaVuSans-64" d="M 2906 2969 
L 2906 4863 
L 3481 4863 
L 3481 0 
L 2906 0 
L 2906 525 
Q 2725 213 2448 61 
Q 2172 -91 1784 -91 
Q 1150 -91 751 415 
Q 353 922 353 1747 
Q 353 2572 751 3078 
Q 1150 3584 1784 3584 
Q 2172 3584 2448 3432 
Q 2725 3281 2906 2969 
z
M 947 1747 
Q 947 1113 1208 752 
Q 1469 391 1925 391 
Q 2381 391 2643 752 
Q 2906 1113 2906 1747 
Q 2906 2381 2643 2742 
Q 2381 3103 1925 3103 
Q 1469 3103 1208 2742 
Q 947 2381 947 1747 
z
" transform="scale(0.015625)"/>
      </defs>
      <use xlink:href="#DejaVuSans-32"/>
      <use xlink:href="#DejaVuSans-6e" x="63.623047"/>
      <use xlink:href="#DejaVuSans-64" x="127.001953"/>
      <use xlink:href="#DejaVuSans-20" x="190.478516"/>
      <use xlink:href="#DejaVuSans-44" x="222.265625"/>
      <use xlink:href="#DejaVuSans-65" x="299.267578"/>
      <use xlink:href="#DejaVuSans-72" x="360.791016"/>
      <use xlink:href="#DejaVuSans-69" x="401.904297"/>
      <use xlink:href="#DejaVuSans-76" x="429.6875"/>
      <use xlink:href="#DejaVuSans-61" x="488.867188"/>
      <use xlink:href="#DejaVuSans-74" x="550.146484"/>
      <use xlink:href="#DejaVuSans-69" x="589.355469"/>
      <use xlink:href="#DejaVuSans-76" x="617.138672"/>
      <use xlink:href="#DejaVuSans-65" x="676.318359"/>
     </g>
    </g>
   </g>
  </g>
 </g>
 <defs>
  <clipPath id="p2cd4f09b98">
   <rect x="37.645313" y="0" width="357.12" height="266.112"/>
  </clipPath>
 </defs>
</svg>
