<?xml version="1.0" encoding="utf-8" standalone="no"?>
<!DOCTYPE svg PUBLIC "-//W3C//DTD SVG 1.1//EN"
  "http://www.w3.org/Graphics/SVG/1.1/DTD/svg11.dtd">
<svg xmlns:xlink="http://www.w3.org/1999/xlink" width="436.653125pt" height="334.253875pt" viewBox="0 0 436.653125 334.253875" xmlns="http://www.w3.org/2000/svg" version="1.1">
 <metadata>
  <rdf:RDF xmlns:dc="http://purl.org/dc/elements/1.1/" xmlns:cc="http://creativecommons.org/ns#" xmlns:rdf="http://www.w3.org/1999/02/22-rdf-syntax-ns#">
   <cc:Work>
    <dc:type rdf:resource="http://purl.org/dc/dcmitype/StillImage"/>
    <dc:date>2022-10-05T16:37:27.407303</dc:date>
    <dc:format>image/svg+xml</dc:format>
    <dc:creator>
     <cc:Agent>
      <dc:title>Matplotlib v3.5.2, https://matplotlib.org/</dc:title>
     </cc:Agent>
    </dc:creator>
   </cc:Work>
  </rdf:RDF>
 </metadata>
 <defs>
  <style type="text/css">*{stroke-linejoin: round; stroke-linecap: butt}</style>
 </defs>
 <g id="figure_1">
  <g id="patch_1">
   <path d="M -0 334.253875 
L 436.653125 334.253875 
L 436.653125 0 
L -0 0 
L -0 334.253875 
z
" style="fill: none"/>
  </g>
  <g id="axes_1">
   <g id="patch_2">
    <path d="M 66.171875 290.34825 
L 423.291875 290.34825 
L 423.291875 24.23625 
L 66.171875 24.23625 
L 66.171875 290.34825 
z
" style="fill: none"/>
   </g>
   <g id="matplotlib.axis_1">
    <g id="xtick_1">
     <g id="line2d_1">
      <defs>
       <path id="m74fe2283fb" d="M 0 0 
L 0 3.5 
" style="stroke: #000000; stroke-width: 0.8"/>
      </defs>
      <g>
       <use xlink:href="#m74fe2283fb" x="66.171875" y="290.34825" style="stroke: #000000; stroke-width: 0.8"/>
      </g>
     </g>
     <g id="text_1">
      <!-- 0 -->
      <g transform="translate(61.718125 307.986062)scale(0.14 -0.14)">
       <defs>
        <path id="DejaVuSans-30" d="M 2034 4250 
Q 1547 4250 1301 3770 
Q 1056 3291 1056 2328 
Q 1056 1369 1301 889 
Q 1547 409 2034 409 
Q 2525 409 2770 889 
Q 3016 1369 3016 2328 
Q 3016 3291 2770 3770 
Q 2525 4250 2034 4250 
z
M 2034 4750 
Q 2819 4750 3233 4129 
Q 3647 3509 3647 2328 
Q 3647 1150 3233 529 
Q 2819 -91 2034 -91 
Q 1250 -91 836 529 
Q 422 1150 422 2328 
Q 422 3509 836 4129 
Q 1250 4750 2034 4750 
z
" transform="scale(0.015625)"/>
       </defs>
       <use xlink:href="#DejaVuSans-30"/>
      </g>
     </g>
    </g>
    <g id="xtick_2">
     <g id="line2d_2">
      <g>
       <use xlink:href="#m74fe2283fb" x="110.811875" y="290.34825" style="stroke: #000000; stroke-width: 0.8"/>
      </g>
     </g>
     <g id="text_2">
      <!-- 25 -->
      <g transform="translate(101.904375 307.986062)scale(0.14 -0.14)">
       <defs>
        <path id="DejaVuSans-32" d="M 1228 531 
L 3431 531 
L 3431 0 
L 469 0 
L 469 531 
Q 828 903 1448 1529 
Q 2069 2156 2228 2338 
Q 2531 2678 2651 2914 
Q 2772 3150 2772 3378 
Q 2772 3750 2511 3984 
Q 2250 4219 1831 4219 
Q 1534 4219 1204 4116 
Q 875 4013 500 3803 
L 500 4441 
Q 881 4594 1212 4672 
Q 1544 4750 1819 4750 
Q 2544 4750 2975 4387 
Q 3406 4025 3406 3419 
Q 3406 3131 3298 2873 
Q 3191 2616 2906 2266 
Q 2828 2175 2409 1742 
Q 1991 1309 1228 531 
z
" transform="scale(0.015625)"/>
        <path id="DejaVuSans-35" d="M 691 4666 
L 3169 4666 
L 3169 4134 
L 1269 4134 
L 1269 2991 
Q 1406 3038 1543 3061 
Q 1681 3084 1819 3084 
Q 2600 3084 3056 2656 
Q 3513 2228 3513 1497 
Q 3513 744 3044 326 
Q 2575 -91 1722 -91 
Q 1428 -91 1123 -41 
Q 819 9 494 109 
L 494 744 
Q 775 591 1075 516 
Q 1375 441 1709 441 
Q 2250 441 2565 725 
Q 2881 1009 2881 1497 
Q 2881 1984 2565 2268 
Q 2250 2553 1709 2553 
Q 1456 2553 1204 2497 
Q 953 2441 691 2322 
L 691 4666 
z
" transform="scale(0.015625)"/>
       </defs>
       <use xlink:href="#DejaVuSans-32"/>
       <use xlink:href="#DejaVuSans-35" x="63.623047"/>
      </g>
     </g>
    </g>
    <g id="xtick_3">
     <g id="line2d_3">
      <g>
       <use xlink:href="#m74fe2283fb" x="155.451875" y="290.34825" style="stroke: #000000; stroke-width: 0.8"/>
      </g>
     </g>
     <g id="text_3">
      <!-- 50 -->
      <g transform="translate(146.544375 307.986062)scale(0.14 -0.14)">
       <use xlink:href="#DejaVuSans-35"/>
       <use xlink:href="#DejaVuSans-30" x="63.623047"/>
      </g>
     </g>
    </g>
    <g id="xtick_4">
     <g id="line2d_4">
      <g>
       <use xlink:href="#m74fe2283fb" x="200.091875" y="290.34825" style="stroke: #000000; stroke-width: 0.8"/>
      </g>
     </g>
     <g id="text_4">
      <!-- 75 -->
      <g transform="translate(191.184375 307.986062)scale(0.14 -0.14)">
       <defs>
        <path id="DejaVuSans-37" d="M 525 4666 
L 3525 4666 
L 3525 4397 
L 1831 0 
L 1172 0 
L 2766 4134 
L 525 4134 
L 525 4666 
z
" transform="scale(0.015625)"/>
       </defs>
       <use xlink:href="#DejaVuSans-37"/>
       <use xlink:href="#DejaVuSans-35" x="63.623047"/>
      </g>
     </g>
    </g>
    <g id="xtick_5">
     <g id="line2d_5">
      <g>
       <use xlink:href="#m74fe2283fb" x="244.731875" y="290.34825" style="stroke: #000000; stroke-width: 0.8"/>
      </g>
     </g>
     <g id="text_5">
      <!-- 100 -->
      <g transform="translate(231.370625 307.986062)scale(0.14 -0.14)">
       <defs>
        <path id="DejaVuSans-31" d="M 794 531 
L 1825 531 
L 1825 4091 
L 703 3866 
L 703 4441 
L 1819 4666 
L 2450 4666 
L 2450 531 
L 3481 531 
L 3481 0 
L 794 0 
L 794 531 
z
" transform="scale(0.015625)"/>
       </defs>
       <use xlink:href="#DejaVuSans-31"/>
       <use xlink:href="#DejaVuSans-30" x="63.623047"/>
       <use xlink:href="#DejaVuSans-30" x="127.246094"/>
      </g>
     </g>
    </g>
    <g id="xtick_6">
     <g id="line2d_6">
      <g>
       <use xlink:href="#m74fe2283fb" x="289.371875" y="290.34825" style="stroke: #000000; stroke-width: 0.8"/>
      </g>
     </g>
     <g id="text_6">
      <!-- 125 -->
      <g transform="translate(276.010625 307.986062)scale(0.14 -0.14)">
       <use xlink:href="#DejaVuSans-31"/>
       <use xlink:href="#DejaVuSans-32" x="63.623047"/>
       <use xlink:href="#DejaVuSans-35" x="127.246094"/>
      </g>
     </g>
    </g>
    <g id="xtick_7">
     <g id="line2d_7">
      <g>
       <use xlink:href="#m74fe2283fb" x="334.011875" y="290.34825" style="stroke: #000000; stroke-width: 0.8"/>
      </g>
     </g>
     <g id="text_7">
      <!-- 150 -->
      <g transform="translate(320.650625 307.986062)scale(0.14 -0.14)">
       <use xlink:href="#DejaVuSans-31"/>
       <use xlink:href="#DejaVuSans-35" x="63.623047"/>
       <use xlink:href="#DejaVuSans-30" x="127.246094"/>
      </g>
     </g>
    </g>
    <g id="xtick_8">
     <g id="line2d_8">
      <g>
       <use xlink:href="#m74fe2283fb" x="378.651875" y="290.34825" style="stroke: #000000; stroke-width: 0.8"/>
      </g>
     </g>
     <g id="text_8">
      <!-- 175 -->
      <g transform="translate(365.290625 307.986062)scale(0.14 -0.14)">
       <use xlink:href="#DejaVuSans-31"/>
       <use xlink:href="#DejaVuSans-37" x="63.623047"/>
       <use xlink:href="#DejaVuSans-35" x="127.246094"/>
      </g>
     </g>
    </g>
    <g id="xtick_9">
     <g id="line2d_9">
      <g>
       <use xlink:href="#m74fe2283fb" x="423.291875" y="290.34825" style="stroke: #000000; stroke-width: 0.8"/>
      </g>
     </g>
     <g id="text_9">
      <!-- 200 -->
      <g transform="translate(409.930625 307.986062)scale(0.14 -0.14)">
       <use xlink:href="#DejaVuSans-32"/>
       <use xlink:href="#DejaVuSans-30" x="63.623047"/>
       <use xlink:href="#DejaVuSans-30" x="127.246094"/>
      </g>
     </g>
    </g>
    <g id="text_10">
     <!-- Epochs -->
     <g transform="translate(208.900625 330.0945)scale(0.2 -0.2)">
      <defs>
       <path id="DejaVuSans-45" d="M 628 4666 
L 3578 4666 
L 3578 4134 
L 1259 4134 
L 1259 2753 
L 3481 2753 
L 3481 2222 
L 1259 2222 
L 1259 531 
L 3634 531 
L 3634 0 
L 628 0 
L 628 4666 
z
" transform="scale(0.015625)"/>
       <path id="DejaVuSans-70" d="M 1159 525 
L 1159 -1331 
L 581 -1331 
L 581 3500 
L 1159 3500 
L 1159 2969 
Q 1341 3281 1617 3432 
Q 1894 3584 2278 3584 
Q 2916 3584 3314 3078 
Q 3713 2572 3713 1747 
Q 3713 922 3314 415 
Q 2916 -91 2278 -91 
Q 1894 -91 1617 61 
Q 1341 213 1159 525 
z
M 3116 1747 
Q 3116 2381 2855 2742 
Q 2594 3103 2138 3103 
Q 1681 3103 1420 2742 
Q 1159 2381 1159 1747 
Q 1159 1113 1420 752 
Q 1681 391 2138 391 
Q 2594 391 2855 752 
Q 3116 1113 3116 1747 
z
" transform="scale(0.015625)"/>
       <path id="DejaVuSans-6f" d="M 1959 3097 
Q 1497 3097 1228 2736 
Q 959 2375 959 1747 
Q 959 1119 1226 758 
Q 1494 397 1959 397 
Q 2419 397 2687 759 
Q 2956 1122 2956 1747 
Q 2956 2369 2687 2733 
Q 2419 3097 1959 3097 
z
M 1959 3584 
Q 2709 3584 3137 3096 
Q 3566 2609 3566 1747 
Q 3566 888 3137 398 
Q 2709 -91 1959 -91 
Q 1206 -91 779 398 
Q 353 888 353 1747 
Q 353 2609 779 3096 
Q 1206 3584 1959 3584 
z
" transform="scale(0.015625)"/>
       <path id="DejaVuSans-63" d="M 3122 3366 
L 3122 2828 
Q 2878 2963 2633 3030 
Q 2388 3097 2138 3097 
Q 1578 3097 1268 2742 
Q 959 2388 959 1747 
Q 959 1106 1268 751 
Q 1578 397 2138 397 
Q 2388 397 2633 464 
Q 2878 531 3122 666 
L 3122 134 
Q 2881 22 2623 -34 
Q 2366 -91 2075 -91 
Q 1284 -91 818 406 
Q 353 903 353 1747 
Q 353 2603 823 3093 
Q 1294 3584 2113 3584 
Q 2378 3584 2631 3529 
Q 2884 3475 3122 3366 
z
" transform="scale(0.015625)"/>
       <path id="DejaVuSans-68" d="M 3513 2113 
L 3513 0 
L 2938 0 
L 2938 2094 
Q 2938 2591 2744 2837 
Q 2550 3084 2163 3084 
Q 1697 3084 1428 2787 
Q 1159 2491 1159 1978 
L 1159 0 
L 581 0 
L 581 4863 
L 1159 4863 
L 1159 2956 
Q 1366 3272 1645 3428 
Q 1925 3584 2291 3584 
Q 2894 3584 3203 3211 
Q 3513 2838 3513 2113 
z
" transform="scale(0.015625)"/>
       <path id="DejaVuSans-73" d="M 2834 3397 
L 2834 2853 
Q 2591 2978 2328 3040 
Q 2066 3103 1784 3103 
Q 1356 3103 1142 2972 
Q 928 2841 928 2578 
Q 928 2378 1081 2264 
Q 1234 2150 1697 2047 
L 1894 2003 
Q 2506 1872 2764 1633 
Q 3022 1394 3022 966 
Q 3022 478 2636 193 
Q 2250 -91 1575 -91 
Q 1294 -91 989 -36 
Q 684 19 347 128 
L 347 722 
Q 666 556 975 473 
Q 1284 391 1588 391 
Q 1994 391 2212 530 
Q 2431 669 2431 922 
Q 2431 1156 2273 1281 
Q 2116 1406 1581 1522 
L 1381 1569 
Q 847 1681 609 1914 
Q 372 2147 372 2553 
Q 372 3047 722 3315 
Q 1072 3584 1716 3584 
Q 2034 3584 2315 3537 
Q 2597 3491 2834 3397 
z
" transform="scale(0.015625)"/>
      </defs>
      <use xlink:href="#DejaVuSans-45"/>
      <use xlink:href="#DejaVuSans-70" x="63.183594"/>
      <use xlink:href="#DejaVuSans-6f" x="126.660156"/>
      <use xlink:href="#DejaVuSans-63" x="187.841797"/>
      <use xlink:href="#DejaVuSans-68" x="242.822266"/>
      <use xlink:href="#DejaVuSans-73" x="306.201172"/>
     </g>
    </g>
   </g>
   <g id="matplotlib.axis_2">
    <g id="ytick_1">
     <g id="line2d_10">
      <defs>
       <path id="mc30fe70ec4" d="M 0 0 
L -3.5 0 
" style="stroke: #000000; stroke-width: 0.8"/>
      </defs>
      <g>
       <use xlink:href="#mc30fe70ec4" x="66.171875" y="290.34825" style="stroke: #000000; stroke-width: 0.8"/>
      </g>
     </g>
     <g id="text_11">
      <!-- 0.00 -->
      <g transform="translate(28 295.667156)scale(0.14 -0.14)">
       <defs>
        <path id="DejaVuSans-2e" d="M 684 794 
L 1344 794 
L 1344 0 
L 684 0 
L 684 794 
z
" transform="scale(0.015625)"/>
       </defs>
       <use xlink:href="#DejaVuSans-30"/>
       <use xlink:href="#DejaVuSans-2e" x="63.623047"/>
       <use xlink:href="#DejaVuSans-30" x="95.410156"/>
       <use xlink:href="#DejaVuSans-30" x="159.033203"/>
      </g>
     </g>
    </g>
    <g id="ytick_2">
     <g id="line2d_11">
      <g>
       <use xlink:href="#mc30fe70ec4" x="66.171875" y="257.08425" style="stroke: #000000; stroke-width: 0.8"/>
      </g>
     </g>
     <g id="text_12">
      <!-- 0.25 -->
      <g transform="translate(28 262.403156)scale(0.14 -0.14)">
       <use xlink:href="#DejaVuSans-30"/>
       <use xlink:href="#DejaVuSans-2e" x="63.623047"/>
       <use xlink:href="#DejaVuSans-32" x="95.410156"/>
       <use xlink:href="#DejaVuSans-35" x="159.033203"/>
      </g>
     </g>
    </g>
    <g id="ytick_3">
     <g id="line2d_12">
      <g>
       <use xlink:href="#mc30fe70ec4" x="66.171875" y="223.82025" style="stroke: #000000; stroke-width: 0.8"/>
      </g>
     </g>
     <g id="text_13">
      <!-- 0.50 -->
      <g transform="translate(28 229.139156)scale(0.14 -0.14)">
       <use xlink:href="#DejaVuSans-30"/>
       <use xlink:href="#DejaVuSans-2e" x="63.623047"/>
       <use xlink:href="#DejaVuSans-35" x="95.410156"/>
       <use xlink:href="#DejaVuSans-30" x="159.033203"/>
      </g>
     </g>
    </g>
    <g id="ytick_4">
     <g id="line2d_13">
      <g>
       <use xlink:href="#mc30fe70ec4" x="66.171875" y="190.55625" style="stroke: #000000; stroke-width: 0.8"/>
      </g>
     </g>
     <g id="text_14">
      <!-- 0.75 -->
      <g transform="translate(28 195.875156)scale(0.14 -0.14)">
       <use xlink:href="#DejaVuSans-30"/>
       <use xlink:href="#DejaVuSans-2e" x="63.623047"/>
       <use xlink:href="#DejaVuSans-37" x="95.410156"/>
       <use xlink:href="#DejaVuSans-35" x="159.033203"/>
      </g>
     </g>
    </g>
    <g id="ytick_5">
     <g id="line2d_14">
      <g>
       <use xlink:href="#mc30fe70ec4" x="66.171875" y="157.29225" style="stroke: #000000; stroke-width: 0.8"/>
      </g>
     </g>
     <g id="text_15">
      <!-- 1.00 -->
      <g transform="translate(28 162.611156)scale(0.14 -0.14)">
       <use xlink:href="#DejaVuSans-31"/>
       <use xlink:href="#DejaVuSans-2e" x="63.623047"/>
       <use xlink:href="#DejaVuSans-30" x="95.410156"/>
       <use xlink:href="#DejaVuSans-30" x="159.033203"/>
      </g>
     </g>
    </g>
    <g id="ytick_6">
     <g id="line2d_15">
      <g>
       <use xlink:href="#mc30fe70ec4" x="66.171875" y="124.02825" style="stroke: #000000; stroke-width: 0.8"/>
      </g>
     </g>
     <g id="text_16">
      <!-- 1.25 -->
      <g transform="translate(28 129.347156)scale(0.14 -0.14)">
       <use xlink:href="#DejaVuSans-31"/>
       <use xlink:href="#DejaVuSans-2e" x="63.623047"/>
       <use xlink:href="#DejaVuSans-32" x="95.410156"/>
       <use xlink:href="#DejaVuSans-35" x="159.033203"/>
      </g>
     </g>
    </g>
    <g id="ytick_7">
     <g id="line2d_16">
      <g>
       <use xlink:href="#mc30fe70ec4" x="66.171875" y="90.76425" style="stroke: #000000; stroke-width: 0.8"/>
      </g>
     </g>
     <g id="text_17">
      <!-- 1.50 -->
      <g transform="translate(28 96.083156)scale(0.14 -0.14)">
       <use xlink:href="#DejaVuSans-31"/>
       <use xlink:href="#DejaVuSans-2e" x="63.623047"/>
       <use xlink:href="#DejaVuSans-35" x="95.410156"/>
       <use xlink:href="#DejaVuSans-30" x="159.033203"/>
      </g>
     </g>
    </g>
    <g id="ytick_8">
     <g id="line2d_17">
      <g>
       <use xlink:href="#mc30fe70ec4" x="66.171875" y="57.50025" style="stroke: #000000; stroke-width: 0.8"/>
      </g>
     </g>
     <g id="text_18">
      <!-- 1.75 -->
      <g transform="translate(28 62.819156)scale(0.14 -0.14)">
       <use xlink:href="#DejaVuSans-31"/>
       <use xlink:href="#DejaVuSans-2e" x="63.623047"/>
       <use xlink:href="#DejaVuSans-37" x="95.410156"/>
       <use xlink:href="#DejaVuSans-35" x="159.033203"/>
      </g>
     </g>
    </g>
    <g id="ytick_9">
     <g id="line2d_18">
      <g>
       <use xlink:href="#mc30fe70ec4" x="66.171875" y="24.23625" style="stroke: #000000; stroke-width: 0.8"/>
      </g>
     </g>
     <g id="text_19">
      <!-- 2.00 -->
      <g transform="translate(28 29.555156)scale(0.14 -0.14)">
       <use xlink:href="#DejaVuSans-32"/>
       <use xlink:href="#DejaVuSans-2e" x="63.623047"/>
       <use xlink:href="#DejaVuSans-30" x="95.410156"/>
       <use xlink:href="#DejaVuSans-30" x="159.033203"/>
      </g>
     </g>
    </g>
    <g id="text_20">
     <!-- $|\kappa - \kappa^{*}|$ -->
     <g transform="translate(18 197.13225)rotate(-90)scale(0.24 -0.24)">
      <defs>
       <path id="Cmsy10-6a" d="M 763 -1484 
L 763 4684 
Q 763 4734 800 4767 
Q 838 4800 891 4800 
Q 938 4800 978 4767 
Q 1019 4734 1019 4684 
L 1019 -1484 
Q 1019 -1534 978 -1567 
Q 938 -1600 891 -1600 
Q 838 -1600 800 -1567 
Q 763 -1534 763 -1484 
z
" transform="scale(0.015625)"/>
       <path id="Cmmi10-2219" d="M 341 109 
Q 341 147 347 166 
L 959 2625 
Q 984 2716 1059 2772 
Q 1134 2828 1228 2828 
Q 1309 2828 1365 2779 
Q 1422 2731 1422 2650 
Q 1422 2631 1420 2620 
Q 1419 2609 1416 2597 
L 1184 1672 
Q 1441 1756 1866 2111 
Q 2291 2466 2508 2612 
Q 2725 2759 3041 2759 
Q 3144 2759 3214 2695 
Q 3284 2631 3284 2522 
Q 3284 2372 3176 2267 
Q 3069 2163 2919 2163 
Q 2816 2163 2745 2230 
Q 2675 2297 2675 2400 
Q 2675 2472 2700 2522 
Q 2547 2459 2386 2346 
Q 2225 2234 2094 2120 
Q 1963 2006 1778 1853 
Q 1594 1700 1447 1619 
Q 1709 1619 1984 1562 
Q 2259 1506 2461 1356 
Q 2663 1206 2663 947 
Q 2663 844 2638 769 
Q 2578 513 2578 384 
Q 2578 97 2778 97 
Q 3006 97 3128 350 
Q 3250 603 3328 941 
Q 3341 978 3378 978 
L 3456 978 
Q 3481 978 3497 961 
Q 3513 944 3513 922 
Q 3513 916 3506 903 
Q 3272 -72 2766 -72 
Q 2584 -72 2445 12 
Q 2306 97 2231 242 
Q 2156 388 2156 569 
Q 2156 684 2181 781 
Q 2203 869 2203 928 
Q 2203 1134 2020 1253 
Q 1838 1372 1589 1415 
Q 1341 1459 1125 1459 
L 800 141 
Q 778 53 701 -9 
Q 625 -72 531 -72 
Q 453 -72 397 -22 
Q 341 28 341 109 
z
" transform="scale(0.015625)"/>
       <path id="Cmsy10-a1" d="M 653 1472 
Q 600 1472 565 1512 
Q 531 1553 531 1600 
Q 531 1647 565 1687 
Q 600 1728 653 1728 
L 4325 1728 
Q 4375 1728 4408 1687 
Q 4441 1647 4441 1600 
Q 4441 1553 4408 1512 
Q 4375 1472 4325 1472 
L 653 1472 
z
" transform="scale(0.015625)"/>
       <path id="Cmsy10-a4" d="M 603 813 
Q 531 813 473 873 
Q 416 934 416 1006 
Q 416 1116 506 1159 
L 1428 1600 
L 506 2034 
Q 416 2072 416 2188 
Q 416 2259 473 2320 
Q 531 2381 603 2381 
Q 650 2381 691 2350 
L 1509 1753 
L 1416 2797 
Q 1416 2875 1469 2925 
Q 1522 2975 1600 2975 
Q 1675 2975 1726 2928 
Q 1778 2881 1778 2809 
L 1778 2797 
L 1684 1753 
L 2503 2350 
Q 2544 2381 2591 2381 
Q 2669 2381 2723 2320 
Q 2778 2259 2778 2188 
Q 2778 2072 2688 2034 
L 1766 1600 
L 2688 1159 
Q 2778 1116 2778 1006 
Q 2778 934 2723 873 
Q 2669 813 2591 813 
Q 2544 813 2503 844 
L 1684 1441 
L 1778 403 
L 1778 384 
Q 1778 313 1723 266 
Q 1669 219 1600 219 
Q 1525 219 1470 270 
Q 1416 322 1416 397 
L 1509 1441 
L 691 844 
Q 650 813 603 813 
z
" transform="scale(0.015625)"/>
      </defs>
      <use xlink:href="#Cmsy10-6a"/>
      <use xlink:href="#Cmmi10-2219" transform="translate(27.685547 0)"/>
      <use xlink:href="#Cmsy10-a1" transform="translate(102.861328 0)"/>
      <use xlink:href="#Cmmi10-2219" transform="translate(198.105469 0)"/>
      <use xlink:href="#Cmsy10-a4" transform="translate(262.025937 38.264063)scale(0.7)"/>
      <use xlink:href="#Cmsy10-6a" transform="translate(303.403281 0)"/>
     </g>
    </g>
   </g>
   <g id="line2d_19">
    <path d="M 66.171875 166.687213 
L 67.957475 164.358831 
L 69.743075 164.601306 
L 71.528675 162.684807 
L 73.314275 161.69328 
L 75.099875 162.773552 
L 76.885475 165.349929 
L 80.456675 177.940353 
L 82.242275 185.217194 
L 84.027875 189.911131 
L 87.599075 200.735581 
L 89.384675 205.485541 
L 91.170275 209.322044 
L 94.741475 216.384865 
L 98.312675 221.837926 
L 100.098275 225.404323 
L 101.883875 228.163401 
L 103.669475 230.626194 
L 105.455075 232.660013 
L 109.026275 237.151676 
L 110.811875 238.730372 
L 112.597475 240.596447 
L 114.383075 242.649125 
L 116.168675 243.899186 
L 117.954275 245.635364 
L 119.739875 247.167633 
L 121.525475 248.917364 
L 123.311075 251.014922 
L 125.096675 252.360018 
L 126.882275 253.97265 
L 128.667875 255.00525 
L 130.453475 255.784137 
L 132.239075 256.897782 
L 134.024675 258.651542 
L 137.595875 261.736035 
L 139.381475 262.897795 
L 142.952675 266.215088 
L 144.738275 267.671793 
L 148.309475 269.955573 
L 151.880675 271.497137 
L 153.666275 272.477482 
L 155.451875 273.952801 
L 159.023075 276.002671 
L 167.951075 278.671243 
L 169.736675 278.942047 
L 171.522275 279.401928 
L 173.307875 279.683113 
L 175.093475 280.132215 
L 178.664675 281.672622 
L 185.807075 282.452834 
L 191.163875 283.225924 
L 192.949475 283.335812 
L 194.735075 283.665399 
L 196.520675 283.767579 
L 198.306275 284.119966 
L 200.091875 283.926321 
L 201.877475 283.885953 
L 205.448675 284.2485 
L 207.234275 284.331701 
L 209.019875 284.577031 
L 210.805475 284.615694 
L 212.591075 284.899868 
L 216.162275 284.821925 
L 219.733475 285.072307 
L 221.519075 284.958596 
L 230.447075 285.04608 
L 237.589475 284.67404 
L 239.375075 284.624695 
L 241.160675 284.84471 
L 242.946275 284.894872 
L 244.731875 285.064693 
L 246.517475 284.926762 
L 259.016675 285.169831 
L 260.802275 285.371923 
L 264.373475 286.079513 
L 271.515875 286.306055 
L 273.301475 286.27798 
L 275.087075 286.485108 
L 278.658275 286.506124 
L 292.943075 285.903831 
L 294.728675 285.948013 
L 296.514275 286.126756 
L 301.871075 286.08209 
L 314.370275 285.75869 
L 317.941475 286.009175 
L 323.298275 285.975398 
L 326.869475 286.064016 
L 328.655075 285.965017 
L 332.226275 286.187347 
L 335.797475 286.072415 
L 344.725475 285.379743 
L 346.511075 285.167016 
L 348.296675 285.246744 
L 355.439075 285.182624 
L 357.224675 285.251518 
L 360.795875 285.01442 
L 369.723875 284.75472 
L 373.295075 284.648154 
L 378.651875 284.30503 
L 380.437475 284.090273 
L 387.579875 284.008959 
L 396.507875 284.08488 
L 398.293475 284.01708 
L 405.435875 284.199741 
L 409.007075 284.151752 
L 414.363875 284.499453 
L 417.935075 284.405259 
L 421.506275 284.519866 
L 421.506275 284.519866 
" clip-path="url(#p3103213b5a)" style="fill: none; stroke: #ff0000; stroke-width: 3; stroke-linecap: square"/>
   </g>
   <g id="line2d_20">
    <path d="M 66.171875 148.257692 
L 69.743075 148.180145 
L 71.528675 137.251944 
L 73.314275 129.037157 
L 76.885475 120.457078 
L 78.671075 119.664479 
L 80.456675 119.181829 
L 82.242275 114.647023 
L 84.027875 114.663201 
L 85.813475 114.209388 
L 87.599075 112.653897 
L 89.384675 109.325327 
L 91.170275 106.27722 
L 92.955875 105.023971 
L 94.741475 104.111109 
L 96.527075 104.311947 
L 98.312675 103.783743 
L 100.098275 101.682045 
L 101.883875 97.684152 
L 103.669475 95.54694 
L 105.455075 96.184192 
L 107.240675 96.081441 
L 109.026275 92.619254 
L 110.811875 92.406694 
L 112.597475 90.956047 
L 114.383075 88.714388 
L 116.168675 86.262801 
L 117.954275 85.981402 
L 119.739875 85.090318 
L 121.525475 85.168943 
L 123.311075 84.571472 
L 125.096675 82.475373 
L 126.882275 84.336896 
L 128.667875 82.649834 
L 132.239075 79.936992 
L 134.024675 81.162865 
L 135.810275 82.532665 
L 137.595875 82.66384 
L 141.167075 85.301292 
L 142.952675 85.192958 
L 144.738275 83.934426 
L 146.523875 83.537809 
L 148.309475 83.971209 
L 150.095075 84.042744 
L 151.880675 85.353619 
L 153.666275 86.240008 
L 155.451875 89.222797 
L 157.237475 90.976794 
L 159.023075 90.439406 
L 160.808675 91.648942 
L 162.594275 92.19407 
L 164.379875 92.430518 
L 167.951075 92.258452 
L 169.736675 93.043565 
L 171.522275 93.41907 
L 175.093475 96.394753 
L 176.879075 96.568897 
L 178.664675 97.438282 
L 180.450275 100.493971 
L 182.235875 101.045174 
L 184.021475 102.171563 
L 187.592675 102.86882 
L 189.378275 103.442863 
L 191.163875 104.466074 
L 192.949475 103.184939 
L 194.735075 101.665074 
L 196.520675 100.725866 
L 198.306275 101.402328 
L 200.091875 100.769533 
L 201.877475 102.223764 
L 203.663075 103.388363 
L 205.448675 104.205802 
L 207.234275 104.333678 
L 209.019875 103.924863 
L 212.591075 98.508173 
L 214.376675 96.671109 
L 216.162275 96.506561 
L 217.947875 92.937959 
L 221.519075 90.944294 
L 223.304675 90.906337 
L 225.090275 91.882645 
L 226.875875 91.310552 
L 228.661475 91.163008 
L 230.447075 91.333551 
L 232.232675 92.335935 
L 235.803875 91.493435 
L 237.589475 90.739157 
L 239.375075 89.592719 
L 242.946275 89.422588 
L 244.731875 89.63445 
L 246.517475 88.88474 
L 248.303075 88.472087 
L 251.874275 88.639537 
L 253.659875 89.851896 
L 255.445475 91.663328 
L 257.231075 92.520944 
L 259.016675 93.78352 
L 260.802275 93.495523 
L 262.587875 93.811119 
L 264.373475 93.225893 
L 266.159075 93.763186 
L 271.515875 93.462848 
L 273.301475 94.071153 
L 275.087075 93.720677 
L 278.658275 94.287663 
L 280.443875 93.968513 
L 282.229475 93.169521 
L 284.015075 93.614706 
L 285.800675 94.872952 
L 287.586275 95.341057 
L 289.371875 95.482796 
L 291.157475 96.068974 
L 292.943075 95.692897 
L 294.728675 95.495453 
L 296.514275 95.144295 
L 298.299875 95.420159 
L 300.085475 94.96533 
L 301.871075 94.231513 
L 303.656675 93.86673 
L 305.442275 94.080702 
L 307.227875 93.81591 
L 309.013475 93.195661 
L 310.799075 93.053812 
L 312.584675 92.075553 
L 314.370275 91.584211 
L 316.155875 91.225186 
L 317.941475 91.078752 
L 319.727075 90.590582 
L 323.298275 89.830816 
L 325.083875 89.895499 
L 326.869475 90.201404 
L 328.655075 89.185427 
L 330.440675 88.545272 
L 332.226275 88.069903 
L 337.583075 88.054707 
L 339.368675 88.46054 
L 342.939875 88.28029 
L 344.725475 88.019035 
L 346.511075 88.132603 
L 348.296675 87.644037 
L 350.082275 87.41893 
L 359.010275 88.319563 
L 360.795875 89.045433 
L 366.152675 89.921687 
L 367.938275 89.851832 
L 369.723875 90.200691 
L 371.509475 90.26309 
L 373.295075 89.840587 
L 375.080675 89.580379 
L 378.651875 89.904842 
L 382.223075 89.245542 
L 384.008675 89.090639 
L 385.794275 89.323073 
L 389.365475 89.526402 
L 398.293475 89.067195 
L 401.864675 89.030825 
L 405.435875 88.765414 
L 407.221475 88.306604 
L 409.007075 87.982363 
L 410.792675 87.911573 
L 414.363875 88.032327 
L 421.506275 87.896076 
L 421.506275 87.896076 
" clip-path="url(#p3103213b5a)" style="fill: none; stroke-dasharray: 9,3,3,3; stroke-dashoffset: 0; stroke: #000000; stroke-width: 3"/>
   </g>
   <g id="line2d_21">
    <path d="M 66.171875 157.277055 
L 67.957475 157.324473 
L 69.743075 157.182853 
L 71.528675 156.089821 
L 73.314275 157.741702 
L 75.099875 165.507545 
L 76.885475 166.288114 
L 78.671075 167.831788 
L 80.456675 166.309337 
L 82.242275 164.446172 
L 84.027875 163.501802 
L 85.813475 163.830912 
L 87.599075 164.026159 
L 89.384675 164.345325 
L 91.170275 164.459781 
L 100.098275 164.369299 
L 101.883875 163.677246 
L 103.669475 163.654389 
L 105.455075 163.854546 
L 107.240675 164.346602 
L 110.811875 164.555371 
L 112.597475 165.27749 
L 116.168675 165.191513 
L 130.453475 165.210158 
L 166.165475 165.203845 
L 255.445475 165.228597 
L 294.728675 165.198357 
L 421.506275 165.198452 
L 421.506275 165.198452 
" clip-path="url(#p3103213b5a)" style="fill: none; stroke-dasharray: 11.1,4.8; stroke-dashoffset: 0; stroke: #0000ff; stroke-width: 3"/>
   </g>
   <g id="line2d_22">
    <path d="M 66.171875 162.051925 
L 67.957475 225.625853 
L 69.743075 227.902194 
L 71.528675 208.696688 
L 73.314275 210.863243 
L 75.099875 220.087997 
L 76.885475 220.776267 
L 78.671075 222.435453 
L 80.456675 216.938678 
L 82.242275 213.417898 
L 84.027875 217.07707 
L 85.813475 215.523791 
L 87.599075 211.253397 
L 89.384675 210.415227 
L 91.170275 208.626096 
L 92.955875 207.315348 
L 94.741475 208.724493 
L 96.527075 206.723532 
L 98.312675 204.059519 
L 100.098275 206.216923 
L 101.883875 208.895139 
L 103.669475 208.610536 
L 105.455075 204.18408 
L 107.240675 202.473091 
L 109.026275 201.708455 
L 110.811875 202.064942 
L 112.597475 199.786698 
L 116.168675 198.400267 
L 117.954275 199.723276 
L 119.739875 198.760173 
L 121.525475 196.68578 
L 123.311075 195.174123 
L 125.096675 194.24053 
L 128.667875 192.136723 
L 130.453475 191.913408 
L 132.239075 190.939155 
L 134.024675 190.422767 
L 135.810275 190.12009 
L 137.595875 189.03207 
L 142.952675 188.414668 
L 144.738275 188.443179 
L 146.523875 188.815973 
L 148.309475 188.471849 
L 150.095075 187.922018 
L 151.880675 187.501593 
L 153.666275 187.513679 
L 155.451875 187.25976 
L 157.237475 187.18736 
L 159.023075 187.244509 
L 164.379875 186.916858 
L 166.165475 186.855252 
L 167.951075 186.968297 
L 171.522275 185.623296 
L 175.093475 184.494036 
L 176.879075 184.124653 
L 178.664675 183.970416 
L 184.021475 183.17826 
L 185.807075 183.012071 
L 189.378275 182.252479 
L 191.163875 181.584091 
L 192.949475 180.765431 
L 196.520675 179.95597 
L 198.306275 179.825573 
L 200.091875 178.558555 
L 201.877475 177.526701 
L 205.448675 177.785005 
L 207.234275 177.626898 
L 209.019875 176.959287 
L 212.591075 174.500324 
L 214.376675 174.252996 
L 216.162275 174.375986 
L 219.733475 173.318293 
L 221.519075 172.966223 
L 223.304675 172.330961 
L 225.090275 172.002929 
L 230.447075 171.358183 
L 232.232675 170.950256 
L 234.018275 170.34809 
L 235.803875 170.016576 
L 239.375075 170.466131 
L 241.160675 170.429999 
L 242.946275 170.188198 
L 244.731875 169.646916 
L 246.517475 169.480116 
L 248.303075 169.144891 
L 251.874275 167.75026 
L 253.659875 167.135618 
L 255.445475 166.767465 
L 259.016675 165.246457 
L 260.802275 165.142873 
L 264.373475 164.142313 
L 266.159075 163.322479 
L 267.944675 162.727395 
L 269.730275 161.651739 
L 273.301475 161.541525 
L 276.872675 161.091248 
L 282.229475 161.034559 
L 285.800675 160.342601 
L 287.586275 160.216621 
L 330.440675 160.21195 
L 421.506275 160.21195 
L 421.506275 160.21195 
" clip-path="url(#p3103213b5a)" style="fill: none; stroke-dasharray: 3,4.95; stroke-dashoffset: 0; stroke: #008000; stroke-width: 3"/>
   </g>
   <g id="line2d_23">
    <path d="M 66.171875 151.884252 
L 67.957475 152.789754 
L 69.743075 155.428935 
L 71.528675 159.143582 
L 73.314275 160.091719 
L 75.099875 160.051051 
L 76.885475 159.241106 
L 78.671075 160.160701 
L 80.456675 161.485367 
L 82.242275 163.176982 
L 85.813475 168.036885 
L 87.599075 171.900543 
L 96.527075 192.553761 
L 98.312675 195.93247 
L 100.098275 198.726879 
L 101.883875 202.473083 
L 103.669475 205.05912 
L 105.455075 208.289197 
L 107.240675 210.806411 
L 110.811875 216.394731 
L 112.597475 217.907673 
L 114.383075 220.088306 
L 116.168675 222.848082 
L 117.954275 224.520401 
L 119.739875 226.433323 
L 121.525475 227.646078 
L 123.311075 229.132421 
L 125.096675 231.118266 
L 126.882275 232.487511 
L 128.667875 233.43254 
L 130.453475 235.336199 
L 132.239075 237.543146 
L 134.024675 239.349003 
L 135.810275 240.692203 
L 137.595875 241.69515 
L 139.381475 243.041531 
L 141.167075 244.588488 
L 142.952675 246.349084 
L 146.523875 248.34259 
L 148.309475 249.60707 
L 150.095075 250.542297 
L 151.880675 251.112684 
L 155.451875 252.891371 
L 157.237475 254.103935 
L 159.023075 255.142404 
L 160.808675 255.679848 
L 164.379875 257.385 
L 166.165475 257.872075 
L 167.951075 258.711141 
L 169.736675 259.002684 
L 171.522275 259.534798 
L 175.093475 261.156074 
L 176.879075 261.666101 
L 178.664675 262.516286 
L 180.450275 262.973066 
L 182.235875 263.251475 
L 185.807075 264.39302 
L 187.592675 264.745043 
L 189.378275 265.228073 
L 192.949475 265.927614 
L 198.306275 266.977606 
L 205.448675 268.772233 
L 212.591075 270.255062 
L 214.376675 270.892203 
L 216.162275 271.375773 
L 223.304675 272.867128 
L 232.232675 273.195279 
L 234.018275 273.429585 
L 239.375075 274.561732 
L 255.445475 275.83116 
L 260.802275 276.490151 
L 266.159075 276.828532 
L 275.087075 277.104475 
L 278.658275 277.273146 
L 282.229475 277.576672 
L 300.085475 278.374673 
L 301.871075 278.555534 
L 307.227875 278.798009 
L 310.799075 279.028603 
L 325.083875 279.29487 
L 330.440675 279.538733 
L 335.797475 279.85609 
L 348.296675 280.176429 
L 353.653475 280.442974 
L 364.367075 280.806806 
L 373.295075 280.977864 
L 376.866275 281.172937 
L 403.650275 281.411193 
L 407.221475 281.602887 
L 421.506275 281.692964 
L 421.506275 281.692964 
" clip-path="url(#p3103213b5a)" style="fill: none; stroke-dasharray: 19.2,4.8,3,4.8; stroke-dashoffset: 0; stroke: #00bfbf; stroke-width: 3"/>
   </g>
   <g id="patch_3">
    <path d="M 66.171875 290.34825 
L 66.171875 24.23625 
" style="fill: none; stroke: #000000; stroke-width: 0.8; stroke-linejoin: miter; stroke-linecap: square"/>
   </g>
   <g id="patch_4">
    <path d="M 423.291875 290.34825 
L 423.291875 24.23625 
" style="fill: none; stroke: #000000; stroke-width: 0.8; stroke-linejoin: miter; stroke-linecap: square"/>
   </g>
   <g id="patch_5">
    <path d="M 66.171875 290.34825 
L 423.291875 290.34825 
" style="fill: none; stroke: #000000; stroke-width: 0.8; stroke-linejoin: miter; stroke-linecap: square"/>
   </g>
   <g id="patch_6">
    <path d="M 66.171875 24.23625 
L 423.291875 24.23625 
" style="fill: none; stroke: #000000; stroke-width: 0.8; stroke-linejoin: miter; stroke-linecap: square"/>
   </g>
   <g id="text_21">
    <!-- Absolute Error -->
    <g transform="translate(159.22625 18.23625)scale(0.24 -0.24)">
     <defs>
      <path id="DejaVuSans-41" d="M 2188 4044 
L 1331 1722 
L 3047 1722 
L 2188 4044 
z
M 1831 4666 
L 2547 4666 
L 4325 0 
L 3669 0 
L 3244 1197 
L 1141 1197 
L 716 0 
L 50 0 
L 1831 4666 
z
" transform="scale(0.015625)"/>
      <path id="DejaVuSans-62" d="M 3116 1747 
Q 3116 2381 2855 2742 
Q 2594 3103 2138 3103 
Q 1681 3103 1420 2742 
Q 1159 2381 1159 1747 
Q 1159 1113 1420 752 
Q 1681 391 2138 391 
Q 2594 391 2855 752 
Q 3116 1113 3116 1747 
z
M 1159 2969 
Q 1341 3281 1617 3432 
Q 1894 3584 2278 3584 
Q 2916 3584 3314 3078 
Q 3713 2572 3713 1747 
Q 3713 922 3314 415 
Q 2916 -91 2278 -91 
Q 1894 -91 1617 61 
Q 1341 213 1159 525 
L 1159 0 
L 581 0 
L 581 4863 
L 1159 4863 
L 1159 2969 
z
" transform="scale(0.015625)"/>
      <path id="DejaVuSans-6c" d="M 603 4863 
L 1178 4863 
L 1178 0 
L 603 0 
L 603 4863 
z
" transform="scale(0.015625)"/>
      <path id="DejaVuSans-75" d="M 544 1381 
L 544 3500 
L 1119 3500 
L 1119 1403 
Q 1119 906 1312 657 
Q 1506 409 1894 409 
Q 2359 409 2629 706 
Q 2900 1003 2900 1516 
L 2900 3500 
L 3475 3500 
L 3475 0 
L 2900 0 
L 2900 538 
Q 2691 219 2414 64 
Q 2138 -91 1772 -91 
Q 1169 -91 856 284 
Q 544 659 544 1381 
z
M 1991 3584 
L 1991 3584 
z
" transform="scale(0.015625)"/>
      <path id="DejaVuSans-74" d="M 1172 4494 
L 1172 3500 
L 2356 3500 
L 2356 3053 
L 1172 3053 
L 1172 1153 
Q 1172 725 1289 603 
Q 1406 481 1766 481 
L 2356 481 
L 2356 0 
L 1766 0 
Q 1100 0 847 248 
Q 594 497 594 1153 
L 594 3053 
L 172 3053 
L 172 3500 
L 594 3500 
L 594 4494 
L 1172 4494 
z
" transform="scale(0.015625)"/>
      <path id="DejaVuSans-65" d="M 3597 1894 
L 3597 1613 
L 953 1613 
Q 991 1019 1311 708 
Q 1631 397 2203 397 
Q 2534 397 2845 478 
Q 3156 559 3463 722 
L 3463 178 
Q 3153 47 2828 -22 
Q 2503 -91 2169 -91 
Q 1331 -91 842 396 
Q 353 884 353 1716 
Q 353 2575 817 3079 
Q 1281 3584 2069 3584 
Q 2775 3584 3186 3129 
Q 3597 2675 3597 1894 
z
M 3022 2063 
Q 3016 2534 2758 2815 
Q 2500 3097 2075 3097 
Q 1594 3097 1305 2825 
Q 1016 2553 972 2059 
L 3022 2063 
z
" transform="scale(0.015625)"/>
      <path id="DejaVuSans-20" transform="scale(0.015625)"/>
      <path id="DejaVuSans-72" d="M 2631 2963 
Q 2534 3019 2420 3045 
Q 2306 3072 2169 3072 
Q 1681 3072 1420 2755 
Q 1159 2438 1159 1844 
L 1159 0 
L 581 0 
L 581 3500 
L 1159 3500 
L 1159 2956 
Q 1341 3275 1631 3429 
Q 1922 3584 2338 3584 
Q 2397 3584 2469 3576 
Q 2541 3569 2628 3553 
L 2631 2963 
z
" transform="scale(0.015625)"/>
     </defs>
     <use xlink:href="#DejaVuSans-41"/>
     <use xlink:href="#DejaVuSans-62" x="68.408203"/>
     <use xlink:href="#DejaVuSans-73" x="131.884766"/>
     <use xlink:href="#DejaVuSans-6f" x="183.984375"/>
     <use xlink:href="#DejaVuSans-6c" x="245.166016"/>
     <use xlink:href="#DejaVuSans-75" x="272.949219"/>
     <use xlink:href="#DejaVuSans-74" x="336.328125"/>
     <use xlink:href="#DejaVuSans-65" x="375.537109"/>
     <use xlink:href="#DejaVuSans-20" x="437.060547"/>
     <use xlink:href="#DejaVuSans-45" x="468.847656"/>
     <use xlink:href="#DejaVuSans-72" x="532.03125"/>
     <use xlink:href="#DejaVuSans-72" x="571.394531"/>
     <use xlink:href="#DejaVuSans-6f" x="610.257812"/>
     <use xlink:href="#DejaVuSans-72" x="671.439453"/>
    </g>
   </g>
   <g id="legend_1">
    <g id="patch_7">
     <path d="M 245.162188 146.322187 
L 412.791875 146.322187 
Q 415.791875 146.322187 415.791875 143.322187 
L 415.791875 34.73625 
Q 415.791875 31.73625 412.791875 31.73625 
L 245.162188 31.73625 
Q 242.162188 31.73625 242.162188 34.73625 
L 242.162188 143.322187 
Q 242.162188 146.322187 245.162188 146.322187 
z
" style="fill: #ffffff; opacity: 0.8; stroke: #cccccc; stroke-linejoin: miter"/>
    </g>
    <g id="line2d_24">
     <path d="M 248.162188 43.883906 
L 263.162188 43.883906 
L 278.162188 43.883906 
" style="fill: none; stroke: #ff0000; stroke-width: 3; stroke-linecap: square"/>
    </g>
    <g id="text_22">
     <!-- Stan (Proposed) -->
     <g transform="translate(290.162188 49.133906)scale(0.15 -0.15)">
      <defs>
       <path id="DejaVuSans-53" d="M 3425 4513 
L 3425 3897 
Q 3066 4069 2747 4153 
Q 2428 4238 2131 4238 
Q 1616 4238 1336 4038 
Q 1056 3838 1056 3469 
Q 1056 3159 1242 3001 
Q 1428 2844 1947 2747 
L 2328 2669 
Q 3034 2534 3370 2195 
Q 3706 1856 3706 1288 
Q 3706 609 3251 259 
Q 2797 -91 1919 -91 
Q 1588 -91 1214 -16 
Q 841 59 441 206 
L 441 856 
Q 825 641 1194 531 
Q 1563 422 1919 422 
Q 2459 422 2753 634 
Q 3047 847 3047 1241 
Q 3047 1584 2836 1778 
Q 2625 1972 2144 2069 
L 1759 2144 
Q 1053 2284 737 2584 
Q 422 2884 422 3419 
Q 422 4038 858 4394 
Q 1294 4750 2059 4750 
Q 2388 4750 2728 4690 
Q 3069 4631 3425 4513 
z
" transform="scale(0.015625)"/>
       <path id="DejaVuSans-61" d="M 2194 1759 
Q 1497 1759 1228 1600 
Q 959 1441 959 1056 
Q 959 750 1161 570 
Q 1363 391 1709 391 
Q 2188 391 2477 730 
Q 2766 1069 2766 1631 
L 2766 1759 
L 2194 1759 
z
M 3341 1997 
L 3341 0 
L 2766 0 
L 2766 531 
Q 2569 213 2275 61 
Q 1981 -91 1556 -91 
Q 1019 -91 701 211 
Q 384 513 384 1019 
Q 384 1609 779 1909 
Q 1175 2209 1959 2209 
L 2766 2209 
L 2766 2266 
Q 2766 2663 2505 2880 
Q 2244 3097 1772 3097 
Q 1472 3097 1187 3025 
Q 903 2953 641 2809 
L 641 3341 
Q 956 3463 1253 3523 
Q 1550 3584 1831 3584 
Q 2591 3584 2966 3190 
Q 3341 2797 3341 1997 
z
" transform="scale(0.015625)"/>
       <path id="DejaVuSans-6e" d="M 3513 2113 
L 3513 0 
L 2938 0 
L 2938 2094 
Q 2938 2591 2744 2837 
Q 2550 3084 2163 3084 
Q 1697 3084 1428 2787 
Q 1159 2491 1159 1978 
L 1159 0 
L 581 0 
L 581 3500 
L 1159 3500 
L 1159 2956 
Q 1366 3272 1645 3428 
Q 1925 3584 2291 3584 
Q 2894 3584 3203 3211 
Q 3513 2838 3513 2113 
z
" transform="scale(0.015625)"/>
       <path id="DejaVuSans-28" d="M 1984 4856 
Q 1566 4138 1362 3434 
Q 1159 2731 1159 2009 
Q 1159 1288 1364 580 
Q 1569 -128 1984 -844 
L 1484 -844 
Q 1016 -109 783 600 
Q 550 1309 550 2009 
Q 550 2706 781 3412 
Q 1013 4119 1484 4856 
L 1984 4856 
z
" transform="scale(0.015625)"/>
       <path id="DejaVuSans-50" d="M 1259 4147 
L 1259 2394 
L 2053 2394 
Q 2494 2394 2734 2622 
Q 2975 2850 2975 3272 
Q 2975 3691 2734 3919 
Q 2494 4147 2053 4147 
L 1259 4147 
z
M 628 4666 
L 2053 4666 
Q 2838 4666 3239 4311 
Q 3641 3956 3641 3272 
Q 3641 2581 3239 2228 
Q 2838 1875 2053 1875 
L 1259 1875 
L 1259 0 
L 628 0 
L 628 4666 
z
" transform="scale(0.015625)"/>
       <path id="DejaVuSans-64" d="M 2906 2969 
L 2906 4863 
L 3481 4863 
L 3481 0 
L 2906 0 
L 2906 525 
Q 2725 213 2448 61 
Q 2172 -91 1784 -91 
Q 1150 -91 751 415 
Q 353 922 353 1747 
Q 353 2572 751 3078 
Q 1150 3584 1784 3584 
Q 2172 3584 2448 3432 
Q 2725 3281 2906 2969 
z
M 947 1747 
Q 947 1113 1208 752 
Q 1469 391 1925 391 
Q 2381 391 2643 752 
Q 2906 1113 2906 1747 
Q 2906 2381 2643 2742 
Q 2381 3103 1925 3103 
Q 1469 3103 1208 2742 
Q 947 2381 947 1747 
z
" transform="scale(0.015625)"/>
       <path id="DejaVuSans-29" d="M 513 4856 
L 1013 4856 
Q 1481 4119 1714 3412 
Q 1947 2706 1947 2009 
Q 1947 1309 1714 600 
Q 1481 -109 1013 -844 
L 513 -844 
Q 928 -128 1133 580 
Q 1338 1288 1338 2009 
Q 1338 2731 1133 3434 
Q 928 4138 513 4856 
z
" transform="scale(0.015625)"/>
      </defs>
      <use xlink:href="#DejaVuSans-53"/>
      <use xlink:href="#DejaVuSans-74" x="63.476562"/>
      <use xlink:href="#DejaVuSans-61" x="102.685547"/>
      <use xlink:href="#DejaVuSans-6e" x="163.964844"/>
      <use xlink:href="#DejaVuSans-20" x="227.34375"/>
      <use xlink:href="#DejaVuSans-28" x="259.130859"/>
      <use xlink:href="#DejaVuSans-50" x="298.144531"/>
      <use xlink:href="#DejaVuSans-72" x="356.697266"/>
      <use xlink:href="#DejaVuSans-6f" x="395.560547"/>
      <use xlink:href="#DejaVuSans-70" x="456.742188"/>
      <use xlink:href="#DejaVuSans-6f" x="520.21875"/>
      <use xlink:href="#DejaVuSans-73" x="581.400391"/>
      <use xlink:href="#DejaVuSans-65" x="633.5"/>
      <use xlink:href="#DejaVuSans-64" x="695.023438"/>
      <use xlink:href="#DejaVuSans-29" x="758.5"/>
     </g>
    </g>
    <g id="line2d_25">
     <path d="M 248.162188 65.901094 
L 263.162188 65.901094 
L 278.162188 65.901094 
" style="fill: none; stroke-dasharray: 9,3,3,3; stroke-dashoffset: 0; stroke: #000000; stroke-width: 3"/>
    </g>
    <g id="text_23">
     <!-- tanh -->
     <g transform="translate(290.162188 71.151094)scale(0.15 -0.15)">
      <use xlink:href="#DejaVuSans-74"/>
      <use xlink:href="#DejaVuSans-61" x="39.208984"/>
      <use xlink:href="#DejaVuSans-6e" x="100.488281"/>
      <use xlink:href="#DejaVuSans-68" x="163.867188"/>
     </g>
    </g>
    <g id="line2d_26">
     <path d="M 248.162188 87.918281 
L 263.162188 87.918281 
L 278.162188 87.918281 
" style="fill: none; stroke-dasharray: 11.1,4.8; stroke-dashoffset: 0; stroke: #0000ff; stroke-width: 3"/>
    </g>
    <g id="text_24">
     <!-- N-LAAF -->
     <g transform="translate(290.162188 93.168281)scale(0.15 -0.15)">
      <defs>
       <path id="DejaVuSans-4e" d="M 628 4666 
L 1478 4666 
L 3547 763 
L 3547 4666 
L 4159 4666 
L 4159 0 
L 3309 0 
L 1241 3903 
L 1241 0 
L 628 0 
L 628 4666 
z
" transform="scale(0.015625)"/>
       <path id="DejaVuSans-2d" d="M 313 2009 
L 1997 2009 
L 1997 1497 
L 313 1497 
L 313 2009 
z
" transform="scale(0.015625)"/>
       <path id="DejaVuSans-4c" d="M 628 4666 
L 1259 4666 
L 1259 531 
L 3531 531 
L 3531 0 
L 628 0 
L 628 4666 
z
" transform="scale(0.015625)"/>
       <path id="DejaVuSans-46" d="M 628 4666 
L 3309 4666 
L 3309 4134 
L 1259 4134 
L 1259 2759 
L 3109 2759 
L 3109 2228 
L 1259 2228 
L 1259 0 
L 628 0 
L 628 4666 
z
" transform="scale(0.015625)"/>
      </defs>
      <use xlink:href="#DejaVuSans-4e"/>
      <use xlink:href="#DejaVuSans-2d" x="74.804688"/>
      <use xlink:href="#DejaVuSans-4c" x="110.888672"/>
      <use xlink:href="#DejaVuSans-41" x="168.851562"/>
      <use xlink:href="#DejaVuSans-41" x="240.009766"/>
      <use xlink:href="#DejaVuSans-46" x="308.417969"/>
     </g>
    </g>
    <g id="line2d_27">
     <path d="M 248.162188 109.935469 
L 263.162188 109.935469 
L 278.162188 109.935469 
" style="fill: none; stroke-dasharray: 3,4.95; stroke-dashoffset: 0; stroke: #008000; stroke-width: 3"/>
    </g>
    <g id="text_25">
     <!-- Swish -->
     <g transform="translate(290.162188 115.185469)scale(0.15 -0.15)">
      <defs>
       <path id="DejaVuSans-77" d="M 269 3500 
L 844 3500 
L 1563 769 
L 2278 3500 
L 2956 3500 
L 3675 769 
L 4391 3500 
L 4966 3500 
L 4050 0 
L 3372 0 
L 2619 2869 
L 1863 0 
L 1184 0 
L 269 3500 
z
" transform="scale(0.015625)"/>
       <path id="DejaVuSans-69" d="M 603 3500 
L 1178 3500 
L 1178 0 
L 603 0 
L 603 3500 
z
M 603 4863 
L 1178 4863 
L 1178 4134 
L 603 4134 
L 603 4863 
z
" transform="scale(0.015625)"/>
      </defs>
      <use xlink:href="#DejaVuSans-53"/>
      <use xlink:href="#DejaVuSans-77" x="63.476562"/>
      <use xlink:href="#DejaVuSans-69" x="145.263672"/>
      <use xlink:href="#DejaVuSans-73" x="173.046875"/>
      <use xlink:href="#DejaVuSans-68" x="225.146484"/>
     </g>
    </g>
    <g id="line2d_28">
     <path d="M 248.162188 131.952656 
L 263.162188 131.952656 
L 278.162188 131.952656 
" style="fill: none; stroke-dasharray: 19.2,4.8,3,4.8; stroke-dashoffset: 0; stroke: #00bfbf; stroke-width: 3"/>
    </g>
    <g id="text_26">
     <!-- Rowdy -->
     <g transform="translate(290.162188 137.202656)scale(0.15 -0.15)">
      <defs>
       <path id="DejaVuSans-52" d="M 2841 2188 
Q 3044 2119 3236 1894 
Q 3428 1669 3622 1275 
L 4263 0 
L 3584 0 
L 2988 1197 
Q 2756 1666 2539 1819 
Q 2322 1972 1947 1972 
L 1259 1972 
L 1259 0 
L 628 0 
L 628 4666 
L 2053 4666 
Q 2853 4666 3247 4331 
Q 3641 3997 3641 3322 
Q 3641 2881 3436 2590 
Q 3231 2300 2841 2188 
z
M 1259 4147 
L 1259 2491 
L 2053 2491 
Q 2509 2491 2742 2702 
Q 2975 2913 2975 3322 
Q 2975 3731 2742 3939 
Q 2509 4147 2053 4147 
L 1259 4147 
z
" transform="scale(0.015625)"/>
       <path id="DejaVuSans-79" d="M 2059 -325 
Q 1816 -950 1584 -1140 
Q 1353 -1331 966 -1331 
L 506 -1331 
L 506 -850 
L 844 -850 
Q 1081 -850 1212 -737 
Q 1344 -625 1503 -206 
L 1606 56 
L 191 3500 
L 800 3500 
L 1894 763 
L 2988 3500 
L 3597 3500 
L 2059 -325 
z
" transform="scale(0.015625)"/>
      </defs>
      <use xlink:href="#DejaVuSans-52"/>
      <use xlink:href="#DejaVuSans-6f" x="64.982422"/>
      <use xlink:href="#DejaVuSans-77" x="126.164062"/>
      <use xlink:href="#DejaVuSans-64" x="207.951172"/>
      <use xlink:href="#DejaVuSans-79" x="271.427734"/>
     </g>
    </g>
   </g>
  </g>
 </g>
 <defs>
  <clipPath id="p3103213b5a">
   <rect x="66.171875" y="24.23625" width="357.12" height="266.112"/>
  </clipPath>
 </defs>
</svg>
