<?xml version="1.0" encoding="utf-8" standalone="no"?>
<!DOCTYPE svg PUBLIC "-//W3C//DTD SVG 1.1//EN"
  "http://www.w3.org/Graphics/SVG/1.1/DTD/svg11.dtd">
<svg xmlns:xlink="http://www.w3.org/1999/xlink" width="456.55pt" height="357.584687pt" viewBox="0 0 456.55 357.584687" xmlns="http://www.w3.org/2000/svg" version="1.1">
 <metadata>
  <rdf:RDF xmlns:dc="http://purl.org/dc/elements/1.1/" xmlns:cc="http://creativecommons.org/ns#" xmlns:rdf="http://www.w3.org/1999/02/22-rdf-syntax-ns#">
   <cc:Work>
    <dc:type rdf:resource="http://purl.org/dc/dcmitype/StillImage"/>
    <dc:date>2022-09-16T12:18:40.264814</dc:date>
    <dc:format>image/svg+xml</dc:format>
    <dc:creator>
     <cc:Agent>
      <dc:title>Matplotlib v3.5.2, https://matplotlib.org/</dc:title>
     </cc:Agent>
    </dc:creator>
   </cc:Work>
  </rdf:RDF>
 </metadata>
 <defs>
  <style type="text/css">*{stroke-linejoin: round; stroke-linecap: butt}</style>
 </defs>
 <g id="figure_1">
  <g id="patch_1">
   <path d="M 0 357.584687 
L 456.55 357.584687 
L 456.55 0 
L 0 0 
z
" style="fill: #ffffff"/>
  </g>
  <g id="axes_1">
   <g id="patch_2">
    <path d="M 40.565 323.357187 
L 448.915 323.357187 
L 448.915 19.677187 
L 40.565 19.677187 
z
" style="fill: #ffffff"/>
   </g>
   <g id="matplotlib.axis_1">
    <g id="xtick_1">
     <g id="line2d_1">
      <defs>
       <path id="m6e0980ac54" d="M 0 0 
L 0 3.5 
" style="stroke: #000000; stroke-width: 0.8"/>
      </defs>
      <g>
       <use xlink:href="#m6e0980ac54" x="40.565" y="323.357187" style="stroke: #000000; stroke-width: 0.8"/>
      </g>
     </g>
     <g id="text_1">
      <!-- 0 -->
      <g transform="translate(38.02 336.435937)scale(0.08 -0.08)">
       <defs>
        <path id="DejaVuSans-30" d="M 2034 4250 
Q 1547 4250 1301 3770 
Q 1056 3291 1056 2328 
Q 1056 1369 1301 889 
Q 1547 409 2034 409 
Q 2525 409 2770 889 
Q 3016 1369 3016 2328 
Q 3016 3291 2770 3770 
Q 2525 4250 2034 4250 
z
M 2034 4750 
Q 2819 4750 3233 4129 
Q 3647 3509 3647 2328 
Q 3647 1150 3233 529 
Q 2819 -91 2034 -91 
Q 1250 -91 836 529 
Q 422 1150 422 2328 
Q 422 3509 836 4129 
Q 1250 4750 2034 4750 
z
" transform="scale(0.015625)"/>
       </defs>
       <use xlink:href="#DejaVuSans-30"/>
      </g>
     </g>
    </g>
    <g id="xtick_2">
     <g id="line2d_2">
      <g>
       <use xlink:href="#m6e0980ac54" x="122.235" y="323.357187" style="stroke: #000000; stroke-width: 0.8"/>
      </g>
     </g>
     <g id="text_2">
      <!-- 20 -->
      <g transform="translate(117.145 336.435937)scale(0.08 -0.08)">
       <defs>
        <path id="DejaVuSans-32" d="M 1228 531 
L 3431 531 
L 3431 0 
L 469 0 
L 469 531 
Q 828 903 1448 1529 
Q 2069 2156 2228 2338 
Q 2531 2678 2651 2914 
Q 2772 3150 2772 3378 
Q 2772 3750 2511 3984 
Q 2250 4219 1831 4219 
Q 1534 4219 1204 4116 
Q 875 4013 500 3803 
L 500 4441 
Q 881 4594 1212 4672 
Q 1544 4750 1819 4750 
Q 2544 4750 2975 4387 
Q 3406 4025 3406 3419 
Q 3406 3131 3298 2873 
Q 3191 2616 2906 2266 
Q 2828 2175 2409 1742 
Q 1991 1309 1228 531 
z
" transform="scale(0.015625)"/>
       </defs>
       <use xlink:href="#DejaVuSans-32"/>
       <use xlink:href="#DejaVuSans-30" x="63.623047"/>
      </g>
     </g>
    </g>
    <g id="xtick_3">
     <g id="line2d_3">
      <g>
       <use xlink:href="#m6e0980ac54" x="203.905" y="323.357187" style="stroke: #000000; stroke-width: 0.8"/>
      </g>
     </g>
     <g id="text_3">
      <!-- 40 -->
      <g transform="translate(198.815 336.435937)scale(0.08 -0.08)">
       <defs>
        <path id="DejaVuSans-34" d="M 2419 4116 
L 825 1625 
L 2419 1625 
L 2419 4116 
z
M 2253 4666 
L 3047 4666 
L 3047 1625 
L 3713 1625 
L 3713 1100 
L 3047 1100 
L 3047 0 
L 2419 0 
L 2419 1100 
L 313 1100 
L 313 1709 
L 2253 4666 
z
" transform="scale(0.015625)"/>
       </defs>
       <use xlink:href="#DejaVuSans-34"/>
       <use xlink:href="#DejaVuSans-30" x="63.623047"/>
      </g>
     </g>
    </g>
    <g id="xtick_4">
     <g id="line2d_4">
      <g>
       <use xlink:href="#m6e0980ac54" x="285.575" y="323.357187" style="stroke: #000000; stroke-width: 0.8"/>
      </g>
     </g>
     <g id="text_4">
      <!-- 60 -->
      <g transform="translate(280.485 336.435937)scale(0.08 -0.08)">
       <defs>
        <path id="DejaVuSans-36" d="M 2113 2584 
Q 1688 2584 1439 2293 
Q 1191 2003 1191 1497 
Q 1191 994 1439 701 
Q 1688 409 2113 409 
Q 2538 409 2786 701 
Q 3034 994 3034 1497 
Q 3034 2003 2786 2293 
Q 2538 2584 2113 2584 
z
M 3366 4563 
L 3366 3988 
Q 3128 4100 2886 4159 
Q 2644 4219 2406 4219 
Q 1781 4219 1451 3797 
Q 1122 3375 1075 2522 
Q 1259 2794 1537 2939 
Q 1816 3084 2150 3084 
Q 2853 3084 3261 2657 
Q 3669 2231 3669 1497 
Q 3669 778 3244 343 
Q 2819 -91 2113 -91 
Q 1303 -91 875 529 
Q 447 1150 447 2328 
Q 447 3434 972 4092 
Q 1497 4750 2381 4750 
Q 2619 4750 2861 4703 
Q 3103 4656 3366 4563 
z
" transform="scale(0.015625)"/>
       </defs>
       <use xlink:href="#DejaVuSans-36"/>
       <use xlink:href="#DejaVuSans-30" x="63.623047"/>
      </g>
     </g>
    </g>
    <g id="xtick_5">
     <g id="line2d_5">
      <g>
       <use xlink:href="#m6e0980ac54" x="367.245" y="323.357187" style="stroke: #000000; stroke-width: 0.8"/>
      </g>
     </g>
     <g id="text_5">
      <!-- 80 -->
      <g transform="translate(362.155 336.435937)scale(0.08 -0.08)">
       <defs>
        <path id="DejaVuSans-38" d="M 2034 2216 
Q 1584 2216 1326 1975 
Q 1069 1734 1069 1313 
Q 1069 891 1326 650 
Q 1584 409 2034 409 
Q 2484 409 2743 651 
Q 3003 894 3003 1313 
Q 3003 1734 2745 1975 
Q 2488 2216 2034 2216 
z
M 1403 2484 
Q 997 2584 770 2862 
Q 544 3141 544 3541 
Q 544 4100 942 4425 
Q 1341 4750 2034 4750 
Q 2731 4750 3128 4425 
Q 3525 4100 3525 3541 
Q 3525 3141 3298 2862 
Q 3072 2584 2669 2484 
Q 3125 2378 3379 2068 
Q 3634 1759 3634 1313 
Q 3634 634 3220 271 
Q 2806 -91 2034 -91 
Q 1263 -91 848 271 
Q 434 634 434 1313 
Q 434 1759 690 2068 
Q 947 2378 1403 2484 
z
M 1172 3481 
Q 1172 3119 1398 2916 
Q 1625 2713 2034 2713 
Q 2441 2713 2670 2916 
Q 2900 3119 2900 3481 
Q 2900 3844 2670 4047 
Q 2441 4250 2034 4250 
Q 1625 4250 1398 4047 
Q 1172 3844 1172 3481 
z
" transform="scale(0.015625)"/>
       </defs>
       <use xlink:href="#DejaVuSans-38"/>
       <use xlink:href="#DejaVuSans-30" x="63.623047"/>
      </g>
     </g>
    </g>
    <g id="xtick_6">
     <g id="line2d_6">
      <g>
       <use xlink:href="#m6e0980ac54" x="448.915" y="323.357187" style="stroke: #000000; stroke-width: 0.8"/>
      </g>
     </g>
     <g id="text_6">
      <!-- 100 -->
      <g transform="translate(441.28 336.435937)scale(0.08 -0.08)">
       <defs>
        <path id="DejaVuSans-31" d="M 794 531 
L 1825 531 
L 1825 4091 
L 703 3866 
L 703 4441 
L 1819 4666 
L 2450 4666 
L 2450 531 
L 3481 531 
L 3481 0 
L 794 0 
L 794 531 
z
" transform="scale(0.015625)"/>
       </defs>
       <use xlink:href="#DejaVuSans-31"/>
       <use xlink:href="#DejaVuSans-30" x="63.623047"/>
       <use xlink:href="#DejaVuSans-30" x="127.246094"/>
      </g>
     </g>
    </g>
    <g id="text_7">
     <!-- Epochs -->
     <g transform="translate(216.075 354.257187)scale(0.16 -0.16)">
      <defs>
       <path id="DejaVuSans-45" d="M 628 4666 
L 3578 4666 
L 3578 4134 
L 1259 4134 
L 1259 2753 
L 3481 2753 
L 3481 2222 
L 1259 2222 
L 1259 531 
L 3634 531 
L 3634 0 
L 628 0 
L 628 4666 
z
" transform="scale(0.015625)"/>
       <path id="DejaVuSans-70" d="M 1159 525 
L 1159 -1331 
L 581 -1331 
L 581 3500 
L 1159 3500 
L 1159 2969 
Q 1341 3281 1617 3432 
Q 1894 3584 2278 3584 
Q 2916 3584 3314 3078 
Q 3713 2572 3713 1747 
Q 3713 922 3314 415 
Q 2916 -91 2278 -91 
Q 1894 -91 1617 61 
Q 1341 213 1159 525 
z
M 3116 1747 
Q 3116 2381 2855 2742 
Q 2594 3103 2138 3103 
Q 1681 3103 1420 2742 
Q 1159 2381 1159 1747 
Q 1159 1113 1420 752 
Q 1681 391 2138 391 
Q 2594 391 2855 752 
Q 3116 1113 3116 1747 
z
" transform="scale(0.015625)"/>
       <path id="DejaVuSans-6f" d="M 1959 3097 
Q 1497 3097 1228 2736 
Q 959 2375 959 1747 
Q 959 1119 1226 758 
Q 1494 397 1959 397 
Q 2419 397 2687 759 
Q 2956 1122 2956 1747 
Q 2956 2369 2687 2733 
Q 2419 3097 1959 3097 
z
M 1959 3584 
Q 2709 3584 3137 3096 
Q 3566 2609 3566 1747 
Q 3566 888 3137 398 
Q 2709 -91 1959 -91 
Q 1206 -91 779 398 
Q 353 888 353 1747 
Q 353 2609 779 3096 
Q 1206 3584 1959 3584 
z
" transform="scale(0.015625)"/>
       <path id="DejaVuSans-63" d="M 3122 3366 
L 3122 2828 
Q 2878 2963 2633 3030 
Q 2388 3097 2138 3097 
Q 1578 3097 1268 2742 
Q 959 2388 959 1747 
Q 959 1106 1268 751 
Q 1578 397 2138 397 
Q 2388 397 2633 464 
Q 2878 531 3122 666 
L 3122 134 
Q 2881 22 2623 -34 
Q 2366 -91 2075 -91 
Q 1284 -91 818 406 
Q 353 903 353 1747 
Q 353 2603 823 3093 
Q 1294 3584 2113 3584 
Q 2378 3584 2631 3529 
Q 2884 3475 3122 3366 
z
" transform="scale(0.015625)"/>
       <path id="DejaVuSans-68" d="M 3513 2113 
L 3513 0 
L 2938 0 
L 2938 2094 
Q 2938 2591 2744 2837 
Q 2550 3084 2163 3084 
Q 1697 3084 1428 2787 
Q 1159 2491 1159 1978 
L 1159 0 
L 581 0 
L 581 4863 
L 1159 4863 
L 1159 2956 
Q 1366 3272 1645 3428 
Q 1925 3584 2291 3584 
Q 2894 3584 3203 3211 
Q 3513 2838 3513 2113 
z
" transform="scale(0.015625)"/>
       <path id="DejaVuSans-73" d="M 2834 3397 
L 2834 2853 
Q 2591 2978 2328 3040 
Q 2066 3103 1784 3103 
Q 1356 3103 1142 2972 
Q 928 2841 928 2578 
Q 928 2378 1081 2264 
Q 1234 2150 1697 2047 
L 1894 2003 
Q 2506 1872 2764 1633 
Q 3022 1394 3022 966 
Q 3022 478 2636 193 
Q 2250 -91 1575 -91 
Q 1294 -91 989 -36 
Q 684 19 347 128 
L 347 722 
Q 666 556 975 473 
Q 1284 391 1588 391 
Q 1994 391 2212 530 
Q 2431 669 2431 922 
Q 2431 1156 2273 1281 
Q 2116 1406 1581 1522 
L 1381 1569 
Q 847 1681 609 1914 
Q 372 2147 372 2553 
Q 372 3047 722 3315 
Q 1072 3584 1716 3584 
Q 2034 3584 2315 3537 
Q 2597 3491 2834 3397 
z
" transform="scale(0.015625)"/>
      </defs>
      <use xlink:href="#DejaVuSans-45"/>
      <use xlink:href="#DejaVuSans-70" x="63.183594"/>
      <use xlink:href="#DejaVuSans-6f" x="126.660156"/>
      <use xlink:href="#DejaVuSans-63" x="187.841797"/>
      <use xlink:href="#DejaVuSans-68" x="242.822266"/>
      <use xlink:href="#DejaVuSans-73" x="306.201172"/>
     </g>
    </g>
   </g>
   <g id="matplotlib.axis_2">
    <g id="ytick_1">
     <g id="line2d_7">
      <defs>
       <path id="mbb166f2489" d="M 0 0 
L -3.5 0 
" style="stroke: #000000; stroke-width: 0.8"/>
      </defs>
      <g>
       <use xlink:href="#mbb166f2489" x="40.565" y="194.01116" style="stroke: #000000; stroke-width: 0.8"/>
      </g>
     </g>
     <g id="text_8">
      <!-- $\mathdefault{10^{5}}$ -->
      <g transform="translate(19.485 197.050535)scale(0.08 -0.08)">
       <defs>
        <path id="DejaVuSans-35" d="M 691 4666 
L 3169 4666 
L 3169 4134 
L 1269 4134 
L 1269 2991 
Q 1406 3038 1543 3061 
Q 1681 3084 1819 3084 
Q 2600 3084 3056 2656 
Q 3513 2228 3513 1497 
Q 3513 744 3044 326 
Q 2575 -91 1722 -91 
Q 1428 -91 1123 -41 
Q 819 9 494 109 
L 494 744 
Q 775 591 1075 516 
Q 1375 441 1709 441 
Q 2250 441 2565 725 
Q 2881 1009 2881 1497 
Q 2881 1984 2565 2268 
Q 2250 2553 1709 2553 
Q 1456 2553 1204 2497 
Q 953 2441 691 2322 
L 691 4666 
z
" transform="scale(0.015625)"/>
       </defs>
       <use xlink:href="#DejaVuSans-31" transform="translate(0 0.684375)"/>
       <use xlink:href="#DejaVuSans-30" transform="translate(63.623047 0.684375)"/>
       <use xlink:href="#DejaVuSans-35" transform="translate(128.203125 38.965625)scale(0.7)"/>
      </g>
     </g>
    </g>
    <g id="ytick_2">
     <g id="line2d_8">
      <g>
       <use xlink:href="#mbb166f2489" x="40.565" y="35.82329" style="stroke: #000000; stroke-width: 0.8"/>
      </g>
     </g>
     <g id="text_9">
      <!-- $\mathdefault{10^{6}}$ -->
      <g transform="translate(19.485 38.862665)scale(0.08 -0.08)">
       <use xlink:href="#DejaVuSans-31" transform="translate(0 0.765625)"/>
       <use xlink:href="#DejaVuSans-30" transform="translate(63.623047 0.765625)"/>
       <use xlink:href="#DejaVuSans-36" transform="translate(128.203125 39.046875)scale(0.7)"/>
      </g>
     </g>
    </g>
    <g id="ytick_3">
     <g id="line2d_9">
      <defs>
       <path id="m103fcde31e" d="M 0 0 
L -2 0 
" style="stroke: #000000; stroke-width: 0.6"/>
      </defs>
      <g>
       <use xlink:href="#m103fcde31e" x="40.565" y="304.579737" style="stroke: #000000; stroke-width: 0.6"/>
      </g>
     </g>
    </g>
    <g id="ytick_4">
     <g id="line2d_10">
      <g>
       <use xlink:href="#m103fcde31e" x="40.565" y="276.724236" style="stroke: #000000; stroke-width: 0.6"/>
      </g>
     </g>
    </g>
    <g id="ytick_5">
     <g id="line2d_11">
      <g>
       <use xlink:href="#m103fcde31e" x="40.565" y="256.960443" style="stroke: #000000; stroke-width: 0.6"/>
      </g>
     </g>
    </g>
    <g id="ytick_6">
     <g id="line2d_12">
      <g>
       <use xlink:href="#m103fcde31e" x="40.565" y="241.630454" style="stroke: #000000; stroke-width: 0.6"/>
      </g>
     </g>
    </g>
    <g id="ytick_7">
     <g id="line2d_13">
      <g>
       <use xlink:href="#m103fcde31e" x="40.565" y="229.104942" style="stroke: #000000; stroke-width: 0.6"/>
      </g>
     </g>
    </g>
    <g id="ytick_8">
     <g id="line2d_14">
      <g>
       <use xlink:href="#m103fcde31e" x="40.565" y="218.514772" style="stroke: #000000; stroke-width: 0.6"/>
      </g>
     </g>
    </g>
    <g id="ytick_9">
     <g id="line2d_15">
      <g>
       <use xlink:href="#m103fcde31e" x="40.565" y="209.341149" style="stroke: #000000; stroke-width: 0.6"/>
      </g>
     </g>
    </g>
    <g id="ytick_10">
     <g id="line2d_16">
      <g>
       <use xlink:href="#m103fcde31e" x="40.565" y="201.24944" style="stroke: #000000; stroke-width: 0.6"/>
      </g>
     </g>
    </g>
    <g id="ytick_11">
     <g id="line2d_17">
      <g>
       <use xlink:href="#m103fcde31e" x="40.565" y="146.391866" style="stroke: #000000; stroke-width: 0.6"/>
      </g>
     </g>
    </g>
    <g id="ytick_12">
     <g id="line2d_18">
      <g>
       <use xlink:href="#m103fcde31e" x="40.565" y="118.536365" style="stroke: #000000; stroke-width: 0.6"/>
      </g>
     </g>
    </g>
    <g id="ytick_13">
     <g id="line2d_19">
      <g>
       <use xlink:href="#m103fcde31e" x="40.565" y="98.772572" style="stroke: #000000; stroke-width: 0.6"/>
      </g>
     </g>
    </g>
    <g id="ytick_14">
     <g id="line2d_20">
      <g>
       <use xlink:href="#m103fcde31e" x="40.565" y="83.442584" style="stroke: #000000; stroke-width: 0.6"/>
      </g>
     </g>
    </g>
    <g id="ytick_15">
     <g id="line2d_21">
      <g>
       <use xlink:href="#m103fcde31e" x="40.565" y="70.917071" style="stroke: #000000; stroke-width: 0.6"/>
      </g>
     </g>
    </g>
    <g id="ytick_16">
     <g id="line2d_22">
      <g>
       <use xlink:href="#m103fcde31e" x="40.565" y="60.326901" style="stroke: #000000; stroke-width: 0.6"/>
      </g>
     </g>
    </g>
    <g id="ytick_17">
     <g id="line2d_23">
      <g>
       <use xlink:href="#m103fcde31e" x="40.565" y="51.153279" style="stroke: #000000; stroke-width: 0.6"/>
      </g>
     </g>
    </g>
    <g id="ytick_18">
     <g id="line2d_24">
      <g>
       <use xlink:href="#m103fcde31e" x="40.565" y="43.06157" style="stroke: #000000; stroke-width: 0.6"/>
      </g>
     </g>
    </g>
    <g id="text_10">
     <!-- Loss Value -->
     <g transform="translate(12.1575 213.577187)rotate(-90)scale(0.16 -0.16)">
      <defs>
       <path id="DejaVuSans-4c" d="M 628 4666 
L 1259 4666 
L 1259 531 
L 3531 531 
L 3531 0 
L 628 0 
L 628 4666 
z
" transform="scale(0.015625)"/>
       <path id="DejaVuSans-20" transform="scale(0.015625)"/>
       <path id="DejaVuSans-56" d="M 1831 0 
L 50 4666 
L 709 4666 
L 2188 738 
L 3669 4666 
L 4325 4666 
L 2547 0 
L 1831 0 
z
" transform="scale(0.015625)"/>
       <path id="DejaVuSans-61" d="M 2194 1759 
Q 1497 1759 1228 1600 
Q 959 1441 959 1056 
Q 959 750 1161 570 
Q 1363 391 1709 391 
Q 2188 391 2477 730 
Q 2766 1069 2766 1631 
L 2766 1759 
L 2194 1759 
z
M 3341 1997 
L 3341 0 
L 2766 0 
L 2766 531 
Q 2569 213 2275 61 
Q 1981 -91 1556 -91 
Q 1019 -91 701 211 
Q 384 513 384 1019 
Q 384 1609 779 1909 
Q 1175 2209 1959 2209 
L 2766 2209 
L 2766 2266 
Q 2766 2663 2505 2880 
Q 2244 3097 1772 3097 
Q 1472 3097 1187 3025 
Q 903 2953 641 2809 
L 641 3341 
Q 956 3463 1253 3523 
Q 1550 3584 1831 3584 
Q 2591 3584 2966 3190 
Q 3341 2797 3341 1997 
z
" transform="scale(0.015625)"/>
       <path id="DejaVuSans-6c" d="M 603 4863 
L 1178 4863 
L 1178 0 
L 603 0 
L 603 4863 
z
" transform="scale(0.015625)"/>
       <path id="DejaVuSans-75" d="M 544 1381 
L 544 3500 
L 1119 3500 
L 1119 1403 
Q 1119 906 1312 657 
Q 1506 409 1894 409 
Q 2359 409 2629 706 
Q 2900 1003 2900 1516 
L 2900 3500 
L 3475 3500 
L 3475 0 
L 2900 0 
L 2900 538 
Q 2691 219 2414 64 
Q 2138 -91 1772 -91 
Q 1169 -91 856 284 
Q 544 659 544 1381 
z
M 1991 3584 
L 1991 3584 
z
" transform="scale(0.015625)"/>
       <path id="DejaVuSans-65" d="M 3597 1894 
L 3597 1613 
L 953 1613 
Q 991 1019 1311 708 
Q 1631 397 2203 397 
Q 2534 397 2845 478 
Q 3156 559 3463 722 
L 3463 178 
Q 3153 47 2828 -22 
Q 2503 -91 2169 -91 
Q 1331 -91 842 396 
Q 353 884 353 1716 
Q 353 2575 817 3079 
Q 1281 3584 2069 3584 
Q 2775 3584 3186 3129 
Q 3597 2675 3597 1894 
z
M 3022 2063 
Q 3016 2534 2758 2815 
Q 2500 3097 2075 3097 
Q 1594 3097 1305 2825 
Q 1016 2553 972 2059 
L 3022 2063 
z
" transform="scale(0.015625)"/>
      </defs>
      <use xlink:href="#DejaVuSans-4c"/>
      <use xlink:href="#DejaVuSans-6f" x="53.962891"/>
      <use xlink:href="#DejaVuSans-73" x="115.144531"/>
      <use xlink:href="#DejaVuSans-73" x="167.244141"/>
      <use xlink:href="#DejaVuSans-20" x="219.34375"/>
      <use xlink:href="#DejaVuSans-56" x="251.130859"/>
      <use xlink:href="#DejaVuSans-61" x="311.789062"/>
      <use xlink:href="#DejaVuSans-6c" x="373.068359"/>
      <use xlink:href="#DejaVuSans-75" x="400.851562"/>
      <use xlink:href="#DejaVuSans-65" x="464.230469"/>
     </g>
    </g>
   </g>
   <g id="line2d_25">
    <path d="M 40.565 125.829898 
L 44.6485 147.637755 
L 48.732 155.981394 
L 52.8155 162.819133 
L 56.899 165.35717 
L 60.9825 168.605498 
L 65.066 173.634827 
L 69.1495 181.993328 
L 73.233 188.208252 
L 77.3165 195.936321 
L 81.4 205.374946 
L 85.4835 216.981541 
L 89.567 224.920451 
L 93.6505 231.634369 
L 97.734 239.634876 
L 101.8175 245.000393 
L 105.901 248.829893 
L 109.9845 251.530283 
L 114.068 253.978465 
L 118.1515 257.178536 
L 122.235 259.908418 
L 126.3185 262.368543 
L 130.402 263.672832 
L 134.4855 265.316723 
L 138.569 268.261279 
L 142.6525 269.274981 
L 146.736 270.284967 
L 150.8195 270.750187 
L 154.903 271.61356 
L 158.9865 272.118452 
L 163.07 272.514718 
L 167.1535 272.932547 
L 171.237 273.17749 
L 175.3205 273.417432 
L 179.404 274.242531 
L 183.4875 274.973288 
L 187.571 275.2908 
L 191.6545 275.990553 
L 195.738 277.028279 
L 199.8215 277.333571 
L 203.905 277.770605 
L 207.9885 278.671781 
L 212.072 279.307536 
L 216.1555 280.016778 
L 220.239 280.804273 
L 224.3225 281.476941 
L 228.406 282.792796 
L 232.4895 283.949601 
L 236.573 284.803649 
L 240.6565 286.323335 
L 244.74 286.831378 
L 248.8235 287.493522 
L 252.907 288.077431 
L 256.9905 288.795141 
L 261.074 289.01689 
L 265.1575 289.315496 
L 269.241 289.87549 
L 273.3245 290.55697 
L 277.408 290.881874 
L 281.4915 291.739812 
L 285.575 292.397008 
L 289.6585 292.835954 
L 293.742 293.60099 
L 297.8255 294.478871 
L 301.909 294.924744 
L 305.9925 295.208287 
L 310.076 295.346639 
L 314.1595 295.867144 
L 318.243 296.72096 
L 322.3265 297.03354 
L 326.41 297.872427 
L 330.4935 298.21273 
L 334.577 298.833296 
L 338.6605 299.37898 
L 342.744 299.573951 
L 346.8275 300.126945 
L 350.911 300.659822 
L 354.9945 301.451223 
L 359.078 301.915344 
L 363.1615 302.463756 
L 367.245 302.679139 
L 371.3285 302.918129 
L 375.412 303.586519 
L 379.4955 304.315261 
L 383.579 304.752899 
L 387.6625 305.113818 
L 391.746 305.335487 
L 395.8295 305.544198 
L 399.913 305.83816 
L 403.9965 306.215042 
L 408.08 306.685818 
L 412.1635 306.938847 
L 416.247 307.328767 
L 420.3305 307.567151 
L 424.414 307.798067 
L 428.4975 307.933247 
L 432.581 308.068037 
L 436.6645 308.458552 
L 440.748 309.07825 
L 444.8315 309.553551 
" clip-path="url(#p6fe152bc1a)" style="fill: none; stroke: #ff0000; stroke-width: 2; stroke-linecap: square"/>
   </g>
   <g id="line2d_26">
    <path d="M 40.565 63.340434 
L 44.6485 94.19674 
L 48.732 134.704941 
L 52.8155 139.209842 
L 56.899 142.324723 
L 60.9825 144.94433 
L 65.066 146.8056 
L 69.1495 148.607198 
L 73.233 149.733457 
L 77.3165 151.347317 
L 81.4 152.496957 
L 85.4835 153.408832 
L 89.567 154.389263 
L 93.6505 155.147758 
L 97.734 156.337609 
L 101.8175 157.739746 
L 105.901 158.464128 
L 109.9845 159.462194 
L 114.068 160.652977 
L 118.1515 162.487598 
L 122.235 163.815077 
L 126.3185 166.352631 
L 130.402 168.359673 
L 134.4855 169.781812 
L 138.569 171.773316 
L 142.6525 173.615273 
L 146.736 175.108765 
L 150.8195 176.394145 
L 154.903 178.600908 
L 158.9865 180.241601 
L 163.07 182.065874 
L 167.1535 183.519586 
L 171.237 184.52686 
L 175.3205 186.067039 
L 179.404 187.288173 
L 183.4875 188.29129 
L 187.571 189.934118 
L 191.6545 191.201318 
L 195.738 192.141484 
L 199.8215 193.360309 
L 203.905 193.969105 
L 207.9885 194.461913 
L 212.072 195.070135 
L 216.1555 196.101272 
L 220.239 196.816095 
L 224.3225 197.531417 
L 228.406 198.133835 
L 232.4895 198.783527 
L 236.573 199.383469 
L 240.6565 199.878948 
L 244.74 200.296797 
L 248.8235 201.055089 
L 252.907 202.056004 
L 256.9905 202.643704 
L 261.074 203.441908 
L 265.1575 203.876184 
L 269.241 204.155714 
L 273.3245 204.565357 
L 277.408 205.117223 
L 281.4915 205.339695 
L 285.575 205.793023 
L 289.6585 206.270853 
L 293.742 206.692653 
L 297.8255 207.025972 
L 301.909 207.6489 
L 305.9925 208.384708 
L 310.076 208.707118 
L 314.1595 209.033734 
L 318.243 209.625541 
L 322.3265 209.98909 
L 326.41 210.385615 
L 330.4935 210.781592 
L 334.577 211.185984 
L 338.6605 211.586316 
L 342.744 211.844423 
L 346.8275 212.145786 
L 350.911 212.551577 
L 354.9945 212.962432 
L 359.078 213.252285 
L 363.1615 213.496602 
L 367.245 213.786096 
L 371.3285 214.099381 
L 375.412 214.290415 
L 379.4955 214.463425 
L 383.579 214.612331 
L 387.6625 214.734341 
L 391.746 214.885647 
L 395.8295 215.047536 
L 399.913 215.382755 
L 403.9965 215.583994 
L 408.08 215.69499 
L 412.1635 215.856468 
L 416.247 216.018557 
L 420.3305 216.268508 
L 424.414 216.456303 
L 428.4975 216.747979 
L 432.581 216.877784 
L 436.6645 216.994304 
L 440.748 217.311917 
L 444.8315 217.594024 
" clip-path="url(#p6fe152bc1a)" style="fill: none; stroke-dasharray: 6,2,2,2; stroke-dashoffset: 0; stroke: #000000; stroke-width: 2"/>
   </g>
   <g id="line2d_27">
    <path d="M 40.565 43.454214 
L 44.6485 79.577487 
L 48.732 98.171449 
L 52.8155 132.509077 
L 56.899 135.466637 
L 60.9825 139.50949 
L 65.066 143.800997 
L 69.1495 146.99332 
L 73.233 149.041383 
L 77.3165 151.091424 
L 81.4 152.218413 
L 85.4835 153.561892 
L 89.567 155.415543 
L 93.6505 156.860501 
L 97.734 158.007163 
L 101.8175 158.647292 
L 105.901 159.013848 
L 109.9845 159.48077 
L 114.068 159.954698 
L 118.1515 160.468715 
L 122.235 160.954534 
L 126.3185 161.213441 
L 130.402 161.720211 
L 134.4855 162.196097 
L 138.569 162.535613 
L 142.6525 162.809603 
L 146.736 163.111296 
L 150.8195 163.531944 
L 154.903 163.895882 
L 158.9865 164.051657 
L 163.07 164.332031 
L 167.1535 164.600212 
L 171.237 164.823363 
L 175.3205 164.994533 
L 179.404 165.177983 
L 183.4875 165.264576 
L 187.571 165.344566 
L 191.6545 165.638332 
L 195.738 165.796803 
L 199.8215 165.84141 
L 203.905 165.993796 
L 207.9885 166.115539 
L 212.072 166.181541 
L 216.1555 166.322574 
L 220.239 166.406974 
L 224.3225 166.448918 
L 228.406 166.607953 
L 232.4895 166.703604 
L 236.573 166.771091 
L 240.6565 166.841145 
L 244.74 166.977456 
L 248.8235 167.099679 
L 252.907 167.157528 
L 256.9905 167.196692 
L 261.074 167.323309 
L 265.1575 167.399489 
L 269.241 167.490017 
L 273.3245 167.652954 
L 277.408 167.752722 
L 281.4915 167.902894 
L 285.575 168.012657 
L 289.6585 168.078728 
L 293.742 168.1513 
L 297.8255 168.216509 
L 301.909 168.297636 
L 305.9925 168.348589 
L 310.076 168.444779 
L 314.1595 168.574639 
L 318.243 168.709379 
L 322.3265 168.750129 
L 326.41 168.788108 
L 330.4935 168.85021 
L 334.577 168.915036 
L 338.6605 169.016857 
L 342.744 169.072058 
L 346.8275 169.122438 
L 350.911 169.199586 
L 354.9945 169.262436 
L 359.078 169.30703 
L 363.1615 169.367023 
L 367.245 169.393979 
L 371.3285 169.467504 
L 375.412 169.510992 
L 379.4955 169.551589 
L 383.579 169.591549 
L 387.6625 169.657823 
L 391.746 169.699985 
L 395.8295 169.750375 
L 399.913 169.77021 
L 403.9965 169.824065 
L 408.08 169.859153 
L 412.1635 169.884361 
L 416.247 169.923169 
L 420.3305 169.975002 
L 424.414 170.011583 
L 428.4975 170.03983 
L 432.581 170.072347 
L 436.6645 170.09858 
L 440.748 170.120191 
L 444.8315 170.159049 
" clip-path="url(#p6fe152bc1a)" style="fill: none; stroke-dasharray: 7.4,3.2; stroke-dashoffset: 0; stroke: #0000ff; stroke-width: 2"/>
   </g>
   <g id="line2d_28">
    <path d="M 40.565 132.799664 
L 44.6485 142.395201 
L 48.732 147.66132 
L 52.8155 150.686539 
L 56.899 152.265348 
L 60.9825 153.110467 
L 65.066 156.17246 
L 69.1495 159.078524 
L 73.233 162.064296 
L 77.3165 165.841759 
L 81.4 170.43433 
L 85.4835 174.254858 
L 89.567 177.966794 
L 93.6505 180.895623 
L 97.734 184.102788 
L 101.8175 187.454806 
L 105.901 191.06937 
L 109.9845 193.630491 
L 114.068 195.247578 
L 118.1515 198.273874 
L 122.235 202.024309 
L 126.3185 204.757717 
L 130.402 209.094319 
L 134.4855 215.089846 
L 138.569 219.245167 
L 142.6525 221.924518 
L 146.736 223.824195 
L 150.8195 227.601067 
L 154.903 234.265367 
L 158.9865 235.497519 
L 163.07 237.041 
L 167.1535 239.887047 
L 171.237 244.596197 
L 175.3205 246.73525 
L 179.404 249.969147 
L 183.4875 252.17024 
L 187.571 254.076707 
L 191.6545 255.585538 
L 195.738 257.22229 
L 199.8215 258.047394 
L 203.905 259.133764 
L 207.9885 259.644437 
L 212.072 260.442348 
L 216.1555 261.159237 
L 220.239 262.006639 
L 224.3225 262.834268 
L 228.406 263.453696 
L 232.4895 263.986785 
L 236.573 264.893474 
L 240.6565 265.67173 
L 244.74 266.237992 
L 248.8235 266.876187 
L 252.907 267.225125 
L 256.9905 267.569454 
L 261.074 268.031131 
L 265.1575 268.498367 
L 269.241 269.168021 
L 273.3245 269.59752 
L 277.408 270.444182 
L 281.4915 270.869868 
L 285.575 271.242845 
L 289.6585 271.636707 
L 293.742 271.980079 
L 297.8255 272.170755 
L 301.909 272.448354 
L 305.9925 272.694451 
L 310.076 272.825692 
L 314.1595 273.06673 
L 318.243 273.23067 
L 322.3265 273.524316 
L 326.41 273.725887 
L 330.4935 273.921752 
L 334.577 274.07475 
L 338.6605 274.13456 
L 342.744 274.200211 
L 346.8275 274.286613 
L 350.911 274.325358 
L 354.9945 274.420221 
L 359.078 274.461413 
L 363.1615 274.499681 
L 367.245 274.534825 
L 371.3285 274.562098 
L 375.412 274.622542 
L 379.4955 274.692674 
L 383.579 274.720366 
L 387.6625 274.775006 
L 391.746 274.830673 
L 395.8295 274.890875 
L 399.913 275.041959 
L 403.9965 275.10142 
L 408.08 275.173779 
L 412.1635 275.22847 
L 416.247 275.262448 
L 420.3305 275.308836 
L 424.414 275.369244 
L 428.4975 275.440208 
L 432.581 275.540677 
L 436.6645 275.738742 
L 440.748 275.950124 
L 444.8315 276.091122 
" clip-path="url(#p6fe152bc1a)" style="fill: none; stroke-dasharray: 2,3.3; stroke-dashoffset: 0; stroke: #008000; stroke-width: 2"/>
   </g>
   <g id="line2d_29">
    <path d="M 40.565 33.480824 
L 44.6485 74.370161 
L 48.732 81.524876 
L 52.8155 102.001713 
L 56.899 123.998412 
L 60.9825 136.719767 
L 65.066 143.510061 
L 69.1495 145.913238 
L 73.233 148.917346 
L 77.3165 153.893985 
L 81.4 157.210176 
L 85.4835 159.747156 
L 89.567 162.277859 
L 93.6505 165.210268 
L 97.734 168.419599 
L 101.8175 169.494439 
L 105.901 171.765768 
L 109.9845 173.426556 
L 114.068 177.191982 
L 118.1515 179.95967 
L 122.235 182.789587 
L 126.3185 185.345794 
L 130.402 188.855978 
L 134.4855 191.595692 
L 138.569 193.881718 
L 142.6525 196.183109 
L 146.736 199.820842 
L 150.8195 202.723919 
L 154.903 205.785799 
L 158.9865 210.100956 
L 163.07 214.081157 
L 167.1535 219.54581 
L 171.237 221.93804 
L 175.3205 224.640212 
L 179.404 226.472138 
L 183.4875 229.130418 
L 187.571 231.391701 
L 191.6545 233.314805 
L 195.738 235.154958 
L 199.8215 237.573793 
L 203.905 239.492574 
L 207.9885 240.107861 
L 212.072 241.893849 
L 216.1555 242.690399 
L 220.239 243.186686 
L 224.3225 244.117724 
L 228.406 245.401237 
L 232.4895 246.483201 
L 236.573 247.307642 
L 240.6565 248.194274 
L 244.74 249.205827 
L 248.8235 250.594169 
L 252.907 251.615823 
L 256.9905 252.493944 
L 261.074 253.810541 
L 265.1575 255.047499 
L 269.241 256.087722 
L 273.3245 256.695212 
L 277.408 257.673276 
L 281.4915 259.218927 
L 285.575 261.37774 
L 289.6585 262.842059 
L 293.742 264.811587 
L 297.8255 266.320183 
L 301.909 268.169799 
L 305.9925 269.634374 
L 310.076 270.440418 
L 314.1595 271.258519 
L 318.243 272.368888 
L 322.3265 273.506601 
L 326.41 274.696591 
L 330.4935 276.097203 
L 334.577 276.699327 
L 338.6605 277.761931 
L 342.744 278.286335 
L 346.8275 279.148703 
L 350.911 280.208094 
L 354.9945 280.968869 
L 359.078 281.441482 
L 363.1615 282.028484 
L 367.245 283.016819 
L 371.3285 283.511668 
L 375.412 284.268131 
L 379.4955 285.006909 
L 383.579 285.304414 
L 387.6625 285.836097 
L 391.746 286.745222 
L 395.8295 287.367104 
L 399.913 287.917142 
L 403.9965 289.081093 
L 408.08 289.448504 
L 412.1635 289.861886 
L 416.247 290.301822 
L 420.3305 290.466425 
L 424.414 291.054778 
L 428.4975 291.31902 
L 432.581 291.623529 
L 436.6645 291.962685 
L 440.748 292.548325 
L 444.8315 293.118392 
" clip-path="url(#p6fe152bc1a)" style="fill: none; stroke-dasharray: 12.8,3.2,2,3.2; stroke-dashoffset: 0; stroke: #00bfbf; stroke-width: 2"/>
   </g>
   <g id="patch_3">
    <path d="M 40.565 323.357187 
L 40.565 19.677187 
" style="fill: none; stroke: #000000; stroke-width: 0.8; stroke-linejoin: miter; stroke-linecap: square"/>
   </g>
   <g id="patch_4">
    <path d="M 448.915 323.357187 
L 448.915 19.677187 
" style="fill: none; stroke: #000000; stroke-width: 0.8; stroke-linejoin: miter; stroke-linecap: square"/>
   </g>
   <g id="patch_5">
    <path d="M 40.565 323.357187 
L 448.915 323.357187 
" style="fill: none; stroke: #000000; stroke-width: 0.8; stroke-linejoin: miter; stroke-linecap: square"/>
   </g>
   <g id="patch_6">
    <path d="M 40.565 19.677187 
L 448.915 19.677187 
" style="fill: none; stroke: #000000; stroke-width: 0.8; stroke-linejoin: miter; stroke-linecap: square"/>
   </g>
   <g id="text_11">
    <!-- Training Convergence -->
    <g transform="translate(147.029531 13.677187)scale(0.18 -0.18)">
     <defs>
      <path id="DejaVuSans-54" d="M -19 4666 
L 3928 4666 
L 3928 4134 
L 2272 4134 
L 2272 0 
L 1638 0 
L 1638 4134 
L -19 4134 
L -19 4666 
z
" transform="scale(0.015625)"/>
      <path id="DejaVuSans-72" d="M 2631 2963 
Q 2534 3019 2420 3045 
Q 2306 3072 2169 3072 
Q 1681 3072 1420 2755 
Q 1159 2438 1159 1844 
L 1159 0 
L 581 0 
L 581 3500 
L 1159 3500 
L 1159 2956 
Q 1341 3275 1631 3429 
Q 1922 3584 2338 3584 
Q 2397 3584 2469 3576 
Q 2541 3569 2628 3553 
L 2631 2963 
z
" transform="scale(0.015625)"/>
      <path id="DejaVuSans-69" d="M 603 3500 
L 1178 3500 
L 1178 0 
L 603 0 
L 603 3500 
z
M 603 4863 
L 1178 4863 
L 1178 4134 
L 603 4134 
L 603 4863 
z
" transform="scale(0.015625)"/>
      <path id="DejaVuSans-6e" d="M 3513 2113 
L 3513 0 
L 2938 0 
L 2938 2094 
Q 2938 2591 2744 2837 
Q 2550 3084 2163 3084 
Q 1697 3084 1428 2787 
Q 1159 2491 1159 1978 
L 1159 0 
L 581 0 
L 581 3500 
L 1159 3500 
L 1159 2956 
Q 1366 3272 1645 3428 
Q 1925 3584 2291 3584 
Q 2894 3584 3203 3211 
Q 3513 2838 3513 2113 
z
" transform="scale(0.015625)"/>
      <path id="DejaVuSans-67" d="M 2906 1791 
Q 2906 2416 2648 2759 
Q 2391 3103 1925 3103 
Q 1463 3103 1205 2759 
Q 947 2416 947 1791 
Q 947 1169 1205 825 
Q 1463 481 1925 481 
Q 2391 481 2648 825 
Q 2906 1169 2906 1791 
z
M 3481 434 
Q 3481 -459 3084 -895 
Q 2688 -1331 1869 -1331 
Q 1566 -1331 1297 -1286 
Q 1028 -1241 775 -1147 
L 775 -588 
Q 1028 -725 1275 -790 
Q 1522 -856 1778 -856 
Q 2344 -856 2625 -561 
Q 2906 -266 2906 331 
L 2906 616 
Q 2728 306 2450 153 
Q 2172 0 1784 0 
Q 1141 0 747 490 
Q 353 981 353 1791 
Q 353 2603 747 3093 
Q 1141 3584 1784 3584 
Q 2172 3584 2450 3431 
Q 2728 3278 2906 2969 
L 2906 3500 
L 3481 3500 
L 3481 434 
z
" transform="scale(0.015625)"/>
      <path id="DejaVuSans-43" d="M 4122 4306 
L 4122 3641 
Q 3803 3938 3442 4084 
Q 3081 4231 2675 4231 
Q 1875 4231 1450 3742 
Q 1025 3253 1025 2328 
Q 1025 1406 1450 917 
Q 1875 428 2675 428 
Q 3081 428 3442 575 
Q 3803 722 4122 1019 
L 4122 359 
Q 3791 134 3420 21 
Q 3050 -91 2638 -91 
Q 1578 -91 968 557 
Q 359 1206 359 2328 
Q 359 3453 968 4101 
Q 1578 4750 2638 4750 
Q 3056 4750 3426 4639 
Q 3797 4528 4122 4306 
z
" transform="scale(0.015625)"/>
      <path id="DejaVuSans-76" d="M 191 3500 
L 800 3500 
L 1894 563 
L 2988 3500 
L 3597 3500 
L 2284 0 
L 1503 0 
L 191 3500 
z
" transform="scale(0.015625)"/>
     </defs>
     <use xlink:href="#DejaVuSans-54"/>
     <use xlink:href="#DejaVuSans-72" x="46.333984"/>
     <use xlink:href="#DejaVuSans-61" x="87.447266"/>
     <use xlink:href="#DejaVuSans-69" x="148.726562"/>
     <use xlink:href="#DejaVuSans-6e" x="176.509766"/>
     <use xlink:href="#DejaVuSans-69" x="239.888672"/>
     <use xlink:href="#DejaVuSans-6e" x="267.671875"/>
     <use xlink:href="#DejaVuSans-67" x="331.050781"/>
     <use xlink:href="#DejaVuSans-20" x="394.527344"/>
     <use xlink:href="#DejaVuSans-43" x="426.314453"/>
     <use xlink:href="#DejaVuSans-6f" x="496.138672"/>
     <use xlink:href="#DejaVuSans-6e" x="557.320312"/>
     <use xlink:href="#DejaVuSans-76" x="620.699219"/>
     <use xlink:href="#DejaVuSans-65" x="679.878906"/>
     <use xlink:href="#DejaVuSans-72" x="741.402344"/>
     <use xlink:href="#DejaVuSans-67" x="780.765625"/>
     <use xlink:href="#DejaVuSans-65" x="844.242188"/>
     <use xlink:href="#DejaVuSans-6e" x="905.765625"/>
     <use xlink:href="#DejaVuSans-63" x="969.144531"/>
     <use xlink:href="#DejaVuSans-65" x="1024.125"/>
    </g>
   </g>
   <g id="legend_1">
    <g id="patch_7">
     <path d="M 282.660625 133.624062 
L 439.115 133.624062 
Q 441.915 133.624062 441.915 130.824062 
L 441.915 29.477187 
Q 441.915 26.677187 439.115 26.677187 
L 282.660625 26.677187 
Q 279.860625 26.677187 279.860625 29.477187 
L 279.860625 130.824062 
Q 279.860625 133.624062 282.660625 133.624062 
z
" style="fill: #ffffff; opacity: 0.8; stroke: #cccccc; stroke-linejoin: miter"/>
    </g>
    <g id="line2d_30">
     <path d="M 285.460625 38.015 
L 299.460625 38.015 
L 313.460625 38.015 
" style="fill: none; stroke: #ff0000; stroke-width: 2; stroke-linecap: square"/>
    </g>
    <g id="text_12">
     <!-- Stan (Proposed) -->
     <g transform="translate(324.660625 42.915)scale(0.14 -0.14)">
      <defs>
       <path id="DejaVuSans-53" d="M 3425 4513 
L 3425 3897 
Q 3066 4069 2747 4153 
Q 2428 4238 2131 4238 
Q 1616 4238 1336 4038 
Q 1056 3838 1056 3469 
Q 1056 3159 1242 3001 
Q 1428 2844 1947 2747 
L 2328 2669 
Q 3034 2534 3370 2195 
Q 3706 1856 3706 1288 
Q 3706 609 3251 259 
Q 2797 -91 1919 -91 
Q 1588 -91 1214 -16 
Q 841 59 441 206 
L 441 856 
Q 825 641 1194 531 
Q 1563 422 1919 422 
Q 2459 422 2753 634 
Q 3047 847 3047 1241 
Q 3047 1584 2836 1778 
Q 2625 1972 2144 2069 
L 1759 2144 
Q 1053 2284 737 2584 
Q 422 2884 422 3419 
Q 422 4038 858 4394 
Q 1294 4750 2059 4750 
Q 2388 4750 2728 4690 
Q 3069 4631 3425 4513 
z
" transform="scale(0.015625)"/>
       <path id="DejaVuSans-74" d="M 1172 4494 
L 1172 3500 
L 2356 3500 
L 2356 3053 
L 1172 3053 
L 1172 1153 
Q 1172 725 1289 603 
Q 1406 481 1766 481 
L 2356 481 
L 2356 0 
L 1766 0 
Q 1100 0 847 248 
Q 594 497 594 1153 
L 594 3053 
L 172 3053 
L 172 3500 
L 594 3500 
L 594 4494 
L 1172 4494 
z
" transform="scale(0.015625)"/>
       <path id="DejaVuSans-28" d="M 1984 4856 
Q 1566 4138 1362 3434 
Q 1159 2731 1159 2009 
Q 1159 1288 1364 580 
Q 1569 -128 1984 -844 
L 1484 -844 
Q 1016 -109 783 600 
Q 550 1309 550 2009 
Q 550 2706 781 3412 
Q 1013 4119 1484 4856 
L 1984 4856 
z
" transform="scale(0.015625)"/>
       <path id="DejaVuSans-50" d="M 1259 4147 
L 1259 2394 
L 2053 2394 
Q 2494 2394 2734 2622 
Q 2975 2850 2975 3272 
Q 2975 3691 2734 3919 
Q 2494 4147 2053 4147 
L 1259 4147 
z
M 628 4666 
L 2053 4666 
Q 2838 4666 3239 4311 
Q 3641 3956 3641 3272 
Q 3641 2581 3239 2228 
Q 2838 1875 2053 1875 
L 1259 1875 
L 1259 0 
L 628 0 
L 628 4666 
z
" transform="scale(0.015625)"/>
       <path id="DejaVuSans-64" d="M 2906 2969 
L 2906 4863 
L 3481 4863 
L 3481 0 
L 2906 0 
L 2906 525 
Q 2725 213 2448 61 
Q 2172 -91 1784 -91 
Q 1150 -91 751 415 
Q 353 922 353 1747 
Q 353 2572 751 3078 
Q 1150 3584 1784 3584 
Q 2172 3584 2448 3432 
Q 2725 3281 2906 2969 
z
M 947 1747 
Q 947 1113 1208 752 
Q 1469 391 1925 391 
Q 2381 391 2643 752 
Q 2906 1113 2906 1747 
Q 2906 2381 2643 2742 
Q 2381 3103 1925 3103 
Q 1469 3103 1208 2742 
Q 947 2381 947 1747 
z
" transform="scale(0.015625)"/>
       <path id="DejaVuSans-29" d="M 513 4856 
L 1013 4856 
Q 1481 4119 1714 3412 
Q 1947 2706 1947 2009 
Q 1947 1309 1714 600 
Q 1481 -109 1013 -844 
L 513 -844 
Q 928 -128 1133 580 
Q 1338 1288 1338 2009 
Q 1338 2731 1133 3434 
Q 928 4138 513 4856 
z
" transform="scale(0.015625)"/>
      </defs>
      <use xlink:href="#DejaVuSans-53"/>
      <use xlink:href="#DejaVuSans-74" x="63.476562"/>
      <use xlink:href="#DejaVuSans-61" x="102.685547"/>
      <use xlink:href="#DejaVuSans-6e" x="163.964844"/>
      <use xlink:href="#DejaVuSans-20" x="227.34375"/>
      <use xlink:href="#DejaVuSans-28" x="259.130859"/>
      <use xlink:href="#DejaVuSans-50" x="298.144531"/>
      <use xlink:href="#DejaVuSans-72" x="356.697266"/>
      <use xlink:href="#DejaVuSans-6f" x="395.560547"/>
      <use xlink:href="#DejaVuSans-70" x="456.742188"/>
      <use xlink:href="#DejaVuSans-6f" x="520.21875"/>
      <use xlink:href="#DejaVuSans-73" x="581.400391"/>
      <use xlink:href="#DejaVuSans-65" x="633.5"/>
      <use xlink:href="#DejaVuSans-64" x="695.023438"/>
      <use xlink:href="#DejaVuSans-29" x="758.5"/>
     </g>
    </g>
    <g id="line2d_31">
     <path d="M 285.460625 58.564375 
L 299.460625 58.564375 
L 313.460625 58.564375 
" style="fill: none; stroke-dasharray: 6,2,2,2; stroke-dashoffset: 0; stroke: #000000; stroke-width: 2"/>
    </g>
    <g id="text_13">
     <!-- tanh -->
     <g transform="translate(324.660625 63.464375)scale(0.14 -0.14)">
      <use xlink:href="#DejaVuSans-74"/>
      <use xlink:href="#DejaVuSans-61" x="39.208984"/>
      <use xlink:href="#DejaVuSans-6e" x="100.488281"/>
      <use xlink:href="#DejaVuSans-68" x="163.867188"/>
     </g>
    </g>
    <g id="line2d_32">
     <path d="M 285.460625 79.11375 
L 299.460625 79.11375 
L 313.460625 79.11375 
" style="fill: none; stroke-dasharray: 7.4,3.2; stroke-dashoffset: 0; stroke: #0000ff; stroke-width: 2"/>
    </g>
    <g id="text_14">
     <!-- N-LAAF -->
     <g transform="translate(324.660625 84.01375)scale(0.14 -0.14)">
      <defs>
       <path id="DejaVuSans-4e" d="M 628 4666 
L 1478 4666 
L 3547 763 
L 3547 4666 
L 4159 4666 
L 4159 0 
L 3309 0 
L 1241 3903 
L 1241 0 
L 628 0 
L 628 4666 
z
" transform="scale(0.015625)"/>
       <path id="DejaVuSans-2d" d="M 313 2009 
L 1997 2009 
L 1997 1497 
L 313 1497 
L 313 2009 
z
" transform="scale(0.015625)"/>
       <path id="DejaVuSans-41" d="M 2188 4044 
L 1331 1722 
L 3047 1722 
L 2188 4044 
z
M 1831 4666 
L 2547 4666 
L 4325 0 
L 3669 0 
L 3244 1197 
L 1141 1197 
L 716 0 
L 50 0 
L 1831 4666 
z
" transform="scale(0.015625)"/>
       <path id="DejaVuSans-46" d="M 628 4666 
L 3309 4666 
L 3309 4134 
L 1259 4134 
L 1259 2759 
L 3109 2759 
L 3109 2228 
L 1259 2228 
L 1259 0 
L 628 0 
L 628 4666 
z
" transform="scale(0.015625)"/>
      </defs>
      <use xlink:href="#DejaVuSans-4e"/>
      <use xlink:href="#DejaVuSans-2d" x="74.804688"/>
      <use xlink:href="#DejaVuSans-4c" x="110.888672"/>
      <use xlink:href="#DejaVuSans-41" x="168.851562"/>
      <use xlink:href="#DejaVuSans-41" x="240.009766"/>
      <use xlink:href="#DejaVuSans-46" x="308.417969"/>
     </g>
    </g>
    <g id="line2d_33">
     <path d="M 285.460625 99.663125 
L 299.460625 99.663125 
L 313.460625 99.663125 
" style="fill: none; stroke-dasharray: 2,3.3; stroke-dashoffset: 0; stroke: #008000; stroke-width: 2"/>
    </g>
    <g id="text_15">
     <!-- Swish -->
     <g transform="translate(324.660625 104.563125)scale(0.14 -0.14)">
      <defs>
       <path id="DejaVuSans-77" d="M 269 3500 
L 844 3500 
L 1563 769 
L 2278 3500 
L 2956 3500 
L 3675 769 
L 4391 3500 
L 4966 3500 
L 4050 0 
L 3372 0 
L 2619 2869 
L 1863 0 
L 1184 0 
L 269 3500 
z
" transform="scale(0.015625)"/>
      </defs>
      <use xlink:href="#DejaVuSans-53"/>
      <use xlink:href="#DejaVuSans-77" x="63.476562"/>
      <use xlink:href="#DejaVuSans-69" x="145.263672"/>
      <use xlink:href="#DejaVuSans-73" x="173.046875"/>
      <use xlink:href="#DejaVuSans-68" x="225.146484"/>
     </g>
    </g>
    <g id="line2d_34">
     <path d="M 285.460625 120.2125 
L 299.460625 120.2125 
L 313.460625 120.2125 
" style="fill: none; stroke-dasharray: 12.8,3.2,2,3.2; stroke-dashoffset: 0; stroke: #00bfbf; stroke-width: 2"/>
    </g>
    <g id="text_16">
     <!-- Rowdy -->
     <g transform="translate(324.660625 125.1125)scale(0.14 -0.14)">
      <defs>
       <path id="DejaVuSans-52" d="M 2841 2188 
Q 3044 2119 3236 1894 
Q 3428 1669 3622 1275 
L 4263 0 
L 3584 0 
L 2988 1197 
Q 2756 1666 2539 1819 
Q 2322 1972 1947 1972 
L 1259 1972 
L 1259 0 
L 628 0 
L 628 4666 
L 2053 4666 
Q 2853 4666 3247 4331 
Q 3641 3997 3641 3322 
Q 3641 2881 3436 2590 
Q 3231 2300 2841 2188 
z
M 1259 4147 
L 1259 2491 
L 2053 2491 
Q 2509 2491 2742 2702 
Q 2975 2913 2975 3322 
Q 2975 3731 2742 3939 
Q 2509 4147 2053 4147 
L 1259 4147 
z
" transform="scale(0.015625)"/>
       <path id="DejaVuSans-79" d="M 2059 -325 
Q 1816 -950 1584 -1140 
Q 1353 -1331 966 -1331 
L 506 -1331 
L 506 -850 
L 844 -850 
Q 1081 -850 1212 -737 
Q 1344 -625 1503 -206 
L 1606 56 
L 191 3500 
L 800 3500 
L 1894 763 
L 2988 3500 
L 3597 3500 
L 2059 -325 
z
" transform="scale(0.015625)"/>
      </defs>
      <use xlink:href="#DejaVuSans-52"/>
      <use xlink:href="#DejaVuSans-6f" x="64.982422"/>
      <use xlink:href="#DejaVuSans-77" x="126.164062"/>
      <use xlink:href="#DejaVuSans-64" x="207.951172"/>
      <use xlink:href="#DejaVuSans-79" x="271.427734"/>
     </g>
    </g>
   </g>
  </g>
 </g>
 <defs>
  <clipPath id="p6fe152bc1a">
   <rect x="40.565" y="19.677187" width="408.35" height="303.68"/>
  </clipPath>
 </defs>
</svg>
