<?xml version="1.0" encoding="utf-8" standalone="no"?>
<!DOCTYPE svg PUBLIC "-//W3C//DTD SVG 1.1//EN"
  "http://www.w3.org/Graphics/SVG/1.1/DTD/svg11.dtd">
<svg xmlns:xlink="http://www.w3.org/1999/xlink" width="450.82125pt" height="168.408125pt" viewBox="0 0 450.82125 168.408125" xmlns="http://www.w3.org/2000/svg" version="1.1">
 <metadata>
  <rdf:RDF xmlns:dc="http://purl.org/dc/elements/1.1/" xmlns:cc="http://creativecommons.org/ns#" xmlns:rdf="http://www.w3.org/1999/02/22-rdf-syntax-ns#">
   <cc:Work>
    <dc:type rdf:resource="http://purl.org/dc/dcmitype/StillImage"/>
    <dc:date>2022-10-05T16:42:31.519996</dc:date>
    <dc:format>image/svg+xml</dc:format>
    <dc:creator>
     <cc:Agent>
      <dc:title>Matplotlib v3.5.2, https://matplotlib.org/</dc:title>
     </cc:Agent>
    </dc:creator>
   </cc:Work>
  </rdf:RDF>
 </metadata>
 <defs>
  <style type="text/css">*{stroke-linejoin: round; stroke-linecap: butt}</style>
 </defs>
 <g id="figure_1">
  <g id="patch_1">
   <path d="M 0 168.408125 
L 450.82125 168.408125 
L 450.82125 0 
L 0 0 
L 0 168.408125 
z
" style="fill: none"/>
  </g>
  <g id="axes_1">
   <g id="patch_2">
    <path d="M 39.92625 140.551875 
L 223.27625 140.551875 
L 223.27625 3.039375 
L 39.92625 3.039375 
L 39.92625 140.551875 
z
" style="fill: none"/>
   </g>
   <g id="matplotlib.axis_1">
    <g id="xtick_1">
     <g id="line2d_1">
      <defs>
       <path id="m0ddbfc5fd8" d="M 0 0 
L 0 1 
" style="stroke: #000000; stroke-width: 0.8"/>
      </defs>
      <g>
       <use xlink:href="#m0ddbfc5fd8" x="39.92625" y="140.551875" style="stroke: #000000; stroke-width: 0.8"/>
      </g>
     </g>
     <g id="text_1">
      <!-- −2 -->
      <g transform="translate(34.029375 151.130625)scale(0.08 -0.08)">
       <defs>
        <path id="DejaVuSans-2212" d="M 678 2272 
L 4684 2272 
L 4684 1741 
L 678 1741 
L 678 2272 
z
" transform="scale(0.015625)"/>
        <path id="DejaVuSans-32" d="M 1228 531 
L 3431 531 
L 3431 0 
L 469 0 
L 469 531 
Q 828 903 1448 1529 
Q 2069 2156 2228 2338 
Q 2531 2678 2651 2914 
Q 2772 3150 2772 3378 
Q 2772 3750 2511 3984 
Q 2250 4219 1831 4219 
Q 1534 4219 1204 4116 
Q 875 4013 500 3803 
L 500 4441 
Q 881 4594 1212 4672 
Q 1544 4750 1819 4750 
Q 2544 4750 2975 4387 
Q 3406 4025 3406 3419 
Q 3406 3131 3298 2873 
Q 3191 2616 2906 2266 
Q 2828 2175 2409 1742 
Q 1991 1309 1228 531 
z
" transform="scale(0.015625)"/>
       </defs>
       <use xlink:href="#DejaVuSans-2212"/>
       <use xlink:href="#DejaVuSans-32" x="83.789062"/>
      </g>
     </g>
    </g>
    <g id="xtick_2">
     <g id="line2d_2">
      <g>
       <use xlink:href="#m0ddbfc5fd8" x="85.76375" y="140.551875" style="stroke: #000000; stroke-width: 0.8"/>
      </g>
     </g>
     <g id="text_2">
      <!-- −1 -->
      <g transform="translate(79.866875 151.130625)scale(0.08 -0.08)">
       <defs>
        <path id="DejaVuSans-31" d="M 794 531 
L 1825 531 
L 1825 4091 
L 703 3866 
L 703 4441 
L 1819 4666 
L 2450 4666 
L 2450 531 
L 3481 531 
L 3481 0 
L 794 0 
L 794 531 
z
" transform="scale(0.015625)"/>
       </defs>
       <use xlink:href="#DejaVuSans-2212"/>
       <use xlink:href="#DejaVuSans-31" x="83.789062"/>
      </g>
     </g>
    </g>
    <g id="xtick_3">
     <g id="line2d_3">
      <g>
       <use xlink:href="#m0ddbfc5fd8" x="131.60125" y="140.551875" style="stroke: #000000; stroke-width: 0.8"/>
      </g>
     </g>
     <g id="text_3">
      <!-- 0 -->
      <g transform="translate(129.05625 151.130625)scale(0.08 -0.08)">
       <defs>
        <path id="DejaVuSans-30" d="M 2034 4250 
Q 1547 4250 1301 3770 
Q 1056 3291 1056 2328 
Q 1056 1369 1301 889 
Q 1547 409 2034 409 
Q 2525 409 2770 889 
Q 3016 1369 3016 2328 
Q 3016 3291 2770 3770 
Q 2525 4250 2034 4250 
z
M 2034 4750 
Q 2819 4750 3233 4129 
Q 3647 3509 3647 2328 
Q 3647 1150 3233 529 
Q 2819 -91 2034 -91 
Q 1250 -91 836 529 
Q 422 1150 422 2328 
Q 422 3509 836 4129 
Q 1250 4750 2034 4750 
z
" transform="scale(0.015625)"/>
       </defs>
       <use xlink:href="#DejaVuSans-30"/>
      </g>
     </g>
    </g>
    <g id="xtick_4">
     <g id="line2d_4">
      <g>
       <use xlink:href="#m0ddbfc5fd8" x="177.43875" y="140.551875" style="stroke: #000000; stroke-width: 0.8"/>
      </g>
     </g>
     <g id="text_4">
      <!-- 1 -->
      <g transform="translate(174.89375 151.130625)scale(0.08 -0.08)">
       <use xlink:href="#DejaVuSans-31"/>
      </g>
     </g>
    </g>
    <g id="xtick_5">
     <g id="line2d_5">
      <g>
       <use xlink:href="#m0ddbfc5fd8" x="223.27625" y="140.551875" style="stroke: #000000; stroke-width: 0.8"/>
      </g>
     </g>
     <g id="text_5">
      <!-- 2 -->
      <g transform="translate(220.73125 151.130625)scale(0.08 -0.08)">
       <use xlink:href="#DejaVuSans-32"/>
      </g>
     </g>
    </g>
    <g id="text_6">
     <!-- $x$ -->
     <g transform="translate(128.12125 165.9125)scale(0.12 -0.12)">
      <defs>
       <path id="Cmmi10-78" d="M 500 184 
Q 613 97 819 97 
Q 1019 97 1172 289 
Q 1325 481 1381 709 
L 1672 1844 
Q 1741 2153 1741 2266 
Q 1741 2425 1652 2544 
Q 1563 2663 1403 2663 
Q 1200 2663 1022 2536 
Q 844 2409 722 2214 
Q 600 2019 550 1819 
Q 538 1778 500 1778 
L 422 1778 
Q 372 1778 372 1838 
L 372 1856 
Q 434 2094 584 2320 
Q 734 2547 951 2687 
Q 1169 2828 1416 2828 
Q 1650 2828 1839 2703 
Q 2028 2578 2106 2363 
Q 2216 2559 2386 2693 
Q 2556 2828 2759 2828 
Q 2897 2828 3040 2779 
Q 3184 2731 3275 2631 
Q 3366 2531 3366 2381 
Q 3366 2219 3261 2101 
Q 3156 1984 2994 1984 
Q 2891 1984 2822 2050 
Q 2753 2116 2753 2216 
Q 2753 2350 2845 2451 
Q 2938 2553 3066 2572 
Q 2950 2663 2747 2663 
Q 2541 2663 2389 2472 
Q 2238 2281 2175 2047 
L 1894 916 
Q 1825 659 1825 494 
Q 1825 331 1917 214 
Q 2009 97 2163 97 
Q 2463 97 2698 361 
Q 2934 625 3009 941 
Q 3022 978 3059 978 
L 3138 978 
Q 3163 978 3178 961 
Q 3194 944 3194 922 
Q 3194 916 3188 903 
Q 3097 522 2806 225 
Q 2516 -72 2150 -72 
Q 1916 -72 1727 54 
Q 1538 181 1459 397 
Q 1359 209 1182 68 
Q 1006 -72 806 -72 
Q 669 -72 523 -23 
Q 378 25 287 125 
Q 197 225 197 378 
Q 197 528 301 651 
Q 406 775 563 775 
Q 669 775 741 711 
Q 813 647 813 544 
Q 813 409 723 309 
Q 634 209 500 184 
z
" transform="scale(0.015625)"/>
      </defs>
      <use xlink:href="#Cmmi10-78" transform="translate(0 0.8125)"/>
     </g>
    </g>
   </g>
   <g id="matplotlib.axis_2">
    <g id="ytick_1">
     <g id="line2d_6">
      <defs>
       <path id="m1d549205b7" d="M 0 0 
L -1 0 
" style="stroke: #000000; stroke-width: 0.8"/>
      </defs>
      <g>
       <use xlink:href="#m1d549205b7" x="39.92625" y="140.551875" style="stroke: #000000; stroke-width: 0.8"/>
      </g>
     </g>
     <g id="text_7">
      <!-- −1.0 -->
      <g transform="translate(16 143.59125)scale(0.08 -0.08)">
       <defs>
        <path id="DejaVuSans-2e" d="M 684 794 
L 1344 794 
L 1344 0 
L 684 0 
L 684 794 
z
" transform="scale(0.015625)"/>
       </defs>
       <use xlink:href="#DejaVuSans-2212"/>
       <use xlink:href="#DejaVuSans-31" x="83.789062"/>
       <use xlink:href="#DejaVuSans-2e" x="147.412109"/>
       <use xlink:href="#DejaVuSans-30" x="179.199219"/>
      </g>
     </g>
    </g>
    <g id="ytick_2">
     <g id="line2d_7">
      <g>
       <use xlink:href="#m1d549205b7" x="39.92625" y="117.633125" style="stroke: #000000; stroke-width: 0.8"/>
      </g>
     </g>
     <g id="text_8">
      <!-- −0.5 -->
      <g transform="translate(16 120.6725)scale(0.08 -0.08)">
       <defs>
        <path id="DejaVuSans-35" d="M 691 4666 
L 3169 4666 
L 3169 4134 
L 1269 4134 
L 1269 2991 
Q 1406 3038 1543 3061 
Q 1681 3084 1819 3084 
Q 2600 3084 3056 2656 
Q 3513 2228 3513 1497 
Q 3513 744 3044 326 
Q 2575 -91 1722 -91 
Q 1428 -91 1123 -41 
Q 819 9 494 109 
L 494 744 
Q 775 591 1075 516 
Q 1375 441 1709 441 
Q 2250 441 2565 725 
Q 2881 1009 2881 1497 
Q 2881 1984 2565 2268 
Q 2250 2553 1709 2553 
Q 1456 2553 1204 2497 
Q 953 2441 691 2322 
L 691 4666 
z
" transform="scale(0.015625)"/>
       </defs>
       <use xlink:href="#DejaVuSans-2212"/>
       <use xlink:href="#DejaVuSans-30" x="83.789062"/>
       <use xlink:href="#DejaVuSans-2e" x="147.412109"/>
       <use xlink:href="#DejaVuSans-35" x="179.199219"/>
      </g>
     </g>
    </g>
    <g id="ytick_3">
     <g id="line2d_8">
      <g>
       <use xlink:href="#m1d549205b7" x="39.92625" y="94.714375" style="stroke: #000000; stroke-width: 0.8"/>
      </g>
     </g>
     <g id="text_9">
      <!-- 0.0 -->
      <g transform="translate(22.70375 97.75375)scale(0.08 -0.08)">
       <use xlink:href="#DejaVuSans-30"/>
       <use xlink:href="#DejaVuSans-2e" x="63.623047"/>
       <use xlink:href="#DejaVuSans-30" x="95.410156"/>
      </g>
     </g>
    </g>
    <g id="ytick_4">
     <g id="line2d_9">
      <g>
       <use xlink:href="#m1d549205b7" x="39.92625" y="71.795625" style="stroke: #000000; stroke-width: 0.8"/>
      </g>
     </g>
     <g id="text_10">
      <!-- 0.5 -->
      <g transform="translate(22.70375 74.835)scale(0.08 -0.08)">
       <use xlink:href="#DejaVuSans-30"/>
       <use xlink:href="#DejaVuSans-2e" x="63.623047"/>
       <use xlink:href="#DejaVuSans-35" x="95.410156"/>
      </g>
     </g>
    </g>
    <g id="ytick_5">
     <g id="line2d_10">
      <g>
       <use xlink:href="#m1d549205b7" x="39.92625" y="48.876875" style="stroke: #000000; stroke-width: 0.8"/>
      </g>
     </g>
     <g id="text_11">
      <!-- 1.0 -->
      <g transform="translate(22.70375 51.91625)scale(0.08 -0.08)">
       <use xlink:href="#DejaVuSans-31"/>
       <use xlink:href="#DejaVuSans-2e" x="63.623047"/>
       <use xlink:href="#DejaVuSans-30" x="95.410156"/>
      </g>
     </g>
    </g>
    <g id="ytick_6">
     <g id="line2d_11">
      <g>
       <use xlink:href="#m1d549205b7" x="39.92625" y="25.958125" style="stroke: #000000; stroke-width: 0.8"/>
      </g>
     </g>
     <g id="text_12">
      <!-- 1.5 -->
      <g transform="translate(22.70375 28.9975)scale(0.08 -0.08)">
       <use xlink:href="#DejaVuSans-31"/>
       <use xlink:href="#DejaVuSans-2e" x="63.623047"/>
       <use xlink:href="#DejaVuSans-35" x="95.410156"/>
      </g>
     </g>
    </g>
    <g id="ytick_7">
     <g id="line2d_12">
      <g>
       <use xlink:href="#m1d549205b7" x="39.92625" y="3.039375" style="stroke: #000000; stroke-width: 0.8"/>
      </g>
     </g>
     <g id="text_13">
      <!-- 2.0 -->
      <g transform="translate(22.70375 6.07875)scale(0.08 -0.08)">
       <use xlink:href="#DejaVuSans-32"/>
       <use xlink:href="#DejaVuSans-2e" x="63.623047"/>
       <use xlink:href="#DejaVuSans-30" x="95.410156"/>
      </g>
     </g>
    </g>
    <g id="text_14">
     <!-- $Stan(x)$ -->
     <g transform="translate(9 92.495625)rotate(-90)scale(0.12 -0.12)">
      <defs>
       <path id="Cmmi10-53" d="M 391 -141 
Q 372 -141 356 -119 
Q 341 -97 341 -78 
L 709 1416 
Q 722 1453 763 1453 
L 838 1453 
Q 863 1453 877 1434 
Q 891 1416 891 1388 
Q 838 1169 838 997 
Q 838 534 1156 309 
Q 1475 84 1959 84 
Q 2169 84 2372 187 
Q 2575 291 2726 456 
Q 2878 622 2968 826 
Q 3059 1031 3059 1241 
Q 3059 1466 2940 1642 
Q 2822 1819 2613 1869 
L 1831 2075 
Q 1516 2159 1328 2414 
Q 1141 2669 1141 2988 
Q 1141 3372 1369 3728 
Q 1597 4084 1964 4298 
Q 2331 4513 2713 4513 
Q 3006 4513 3251 4405 
Q 3497 4297 3628 4063 
L 3994 4494 
Q 4031 4513 4038 4513 
L 4078 4513 
Q 4103 4513 4118 4491 
Q 4134 4469 4134 4447 
L 3763 2963 
Q 3753 2919 3713 2919 
L 3634 2919 
Q 3578 2919 3578 2988 
Q 3609 3191 3609 3341 
Q 3609 3638 3507 3858 
Q 3406 4078 3201 4192 
Q 2997 4306 2694 4306 
Q 2438 4306 2184 4159 
Q 1931 4013 1775 3769 
Q 1619 3525 1619 3263 
Q 1619 3056 1739 2897 
Q 1859 2738 2059 2681 
L 2841 2478 
Q 3053 2422 3211 2280 
Q 3369 2138 3450 1942 
Q 3531 1747 3531 1516 
Q 3531 1213 3403 917 
Q 3275 622 3045 378 
Q 2816 134 2525 -3 
Q 2234 -141 1931 -141 
Q 1169 -141 838 306 
L 481 -122 
Q 444 -141 434 -141 
L 391 -141 
z
" transform="scale(0.015625)"/>
       <path id="Cmmi10-74" d="M 397 519 
Q 397 613 416 697 
L 878 2534 
L 206 2534 
Q 141 2534 141 2619 
Q 166 2759 225 2759 
L 934 2759 
L 1191 3803 
Q 1216 3888 1291 3947 
Q 1366 4006 1459 4006 
Q 1541 4006 1595 3957 
Q 1650 3909 1650 3828 
Q 1650 3809 1648 3798 
Q 1647 3788 1644 3775 
L 1388 2759 
L 2047 2759 
Q 2113 2759 2113 2675 
Q 2109 2659 2100 2621 
Q 2091 2584 2075 2559 
Q 2059 2534 2028 2534 
L 1331 2534 
L 872 684 
Q 825 503 825 372 
Q 825 97 1013 97 
Q 1294 97 1511 361 
Q 1728 625 1844 941 
Q 1869 978 1894 978 
L 1972 978 
Q 1997 978 2012 961 
Q 2028 944 2028 922 
Q 2028 909 2022 903 
Q 1881 516 1612 222 
Q 1344 -72 997 -72 
Q 744 -72 570 93 
Q 397 259 397 519 
z
" transform="scale(0.015625)"/>
       <path id="Cmmi10-61" d="M 1113 -72 
Q 709 -72 476 233 
Q 244 538 244 953 
Q 244 1363 456 1803 
Q 669 2244 1030 2536 
Q 1391 2828 1806 2828 
Q 1997 2828 2147 2725 
Q 2297 2622 2381 2444 
Q 2453 2700 2663 2700 
Q 2744 2700 2798 2651 
Q 2853 2603 2853 2522 
Q 2853 2503 2851 2493 
Q 2850 2484 2847 2472 
L 2400 684 
Q 2356 494 2356 372 
Q 2356 97 2541 97 
Q 2741 97 2845 351 
Q 2950 606 3022 941 
Q 3034 978 3072 978 
L 3150 978 
Q 3175 978 3190 956 
Q 3206 934 3206 916 
Q 3094 469 2961 198 
Q 2828 -72 2528 -72 
Q 2313 -72 2147 54 
Q 1981 181 1941 391 
Q 1528 -72 1113 -72 
z
M 1119 97 
Q 1350 97 1567 270 
Q 1784 444 1941 678 
Q 1947 684 1947 697 
L 2291 2088 
L 2297 2106 
Q 2259 2334 2132 2498 
Q 2006 2663 1791 2663 
Q 1575 2663 1389 2486 
Q 1203 2309 1075 2069 
Q 950 1813 836 1366 
Q 722 919 722 672 
Q 722 450 817 273 
Q 913 97 1119 97 
z
" transform="scale(0.015625)"/>
       <path id="Cmmi10-6e" d="M 494 109 
Q 494 147 500 166 
L 978 2075 
Q 1025 2253 1025 2388 
Q 1025 2663 838 2663 
Q 638 2663 541 2423 
Q 444 2184 353 1819 
Q 353 1800 334 1789 
Q 316 1778 300 1778 
L 225 1778 
Q 203 1778 187 1801 
Q 172 1825 172 1844 
Q 241 2122 305 2315 
Q 369 2509 505 2668 
Q 641 2828 844 2828 
Q 1084 2828 1268 2676 
Q 1453 2525 1453 2291 
Q 1644 2541 1900 2684 
Q 2156 2828 2444 2828 
Q 2672 2828 2837 2750 
Q 3003 2672 3095 2514 
Q 3188 2356 3188 2138 
Q 3188 1875 3070 1503 
Q 2953 1131 2778 672 
Q 2688 463 2688 288 
Q 2688 97 2834 97 
Q 3084 97 3251 365 
Q 3419 634 3488 941 
Q 3500 978 3541 978 
L 3616 978 
Q 3641 978 3658 962 
Q 3675 947 3675 922 
Q 3675 916 3669 903 
Q 3581 541 3364 234 
Q 3147 -72 2822 -72 
Q 2597 -72 2437 83 
Q 2278 238 2278 459 
Q 2278 578 2328 709 
Q 2409 919 2514 1209 
Q 2619 1500 2686 1765 
Q 2753 2031 2753 2234 
Q 2753 2413 2679 2538 
Q 2606 2663 2431 2663 
Q 2197 2663 2000 2559 
Q 1803 2456 1656 2286 
Q 1509 2116 1388 1881 
L 953 141 
Q 931 53 854 -9 
Q 778 -72 684 -72 
Q 606 -72 550 -22 
Q 494 28 494 109 
z
" transform="scale(0.015625)"/>
       <path id="Cmr10-28" d="M 1984 -1588 
Q 1628 -1306 1370 -942 
Q 1113 -578 948 -165 
Q 784 247 703 697 
Q 622 1147 622 1600 
Q 622 2059 703 2509 
Q 784 2959 951 3375 
Q 1119 3791 1378 4153 
Q 1638 4516 1984 4788 
Q 1984 4800 2016 4800 
L 2075 4800 
Q 2094 4800 2109 4783 
Q 2125 4766 2125 4744 
Q 2125 4716 2113 4703 
Q 1800 4397 1592 4047 
Q 1384 3697 1257 3301 
Q 1131 2906 1075 2482 
Q 1019 2059 1019 1600 
Q 1019 -434 2106 -1491 
Q 2125 -1509 2125 -1544 
Q 2125 -1559 2108 -1579 
Q 2091 -1600 2075 -1600 
L 2016 -1600 
Q 1984 -1600 1984 -1588 
z
" transform="scale(0.015625)"/>
       <path id="Cmr10-29" d="M 416 -1600 
Q 359 -1600 359 -1544 
Q 359 -1516 372 -1503 
Q 1466 -434 1466 1600 
Q 1466 3634 384 4691 
Q 359 4706 359 4744 
Q 359 4766 376 4783 
Q 394 4800 416 4800 
L 475 4800 
Q 494 4800 506 4788 
Q 966 4425 1272 3906 
Q 1578 3388 1720 2800 
Q 1863 2213 1863 1600 
Q 1863 1147 1786 708 
Q 1709 269 1542 -157 
Q 1375 -584 1119 -945 
Q 863 -1306 506 -1588 
Q 494 -1600 475 -1600 
L 416 -1600 
z
" transform="scale(0.015625)"/>
      </defs>
      <use xlink:href="#Cmmi10-53"/>
      <use xlink:href="#Cmmi10-74" transform="translate(61.279297 0)"/>
      <use xlink:href="#Cmmi10-61" transform="translate(97.363281 0)"/>
      <use xlink:href="#Cmmi10-6e" transform="translate(150.146484 0)"/>
      <use xlink:href="#Cmr10-28" transform="translate(210.15625 0)"/>
      <use xlink:href="#Cmmi10-78" transform="translate(248.974609 0)"/>
      <use xlink:href="#Cmr10-29" transform="translate(306.054688 0)"/>
     </g>
    </g>
   </g>
   <g id="line2d_13">
    <path d="M -1 135.738185 
L 9.245438 134.61069 
L 18.798745 133.342231 
L 27.617182 131.956203 
L 36.435619 130.335944 
L 44.519186 128.622101 
L 52.602753 126.669739 
L 59.95145 124.673902 
L 67.300148 122.457863 
L 74.648845 120.016332 
L 81.997543 117.349239 
L 90.08111 114.162523 
L 98.164677 110.728762 
L 106.983114 106.735858 
L 117.27129 101.821564 
L 132.703555 94.163249 
L 149.605559 85.826201 
L 159.893735 81.000775 
L 168.712172 77.110175 
L 176.795739 73.785745 
L 184.144436 70.985851 
L 191.493134 68.408612 
L 198.841831 66.057604 
L 206.190529 63.930535 
L 213.539226 62.020345 
L 221.622793 60.156805 
L 229.70636 58.525024 
L 238.524797 56.985852 
L 247.343234 55.671883 
L 256.896541 54.471543 
L 267.184717 53.402294 
L 278.942633 52.417944 
L 291.435418 51.59826 
L 306.132813 50.867953 
L 314.95125 50.525761 
L 314.95125 50.525761 
" clip-path="url(#p8f13f2a25e)" style="fill: none; stroke: #bf00bf; stroke-width: 2; stroke-linecap: square"/>
   </g>
   <g id="line2d_14">
    <path d="M -1 106.069184 
L 9.980308 108.116201 
L 19.533615 109.690335 
L 28.352052 110.929436 
L 36.435619 111.846993 
L 43.784316 112.4679 
L 51.133014 112.854825 
L 57.746841 112.977201 
L 64.360669 112.861749 
L 70.239627 112.54129 
L 76.118585 112.000338 
L 81.997543 111.225578 
L 87.876501 110.205824 
L 93.755458 108.932656 
L 99.634416 107.401034 
L 105.513374 105.609834 
L 111.392332 103.56226 
L 117.27129 101.266093 
L 123.150248 98.733734 
L 129.764076 95.623636 
L 136.377903 92.266043 
L 143.726601 88.288191 
L 152.545038 83.245138 
L 163.568084 76.669757 
L 195.167482 57.667476 
L 205.455659 51.815118 
L 215.008965 46.628251 
L 224.562272 41.702522 
L 234.115579 37.044489 
L 243.668885 32.649058 
L 253.222192 28.502973 
L 263.510368 24.295609 
L 273.798545 20.32949 
L 284.821591 16.31629 
L 296.579507 12.268169 
L 309.807162 7.955316 
L 314.95125 6.337147 
L 314.95125 6.337147 
" clip-path="url(#p8f13f2a25e)" style="fill: none; stroke: #ff0000; stroke-width: 2; stroke-linecap: square"/>
   </g>
   <g id="line2d_15">
    <path d="M -1 76.400182 
L 11.450048 82.406497 
L 21.738224 87.137562 
L 30.556661 90.960499 
L 38.640228 94.220914 
L 45.988925 96.934503 
L 52.602753 99.133053 
L 58.481711 100.862636 
L 64.360669 102.352352 
L 69.504757 103.437032 
L 74.648845 104.297682 
L 79.792933 104.91574 
L 84.202152 105.238926 
L 88.61137 105.360368 
L 93.020589 105.270572 
L 97.429807 104.961245 
L 101.839026 104.425542 
L 106.248244 103.658291 
L 110.657462 102.656203 
L 115.066681 101.418033 
L 119.475899 99.944709 
L 123.885118 98.239394 
L 128.294336 96.307497 
L 132.703555 94.156622 
L 137.847643 91.383529 
L 142.991731 88.344256 
L 148.135819 85.060451 
L 154.014777 81.039081 
L 160.628605 76.219181 
L 167.977302 70.563813 
L 176.795739 63.468224 
L 188.553655 53.693767 
L 215.743835 30.99176 
L 226.766881 22.114905 
L 237.055058 14.103119 
L 247.343234 6.37976 
L 257.559684 -1 
L 257.559684 -1 
" clip-path="url(#p8f13f2a25e)" style="fill: none; stroke: #0000ff; stroke-width: 2; stroke-linecap: square"/>
   </g>
   <g id="line2d_16">
    <path d="M -1 46.73118 
L 13.654657 58.134668 
L 24.677703 66.436885 
L 33.49614 72.812203 
L 40.844837 77.878545 
L 47.458665 82.196244 
L 53.337623 85.802225 
L 59.216581 89.152174 
L 64.360669 91.842955 
L 69.504757 94.280951 
L 73.913975 96.148396 
L 78.323194 97.792067 
L 82.732412 99.194521 
L 87.141631 100.338815 
L 90.815979 101.083531 
L 94.490328 101.629051 
L 98.164677 101.967384 
L 101.839026 102.091404 
L 105.513374 101.994986 
L 109.187723 101.67314 
L 112.862072 101.122127 
L 116.53642 100.339559 
L 120.210769 99.324479 
L 123.885118 98.077413 
L 127.559466 96.600399 
L 131.233815 94.896987 
L 134.908164 92.972208 
L 139.317382 90.37945 
L 143.726601 87.490957 
L 148.135819 84.322885 
L 152.545038 80.893532 
L 157.689126 76.589219 
L 162.833214 71.990686 
L 168.712172 66.420651 
L 175.325999 59.817848 
L 182.674697 52.152264 
L 192.228004 41.825111 
L 206.925398 25.542638 
L 226.032012 4.426973 
L 231.032232 -1 
L 231.032232 -1 
" clip-path="url(#p8f13f2a25e)" style="fill: none; stroke: #008000; stroke-width: 2; stroke-linecap: square"/>
   </g>
   <g id="line2d_17">
    <path d="M -1 94.714375 
L 314.95125 94.714375 
L 314.95125 94.714375 
" clip-path="url(#p8f13f2a25e)" style="fill: none; stroke-dasharray: 9.6,2.4,1.5,2.4; stroke-dashoffset: 0; stroke: #000000; stroke-width: 1.5"/>
   </g>
   <g id="line2d_18">
    <path d="M 131.60125 169.408125 
L 131.60125 -1 
L 131.60125 -1 
" clip-path="url(#p8f13f2a25e)" style="fill: none; stroke-dasharray: 9.6,2.4,1.5,2.4; stroke-dashoffset: 0; stroke: #000000; stroke-width: 1.5"/>
   </g>
   <g id="patch_3">
    <path d="M 39.92625 140.551875 
L 39.92625 3.039375 
" style="fill: none; stroke: #000000; stroke-width: 0.8; stroke-linejoin: miter; stroke-linecap: square"/>
   </g>
   <g id="patch_4">
    <path d="M 223.27625 140.551875 
L 223.27625 3.039375 
" style="fill: none; stroke: #000000; stroke-width: 0.8; stroke-linejoin: miter; stroke-linecap: square"/>
   </g>
   <g id="patch_5">
    <path d="M 39.92625 140.551875 
L 223.27625 140.551875 
" style="fill: none; stroke: #000000; stroke-width: 0.8; stroke-linejoin: miter; stroke-linecap: square"/>
   </g>
   <g id="patch_6">
    <path d="M 39.92625 3.039375 
L 223.27625 3.039375 
" style="fill: none; stroke: #000000; stroke-width: 0.8; stroke-linejoin: miter; stroke-linecap: square"/>
   </g>
   <g id="text_15">
    <!-- (a) -->
    <g transform="translate(200.3575 131.384375)scale(0.12 -0.12)">
     <defs>
      <path id="DejaVuSans-28" d="M 1984 4856 
Q 1566 4138 1362 3434 
Q 1159 2731 1159 2009 
Q 1159 1288 1364 580 
Q 1569 -128 1984 -844 
L 1484 -844 
Q 1016 -109 783 600 
Q 550 1309 550 2009 
Q 550 2706 781 3412 
Q 1013 4119 1484 4856 
L 1984 4856 
z
" transform="scale(0.015625)"/>
      <path id="DejaVuSans-61" d="M 2194 1759 
Q 1497 1759 1228 1600 
Q 959 1441 959 1056 
Q 959 750 1161 570 
Q 1363 391 1709 391 
Q 2188 391 2477 730 
Q 2766 1069 2766 1631 
L 2766 1759 
L 2194 1759 
z
M 3341 1997 
L 3341 0 
L 2766 0 
L 2766 531 
Q 2569 213 2275 61 
Q 1981 -91 1556 -91 
Q 1019 -91 701 211 
Q 384 513 384 1019 
Q 384 1609 779 1909 
Q 1175 2209 1959 2209 
L 2766 2209 
L 2766 2266 
Q 2766 2663 2505 2880 
Q 2244 3097 1772 3097 
Q 1472 3097 1187 3025 
Q 903 2953 641 2809 
L 641 3341 
Q 956 3463 1253 3523 
Q 1550 3584 1831 3584 
Q 2591 3584 2966 3190 
Q 3341 2797 3341 1997 
z
" transform="scale(0.015625)"/>
      <path id="DejaVuSans-29" d="M 513 4856 
L 1013 4856 
Q 1481 4119 1714 3412 
Q 1947 2706 1947 2009 
Q 1947 1309 1714 600 
Q 1481 -109 1013 -844 
L 513 -844 
Q 928 -128 1133 580 
Q 1338 1288 1338 2009 
Q 1338 2731 1133 3434 
Q 928 4138 513 4856 
z
" transform="scale(0.015625)"/>
     </defs>
     <use xlink:href="#DejaVuSans-28"/>
     <use xlink:href="#DejaVuSans-61" x="39.013672"/>
     <use xlink:href="#DejaVuSans-29" x="100.292969"/>
    </g>
   </g>
   <g id="legend_1">
    <g id="patch_7">
     <path d="M 45.52625 56.799375 
L 118.16625 56.799375 
Q 119.76625 56.799375 119.76625 55.199375 
L 119.76625 8.639375 
Q 119.76625 7.039375 118.16625 7.039375 
L 45.52625 7.039375 
Q 43.92625 7.039375 43.92625 8.639375 
L 43.92625 55.199375 
Q 43.92625 56.799375 45.52625 56.799375 
z
" style="fill: #ffffff; opacity: 0.8; stroke: #cccccc; stroke-linejoin: miter"/>
    </g>
    <g id="line2d_19">
     <path d="M 47.12625 13.599375 
L 55.12625 13.599375 
L 63.12625 13.599375 
" style="fill: none; stroke: #bf00bf; stroke-width: 2; stroke-linecap: square"/>
    </g>
    <g id="text_16">
     <!-- $\beta = 0$ (tanh) -->
     <g transform="translate(69.52625 16.399375)scale(0.08 -0.08)">
      <defs>
       <path id="DejaVuSans-Oblique-3b2" d="M 872 216 
L 572 -1331 
L -6 -1331 
L 928 3478 
Q 1206 4903 2538 4903 
Q 3888 4903 3659 3700 
Q 3503 2844 2894 2531 
Q 3713 2250 3553 1416 
Q 3272 -69 1759 -66 
Q 1097 -63 872 216 
z
M 1019 966 
Q 1259 422 1875 425 
Q 2775 425 2966 1406 
Q 3138 2288 1675 2219 
L 1778 2750 
Q 2909 2731 3106 3750 
Q 3241 4438 2509 4434 
Q 1691 4434 1503 3459 
L 1019 966 
z
" transform="scale(0.015625)"/>
       <path id="DejaVuSans-3d" d="M 678 2906 
L 4684 2906 
L 4684 2381 
L 678 2381 
L 678 2906 
z
M 678 1631 
L 4684 1631 
L 4684 1100 
L 678 1100 
L 678 1631 
z
" transform="scale(0.015625)"/>
       <path id="DejaVuSans-20" transform="scale(0.015625)"/>
       <path id="DejaVuSans-74" d="M 1172 4494 
L 1172 3500 
L 2356 3500 
L 2356 3053 
L 1172 3053 
L 1172 1153 
Q 1172 725 1289 603 
Q 1406 481 1766 481 
L 2356 481 
L 2356 0 
L 1766 0 
Q 1100 0 847 248 
Q 594 497 594 1153 
L 594 3053 
L 172 3053 
L 172 3500 
L 594 3500 
L 594 4494 
L 1172 4494 
z
" transform="scale(0.015625)"/>
       <path id="DejaVuSans-6e" d="M 3513 2113 
L 3513 0 
L 2938 0 
L 2938 2094 
Q 2938 2591 2744 2837 
Q 2550 3084 2163 3084 
Q 1697 3084 1428 2787 
Q 1159 2491 1159 1978 
L 1159 0 
L 581 0 
L 581 3500 
L 1159 3500 
L 1159 2956 
Q 1366 3272 1645 3428 
Q 1925 3584 2291 3584 
Q 2894 3584 3203 3211 
Q 3513 2838 3513 2113 
z
" transform="scale(0.015625)"/>
       <path id="DejaVuSans-68" d="M 3513 2113 
L 3513 0 
L 2938 0 
L 2938 2094 
Q 2938 2591 2744 2837 
Q 2550 3084 2163 3084 
Q 1697 3084 1428 2787 
Q 1159 2491 1159 1978 
L 1159 0 
L 581 0 
L 581 4863 
L 1159 4863 
L 1159 2956 
Q 1366 3272 1645 3428 
Q 1925 3584 2291 3584 
Q 2894 3584 3203 3211 
Q 3513 2838 3513 2113 
z
" transform="scale(0.015625)"/>
      </defs>
      <use xlink:href="#DejaVuSans-Oblique-3b2" transform="translate(0 0.390625)"/>
      <use xlink:href="#DejaVuSans-3d" transform="translate(83.300781 0.390625)"/>
      <use xlink:href="#DejaVuSans-30" transform="translate(186.572266 0.390625)"/>
      <use xlink:href="#DejaVuSans-20" transform="translate(250.195312 0.390625)"/>
      <use xlink:href="#DejaVuSans-28" transform="translate(281.982422 0.390625)"/>
      <use xlink:href="#DejaVuSans-74" transform="translate(320.996094 0.390625)"/>
      <use xlink:href="#DejaVuSans-61" transform="translate(360.205078 0.390625)"/>
      <use xlink:href="#DejaVuSans-6e" transform="translate(421.484375 0.390625)"/>
      <use xlink:href="#DejaVuSans-68" transform="translate(484.863281 0.390625)"/>
      <use xlink:href="#DejaVuSans-29" transform="translate(548.242188 0.390625)"/>
     </g>
    </g>
    <g id="line2d_20">
     <path d="M 47.12625 25.439375 
L 55.12625 25.439375 
L 63.12625 25.439375 
" style="fill: none; stroke: #ff0000; stroke-width: 2; stroke-linecap: square"/>
    </g>
    <g id="text_17">
     <!-- $\beta = 0.5$ -->
     <g transform="translate(69.52625 28.239375)scale(0.08 -0.08)">
      <use xlink:href="#DejaVuSans-Oblique-3b2" transform="translate(0 0.390625)"/>
      <use xlink:href="#DejaVuSans-3d" transform="translate(83.300781 0.390625)"/>
      <use xlink:href="#DejaVuSans-30" transform="translate(186.572266 0.390625)"/>
      <use xlink:href="#DejaVuSans-2e" transform="translate(250.195312 0.390625)"/>
      <use xlink:href="#DejaVuSans-35" transform="translate(281.982422 0.390625)"/>
     </g>
    </g>
    <g id="line2d_21">
     <path d="M 47.12625 37.279375 
L 55.12625 37.279375 
L 63.12625 37.279375 
" style="fill: none; stroke: #0000ff; stroke-width: 2; stroke-linecap: square"/>
    </g>
    <g id="text_18">
     <!-- $\beta = 1.0$ -->
     <g transform="translate(69.52625 40.079375)scale(0.08 -0.08)">
      <use xlink:href="#DejaVuSans-Oblique-3b2" transform="translate(0 0.390625)"/>
      <use xlink:href="#DejaVuSans-3d" transform="translate(83.300781 0.390625)"/>
      <use xlink:href="#DejaVuSans-31" transform="translate(186.572266 0.390625)"/>
      <use xlink:href="#DejaVuSans-2e" transform="translate(250.195312 0.390625)"/>
      <use xlink:href="#DejaVuSans-30" transform="translate(281.982422 0.390625)"/>
     </g>
    </g>
    <g id="line2d_22">
     <path d="M 47.12625 49.119375 
L 55.12625 49.119375 
L 63.12625 49.119375 
" style="fill: none; stroke: #008000; stroke-width: 2; stroke-linecap: square"/>
    </g>
    <g id="text_19">
     <!-- $\beta = 1.5$ -->
     <g transform="translate(69.52625 51.919375)scale(0.08 -0.08)">
      <use xlink:href="#DejaVuSans-Oblique-3b2" transform="translate(0 0.390625)"/>
      <use xlink:href="#DejaVuSans-3d" transform="translate(83.300781 0.390625)"/>
      <use xlink:href="#DejaVuSans-31" transform="translate(186.572266 0.390625)"/>
      <use xlink:href="#DejaVuSans-2e" transform="translate(250.195312 0.390625)"/>
      <use xlink:href="#DejaVuSans-35" transform="translate(281.982422 0.390625)"/>
     </g>
    </g>
   </g>
  </g>
  <g id="axes_2">
   <g id="patch_8">
    <path d="M 264.92625 140.550156 
L 448.27625 140.550156 
L 448.27625 3.041094 
L 264.92625 3.041094 
L 264.92625 140.550156 
z
" style="fill: none"/>
   </g>
   <g id="matplotlib.axis_3">
    <g id="xtick_6">
     <g id="line2d_23">
      <g>
       <use xlink:href="#m0ddbfc5fd8" x="264.92625" y="140.550156" style="stroke: #000000; stroke-width: 0.8"/>
      </g>
     </g>
     <g id="text_20">
      <!-- −4 -->
      <g transform="translate(259.029375 151.128906)scale(0.08 -0.08)">
       <defs>
        <path id="DejaVuSans-34" d="M 2419 4116 
L 825 1625 
L 2419 1625 
L 2419 4116 
z
M 2253 4666 
L 3047 4666 
L 3047 1625 
L 3713 1625 
L 3713 1100 
L 3047 1100 
L 3047 0 
L 2419 0 
L 2419 1100 
L 313 1100 
L 313 1709 
L 2253 4666 
z
" transform="scale(0.015625)"/>
       </defs>
       <use xlink:href="#DejaVuSans-2212"/>
       <use xlink:href="#DejaVuSans-34" x="83.789062"/>
      </g>
     </g>
    </g>
    <g id="xtick_7">
     <g id="line2d_24">
      <g>
       <use xlink:href="#m0ddbfc5fd8" x="310.76375" y="140.550156" style="stroke: #000000; stroke-width: 0.8"/>
      </g>
     </g>
     <g id="text_21">
      <!-- −2 -->
      <g transform="translate(304.866875 151.128906)scale(0.08 -0.08)">
       <use xlink:href="#DejaVuSans-2212"/>
       <use xlink:href="#DejaVuSans-32" x="83.789062"/>
      </g>
     </g>
    </g>
    <g id="xtick_8">
     <g id="line2d_25">
      <g>
       <use xlink:href="#m0ddbfc5fd8" x="356.60125" y="140.550156" style="stroke: #000000; stroke-width: 0.8"/>
      </g>
     </g>
     <g id="text_22">
      <!-- 0 -->
      <g transform="translate(354.05625 151.128906)scale(0.08 -0.08)">
       <use xlink:href="#DejaVuSans-30"/>
      </g>
     </g>
    </g>
    <g id="xtick_9">
     <g id="line2d_26">
      <g>
       <use xlink:href="#m0ddbfc5fd8" x="402.43875" y="140.550156" style="stroke: #000000; stroke-width: 0.8"/>
      </g>
     </g>
     <g id="text_23">
      <!-- 2 -->
      <g transform="translate(399.89375 151.128906)scale(0.08 -0.08)">
       <use xlink:href="#DejaVuSans-32"/>
      </g>
     </g>
    </g>
    <g id="xtick_10">
     <g id="line2d_27">
      <g>
       <use xlink:href="#m0ddbfc5fd8" x="448.27625" y="140.550156" style="stroke: #000000; stroke-width: 0.8"/>
      </g>
     </g>
     <g id="text_24">
      <!-- 4 -->
      <g transform="translate(445.73125 151.128906)scale(0.08 -0.08)">
       <use xlink:href="#DejaVuSans-34"/>
      </g>
     </g>
    </g>
    <g id="text_25">
     <!-- $x$ -->
     <g transform="translate(353.12125 165.910781)scale(0.12 -0.12)">
      <use xlink:href="#Cmmi10-78" transform="translate(0 0.8125)"/>
     </g>
    </g>
   </g>
   <g id="matplotlib.axis_4">
    <g id="ytick_8">
     <g id="line2d_28">
      <g>
       <use xlink:href="#m1d549205b7" x="264.92625" y="140.550156" style="stroke: #000000; stroke-width: 0.8"/>
      </g>
     </g>
     <g id="text_26">
      <!-- −2 -->
      <g transform="translate(248.6325 143.589531)scale(0.08 -0.08)">
       <use xlink:href="#DejaVuSans-2212"/>
       <use xlink:href="#DejaVuSans-32" x="83.789062"/>
      </g>
     </g>
    </g>
    <g id="ytick_9">
     <g id="line2d_29">
      <g>
       <use xlink:href="#m1d549205b7" x="264.92625" y="109.992587" style="stroke: #000000; stroke-width: 0.8"/>
      </g>
     </g>
     <g id="text_27">
      <!-- −1 -->
      <g transform="translate(248.6325 113.031962)scale(0.08 -0.08)">
       <use xlink:href="#DejaVuSans-2212"/>
       <use xlink:href="#DejaVuSans-31" x="83.789062"/>
      </g>
     </g>
    </g>
    <g id="ytick_10">
     <g id="line2d_30">
      <g>
       <use xlink:href="#m1d549205b7" x="264.92625" y="79.435017" style="stroke: #000000; stroke-width: 0.8"/>
      </g>
     </g>
     <g id="text_28">
      <!-- 0 -->
      <g transform="translate(255.33625 82.474392)scale(0.08 -0.08)">
       <use xlink:href="#DejaVuSans-30"/>
      </g>
     </g>
    </g>
    <g id="ytick_11">
     <g id="line2d_31">
      <g>
       <use xlink:href="#m1d549205b7" x="264.92625" y="48.877448" style="stroke: #000000; stroke-width: 0.8"/>
      </g>
     </g>
     <g id="text_29">
      <!-- 1 -->
      <g transform="translate(255.33625 51.916823)scale(0.08 -0.08)">
       <use xlink:href="#DejaVuSans-31"/>
      </g>
     </g>
    </g>
    <g id="ytick_12">
     <g id="line2d_32">
      <g>
       <use xlink:href="#m1d549205b7" x="264.92625" y="18.319879" style="stroke: #000000; stroke-width: 0.8"/>
      </g>
     </g>
     <g id="text_30">
      <!-- 2 -->
      <g transform="translate(255.33625 21.359254)scale(0.08 -0.08)">
       <use xlink:href="#DejaVuSans-32"/>
      </g>
     </g>
    </g>
    <g id="text_31">
     <!-- $Stan$ gradient -->
     <g transform="translate(242.1125 111.635625)rotate(-90)scale(0.12 -0.12)">
      <defs>
       <path id="DejaVuSans-67" d="M 2906 1791 
Q 2906 2416 2648 2759 
Q 2391 3103 1925 3103 
Q 1463 3103 1205 2759 
Q 947 2416 947 1791 
Q 947 1169 1205 825 
Q 1463 481 1925 481 
Q 2391 481 2648 825 
Q 2906 1169 2906 1791 
z
M 3481 434 
Q 3481 -459 3084 -895 
Q 2688 -1331 1869 -1331 
Q 1566 -1331 1297 -1286 
Q 1028 -1241 775 -1147 
L 775 -588 
Q 1028 -725 1275 -790 
Q 1522 -856 1778 -856 
Q 2344 -856 2625 -561 
Q 2906 -266 2906 331 
L 2906 616 
Q 2728 306 2450 153 
Q 2172 0 1784 0 
Q 1141 0 747 490 
Q 353 981 353 1791 
Q 353 2603 747 3093 
Q 1141 3584 1784 3584 
Q 2172 3584 2450 3431 
Q 2728 3278 2906 2969 
L 2906 3500 
L 3481 3500 
L 3481 434 
z
" transform="scale(0.015625)"/>
       <path id="DejaVuSans-72" d="M 2631 2963 
Q 2534 3019 2420 3045 
Q 2306 3072 2169 3072 
Q 1681 3072 1420 2755 
Q 1159 2438 1159 1844 
L 1159 0 
L 581 0 
L 581 3500 
L 1159 3500 
L 1159 2956 
Q 1341 3275 1631 3429 
Q 1922 3584 2338 3584 
Q 2397 3584 2469 3576 
Q 2541 3569 2628 3553 
L 2631 2963 
z
" transform="scale(0.015625)"/>
       <path id="DejaVuSans-64" d="M 2906 2969 
L 2906 4863 
L 3481 4863 
L 3481 0 
L 2906 0 
L 2906 525 
Q 2725 213 2448 61 
Q 2172 -91 1784 -91 
Q 1150 -91 751 415 
Q 353 922 353 1747 
Q 353 2572 751 3078 
Q 1150 3584 1784 3584 
Q 2172 3584 2448 3432 
Q 2725 3281 2906 2969 
z
M 947 1747 
Q 947 1113 1208 752 
Q 1469 391 1925 391 
Q 2381 391 2643 752 
Q 2906 1113 2906 1747 
Q 2906 2381 2643 2742 
Q 2381 3103 1925 3103 
Q 1469 3103 1208 2742 
Q 947 2381 947 1747 
z
" transform="scale(0.015625)"/>
       <path id="DejaVuSans-69" d="M 603 3500 
L 1178 3500 
L 1178 0 
L 603 0 
L 603 3500 
z
M 603 4863 
L 1178 4863 
L 1178 4134 
L 603 4134 
L 603 4863 
z
" transform="scale(0.015625)"/>
       <path id="DejaVuSans-65" d="M 3597 1894 
L 3597 1613 
L 953 1613 
Q 991 1019 1311 708 
Q 1631 397 2203 397 
Q 2534 397 2845 478 
Q 3156 559 3463 722 
L 3463 178 
Q 3153 47 2828 -22 
Q 2503 -91 2169 -91 
Q 1331 -91 842 396 
Q 353 884 353 1716 
Q 353 2575 817 3079 
Q 1281 3584 2069 3584 
Q 2775 3584 3186 3129 
Q 3597 2675 3597 1894 
z
M 3022 2063 
Q 3016 2534 2758 2815 
Q 2500 3097 2075 3097 
Q 1594 3097 1305 2825 
Q 1016 2553 972 2059 
L 3022 2063 
z
" transform="scale(0.015625)"/>
      </defs>
      <use xlink:href="#Cmmi10-53" transform="translate(0 0.015625)"/>
      <use xlink:href="#Cmmi10-74" transform="translate(61.279297 0.015625)"/>
      <use xlink:href="#Cmmi10-61" transform="translate(97.363281 0.015625)"/>
      <use xlink:href="#Cmmi10-6e" transform="translate(150.146484 0.015625)"/>
      <use xlink:href="#DejaVuSans-20" transform="translate(210.15625 0.015625)"/>
      <use xlink:href="#DejaVuSans-67" transform="translate(241.943359 0.015625)"/>
      <use xlink:href="#DejaVuSans-72" transform="translate(305.419922 0.015625)"/>
      <use xlink:href="#DejaVuSans-61" transform="translate(346.533203 0.015625)"/>
      <use xlink:href="#DejaVuSans-64" transform="translate(407.8125 0.015625)"/>
      <use xlink:href="#DejaVuSans-69" transform="translate(471.289062 0.015625)"/>
      <use xlink:href="#DejaVuSans-65" transform="translate(499.072266 0.015625)"/>
      <use xlink:href="#DejaVuSans-6e" transform="translate(560.595703 0.015625)"/>
      <use xlink:href="#DejaVuSans-74" transform="translate(623.974609 0.015625)"/>
     </g>
    </g>
   </g>
   <g id="line2d_33">
    <path d="M 264.92625 79.394041 
L 284.032863 79.218549 
L 293.953605 78.923031 
L 300.934867 78.500089 
L 306.078955 77.983083 
L 310.488174 77.325596 
L 314.162523 76.566434 
L 317.469436 75.66767 
L 320.408915 74.65544 
L 323.348394 73.402493 
L 325.920438 72.078531 
L 328.492482 70.518379 
L 331.064527 68.706684 
L 333.636571 66.640758 
L 336.57605 63.991011 
L 340.250398 60.353339 
L 346.496791 54.124387 
L 348.7014 52.238678 
L 350.538575 50.919797 
L 352.375749 49.893063 
L 353.845488 49.315019 
L 355.315228 48.973459 
L 356.784967 48.879411 
L 358.254707 49.035944 
L 359.724446 49.437956 
L 361.194186 50.07253 
L 362.663925 50.919797 
L 364.5011 52.238678 
L 366.705709 54.124387 
L 369.645188 56.973462 
L 377.728755 65.017723 
L 380.668234 67.556743 
L 383.240278 69.514463 
L 385.812322 71.217144 
L 388.384366 72.673663 
L 391.323845 74.0615 
L 394.263324 75.189203 
L 397.570238 76.195241 
L 400.877152 76.973853 
L 404.918935 77.684017 
L 409.328154 78.23213 
L 414.839677 78.68573 
L 421.820939 79.02527 
L 431.741681 79.261945 
L 447.908815 79.392707 
L 448.27625 79.394041 
L 448.27625 79.394041 
" clip-path="url(#pf7fc3c2d9b)" style="fill: none; stroke: #bf00bf; stroke-width: 2; stroke-linecap: square"/>
   </g>
   <g id="line2d_34">
    <path d="M 264.92625 94.744531 
L 299.832563 94.702503 
L 306.813825 94.455571 
L 311.590478 94.082125 
L 315.264827 93.598125 
L 318.571741 92.944194 
L 321.51122 92.124251 
L 324.083264 91.167089 
L 326.287873 90.126544 
L 328.492482 88.844119 
L 330.697092 87.281709 
L 332.901701 85.402402 
L 335.10631 83.174163 
L 337.310919 80.574733 
L 339.515529 77.597575 
L 341.720138 74.258337 
L 344.292182 69.965188 
L 347.966531 63.344568 
L 352.743184 54.775675 
L 354.947793 51.232872 
L 356.784967 48.634471 
L 358.622142 46.433256 
L 360.091881 44.992388 
L 361.561621 43.852532 
L 363.03136 43.018206 
L 364.5011 42.484211 
L 365.970839 42.236584 
L 367.440579 42.254023 
L 368.910318 42.509607 
L 370.380058 42.972633 
L 372.217232 43.79326 
L 374.421841 45.04803 
L 377.36132 47.009587 
L 386.914627 53.614598 
L 390.221541 55.53897 
L 393.528454 57.192351 
L 396.835368 58.579344 
L 400.142282 59.722179 
L 403.816631 60.742489 
L 407.858414 61.612254 
L 412.267633 62.321447 
L 417.411721 62.910703 
L 423.658114 63.383288 
L 431.374246 63.730778 
L 442.029857 63.971609 
L 448.27625 64.043552 
L 448.27625 64.043552 
" clip-path="url(#pf7fc3c2d9b)" style="fill: none; stroke: #ff0000; stroke-width: 2; stroke-linecap: square"/>
   </g>
   <g id="line2d_35">
    <path d="M 264.92625 110.09502 
L 283.297993 110.337306 
L 297.995388 110.757792 
L 309.753304 111.054736 
L 314.529957 110.947685 
L 317.836871 110.669639 
L 320.77635 110.19531 
L 323.348394 109.530735 
L 325.553004 108.715152 
L 327.390178 107.818738 
L 329.227352 106.685777 
L 331.064527 105.27621 
L 332.901701 103.548378 
L 334.738875 101.460933 
L 336.57605 98.975491 
L 338.413224 96.060043 
L 340.250398 92.693048 
L 342.087573 88.867947 
L 344.292182 83.692978 
L 346.496791 77.945677 
L 349.43627 69.610222 
L 356.784967 48.389531 
L 358.989577 42.883993 
L 360.826751 38.875568 
L 362.29649 36.105213 
L 363.76623 33.749059 
L 365.235969 31.816386 
L 366.705709 30.303097 
L 367.808014 29.434133 
L 368.910318 28.781817 
L 370.012623 28.333116 
L 371.114927 28.073017 
L 372.584667 27.991085 
L 374.054406 28.174069 
L 375.524146 28.58017 
L 377.36132 29.339561 
L 379.565929 30.522713 
L 382.505408 32.380111 
L 392.058715 38.61614 
L 395.365629 40.436308 
L 398.672543 42.007517 
L 401.979456 43.334049 
L 405.28637 44.435426 
L 408.960719 45.427458 
L 413.002503 46.281857 
L 417.411721 46.986524 
L 422.555809 47.579457 
L 428.802202 48.061825 
L 436.518334 48.422238 
L 447.173945 48.676629 
L 448.27625 48.693062 
L 448.27625 48.693062 
" clip-path="url(#pf7fc3c2d9b)" style="fill: none; stroke: #0000ff; stroke-width: 2; stroke-linecap: square"/>
   </g>
   <g id="line2d_36">
    <path d="M 264.92625 125.44551 
L 278.888775 125.732834 
L 288.809517 126.151502 
L 297.260519 126.722313 
L 308.283565 127.72498 
L 314.529957 128.182727 
L 317.836871 128.227971 
L 320.408915 128.076336 
L 322.613525 127.753155 
L 324.818134 127.187067 
L 326.655308 126.476437 
L 328.492482 125.495598 
L 329.962222 124.478954 
L 331.431961 123.222685 
L 332.901701 121.694353 
L 334.37144 119.860886 
L 335.84118 117.689689 
L 337.310919 115.150068 
L 338.780659 112.214954 
L 340.250398 108.862902 
L 342.087573 104.066679 
L 343.924747 98.594533 
L 345.761921 92.473552 
L 347.966531 84.363356 
L 350.90601 72.565565 
L 358.254707 42.445158 
L 360.459316 34.582036 
L 362.29649 28.813142 
L 364.133665 23.86208 
L 365.603404 20.525665 
L 367.073144 17.751124 
L 368.542883 15.526867 
L 369.645188 14.204696 
L 370.747492 13.162514 
L 371.849797 12.382258 
L 372.952102 11.843775 
L 374.054406 11.52554 
L 375.156711 11.405299 
L 376.62645 11.514292 
L 378.09619 11.88352 
L 379.933364 12.63627 
L 382.137973 13.852395 
L 385.077452 15.79683 
L 394.998194 22.651818 
L 398.305108 24.574817 
L 401.612022 26.236914 
L 404.918935 27.643055 
L 408.225849 28.813528 
L 411.900198 29.871011 
L 415.941981 30.78504 
L 420.3512 31.541885 
L 425.495288 32.181516 
L 431.374246 32.67969 
L 438.722943 33.068673 
L 448.27625 33.342572 
L 448.27625 33.342572 
" clip-path="url(#pf7fc3c2d9b)" style="fill: none; stroke: #008000; stroke-width: 2; stroke-linecap: square"/>
   </g>
   <g id="line2d_37">
    <path d="M 264.92625 79.435017 
L 448.27625 79.435017 
L 448.27625 79.435017 
" clip-path="url(#pf7fc3c2d9b)" style="fill: none; stroke-dasharray: 9.6,2.4,1.5,2.4; stroke-dashoffset: 0; stroke: #000000; stroke-width: 1.5"/>
   </g>
   <g id="line2d_38">
    <path d="M 356.60125 140.550156 
L 356.60125 -1 
L 356.60125 -1 
" clip-path="url(#pf7fc3c2d9b)" style="fill: none; stroke-dasharray: 9.6,2.4,1.5,2.4; stroke-dashoffset: 0; stroke: #000000; stroke-width: 1.5"/>
   </g>
   <g id="patch_9">
    <path d="M 264.92625 140.550156 
L 264.92625 3.041094 
" style="fill: none; stroke: #000000; stroke-width: 0.8; stroke-linejoin: miter; stroke-linecap: square"/>
   </g>
   <g id="patch_10">
    <path d="M 448.27625 140.550156 
L 448.27625 3.041094 
" style="fill: none; stroke: #000000; stroke-width: 0.8; stroke-linejoin: miter; stroke-linecap: square"/>
   </g>
   <g id="patch_11">
    <path d="M 264.92625 140.550156 
L 448.27625 140.550156 
" style="fill: none; stroke: #000000; stroke-width: 0.8; stroke-linejoin: miter; stroke-linecap: square"/>
   </g>
   <g id="patch_12">
    <path d="M 264.92625 3.041094 
L 448.27625 3.041094 
" style="fill: none; stroke: #000000; stroke-width: 0.8; stroke-linejoin: miter; stroke-linecap: square"/>
   </g>
   <g id="text_32">
    <!-- (b) -->
    <g transform="translate(425.3575 131.382885)scale(0.12 -0.12)">
     <defs>
      <path id="DejaVuSans-62" d="M 3116 1747 
Q 3116 2381 2855 2742 
Q 2594 3103 2138 3103 
Q 1681 3103 1420 2742 
Q 1159 2381 1159 1747 
Q 1159 1113 1420 752 
Q 1681 391 2138 391 
Q 2594 391 2855 752 
Q 3116 1113 3116 1747 
z
M 1159 2969 
Q 1341 3281 1617 3432 
Q 1894 3584 2278 3584 
Q 2916 3584 3314 3078 
Q 3713 2572 3713 1747 
Q 3713 922 3314 415 
Q 2916 -91 2278 -91 
Q 1894 -91 1617 61 
Q 1341 213 1159 525 
L 1159 0 
L 581 0 
L 581 4863 
L 1159 4863 
L 1159 2969 
z
" transform="scale(0.015625)"/>
     </defs>
     <use xlink:href="#DejaVuSans-28"/>
     <use xlink:href="#DejaVuSans-62" x="39.013672"/>
     <use xlink:href="#DejaVuSans-29" x="102.490234"/>
    </g>
   </g>
   <g id="legend_2">
    <g id="patch_13">
     <path d="M 270.52625 56.801094 
L 343.16625 56.801094 
Q 344.76625 56.801094 344.76625 55.201094 
L 344.76625 8.641094 
Q 344.76625 7.041094 343.16625 7.041094 
L 270.52625 7.041094 
Q 268.92625 7.041094 268.92625 8.641094 
L 268.92625 55.201094 
Q 268.92625 56.801094 270.52625 56.801094 
z
" style="fill: #ffffff; opacity: 0.8; stroke: #cccccc; stroke-linejoin: miter"/>
    </g>
    <g id="line2d_39">
     <path d="M 272.12625 13.601094 
L 280.12625 13.601094 
L 288.12625 13.601094 
" style="fill: none; stroke: #bf00bf; stroke-width: 2; stroke-linecap: square"/>
    </g>
    <g id="text_33">
     <!-- $\beta = 0$ (tanh) -->
     <g transform="translate(294.52625 16.401094)scale(0.08 -0.08)">
      <use xlink:href="#DejaVuSans-Oblique-3b2" transform="translate(0 0.390625)"/>
      <use xlink:href="#DejaVuSans-3d" transform="translate(83.300781 0.390625)"/>
      <use xlink:href="#DejaVuSans-30" transform="translate(186.572266 0.390625)"/>
      <use xlink:href="#DejaVuSans-20" transform="translate(250.195312 0.390625)"/>
      <use xlink:href="#DejaVuSans-28" transform="translate(281.982422 0.390625)"/>
      <use xlink:href="#DejaVuSans-74" transform="translate(320.996094 0.390625)"/>
      <use xlink:href="#DejaVuSans-61" transform="translate(360.205078 0.390625)"/>
      <use xlink:href="#DejaVuSans-6e" transform="translate(421.484375 0.390625)"/>
      <use xlink:href="#DejaVuSans-68" transform="translate(484.863281 0.390625)"/>
      <use xlink:href="#DejaVuSans-29" transform="translate(548.242188 0.390625)"/>
     </g>
    </g>
    <g id="line2d_40">
     <path d="M 272.12625 25.441094 
L 280.12625 25.441094 
L 288.12625 25.441094 
" style="fill: none; stroke: #ff0000; stroke-width: 2; stroke-linecap: square"/>
    </g>
    <g id="text_34">
     <!-- $\beta = 0.5$ -->
     <g transform="translate(294.52625 28.241094)scale(0.08 -0.08)">
      <use xlink:href="#DejaVuSans-Oblique-3b2" transform="translate(0 0.390625)"/>
      <use xlink:href="#DejaVuSans-3d" transform="translate(83.300781 0.390625)"/>
      <use xlink:href="#DejaVuSans-30" transform="translate(186.572266 0.390625)"/>
      <use xlink:href="#DejaVuSans-2e" transform="translate(250.195312 0.390625)"/>
      <use xlink:href="#DejaVuSans-35" transform="translate(281.982422 0.390625)"/>
     </g>
    </g>
    <g id="line2d_41">
     <path d="M 272.12625 37.281094 
L 280.12625 37.281094 
L 288.12625 37.281094 
" style="fill: none; stroke: #0000ff; stroke-width: 2; stroke-linecap: square"/>
    </g>
    <g id="text_35">
     <!-- $\beta = 1.0$ -->
     <g transform="translate(294.52625 40.081094)scale(0.08 -0.08)">
      <use xlink:href="#DejaVuSans-Oblique-3b2" transform="translate(0 0.390625)"/>
      <use xlink:href="#DejaVuSans-3d" transform="translate(83.300781 0.390625)"/>
      <use xlink:href="#DejaVuSans-31" transform="translate(186.572266 0.390625)"/>
      <use xlink:href="#DejaVuSans-2e" transform="translate(250.195312 0.390625)"/>
      <use xlink:href="#DejaVuSans-30" transform="translate(281.982422 0.390625)"/>
     </g>
    </g>
    <g id="line2d_42">
     <path d="M 272.12625 49.121094 
L 280.12625 49.121094 
L 288.12625 49.121094 
" style="fill: none; stroke: #008000; stroke-width: 2; stroke-linecap: square"/>
    </g>
    <g id="text_36">
     <!-- $\beta = 1.5$ -->
     <g transform="translate(294.52625 51.921094)scale(0.08 -0.08)">
      <use xlink:href="#DejaVuSans-Oblique-3b2" transform="translate(0 0.390625)"/>
      <use xlink:href="#DejaVuSans-3d" transform="translate(83.300781 0.390625)"/>
      <use xlink:href="#DejaVuSans-31" transform="translate(186.572266 0.390625)"/>
      <use xlink:href="#DejaVuSans-2e" transform="translate(250.195312 0.390625)"/>
      <use xlink:href="#DejaVuSans-35" transform="translate(281.982422 0.390625)"/>
     </g>
    </g>
   </g>
  </g>
 </g>
 <defs>
  <clipPath id="p8f13f2a25e">
   <rect x="39.92625" y="3.039375" width="183.35" height="137.5125"/>
  </clipPath>
  <clipPath id="pf7fc3c2d9b">
   <rect x="264.92625" y="3.041094" width="183.35" height="137.509062"/>
  </clipPath>
 </defs>
</svg>
