<?xml version="1.0" encoding="utf-8" standalone="no"?>
<!DOCTYPE svg PUBLIC "-//W3C//DTD SVG 1.1//EN"
  "http://www.w3.org/Graphics/SVG/1.1/DTD/svg11.dtd">
<svg xmlns:xlink="http://www.w3.org/1999/xlink" width="889.916875pt" height="384.505pt" viewBox="0 0 889.916875 384.505" xmlns="http://www.w3.org/2000/svg" version="1.1">
 <metadata>
  <rdf:RDF xmlns:dc="http://purl.org/dc/elements/1.1/" xmlns:cc="http://creativecommons.org/ns#" xmlns:rdf="http://www.w3.org/1999/02/22-rdf-syntax-ns#">
   <cc:Work>
    <dc:type rdf:resource="http://purl.org/dc/dcmitype/StillImage"/>
    <dc:date>2024-01-15T03:16:08.349215</dc:date>
    <dc:format>image/svg+xml</dc:format>
    <dc:creator>
     <cc:Agent>
      <dc:title>Matplotlib v3.5.2, https://matplotlib.org/</dc:title>
     </cc:Agent>
    </dc:creator>
   </cc:Work>
  </rdf:RDF>
 </metadata>
 <defs>
  <style type="text/css">*{stroke-linejoin: round; stroke-linecap: butt}</style>
 </defs>
 <g id="figure_1">
  <g id="patch_1">
   <path d="M 0 384.505 
L 889.916875 384.505 
L 889.916875 -0 
L 0 -0 
z
" style="fill: #ffffff"/>
  </g>
  <g id="axes_1">
   <g id="patch_2">
    <path d="M 45.716875 301.037812 
L 291.893346 301.037812 
L 291.893346 23.837812 
L 45.716875 23.837812 
z
" style="fill: #ffffff"/>
   </g>
   <g id="patch_3">
    <path d="M 56.906715 301.037812 
L 66.63701 301.037812 
L 66.63701 278.174957 
L 56.906715 278.174957 
z
" clip-path="url(#p2623dd2f07)" style="fill: #ff0000; stroke: #000000; stroke-linejoin: miter"/>
   </g>
   <g id="patch_4">
    <path d="M 66.63701 301.037812 
L 76.367305 301.037812 
L 76.367305 277.73773 
L 66.63701 277.73773 
z
" clip-path="url(#p2623dd2f07)" style="fill: #ff0000; stroke: #000000; stroke-linejoin: miter"/>
   </g>
   <g id="patch_5">
    <path d="M 76.367305 301.037812 
L 86.0976 301.037812 
L 86.0976 274.696454 
L 76.367305 274.696454 
z
" clip-path="url(#p2623dd2f07)" style="fill: #ff0000; stroke: #000000; stroke-linejoin: miter"/>
   </g>
   <g id="patch_6">
    <path d="M 105.558191 301.037812 
L 115.288486 301.037812 
L 115.288486 279.39025 
L 105.558191 279.39025 
z
" clip-path="url(#p2623dd2f07)" style="stroke: #000000; stroke-linejoin: miter"/>
   </g>
   <g id="patch_7">
    <path d="M 115.288486 301.037812 
L 125.018782 301.037812 
L 125.018782 248.703067 
L 115.288486 248.703067 
z
" clip-path="url(#p2623dd2f07)" style="stroke: #000000; stroke-linejoin: miter"/>
   </g>
   <g id="patch_8">
    <path d="M 125.018782 301.037812 
L 134.749077 301.037812 
L 134.749077 141.472552 
L 125.018782 141.472552 
z
" clip-path="url(#p2623dd2f07)" style="stroke: #000000; stroke-linejoin: miter"/>
   </g>
   <g id="patch_9">
    <path d="M 154.209667 301.037812 
L 163.939963 301.037812 
L 163.939963 37.037812 
L 154.209667 37.037812 
z
" clip-path="url(#p2623dd2f07)" style="fill: #0000ff; stroke: #000000; stroke-linejoin: miter"/>
   </g>
   <g id="patch_10">
    <path d="M 163.939963 301.037812 
L 173.670258 301.037812 
L 173.670258 85.912266 
L 163.939963 85.912266 
z
" clip-path="url(#p2623dd2f07)" style="fill: #0000ff; stroke: #000000; stroke-linejoin: miter"/>
   </g>
   <g id="patch_11">
    <path d="M 173.670258 301.037812 
L 183.400553 301.037812 
L 183.400553 56.407144 
L 173.670258 56.407144 
z
" clip-path="url(#p2623dd2f07)" style="fill: #0000ff; stroke: #000000; stroke-linejoin: miter"/>
   </g>
   <g id="patch_12">
    <path d="M 202.861144 301.037812 
L 212.591439 301.037812 
L 212.591439 140.76941 
L 202.861144 140.76941 
z
" clip-path="url(#p2623dd2f07)" style="fill: #00bfbf; stroke: #000000; stroke-linejoin: miter"/>
   </g>
   <g id="patch_13">
    <path d="M 212.591439 301.037812 
L 222.321734 301.037812 
L 222.321734 133.894774 
L 212.591439 133.894774 
z
" clip-path="url(#p2623dd2f07)" style="fill: #00bfbf; stroke: #000000; stroke-linejoin: miter"/>
   </g>
   <g id="patch_14">
    <path d="M 222.321734 301.037812 
L 232.05203 301.037812 
L 232.05203 188.883846 
L 222.321734 188.883846 
z
" clip-path="url(#p2623dd2f07)" style="fill: #00bfbf; stroke: #000000; stroke-linejoin: miter"/>
   </g>
   <g id="patch_15">
    <path d="M 251.51262 301.037812 
L 261.242915 301.037812 
L 261.242915 276.394429 
L 251.51262 276.394429 
z
" clip-path="url(#p2623dd2f07)" style="fill: #bf00bf; stroke: #000000; stroke-linejoin: miter"/>
   </g>
   <g id="patch_16">
    <path d="M 261.242915 301.037812 
L 270.973211 301.037812 
L 270.973211 260.241184 
L 261.242915 260.241184 
z
" clip-path="url(#p2623dd2f07)" style="fill: #bf00bf; stroke: #000000; stroke-linejoin: miter"/>
   </g>
   <g id="patch_17">
    <path d="M 270.973211 301.037812 
L 280.703506 301.037812 
L 280.703506 278.493557 
L 270.973211 278.493557 
z
" clip-path="url(#p2623dd2f07)" style="fill: #bf00bf; stroke: #000000; stroke-linejoin: miter"/>
   </g>
   <g id="matplotlib.axis_1">
    <g id="xtick_1">
     <g id="line2d_1">
      <defs>
       <path id="m8c786c02e3" d="M 0 0 
L 0 3.5 
" style="stroke: #000000; stroke-width: 0.8"/>
      </defs>
      <g>
       <use xlink:href="#m8c786c02e3" x="71.502157" y="301.037812" style="stroke: #000000; stroke-width: 0.8"/>
      </g>
     </g>
     <g id="text_1">
      <!-- Stan -->
      <g transform="translate(75.365282 344.225625)rotate(-90)scale(0.14 -0.14)">
       <defs>
        <path id="DejaVuSans-Bold-53" d="M 3834 4519 
L 3834 3531 
Q 3450 3703 3084 3790 
Q 2719 3878 2394 3878 
Q 1963 3878 1756 3759 
Q 1550 3641 1550 3391 
Q 1550 3203 1689 3098 
Q 1828 2994 2194 2919 
L 2706 2816 
Q 3484 2659 3812 2340 
Q 4141 2022 4141 1434 
Q 4141 663 3683 286 
Q 3225 -91 2284 -91 
Q 1841 -91 1394 -6 
Q 947 78 500 244 
L 500 1259 
Q 947 1022 1364 901 
Q 1781 781 2169 781 
Q 2563 781 2772 912 
Q 2981 1044 2981 1288 
Q 2981 1506 2839 1625 
Q 2697 1744 2272 1838 
L 1806 1941 
Q 1106 2091 782 2419 
Q 459 2747 459 3303 
Q 459 4000 909 4375 
Q 1359 4750 2203 4750 
Q 2588 4750 2994 4692 
Q 3400 4634 3834 4519 
z
" transform="scale(0.015625)"/>
        <path id="DejaVuSans-Bold-74" d="M 1759 4494 
L 1759 3500 
L 2913 3500 
L 2913 2700 
L 1759 2700 
L 1759 1216 
Q 1759 972 1856 886 
Q 1953 800 2241 800 
L 2816 800 
L 2816 0 
L 1856 0 
Q 1194 0 917 276 
Q 641 553 641 1216 
L 641 2700 
L 84 2700 
L 84 3500 
L 641 3500 
L 641 4494 
L 1759 4494 
z
" transform="scale(0.015625)"/>
        <path id="DejaVuSans-Bold-61" d="M 2106 1575 
Q 1756 1575 1579 1456 
Q 1403 1338 1403 1106 
Q 1403 894 1545 773 
Q 1688 653 1941 653 
Q 2256 653 2472 879 
Q 2688 1106 2688 1447 
L 2688 1575 
L 2106 1575 
z
M 3816 1997 
L 3816 0 
L 2688 0 
L 2688 519 
Q 2463 200 2181 54 
Q 1900 -91 1497 -91 
Q 953 -91 614 226 
Q 275 544 275 1050 
Q 275 1666 698 1953 
Q 1122 2241 2028 2241 
L 2688 2241 
L 2688 2328 
Q 2688 2594 2478 2717 
Q 2269 2841 1825 2841 
Q 1466 2841 1156 2769 
Q 847 2697 581 2553 
L 581 3406 
Q 941 3494 1303 3539 
Q 1666 3584 2028 3584 
Q 2975 3584 3395 3211 
Q 3816 2838 3816 1997 
z
" transform="scale(0.015625)"/>
        <path id="DejaVuSans-Bold-6e" d="M 4056 2131 
L 4056 0 
L 2931 0 
L 2931 347 
L 2931 1631 
Q 2931 2084 2911 2256 
Q 2891 2428 2841 2509 
Q 2775 2619 2662 2680 
Q 2550 2741 2406 2741 
Q 2056 2741 1856 2470 
Q 1656 2200 1656 1722 
L 1656 0 
L 538 0 
L 538 3500 
L 1656 3500 
L 1656 2988 
Q 1909 3294 2193 3439 
Q 2478 3584 2822 3584 
Q 3428 3584 3742 3212 
Q 4056 2841 4056 2131 
z
" transform="scale(0.015625)"/>
       </defs>
       <use xlink:href="#DejaVuSans-Bold-53"/>
       <use xlink:href="#DejaVuSans-Bold-74" x="72.021484"/>
       <use xlink:href="#DejaVuSans-Bold-61" x="119.824219"/>
       <use xlink:href="#DejaVuSans-Bold-6e" x="187.304688"/>
      </g>
     </g>
    </g>
    <g id="xtick_2">
     <g id="line2d_2">
      <g>
       <use xlink:href="#m8c786c02e3" x="120.153634" y="301.037812" style="stroke: #000000; stroke-width: 0.8"/>
      </g>
     </g>
     <g id="text_2">
      <!-- tanh -->
      <g transform="translate(124.016759 344.109688)rotate(-90)scale(0.14 -0.14)">
       <defs>
        <path id="DejaVuSans-Bold-68" d="M 4056 2131 
L 4056 0 
L 2931 0 
L 2931 347 
L 2931 1625 
Q 2931 2084 2911 2256 
Q 2891 2428 2841 2509 
Q 2775 2619 2662 2680 
Q 2550 2741 2406 2741 
Q 2056 2741 1856 2470 
Q 1656 2200 1656 1722 
L 1656 0 
L 538 0 
L 538 4863 
L 1656 4863 
L 1656 2988 
Q 1909 3294 2193 3439 
Q 2478 3584 2822 3584 
Q 3428 3584 3742 3212 
Q 4056 2841 4056 2131 
z
" transform="scale(0.015625)"/>
       </defs>
       <use xlink:href="#DejaVuSans-Bold-74"/>
       <use xlink:href="#DejaVuSans-Bold-61" x="47.802734"/>
       <use xlink:href="#DejaVuSans-Bold-6e" x="115.283203"/>
       <use xlink:href="#DejaVuSans-Bold-68" x="186.474609"/>
      </g>
     </g>
    </g>
    <g id="xtick_3">
     <g id="line2d_3">
      <g>
       <use xlink:href="#m8c786c02e3" x="168.80511" y="301.037812" style="stroke: #000000; stroke-width: 0.8"/>
      </g>
     </g>
     <g id="text_3">
      <!-- tanh(AF) -->
      <g transform="translate(172.668235 377.305)rotate(-90)scale(0.14 -0.14)">
       <defs>
        <path id="DejaVuSans-Bold-28" d="M 2413 -844 
L 1484 -844 
Q 1006 -72 778 623 
Q 550 1319 550 2003 
Q 550 2688 779 3389 
Q 1009 4091 1484 4856 
L 2413 4856 
Q 2013 4116 1813 3408 
Q 1613 2700 1613 2009 
Q 1613 1319 1811 609 
Q 2009 -100 2413 -844 
z
" transform="scale(0.015625)"/>
        <path id="DejaVuSans-Bold-41" d="M 3419 850 
L 1538 850 
L 1241 0 
L 31 0 
L 1759 4666 
L 3194 4666 
L 4922 0 
L 3713 0 
L 3419 850 
z
M 1838 1716 
L 3116 1716 
L 2478 3572 
L 1838 1716 
z
" transform="scale(0.015625)"/>
        <path id="DejaVuSans-Bold-46" d="M 588 4666 
L 3834 4666 
L 3834 3756 
L 1791 3756 
L 1791 2888 
L 3713 2888 
L 3713 1978 
L 1791 1978 
L 1791 0 
L 588 0 
L 588 4666 
z
" transform="scale(0.015625)"/>
        <path id="DejaVuSans-Bold-29" d="M 513 -844 
Q 913 -100 1113 609 
Q 1313 1319 1313 2009 
Q 1313 2700 1113 3408 
Q 913 4116 513 4856 
L 1441 4856 
Q 1916 4091 2145 3389 
Q 2375 2688 2375 2003 
Q 2375 1319 2147 623 
Q 1919 -72 1441 -844 
L 513 -844 
z
" transform="scale(0.015625)"/>
       </defs>
       <use xlink:href="#DejaVuSans-Bold-74"/>
       <use xlink:href="#DejaVuSans-Bold-61" x="47.802734"/>
       <use xlink:href="#DejaVuSans-Bold-6e" x="115.283203"/>
       <use xlink:href="#DejaVuSans-Bold-68" x="186.474609"/>
       <use xlink:href="#DejaVuSans-Bold-28" x="257.666016"/>
       <use xlink:href="#DejaVuSans-Bold-41" x="303.369141"/>
       <use xlink:href="#DejaVuSans-Bold-46" x="380.761719"/>
       <use xlink:href="#DejaVuSans-Bold-29" x="449.072266"/>
      </g>
     </g>
    </g>
    <g id="xtick_4">
     <g id="line2d_4">
      <g>
       <use xlink:href="#m8c786c02e3" x="217.456587" y="301.037812" style="stroke: #000000; stroke-width: 0.8"/>
      </g>
     </g>
     <g id="text_4">
      <!-- Swish -->
      <g transform="translate(221.319712 354.1525)rotate(-90)scale(0.14 -0.14)">
       <defs>
        <path id="DejaVuSans-Bold-77" d="M 225 3500 
L 1313 3500 
L 1900 1088 
L 2491 3500 
L 3425 3500 
L 4013 1113 
L 4603 3500 
L 5691 3500 
L 4769 0 
L 3547 0 
L 2956 2406 
L 2369 0 
L 1147 0 
L 225 3500 
z
" transform="scale(0.015625)"/>
        <path id="DejaVuSans-Bold-69" d="M 538 3500 
L 1656 3500 
L 1656 0 
L 538 0 
L 538 3500 
z
M 538 4863 
L 1656 4863 
L 1656 3950 
L 538 3950 
L 538 4863 
z
" transform="scale(0.015625)"/>
        <path id="DejaVuSans-Bold-73" d="M 3272 3391 
L 3272 2541 
Q 2913 2691 2578 2766 
Q 2244 2841 1947 2841 
Q 1628 2841 1473 2761 
Q 1319 2681 1319 2516 
Q 1319 2381 1436 2309 
Q 1553 2238 1856 2203 
L 2053 2175 
Q 2913 2066 3209 1816 
Q 3506 1566 3506 1031 
Q 3506 472 3093 190 
Q 2681 -91 1863 -91 
Q 1516 -91 1145 -36 
Q 775 19 384 128 
L 384 978 
Q 719 816 1070 734 
Q 1422 653 1784 653 
Q 2113 653 2278 743 
Q 2444 834 2444 1013 
Q 2444 1163 2330 1236 
Q 2216 1309 1875 1350 
L 1678 1375 
Q 931 1469 631 1722 
Q 331 1975 331 2491 
Q 331 3047 712 3315 
Q 1094 3584 1881 3584 
Q 2191 3584 2531 3537 
Q 2872 3491 3272 3391 
z
" transform="scale(0.015625)"/>
       </defs>
       <use xlink:href="#DejaVuSans-Bold-53"/>
       <use xlink:href="#DejaVuSans-Bold-77" x="72.021484"/>
       <use xlink:href="#DejaVuSans-Bold-69" x="164.404297"/>
       <use xlink:href="#DejaVuSans-Bold-73" x="198.681641"/>
       <use xlink:href="#DejaVuSans-Bold-68" x="258.203125"/>
      </g>
     </g>
    </g>
    <g id="xtick_5">
     <g id="line2d_5">
      <g>
       <use xlink:href="#m8c786c02e3" x="266.108063" y="301.037812" style="stroke: #000000; stroke-width: 0.8"/>
      </g>
     </g>
     <g id="text_5">
      <!-- Rowdy -->
      <g transform="translate(269.916501 360.518125)rotate(-90)scale(0.14 -0.14)">
       <defs>
        <path id="DejaVuSans-Bold-52" d="M 2297 2597 
Q 2675 2597 2839 2737 
Q 3003 2878 3003 3200 
Q 3003 3519 2839 3656 
Q 2675 3794 2297 3794 
L 1791 3794 
L 1791 2597 
L 2297 2597 
z
M 1791 1766 
L 1791 0 
L 588 0 
L 588 4666 
L 2425 4666 
Q 3347 4666 3776 4356 
Q 4206 4047 4206 3378 
Q 4206 2916 3982 2619 
Q 3759 2322 3309 2181 
Q 3556 2125 3751 1926 
Q 3947 1728 4147 1325 
L 4800 0 
L 3519 0 
L 2950 1159 
Q 2778 1509 2601 1637 
Q 2425 1766 2131 1766 
L 1791 1766 
z
" transform="scale(0.015625)"/>
        <path id="DejaVuSans-Bold-6f" d="M 2203 2784 
Q 1831 2784 1636 2517 
Q 1441 2250 1441 1747 
Q 1441 1244 1636 976 
Q 1831 709 2203 709 
Q 2569 709 2762 976 
Q 2956 1244 2956 1747 
Q 2956 2250 2762 2517 
Q 2569 2784 2203 2784 
z
M 2203 3584 
Q 3106 3584 3614 3096 
Q 4122 2609 4122 1747 
Q 4122 884 3614 396 
Q 3106 -91 2203 -91 
Q 1297 -91 786 396 
Q 275 884 275 1747 
Q 275 2609 786 3096 
Q 1297 3584 2203 3584 
z
" transform="scale(0.015625)"/>
        <path id="DejaVuSans-Bold-64" d="M 2919 2988 
L 2919 4863 
L 4044 4863 
L 4044 0 
L 2919 0 
L 2919 506 
Q 2688 197 2409 53 
Q 2131 -91 1766 -91 
Q 1119 -91 703 423 
Q 288 938 288 1747 
Q 288 2556 703 3070 
Q 1119 3584 1766 3584 
Q 2128 3584 2408 3439 
Q 2688 3294 2919 2988 
z
M 2181 722 
Q 2541 722 2730 984 
Q 2919 1247 2919 1747 
Q 2919 2247 2730 2509 
Q 2541 2772 2181 2772 
Q 1825 2772 1636 2509 
Q 1447 2247 1447 1747 
Q 1447 1247 1636 984 
Q 1825 722 2181 722 
z
" transform="scale(0.015625)"/>
        <path id="DejaVuSans-Bold-79" d="M 78 3500 
L 1197 3500 
L 2138 1125 
L 2938 3500 
L 4056 3500 
L 2584 -331 
Q 2363 -916 2067 -1148 
Q 1772 -1381 1288 -1381 
L 641 -1381 
L 641 -647 
L 991 -647 
Q 1275 -647 1404 -556 
Q 1534 -466 1606 -231 
L 1638 -134 
L 78 3500 
z
" transform="scale(0.015625)"/>
       </defs>
       <use xlink:href="#DejaVuSans-Bold-52"/>
       <use xlink:href="#DejaVuSans-Bold-6f" x="77.001953"/>
       <use xlink:href="#DejaVuSans-Bold-77" x="145.703125"/>
       <use xlink:href="#DejaVuSans-Bold-64" x="238.085938"/>
       <use xlink:href="#DejaVuSans-Bold-79" x="309.667969"/>
      </g>
     </g>
    </g>
   </g>
   <g id="matplotlib.axis_2">
    <g id="ytick_1">
     <g id="line2d_6">
      <defs>
       <path id="m576740dab7" d="M 0 0 
L -3.5 0 
" style="stroke: #000000; stroke-width: 0.8"/>
      </defs>
      <g>
       <use xlink:href="#m576740dab7" x="45.716875" y="301.037812" style="stroke: #000000; stroke-width: 0.8"/>
      </g>
     </g>
     <g id="text_6">
      <!-- 0.0 -->
      <g transform="translate(22.81375 304.837031)scale(0.1 -0.1)">
       <defs>
        <path id="DejaVuSans-30" d="M 2034 4250 
Q 1547 4250 1301 3770 
Q 1056 3291 1056 2328 
Q 1056 1369 1301 889 
Q 1547 409 2034 409 
Q 2525 409 2770 889 
Q 3016 1369 3016 2328 
Q 3016 3291 2770 3770 
Q 2525 4250 2034 4250 
z
M 2034 4750 
Q 2819 4750 3233 4129 
Q 3647 3509 3647 2328 
Q 3647 1150 3233 529 
Q 2819 -91 2034 -91 
Q 1250 -91 836 529 
Q 422 1150 422 2328 
Q 422 3509 836 4129 
Q 1250 4750 2034 4750 
z
" transform="scale(0.015625)"/>
        <path id="DejaVuSans-2e" d="M 684 794 
L 1344 794 
L 1344 0 
L 684 0 
L 684 794 
z
" transform="scale(0.015625)"/>
       </defs>
       <use xlink:href="#DejaVuSans-30"/>
       <use xlink:href="#DejaVuSans-2e" x="63.623047"/>
       <use xlink:href="#DejaVuSans-30" x="95.410156"/>
      </g>
     </g>
    </g>
    <g id="ytick_2">
     <g id="line2d_7">
      <g>
       <use xlink:href="#m576740dab7" x="45.716875" y="249.153639" style="stroke: #000000; stroke-width: 0.8"/>
      </g>
     </g>
     <g id="text_7">
      <!-- 0.1 -->
      <g transform="translate(22.81375 252.952858)scale(0.1 -0.1)">
       <defs>
        <path id="DejaVuSans-31" d="M 794 531 
L 1825 531 
L 1825 4091 
L 703 3866 
L 703 4441 
L 1819 4666 
L 2450 4666 
L 2450 531 
L 3481 531 
L 3481 0 
L 794 0 
L 794 531 
z
" transform="scale(0.015625)"/>
       </defs>
       <use xlink:href="#DejaVuSans-30"/>
       <use xlink:href="#DejaVuSans-2e" x="63.623047"/>
       <use xlink:href="#DejaVuSans-31" x="95.410156"/>
      </g>
     </g>
    </g>
    <g id="ytick_3">
     <g id="line2d_8">
      <g>
       <use xlink:href="#m576740dab7" x="45.716875" y="197.269466" style="stroke: #000000; stroke-width: 0.8"/>
      </g>
     </g>
     <g id="text_8">
      <!-- 0.2 -->
      <g transform="translate(22.81375 201.068685)scale(0.1 -0.1)">
       <defs>
        <path id="DejaVuSans-32" d="M 1228 531 
L 3431 531 
L 3431 0 
L 469 0 
L 469 531 
Q 828 903 1448 1529 
Q 2069 2156 2228 2338 
Q 2531 2678 2651 2914 
Q 2772 3150 2772 3378 
Q 2772 3750 2511 3984 
Q 2250 4219 1831 4219 
Q 1534 4219 1204 4116 
Q 875 4013 500 3803 
L 500 4441 
Q 881 4594 1212 4672 
Q 1544 4750 1819 4750 
Q 2544 4750 2975 4387 
Q 3406 4025 3406 3419 
Q 3406 3131 3298 2873 
Q 3191 2616 2906 2266 
Q 2828 2175 2409 1742 
Q 1991 1309 1228 531 
z
" transform="scale(0.015625)"/>
       </defs>
       <use xlink:href="#DejaVuSans-30"/>
       <use xlink:href="#DejaVuSans-2e" x="63.623047"/>
       <use xlink:href="#DejaVuSans-32" x="95.410156"/>
      </g>
     </g>
    </g>
    <g id="ytick_4">
     <g id="line2d_9">
      <g>
       <use xlink:href="#m576740dab7" x="45.716875" y="145.385293" style="stroke: #000000; stroke-width: 0.8"/>
      </g>
     </g>
     <g id="text_9">
      <!-- 0.3 -->
      <g transform="translate(22.81375 149.184512)scale(0.1 -0.1)">
       <defs>
        <path id="DejaVuSans-33" d="M 2597 2516 
Q 3050 2419 3304 2112 
Q 3559 1806 3559 1356 
Q 3559 666 3084 287 
Q 2609 -91 1734 -91 
Q 1441 -91 1130 -33 
Q 819 25 488 141 
L 488 750 
Q 750 597 1062 519 
Q 1375 441 1716 441 
Q 2309 441 2620 675 
Q 2931 909 2931 1356 
Q 2931 1769 2642 2001 
Q 2353 2234 1838 2234 
L 1294 2234 
L 1294 2753 
L 1863 2753 
Q 2328 2753 2575 2939 
Q 2822 3125 2822 3475 
Q 2822 3834 2567 4026 
Q 2313 4219 1838 4219 
Q 1578 4219 1281 4162 
Q 984 4106 628 3988 
L 628 4550 
Q 988 4650 1302 4700 
Q 1616 4750 1894 4750 
Q 2613 4750 3031 4423 
Q 3450 4097 3450 3541 
Q 3450 3153 3228 2886 
Q 3006 2619 2597 2516 
z
" transform="scale(0.015625)"/>
       </defs>
       <use xlink:href="#DejaVuSans-30"/>
       <use xlink:href="#DejaVuSans-2e" x="63.623047"/>
       <use xlink:href="#DejaVuSans-33" x="95.410156"/>
      </g>
     </g>
    </g>
    <g id="ytick_5">
     <g id="line2d_10">
      <g>
       <use xlink:href="#m576740dab7" x="45.716875" y="93.50112" style="stroke: #000000; stroke-width: 0.8"/>
      </g>
     </g>
     <g id="text_10">
      <!-- 0.4 -->
      <g transform="translate(22.81375 97.300339)scale(0.1 -0.1)">
       <defs>
        <path id="DejaVuSans-34" d="M 2419 4116 
L 825 1625 
L 2419 1625 
L 2419 4116 
z
M 2253 4666 
L 3047 4666 
L 3047 1625 
L 3713 1625 
L 3713 1100 
L 3047 1100 
L 3047 0 
L 2419 0 
L 2419 1100 
L 313 1100 
L 313 1709 
L 2253 4666 
z
" transform="scale(0.015625)"/>
       </defs>
       <use xlink:href="#DejaVuSans-30"/>
       <use xlink:href="#DejaVuSans-2e" x="63.623047"/>
       <use xlink:href="#DejaVuSans-34" x="95.410156"/>
      </g>
     </g>
    </g>
    <g id="ytick_6">
     <g id="line2d_11">
      <g>
       <use xlink:href="#m576740dab7" x="45.716875" y="41.616947" style="stroke: #000000; stroke-width: 0.8"/>
      </g>
     </g>
     <g id="text_11">
      <!-- 0.5 -->
      <g transform="translate(22.81375 45.416166)scale(0.1 -0.1)">
       <defs>
        <path id="DejaVuSans-35" d="M 691 4666 
L 3169 4666 
L 3169 4134 
L 1269 4134 
L 1269 2991 
Q 1406 3038 1543 3061 
Q 1681 3084 1819 3084 
Q 2600 3084 3056 2656 
Q 3513 2228 3513 1497 
Q 3513 744 3044 326 
Q 2575 -91 1722 -91 
Q 1428 -91 1123 -41 
Q 819 9 494 109 
L 494 744 
Q 775 591 1075 516 
Q 1375 441 1709 441 
Q 2250 441 2565 725 
Q 2881 1009 2881 1497 
Q 2881 1984 2565 2268 
Q 2250 2553 1709 2553 
Q 1456 2553 1204 2497 
Q 953 2441 691 2322 
L 691 4666 
z
" transform="scale(0.015625)"/>
       </defs>
       <use xlink:href="#DejaVuSans-30"/>
       <use xlink:href="#DejaVuSans-2e" x="63.623047"/>
       <use xlink:href="#DejaVuSans-35" x="95.410156"/>
      </g>
     </g>
    </g>
    <g id="text_12">
     <!-- Relative Error -->
     <g transform="translate(16.318125 203.16375)rotate(-90)scale(0.12 -0.12)">
      <defs>
       <path id="DejaVuSans-52" d="M 2841 2188 
Q 3044 2119 3236 1894 
Q 3428 1669 3622 1275 
L 4263 0 
L 3584 0 
L 2988 1197 
Q 2756 1666 2539 1819 
Q 2322 1972 1947 1972 
L 1259 1972 
L 1259 0 
L 628 0 
L 628 4666 
L 2053 4666 
Q 2853 4666 3247 4331 
Q 3641 3997 3641 3322 
Q 3641 2881 3436 2590 
Q 3231 2300 2841 2188 
z
M 1259 4147 
L 1259 2491 
L 2053 2491 
Q 2509 2491 2742 2702 
Q 2975 2913 2975 3322 
Q 2975 3731 2742 3939 
Q 2509 4147 2053 4147 
L 1259 4147 
z
" transform="scale(0.015625)"/>
       <path id="DejaVuSans-65" d="M 3597 1894 
L 3597 1613 
L 953 1613 
Q 991 1019 1311 708 
Q 1631 397 2203 397 
Q 2534 397 2845 478 
Q 3156 559 3463 722 
L 3463 178 
Q 3153 47 2828 -22 
Q 2503 -91 2169 -91 
Q 1331 -91 842 396 
Q 353 884 353 1716 
Q 353 2575 817 3079 
Q 1281 3584 2069 3584 
Q 2775 3584 3186 3129 
Q 3597 2675 3597 1894 
z
M 3022 2063 
Q 3016 2534 2758 2815 
Q 2500 3097 2075 3097 
Q 1594 3097 1305 2825 
Q 1016 2553 972 2059 
L 3022 2063 
z
" transform="scale(0.015625)"/>
       <path id="DejaVuSans-6c" d="M 603 4863 
L 1178 4863 
L 1178 0 
L 603 0 
L 603 4863 
z
" transform="scale(0.015625)"/>
       <path id="DejaVuSans-61" d="M 2194 1759 
Q 1497 1759 1228 1600 
Q 959 1441 959 1056 
Q 959 750 1161 570 
Q 1363 391 1709 391 
Q 2188 391 2477 730 
Q 2766 1069 2766 1631 
L 2766 1759 
L 2194 1759 
z
M 3341 1997 
L 3341 0 
L 2766 0 
L 2766 531 
Q 2569 213 2275 61 
Q 1981 -91 1556 -91 
Q 1019 -91 701 211 
Q 384 513 384 1019 
Q 384 1609 779 1909 
Q 1175 2209 1959 2209 
L 2766 2209 
L 2766 2266 
Q 2766 2663 2505 2880 
Q 2244 3097 1772 3097 
Q 1472 3097 1187 3025 
Q 903 2953 641 2809 
L 641 3341 
Q 956 3463 1253 3523 
Q 1550 3584 1831 3584 
Q 2591 3584 2966 3190 
Q 3341 2797 3341 1997 
z
" transform="scale(0.015625)"/>
       <path id="DejaVuSans-74" d="M 1172 4494 
L 1172 3500 
L 2356 3500 
L 2356 3053 
L 1172 3053 
L 1172 1153 
Q 1172 725 1289 603 
Q 1406 481 1766 481 
L 2356 481 
L 2356 0 
L 1766 0 
Q 1100 0 847 248 
Q 594 497 594 1153 
L 594 3053 
L 172 3053 
L 172 3500 
L 594 3500 
L 594 4494 
L 1172 4494 
z
" transform="scale(0.015625)"/>
       <path id="DejaVuSans-69" d="M 603 3500 
L 1178 3500 
L 1178 0 
L 603 0 
L 603 3500 
z
M 603 4863 
L 1178 4863 
L 1178 4134 
L 603 4134 
L 603 4863 
z
" transform="scale(0.015625)"/>
       <path id="DejaVuSans-76" d="M 191 3500 
L 800 3500 
L 1894 563 
L 2988 3500 
L 3597 3500 
L 2284 0 
L 1503 0 
L 191 3500 
z
" transform="scale(0.015625)"/>
       <path id="DejaVuSans-20" transform="scale(0.015625)"/>
       <path id="DejaVuSans-45" d="M 628 4666 
L 3578 4666 
L 3578 4134 
L 1259 4134 
L 1259 2753 
L 3481 2753 
L 3481 2222 
L 1259 2222 
L 1259 531 
L 3634 531 
L 3634 0 
L 628 0 
L 628 4666 
z
" transform="scale(0.015625)"/>
       <path id="DejaVuSans-72" d="M 2631 2963 
Q 2534 3019 2420 3045 
Q 2306 3072 2169 3072 
Q 1681 3072 1420 2755 
Q 1159 2438 1159 1844 
L 1159 0 
L 581 0 
L 581 3500 
L 1159 3500 
L 1159 2956 
Q 1341 3275 1631 3429 
Q 1922 3584 2338 3584 
Q 2397 3584 2469 3576 
Q 2541 3569 2628 3553 
L 2631 2963 
z
" transform="scale(0.015625)"/>
       <path id="DejaVuSans-6f" d="M 1959 3097 
Q 1497 3097 1228 2736 
Q 959 2375 959 1747 
Q 959 1119 1226 758 
Q 1494 397 1959 397 
Q 2419 397 2687 759 
Q 2956 1122 2956 1747 
Q 2956 2369 2687 2733 
Q 2419 3097 1959 3097 
z
M 1959 3584 
Q 2709 3584 3137 3096 
Q 3566 2609 3566 1747 
Q 3566 888 3137 398 
Q 2709 -91 1959 -91 
Q 1206 -91 779 398 
Q 353 888 353 1747 
Q 353 2609 779 3096 
Q 1206 3584 1959 3584 
z
" transform="scale(0.015625)"/>
      </defs>
      <use xlink:href="#DejaVuSans-52"/>
      <use xlink:href="#DejaVuSans-65" x="64.982422"/>
      <use xlink:href="#DejaVuSans-6c" x="126.505859"/>
      <use xlink:href="#DejaVuSans-61" x="154.289062"/>
      <use xlink:href="#DejaVuSans-74" x="215.568359"/>
      <use xlink:href="#DejaVuSans-69" x="254.777344"/>
      <use xlink:href="#DejaVuSans-76" x="282.560547"/>
      <use xlink:href="#DejaVuSans-65" x="341.740234"/>
      <use xlink:href="#DejaVuSans-20" x="403.263672"/>
      <use xlink:href="#DejaVuSans-45" x="435.050781"/>
      <use xlink:href="#DejaVuSans-72" x="498.234375"/>
      <use xlink:href="#DejaVuSans-72" x="537.597656"/>
      <use xlink:href="#DejaVuSans-6f" x="576.460938"/>
      <use xlink:href="#DejaVuSans-72" x="637.642578"/>
     </g>
    </g>
   </g>
   <g id="patch_18">
    <path d="M 45.716875 301.037812 
L 45.716875 23.837812 
" style="fill: none; stroke: #000000; stroke-width: 0.8; stroke-linejoin: miter; stroke-linecap: square"/>
   </g>
   <g id="patch_19">
    <path d="M 291.893346 301.037812 
L 291.893346 23.837812 
" style="fill: none; stroke: #000000; stroke-width: 0.8; stroke-linejoin: miter; stroke-linecap: square"/>
   </g>
   <g id="patch_20">
    <path d="M 45.716875 301.037812 
L 291.893346 301.037812 
" style="fill: none; stroke: #000000; stroke-width: 0.8; stroke-linejoin: miter; stroke-linecap: square"/>
   </g>
   <g id="patch_21">
    <path d="M 45.716875 23.837812 
L 291.893346 23.837812 
" style="fill: none; stroke: #000000; stroke-width: 0.8; stroke-linejoin: miter; stroke-linecap: square"/>
   </g>
   <g id="text_13">
    <!-- L -->
    <g transform="translate(58.985925 276.095269)scale(0.1 -0.1)">
     <defs>
      <path id="DejaVuSans-4c" d="M 628 4666 
L 1259 4666 
L 1259 531 
L 3531 531 
L 3531 0 
L 628 0 
L 628 4666 
z
" transform="scale(0.015625)"/>
     </defs>
     <use xlink:href="#DejaVuSans-4c"/>
    </g>
   </g>
   <g id="text_14">
    <!-- M -->
    <g transform="translate(67.188095 275.658043)scale(0.1 -0.1)">
     <defs>
      <path id="DejaVuSans-4d" d="M 628 4666 
L 1569 4666 
L 2759 1491 
L 3956 4666 
L 4897 4666 
L 4897 0 
L 4281 0 
L 4281 4097 
L 3078 897 
L 2444 897 
L 1241 4097 
L 1241 0 
L 628 0 
L 628 4666 
z
" transform="scale(0.015625)"/>
     </defs>
     <use xlink:href="#DejaVuSans-4d"/>
    </g>
   </g>
   <g id="text_15">
    <!-- H -->
    <g transform="translate(77.472297 272.616767)scale(0.1 -0.1)">
     <defs>
      <path id="DejaVuSans-48" d="M 628 4666 
L 1259 4666 
L 1259 2753 
L 3553 2753 
L 3553 4666 
L 4184 4666 
L 4184 0 
L 3553 0 
L 3553 2222 
L 1259 2222 
L 1259 0 
L 628 0 
L 628 4666 
z
" transform="scale(0.015625)"/>
     </defs>
     <use xlink:href="#DejaVuSans-48"/>
    </g>
   </g>
   <g id="text_16">
    <!-- L -->
    <g transform="translate(107.637401 277.310563)scale(0.1 -0.1)">
     <use xlink:href="#DejaVuSans-4c"/>
    </g>
   </g>
   <g id="text_17">
    <!-- M -->
    <g transform="translate(115.839571 246.623379)scale(0.1 -0.1)">
     <use xlink:href="#DejaVuSans-4d"/>
    </g>
   </g>
   <g id="text_18">
    <!-- H -->
    <g transform="translate(126.123773 139.392864)scale(0.1 -0.1)">
     <use xlink:href="#DejaVuSans-48"/>
    </g>
   </g>
   <g id="text_19">
    <!-- L -->
    <g transform="translate(156.288878 34.958125)scale(0.1 -0.1)">
     <use xlink:href="#DejaVuSans-4c"/>
    </g>
   </g>
   <g id="text_20">
    <!-- M -->
    <g transform="translate(164.491048 83.832579)scale(0.1 -0.1)">
     <use xlink:href="#DejaVuSans-4d"/>
    </g>
   </g>
   <g id="text_21">
    <!-- H -->
    <g transform="translate(174.775249 54.327457)scale(0.1 -0.1)">
     <use xlink:href="#DejaVuSans-48"/>
    </g>
   </g>
   <g id="text_22">
    <!-- L -->
    <g transform="translate(204.940354 138.689723)scale(0.1 -0.1)">
     <use xlink:href="#DejaVuSans-4c"/>
    </g>
   </g>
   <g id="text_23">
    <!-- M -->
    <g transform="translate(213.142524 131.815086)scale(0.1 -0.1)">
     <use xlink:href="#DejaVuSans-4d"/>
    </g>
   </g>
   <g id="text_24">
    <!-- H -->
    <g transform="translate(223.426726 186.804159)scale(0.1 -0.1)">
     <use xlink:href="#DejaVuSans-48"/>
    </g>
   </g>
   <g id="text_25">
    <!-- L -->
    <g transform="translate(253.59183 274.314741)scale(0.1 -0.1)">
     <use xlink:href="#DejaVuSans-4c"/>
    </g>
   </g>
   <g id="text_26">
    <!-- M -->
    <g transform="translate(261.794001 258.161496)scale(0.1 -0.1)">
     <use xlink:href="#DejaVuSans-4d"/>
    </g>
   </g>
   <g id="text_27">
    <!-- H -->
    <g transform="translate(272.078202 276.413869)scale(0.1 -0.1)">
     <use xlink:href="#DejaVuSans-48"/>
    </g>
   </g>
   <g id="text_28">
    <!-- (Proposed) -->
    <g style="fill: #ff0000" transform="translate(85.48543 376.17128)rotate(-90)scale(0.12 -0.12)">
     <defs>
      <path id="DejaVuSans-Bold-50" d="M 588 4666 
L 2584 4666 
Q 3475 4666 3951 4270 
Q 4428 3875 4428 3144 
Q 4428 2409 3951 2014 
Q 3475 1619 2584 1619 
L 1791 1619 
L 1791 0 
L 588 0 
L 588 4666 
z
M 1791 3794 
L 1791 2491 
L 2456 2491 
Q 2806 2491 2997 2661 
Q 3188 2831 3188 3144 
Q 3188 3456 2997 3625 
Q 2806 3794 2456 3794 
L 1791 3794 
z
" transform="scale(0.015625)"/>
      <path id="DejaVuSans-Bold-72" d="M 3138 2547 
Q 2991 2616 2845 2648 
Q 2700 2681 2553 2681 
Q 2122 2681 1889 2404 
Q 1656 2128 1656 1613 
L 1656 0 
L 538 0 
L 538 3500 
L 1656 3500 
L 1656 2925 
Q 1872 3269 2151 3426 
Q 2431 3584 2822 3584 
Q 2878 3584 2943 3579 
Q 3009 3575 3134 3559 
L 3138 2547 
z
" transform="scale(0.015625)"/>
      <path id="DejaVuSans-Bold-70" d="M 1656 506 
L 1656 -1331 
L 538 -1331 
L 538 3500 
L 1656 3500 
L 1656 2988 
Q 1888 3294 2169 3439 
Q 2450 3584 2816 3584 
Q 3463 3584 3878 3070 
Q 4294 2556 4294 1747 
Q 4294 938 3878 423 
Q 3463 -91 2816 -91 
Q 2450 -91 2169 54 
Q 1888 200 1656 506 
z
M 2400 2772 
Q 2041 2772 1848 2508 
Q 1656 2244 1656 1747 
Q 1656 1250 1848 986 
Q 2041 722 2400 722 
Q 2759 722 2948 984 
Q 3138 1247 3138 1747 
Q 3138 2247 2948 2509 
Q 2759 2772 2400 2772 
z
" transform="scale(0.015625)"/>
      <path id="DejaVuSans-Bold-65" d="M 4031 1759 
L 4031 1441 
L 1416 1441 
Q 1456 1047 1700 850 
Q 1944 653 2381 653 
Q 2734 653 3104 758 
Q 3475 863 3866 1075 
L 3866 213 
Q 3469 63 3072 -14 
Q 2675 -91 2278 -91 
Q 1328 -91 801 392 
Q 275 875 275 1747 
Q 275 2603 792 3093 
Q 1309 3584 2216 3584 
Q 3041 3584 3536 3087 
Q 4031 2591 4031 1759 
z
M 2881 2131 
Q 2881 2450 2695 2645 
Q 2509 2841 2209 2841 
Q 1884 2841 1681 2658 
Q 1478 2475 1428 2131 
L 2881 2131 
z
" transform="scale(0.015625)"/>
     </defs>
     <use xlink:href="#DejaVuSans-Bold-28"/>
     <use xlink:href="#DejaVuSans-Bold-50" x="45.703125"/>
     <use xlink:href="#DejaVuSans-Bold-72" x="118.994141"/>
     <use xlink:href="#DejaVuSans-Bold-6f" x="168.310547"/>
     <use xlink:href="#DejaVuSans-Bold-70" x="237.011719"/>
     <use xlink:href="#DejaVuSans-Bold-6f" x="308.59375"/>
     <use xlink:href="#DejaVuSans-Bold-73" x="377.294922"/>
     <use xlink:href="#DejaVuSans-Bold-65" x="436.816406"/>
     <use xlink:href="#DejaVuSans-Bold-64" x="504.638672"/>
     <use xlink:href="#DejaVuSans-Bold-29" x="576.220703"/>
    </g>
   </g>
   <g id="text_29">
    <!-- Regression Problem -->
    <g transform="translate(99.68011 17.837812)scale(0.14 -0.14)">
     <defs>
      <path id="DejaVuSans-67" d="M 2906 1791 
Q 2906 2416 2648 2759 
Q 2391 3103 1925 3103 
Q 1463 3103 1205 2759 
Q 947 2416 947 1791 
Q 947 1169 1205 825 
Q 1463 481 1925 481 
Q 2391 481 2648 825 
Q 2906 1169 2906 1791 
z
M 3481 434 
Q 3481 -459 3084 -895 
Q 2688 -1331 1869 -1331 
Q 1566 -1331 1297 -1286 
Q 1028 -1241 775 -1147 
L 775 -588 
Q 1028 -725 1275 -790 
Q 1522 -856 1778 -856 
Q 2344 -856 2625 -561 
Q 2906 -266 2906 331 
L 2906 616 
Q 2728 306 2450 153 
Q 2172 0 1784 0 
Q 1141 0 747 490 
Q 353 981 353 1791 
Q 353 2603 747 3093 
Q 1141 3584 1784 3584 
Q 2172 3584 2450 3431 
Q 2728 3278 2906 2969 
L 2906 3500 
L 3481 3500 
L 3481 434 
z
" transform="scale(0.015625)"/>
      <path id="DejaVuSans-73" d="M 2834 3397 
L 2834 2853 
Q 2591 2978 2328 3040 
Q 2066 3103 1784 3103 
Q 1356 3103 1142 2972 
Q 928 2841 928 2578 
Q 928 2378 1081 2264 
Q 1234 2150 1697 2047 
L 1894 2003 
Q 2506 1872 2764 1633 
Q 3022 1394 3022 966 
Q 3022 478 2636 193 
Q 2250 -91 1575 -91 
Q 1294 -91 989 -36 
Q 684 19 347 128 
L 347 722 
Q 666 556 975 473 
Q 1284 391 1588 391 
Q 1994 391 2212 530 
Q 2431 669 2431 922 
Q 2431 1156 2273 1281 
Q 2116 1406 1581 1522 
L 1381 1569 
Q 847 1681 609 1914 
Q 372 2147 372 2553 
Q 372 3047 722 3315 
Q 1072 3584 1716 3584 
Q 2034 3584 2315 3537 
Q 2597 3491 2834 3397 
z
" transform="scale(0.015625)"/>
      <path id="DejaVuSans-6e" d="M 3513 2113 
L 3513 0 
L 2938 0 
L 2938 2094 
Q 2938 2591 2744 2837 
Q 2550 3084 2163 3084 
Q 1697 3084 1428 2787 
Q 1159 2491 1159 1978 
L 1159 0 
L 581 0 
L 581 3500 
L 1159 3500 
L 1159 2956 
Q 1366 3272 1645 3428 
Q 1925 3584 2291 3584 
Q 2894 3584 3203 3211 
Q 3513 2838 3513 2113 
z
" transform="scale(0.015625)"/>
      <path id="DejaVuSans-50" d="M 1259 4147 
L 1259 2394 
L 2053 2394 
Q 2494 2394 2734 2622 
Q 2975 2850 2975 3272 
Q 2975 3691 2734 3919 
Q 2494 4147 2053 4147 
L 1259 4147 
z
M 628 4666 
L 2053 4666 
Q 2838 4666 3239 4311 
Q 3641 3956 3641 3272 
Q 3641 2581 3239 2228 
Q 2838 1875 2053 1875 
L 1259 1875 
L 1259 0 
L 628 0 
L 628 4666 
z
" transform="scale(0.015625)"/>
      <path id="DejaVuSans-62" d="M 3116 1747 
Q 3116 2381 2855 2742 
Q 2594 3103 2138 3103 
Q 1681 3103 1420 2742 
Q 1159 2381 1159 1747 
Q 1159 1113 1420 752 
Q 1681 391 2138 391 
Q 2594 391 2855 752 
Q 3116 1113 3116 1747 
z
M 1159 2969 
Q 1341 3281 1617 3432 
Q 1894 3584 2278 3584 
Q 2916 3584 3314 3078 
Q 3713 2572 3713 1747 
Q 3713 922 3314 415 
Q 2916 -91 2278 -91 
Q 1894 -91 1617 61 
Q 1341 213 1159 525 
L 1159 0 
L 581 0 
L 581 4863 
L 1159 4863 
L 1159 2969 
z
" transform="scale(0.015625)"/>
      <path id="DejaVuSans-6d" d="M 3328 2828 
Q 3544 3216 3844 3400 
Q 4144 3584 4550 3584 
Q 5097 3584 5394 3201 
Q 5691 2819 5691 2113 
L 5691 0 
L 5113 0 
L 5113 2094 
Q 5113 2597 4934 2840 
Q 4756 3084 4391 3084 
Q 3944 3084 3684 2787 
Q 3425 2491 3425 1978 
L 3425 0 
L 2847 0 
L 2847 2094 
Q 2847 2600 2669 2842 
Q 2491 3084 2119 3084 
Q 1678 3084 1418 2786 
Q 1159 2488 1159 1978 
L 1159 0 
L 581 0 
L 581 3500 
L 1159 3500 
L 1159 2956 
Q 1356 3278 1631 3431 
Q 1906 3584 2284 3584 
Q 2666 3584 2933 3390 
Q 3200 3197 3328 2828 
z
" transform="scale(0.015625)"/>
     </defs>
     <use xlink:href="#DejaVuSans-52"/>
     <use xlink:href="#DejaVuSans-65" x="64.982422"/>
     <use xlink:href="#DejaVuSans-67" x="126.505859"/>
     <use xlink:href="#DejaVuSans-72" x="189.982422"/>
     <use xlink:href="#DejaVuSans-65" x="228.845703"/>
     <use xlink:href="#DejaVuSans-73" x="290.369141"/>
     <use xlink:href="#DejaVuSans-73" x="342.46875"/>
     <use xlink:href="#DejaVuSans-69" x="394.568359"/>
     <use xlink:href="#DejaVuSans-6f" x="422.351562"/>
     <use xlink:href="#DejaVuSans-6e" x="483.533203"/>
     <use xlink:href="#DejaVuSans-20" x="546.912109"/>
     <use xlink:href="#DejaVuSans-50" x="578.699219"/>
     <use xlink:href="#DejaVuSans-72" x="637.251953"/>
     <use xlink:href="#DejaVuSans-6f" x="676.115234"/>
     <use xlink:href="#DejaVuSans-62" x="737.296875"/>
     <use xlink:href="#DejaVuSans-6c" x="800.773438"/>
     <use xlink:href="#DejaVuSans-65" x="828.556641"/>
     <use xlink:href="#DejaVuSans-6d" x="890.080078"/>
    </g>
   </g>
  </g>
  <g id="axes_2">
   <g id="patch_22">
    <path d="M 341.12864 301.037812 
L 587.30511 301.037812 
L 587.30511 23.837812 
L 341.12864 23.837812 
z
" style="fill: #ffffff"/>
   </g>
   <g id="patch_23">
    <path d="M 352.318479 301.037812 
L 362.048775 301.037812 
L 362.048775 300.408373 
L 352.318479 300.408373 
z
" clip-path="url(#pc337372088)" style="fill: #ff0000; stroke: #000000; stroke-linejoin: miter"/>
   </g>
   <g id="patch_24">
    <path d="M 362.048775 301.037812 
L 371.77907 301.037812 
L 371.77907 300.97097 
L 362.048775 300.97097 
z
" clip-path="url(#pc337372088)" style="fill: #ff0000; stroke: #000000; stroke-linejoin: miter"/>
   </g>
   <g id="patch_25">
    <path d="M 371.77907 301.037812 
L 381.509365 301.037812 
L 381.509365 295.817046 
L 371.77907 295.817046 
z
" clip-path="url(#pc337372088)" style="fill: #ff0000; stroke: #000000; stroke-linejoin: miter"/>
   </g>
   <g id="patch_26">
    <path d="M 400.969956 301.037812 
L 410.700251 301.037812 
L 410.700251 300.958934 
L 400.969956 300.958934 
z
" clip-path="url(#pc337372088)" style="stroke: #000000; stroke-linejoin: miter"/>
   </g>
   <g id="patch_27">
    <path d="M 410.700251 301.037812 
L 420.430546 301.037812 
L 420.430546 266.106964 
L 410.700251 266.106964 
z
" clip-path="url(#pc337372088)" style="stroke: #000000; stroke-linejoin: miter"/>
   </g>
   <g id="patch_28">
    <path d="M 420.430546 301.037812 
L 430.160842 301.037812 
L 430.160842 55.762217 
L 420.430546 55.762217 
z
" clip-path="url(#pc337372088)" style="stroke: #000000; stroke-linejoin: miter"/>
   </g>
   <g id="patch_29">
    <path d="M 449.621432 301.037812 
L 459.351727 301.037812 
L 459.351727 300.972565 
L 449.621432 300.972565 
z
" clip-path="url(#pc337372088)" style="fill: #0000ff; stroke: #000000; stroke-linejoin: miter"/>
   </g>
   <g id="patch_30">
    <path d="M 459.351727 301.037812 
L 469.082023 301.037812 
L 469.082023 148.083306 
L 459.351727 148.083306 
z
" clip-path="url(#pc337372088)" style="fill: #0000ff; stroke: #000000; stroke-linejoin: miter"/>
   </g>
   <g id="patch_31">
    <path d="M 469.082023 301.037812 
L 478.812318 301.037812 
L 478.812318 37.037812 
L 469.082023 37.037812 
z
" clip-path="url(#pc337372088)" style="fill: #0000ff; stroke: #000000; stroke-linejoin: miter"/>
   </g>
   <g id="patch_32">
    <path d="M 498.272908 301.037812 
L 508.003204 301.037812 
L 508.003204 300.912028 
L 498.272908 300.912028 
z
" clip-path="url(#pc337372088)" style="fill: #00bfbf; stroke: #000000; stroke-linejoin: miter"/>
   </g>
   <g id="patch_33">
    <path d="M 508.003204 301.037812 
L 517.733499 301.037812 
L 517.733499 301.014887 
L 508.003204 301.014887 
z
" clip-path="url(#pc337372088)" style="fill: #00bfbf; stroke: #000000; stroke-linejoin: miter"/>
   </g>
   <g id="patch_34">
    <path d="M 517.733499 301.037812 
L 527.463794 301.037812 
L 527.463794 296.00677 
L 517.733499 296.00677 
z
" clip-path="url(#pc337372088)" style="fill: #00bfbf; stroke: #000000; stroke-linejoin: miter"/>
   </g>
   <g id="patch_35">
    <path d="M 546.924385 301.037812 
L 556.65468 301.037812 
L 556.65468 300.866373 
L 546.924385 300.866373 
z
" clip-path="url(#pc337372088)" style="fill: #bf00bf; stroke: #000000; stroke-linejoin: miter"/>
   </g>
   <g id="patch_36">
    <path d="M 556.65468 301.037812 
L 566.384975 301.037812 
L 566.384975 299.900117 
L 556.65468 299.900117 
z
" clip-path="url(#pc337372088)" style="fill: #bf00bf; stroke: #000000; stroke-linejoin: miter"/>
   </g>
   <g id="patch_37">
    <path d="M 566.384975 301.037812 
L 576.115271 301.037812 
L 576.115271 276.370711 
L 566.384975 276.370711 
z
" clip-path="url(#pc337372088)" style="fill: #bf00bf; stroke: #000000; stroke-linejoin: miter"/>
   </g>
   <g id="matplotlib.axis_3">
    <g id="xtick_6">
     <g id="line2d_12">
      <g>
       <use xlink:href="#m8c786c02e3" x="366.913922" y="301.037812" style="stroke: #000000; stroke-width: 0.8"/>
      </g>
     </g>
     <g id="text_30">
      <!-- Stan -->
      <g transform="translate(370.777047 344.225625)rotate(-90)scale(0.14 -0.14)">
       <use xlink:href="#DejaVuSans-Bold-53"/>
       <use xlink:href="#DejaVuSans-Bold-74" x="72.021484"/>
       <use xlink:href="#DejaVuSans-Bold-61" x="119.824219"/>
       <use xlink:href="#DejaVuSans-Bold-6e" x="187.304688"/>
      </g>
     </g>
    </g>
    <g id="xtick_7">
     <g id="line2d_13">
      <g>
       <use xlink:href="#m8c786c02e3" x="415.565399" y="301.037812" style="stroke: #000000; stroke-width: 0.8"/>
      </g>
     </g>
     <g id="text_31">
      <!-- tanh -->
      <g transform="translate(419.428524 344.109688)rotate(-90)scale(0.14 -0.14)">
       <use xlink:href="#DejaVuSans-Bold-74"/>
       <use xlink:href="#DejaVuSans-Bold-61" x="47.802734"/>
       <use xlink:href="#DejaVuSans-Bold-6e" x="115.283203"/>
       <use xlink:href="#DejaVuSans-Bold-68" x="186.474609"/>
      </g>
     </g>
    </g>
    <g id="xtick_8">
     <g id="line2d_14">
      <g>
       <use xlink:href="#m8c786c02e3" x="464.216875" y="301.037812" style="stroke: #000000; stroke-width: 0.8"/>
      </g>
     </g>
     <g id="text_32">
      <!-- tanh(AF) -->
      <g transform="translate(468.08 377.305)rotate(-90)scale(0.14 -0.14)">
       <use xlink:href="#DejaVuSans-Bold-74"/>
       <use xlink:href="#DejaVuSans-Bold-61" x="47.802734"/>
       <use xlink:href="#DejaVuSans-Bold-6e" x="115.283203"/>
       <use xlink:href="#DejaVuSans-Bold-68" x="186.474609"/>
       <use xlink:href="#DejaVuSans-Bold-28" x="257.666016"/>
       <use xlink:href="#DejaVuSans-Bold-41" x="303.369141"/>
       <use xlink:href="#DejaVuSans-Bold-46" x="380.761719"/>
       <use xlink:href="#DejaVuSans-Bold-29" x="449.072266"/>
      </g>
     </g>
    </g>
    <g id="xtick_9">
     <g id="line2d_15">
      <g>
       <use xlink:href="#m8c786c02e3" x="512.868351" y="301.037812" style="stroke: #000000; stroke-width: 0.8"/>
      </g>
     </g>
     <g id="text_33">
      <!-- Swish -->
      <g transform="translate(516.731476 354.1525)rotate(-90)scale(0.14 -0.14)">
       <use xlink:href="#DejaVuSans-Bold-53"/>
       <use xlink:href="#DejaVuSans-Bold-77" x="72.021484"/>
       <use xlink:href="#DejaVuSans-Bold-69" x="164.404297"/>
       <use xlink:href="#DejaVuSans-Bold-73" x="198.681641"/>
       <use xlink:href="#DejaVuSans-Bold-68" x="258.203125"/>
      </g>
     </g>
    </g>
    <g id="xtick_10">
     <g id="line2d_16">
      <g>
       <use xlink:href="#m8c786c02e3" x="561.519828" y="301.037812" style="stroke: #000000; stroke-width: 0.8"/>
      </g>
     </g>
     <g id="text_34">
      <!-- Rowdy -->
      <g transform="translate(565.328265 360.518125)rotate(-90)scale(0.14 -0.14)">
       <use xlink:href="#DejaVuSans-Bold-52"/>
       <use xlink:href="#DejaVuSans-Bold-6f" x="77.001953"/>
       <use xlink:href="#DejaVuSans-Bold-77" x="145.703125"/>
       <use xlink:href="#DejaVuSans-Bold-64" x="238.085938"/>
       <use xlink:href="#DejaVuSans-Bold-79" x="309.667969"/>
      </g>
     </g>
    </g>
   </g>
   <g id="matplotlib.axis_4">
    <g id="ytick_7">
     <g id="line2d_17">
      <g>
       <use xlink:href="#m576740dab7" x="341.12864" y="301.037812" style="stroke: #000000; stroke-width: 0.8"/>
      </g>
     </g>
     <g id="text_35">
      <!-- 0.0 -->
      <g transform="translate(318.225515 304.837031)scale(0.1 -0.1)">
       <use xlink:href="#DejaVuSans-30"/>
       <use xlink:href="#DejaVuSans-2e" x="63.623047"/>
       <use xlink:href="#DejaVuSans-30" x="95.410156"/>
      </g>
     </g>
    </g>
    <g id="ytick_8">
     <g id="line2d_18">
      <g>
       <use xlink:href="#m576740dab7" x="341.12864" y="249.832917" style="stroke: #000000; stroke-width: 0.8"/>
      </g>
     </g>
     <g id="text_36">
      <!-- 0.2 -->
      <g transform="translate(318.225515 253.632135)scale(0.1 -0.1)">
       <use xlink:href="#DejaVuSans-30"/>
       <use xlink:href="#DejaVuSans-2e" x="63.623047"/>
       <use xlink:href="#DejaVuSans-32" x="95.410156"/>
      </g>
     </g>
    </g>
    <g id="ytick_9">
     <g id="line2d_19">
      <g>
       <use xlink:href="#m576740dab7" x="341.12864" y="198.628021" style="stroke: #000000; stroke-width: 0.8"/>
      </g>
     </g>
     <g id="text_37">
      <!-- 0.4 -->
      <g transform="translate(318.225515 202.42724)scale(0.1 -0.1)">
       <use xlink:href="#DejaVuSans-30"/>
       <use xlink:href="#DejaVuSans-2e" x="63.623047"/>
       <use xlink:href="#DejaVuSans-34" x="95.410156"/>
      </g>
     </g>
    </g>
    <g id="ytick_10">
     <g id="line2d_20">
      <g>
       <use xlink:href="#m576740dab7" x="341.12864" y="147.423125" style="stroke: #000000; stroke-width: 0.8"/>
      </g>
     </g>
     <g id="text_38">
      <!-- 0.6 -->
      <g transform="translate(318.225515 151.222344)scale(0.1 -0.1)">
       <defs>
        <path id="DejaVuSans-36" d="M 2113 2584 
Q 1688 2584 1439 2293 
Q 1191 2003 1191 1497 
Q 1191 994 1439 701 
Q 1688 409 2113 409 
Q 2538 409 2786 701 
Q 3034 994 3034 1497 
Q 3034 2003 2786 2293 
Q 2538 2584 2113 2584 
z
M 3366 4563 
L 3366 3988 
Q 3128 4100 2886 4159 
Q 2644 4219 2406 4219 
Q 1781 4219 1451 3797 
Q 1122 3375 1075 2522 
Q 1259 2794 1537 2939 
Q 1816 3084 2150 3084 
Q 2853 3084 3261 2657 
Q 3669 2231 3669 1497 
Q 3669 778 3244 343 
Q 2819 -91 2113 -91 
Q 1303 -91 875 529 
Q 447 1150 447 2328 
Q 447 3434 972 4092 
Q 1497 4750 2381 4750 
Q 2619 4750 2861 4703 
Q 3103 4656 3366 4563 
z
" transform="scale(0.015625)"/>
       </defs>
       <use xlink:href="#DejaVuSans-30"/>
       <use xlink:href="#DejaVuSans-2e" x="63.623047"/>
       <use xlink:href="#DejaVuSans-36" x="95.410156"/>
      </g>
     </g>
    </g>
    <g id="ytick_11">
     <g id="line2d_21">
      <g>
       <use xlink:href="#m576740dab7" x="341.12864" y="96.218229" style="stroke: #000000; stroke-width: 0.8"/>
      </g>
     </g>
     <g id="text_39">
      <!-- 0.8 -->
      <g transform="translate(318.225515 100.017448)scale(0.1 -0.1)">
       <defs>
        <path id="DejaVuSans-38" d="M 2034 2216 
Q 1584 2216 1326 1975 
Q 1069 1734 1069 1313 
Q 1069 891 1326 650 
Q 1584 409 2034 409 
Q 2484 409 2743 651 
Q 3003 894 3003 1313 
Q 3003 1734 2745 1975 
Q 2488 2216 2034 2216 
z
M 1403 2484 
Q 997 2584 770 2862 
Q 544 3141 544 3541 
Q 544 4100 942 4425 
Q 1341 4750 2034 4750 
Q 2731 4750 3128 4425 
Q 3525 4100 3525 3541 
Q 3525 3141 3298 2862 
Q 3072 2584 2669 2484 
Q 3125 2378 3379 2068 
Q 3634 1759 3634 1313 
Q 3634 634 3220 271 
Q 2806 -91 2034 -91 
Q 1263 -91 848 271 
Q 434 634 434 1313 
Q 434 1759 690 2068 
Q 947 2378 1403 2484 
z
M 1172 3481 
Q 1172 3119 1398 2916 
Q 1625 2713 2034 2713 
Q 2441 2713 2670 2916 
Q 2900 3119 2900 3481 
Q 2900 3844 2670 4047 
Q 2441 4250 2034 4250 
Q 1625 4250 1398 4047 
Q 1172 3844 1172 3481 
z
" transform="scale(0.015625)"/>
       </defs>
       <use xlink:href="#DejaVuSans-30"/>
       <use xlink:href="#DejaVuSans-2e" x="63.623047"/>
       <use xlink:href="#DejaVuSans-38" x="95.410156"/>
      </g>
     </g>
    </g>
    <g id="ytick_12">
     <g id="line2d_22">
      <g>
       <use xlink:href="#m576740dab7" x="341.12864" y="45.013334" style="stroke: #000000; stroke-width: 0.8"/>
      </g>
     </g>
     <g id="text_40">
      <!-- 1.0 -->
      <g transform="translate(318.225515 48.812552)scale(0.1 -0.1)">
       <use xlink:href="#DejaVuSans-31"/>
       <use xlink:href="#DejaVuSans-2e" x="63.623047"/>
       <use xlink:href="#DejaVuSans-30" x="95.410156"/>
      </g>
     </g>
    </g>
    <g id="text_41">
     <!-- Relative Error -->
     <g transform="translate(311.72989 203.16375)rotate(-90)scale(0.12 -0.12)">
      <use xlink:href="#DejaVuSans-52"/>
      <use xlink:href="#DejaVuSans-65" x="64.982422"/>
      <use xlink:href="#DejaVuSans-6c" x="126.505859"/>
      <use xlink:href="#DejaVuSans-61" x="154.289062"/>
      <use xlink:href="#DejaVuSans-74" x="215.568359"/>
      <use xlink:href="#DejaVuSans-69" x="254.777344"/>
      <use xlink:href="#DejaVuSans-76" x="282.560547"/>
      <use xlink:href="#DejaVuSans-65" x="341.740234"/>
      <use xlink:href="#DejaVuSans-20" x="403.263672"/>
      <use xlink:href="#DejaVuSans-45" x="435.050781"/>
      <use xlink:href="#DejaVuSans-72" x="498.234375"/>
      <use xlink:href="#DejaVuSans-72" x="537.597656"/>
      <use xlink:href="#DejaVuSans-6f" x="576.460938"/>
      <use xlink:href="#DejaVuSans-72" x="637.642578"/>
     </g>
    </g>
   </g>
   <g id="patch_38">
    <path d="M 341.12864 301.037812 
L 341.12864 23.837812 
" style="fill: none; stroke: #000000; stroke-width: 0.8; stroke-linejoin: miter; stroke-linecap: square"/>
   </g>
   <g id="patch_39">
    <path d="M 587.30511 301.037812 
L 587.30511 23.837812 
" style="fill: none; stroke: #000000; stroke-width: 0.8; stroke-linejoin: miter; stroke-linecap: square"/>
   </g>
   <g id="patch_40">
    <path d="M 341.12864 301.037812 
L 587.30511 301.037812 
" style="fill: none; stroke: #000000; stroke-width: 0.8; stroke-linejoin: miter; stroke-linecap: square"/>
   </g>
   <g id="patch_41">
    <path d="M 341.12864 23.837812 
L 587.30511 23.837812 
" style="fill: none; stroke: #000000; stroke-width: 0.8; stroke-linejoin: miter; stroke-linecap: square"/>
   </g>
   <g id="text_42">
    <!-- L -->
    <g transform="translate(354.397689 298.328685)scale(0.1 -0.1)">
     <use xlink:href="#DejaVuSans-4c"/>
    </g>
   </g>
   <g id="text_43">
    <!-- M -->
    <g transform="translate(362.59986 298.891283)scale(0.1 -0.1)">
     <use xlink:href="#DejaVuSans-4d"/>
    </g>
   </g>
   <g id="text_44">
    <!-- H -->
    <g transform="translate(372.884061 293.737359)scale(0.1 -0.1)">
     <use xlink:href="#DejaVuSans-48"/>
    </g>
   </g>
   <g id="text_45">
    <!-- L -->
    <g transform="translate(403.049166 298.879246)scale(0.1 -0.1)">
     <use xlink:href="#DejaVuSans-4c"/>
    </g>
   </g>
   <g id="text_46">
    <!-- M -->
    <g transform="translate(411.251336 264.027276)scale(0.1 -0.1)">
     <use xlink:href="#DejaVuSans-4d"/>
    </g>
   </g>
   <g id="text_47">
    <!-- H -->
    <g transform="translate(421.535538 53.682529)scale(0.1 -0.1)">
     <use xlink:href="#DejaVuSans-48"/>
    </g>
   </g>
   <g id="text_48">
    <!-- L -->
    <g transform="translate(451.700642 298.892878)scale(0.1 -0.1)">
     <use xlink:href="#DejaVuSans-4c"/>
    </g>
   </g>
   <g id="text_49">
    <!-- M -->
    <g transform="translate(459.902813 146.003619)scale(0.1 -0.1)">
     <use xlink:href="#DejaVuSans-4d"/>
    </g>
   </g>
   <g id="text_50">
    <!-- H -->
    <g transform="translate(470.187014 34.958125)scale(0.1 -0.1)">
     <use xlink:href="#DejaVuSans-48"/>
    </g>
   </g>
   <g id="text_51">
    <!-- L -->
    <g transform="translate(500.352119 298.83234)scale(0.1 -0.1)">
     <use xlink:href="#DejaVuSans-4c"/>
    </g>
   </g>
   <g id="text_52">
    <!-- M -->
    <g transform="translate(508.554289 298.9352)scale(0.1 -0.1)">
     <use xlink:href="#DejaVuSans-4d"/>
    </g>
   </g>
   <g id="text_53">
    <!-- H -->
    <g transform="translate(518.83849 293.927082)scale(0.1 -0.1)">
     <use xlink:href="#DejaVuSans-48"/>
    </g>
   </g>
   <g id="text_54">
    <!-- L -->
    <g transform="translate(549.003595 298.786686)scale(0.1 -0.1)">
     <use xlink:href="#DejaVuSans-4c"/>
    </g>
   </g>
   <g id="text_55">
    <!-- M -->
    <g transform="translate(557.205765 297.820429)scale(0.1 -0.1)">
     <use xlink:href="#DejaVuSans-4d"/>
    </g>
   </g>
   <g id="text_56">
    <!-- H -->
    <g transform="translate(567.489967 274.291023)scale(0.1 -0.1)">
     <use xlink:href="#DejaVuSans-48"/>
    </g>
   </g>
   <g id="text_57">
    <!-- (Proposed) -->
    <g style="fill: #ff0000" transform="translate(382.356739 375.220292)rotate(-90)scale(0.12 -0.12)">
     <use xlink:href="#DejaVuSans-Bold-28"/>
     <use xlink:href="#DejaVuSans-Bold-50" x="45.703125"/>
     <use xlink:href="#DejaVuSans-Bold-72" x="118.994141"/>
     <use xlink:href="#DejaVuSans-Bold-6f" x="168.310547"/>
     <use xlink:href="#DejaVuSans-Bold-70" x="237.011719"/>
     <use xlink:href="#DejaVuSans-Bold-6f" x="308.59375"/>
     <use xlink:href="#DejaVuSans-Bold-73" x="377.294922"/>
     <use xlink:href="#DejaVuSans-Bold-65" x="436.816406"/>
     <use xlink:href="#DejaVuSans-Bold-64" x="504.638672"/>
     <use xlink:href="#DejaVuSans-Bold-29" x="576.220703"/>
    </g>
   </g>
   <g id="text_58">
    <!-- First-order ODE -->
    <g transform="translate(410.613281 17.837812)scale(0.14 -0.14)">
     <defs>
      <path id="DejaVuSans-46" d="M 628 4666 
L 3309 4666 
L 3309 4134 
L 1259 4134 
L 1259 2759 
L 3109 2759 
L 3109 2228 
L 1259 2228 
L 1259 0 
L 628 0 
L 628 4666 
z
" transform="scale(0.015625)"/>
      <path id="DejaVuSans-2d" d="M 313 2009 
L 1997 2009 
L 1997 1497 
L 313 1497 
L 313 2009 
z
" transform="scale(0.015625)"/>
      <path id="DejaVuSans-64" d="M 2906 2969 
L 2906 4863 
L 3481 4863 
L 3481 0 
L 2906 0 
L 2906 525 
Q 2725 213 2448 61 
Q 2172 -91 1784 -91 
Q 1150 -91 751 415 
Q 353 922 353 1747 
Q 353 2572 751 3078 
Q 1150 3584 1784 3584 
Q 2172 3584 2448 3432 
Q 2725 3281 2906 2969 
z
M 947 1747 
Q 947 1113 1208 752 
Q 1469 391 1925 391 
Q 2381 391 2643 752 
Q 2906 1113 2906 1747 
Q 2906 2381 2643 2742 
Q 2381 3103 1925 3103 
Q 1469 3103 1208 2742 
Q 947 2381 947 1747 
z
" transform="scale(0.015625)"/>
      <path id="DejaVuSans-4f" d="M 2522 4238 
Q 1834 4238 1429 3725 
Q 1025 3213 1025 2328 
Q 1025 1447 1429 934 
Q 1834 422 2522 422 
Q 3209 422 3611 934 
Q 4013 1447 4013 2328 
Q 4013 3213 3611 3725 
Q 3209 4238 2522 4238 
z
M 2522 4750 
Q 3503 4750 4090 4092 
Q 4678 3434 4678 2328 
Q 4678 1225 4090 567 
Q 3503 -91 2522 -91 
Q 1538 -91 948 565 
Q 359 1222 359 2328 
Q 359 3434 948 4092 
Q 1538 4750 2522 4750 
z
" transform="scale(0.015625)"/>
      <path id="DejaVuSans-44" d="M 1259 4147 
L 1259 519 
L 2022 519 
Q 2988 519 3436 956 
Q 3884 1394 3884 2338 
Q 3884 3275 3436 3711 
Q 2988 4147 2022 4147 
L 1259 4147 
z
M 628 4666 
L 1925 4666 
Q 3281 4666 3915 4102 
Q 4550 3538 4550 2338 
Q 4550 1131 3912 565 
Q 3275 0 1925 0 
L 628 0 
L 628 4666 
z
" transform="scale(0.015625)"/>
     </defs>
     <use xlink:href="#DejaVuSans-46"/>
     <use xlink:href="#DejaVuSans-69" x="50.269531"/>
     <use xlink:href="#DejaVuSans-72" x="78.052734"/>
     <use xlink:href="#DejaVuSans-73" x="119.166016"/>
     <use xlink:href="#DejaVuSans-74" x="171.265625"/>
     <use xlink:href="#DejaVuSans-2d" x="210.474609"/>
     <use xlink:href="#DejaVuSans-6f" x="248.433594"/>
     <use xlink:href="#DejaVuSans-72" x="309.615234"/>
     <use xlink:href="#DejaVuSans-64" x="348.978516"/>
     <use xlink:href="#DejaVuSans-65" x="412.455078"/>
     <use xlink:href="#DejaVuSans-72" x="473.978516"/>
     <use xlink:href="#DejaVuSans-20" x="515.091797"/>
     <use xlink:href="#DejaVuSans-4f" x="546.878906"/>
     <use xlink:href="#DejaVuSans-44" x="625.589844"/>
     <use xlink:href="#DejaVuSans-45" x="702.591797"/>
    </g>
   </g>
  </g>
  <g id="axes_3">
   <g id="patch_42">
    <path d="M 636.540404 301.037812 
L 882.716875 301.037812 
L 882.716875 23.837812 
L 636.540404 23.837812 
z
" style="fill: #ffffff"/>
   </g>
   <g id="patch_43">
    <path d="M 647.730244 301.037812 
L 657.460539 301.037812 
L 657.460539 300.988388 
L 647.730244 300.988388 
z
" clip-path="url(#p5c7b3bfb32)" style="fill: #ff0000; stroke: #000000; stroke-linejoin: miter"/>
   </g>
   <g id="patch_44">
    <path d="M 657.460539 301.037812 
L 667.190835 301.037812 
L 667.190835 300.66237 
L 657.460539 300.66237 
z
" clip-path="url(#p5c7b3bfb32)" style="fill: #ff0000; stroke: #000000; stroke-linejoin: miter"/>
   </g>
   <g id="patch_45">
    <path d="M 667.190835 301.037812 
L 676.92113 301.037812 
L 676.92113 233.548199 
L 667.190835 233.548199 
z
" clip-path="url(#p5c7b3bfb32)" style="fill: #ff0000; stroke: #000000; stroke-linejoin: miter"/>
   </g>
   <g id="patch_46">
    <path d="M 696.38172 301.037812 
L 706.112016 301.037812 
L 706.112016 300.928005 
L 696.38172 300.928005 
z
" clip-path="url(#p5c7b3bfb32)" style="stroke: #000000; stroke-linejoin: miter"/>
   </g>
   <g id="patch_47">
    <path d="M 706.112016 301.037812 
L 715.842311 301.037812 
L 715.842311 237.059781 
L 706.112016 237.059781 
z
" clip-path="url(#p5c7b3bfb32)" style="stroke: #000000; stroke-linejoin: miter"/>
   </g>
   <g id="patch_48">
    <path d="M 715.842311 301.037812 
L 725.572606 301.037812 
L 725.572606 37.068516 
L 715.842311 37.068516 
z
" clip-path="url(#p5c7b3bfb32)" style="stroke: #000000; stroke-linejoin: miter"/>
   </g>
   <g id="patch_49">
    <path d="M 745.033197 301.037812 
L 754.763492 301.037812 
L 754.763492 300.7464 
L 745.033197 300.7464 
z
" clip-path="url(#p5c7b3bfb32)" style="fill: #0000ff; stroke: #000000; stroke-linejoin: miter"/>
   </g>
   <g id="patch_50">
    <path d="M 754.763492 301.037812 
L 764.493787 301.037812 
L 764.493787 110.666525 
L 754.763492 110.666525 
z
" clip-path="url(#p5c7b3bfb32)" style="fill: #0000ff; stroke: #000000; stroke-linejoin: miter"/>
   </g>
   <g id="patch_51">
    <path d="M 764.493787 301.037812 
L 774.224083 301.037812 
L 774.224083 38.01928 
L 764.493787 38.01928 
z
" clip-path="url(#p5c7b3bfb32)" style="fill: #0000ff; stroke: #000000; stroke-linejoin: miter"/>
   </g>
   <g id="patch_52">
    <path d="M 793.684673 301.037812 
L 803.414968 301.037812 
L 803.414968 300.969347 
L 793.684673 300.969347 
z
" clip-path="url(#p5c7b3bfb32)" style="fill: #00bfbf; stroke: #000000; stroke-linejoin: miter"/>
   </g>
   <g id="patch_53">
    <path d="M 803.414968 301.037812 
L 813.145264 301.037812 
L 813.145264 195.497178 
L 803.414968 195.497178 
z
" clip-path="url(#p5c7b3bfb32)" style="fill: #00bfbf; stroke: #000000; stroke-linejoin: miter"/>
   </g>
   <g id="patch_54">
    <path d="M 813.145264 301.037812 
L 822.875559 301.037812 
L 822.875559 37.07495 
L 813.145264 37.07495 
z
" clip-path="url(#p5c7b3bfb32)" style="fill: #00bfbf; stroke: #000000; stroke-linejoin: miter"/>
   </g>
   <g id="patch_55">
    <path d="M 842.33615 301.037812 
L 852.066445 301.037812 
L 852.066445 275.104854 
L 842.33615 275.104854 
z
" clip-path="url(#p5c7b3bfb32)" style="fill: #bf00bf; stroke: #000000; stroke-linejoin: miter"/>
   </g>
   <g id="patch_56">
    <path d="M 852.066445 301.037812 
L 861.79674 301.037812 
L 861.79674 240.418355 
L 852.066445 240.418355 
z
" clip-path="url(#p5c7b3bfb32)" style="fill: #bf00bf; stroke: #000000; stroke-linejoin: miter"/>
   </g>
   <g id="patch_57">
    <path d="M 861.79674 301.037812 
L 871.527035 301.037812 
L 871.527035 37.037812 
L 861.79674 37.037812 
z
" clip-path="url(#p5c7b3bfb32)" style="fill: #bf00bf; stroke: #000000; stroke-linejoin: miter"/>
   </g>
   <g id="matplotlib.axis_5">
    <g id="xtick_11">
     <g id="line2d_23">
      <g>
       <use xlink:href="#m8c786c02e3" x="662.325687" y="301.037812" style="stroke: #000000; stroke-width: 0.8"/>
      </g>
     </g>
     <g id="text_59">
      <!-- Stan -->
      <g transform="translate(666.188812 344.225625)rotate(-90)scale(0.14 -0.14)">
       <use xlink:href="#DejaVuSans-Bold-53"/>
       <use xlink:href="#DejaVuSans-Bold-74" x="72.021484"/>
       <use xlink:href="#DejaVuSans-Bold-61" x="119.824219"/>
       <use xlink:href="#DejaVuSans-Bold-6e" x="187.304688"/>
      </g>
     </g>
    </g>
    <g id="xtick_12">
     <g id="line2d_24">
      <g>
       <use xlink:href="#m8c786c02e3" x="710.977163" y="301.037812" style="stroke: #000000; stroke-width: 0.8"/>
      </g>
     </g>
     <g id="text_60">
      <!-- tanh -->
      <g transform="translate(714.840288 344.109688)rotate(-90)scale(0.14 -0.14)">
       <use xlink:href="#DejaVuSans-Bold-74"/>
       <use xlink:href="#DejaVuSans-Bold-61" x="47.802734"/>
       <use xlink:href="#DejaVuSans-Bold-6e" x="115.283203"/>
       <use xlink:href="#DejaVuSans-Bold-68" x="186.474609"/>
      </g>
     </g>
    </g>
    <g id="xtick_13">
     <g id="line2d_25">
      <g>
       <use xlink:href="#m8c786c02e3" x="759.62864" y="301.037812" style="stroke: #000000; stroke-width: 0.8"/>
      </g>
     </g>
     <g id="text_61">
      <!-- tanh(AF) -->
      <g transform="translate(763.491765 377.305)rotate(-90)scale(0.14 -0.14)">
       <use xlink:href="#DejaVuSans-Bold-74"/>
       <use xlink:href="#DejaVuSans-Bold-61" x="47.802734"/>
       <use xlink:href="#DejaVuSans-Bold-6e" x="115.283203"/>
       <use xlink:href="#DejaVuSans-Bold-68" x="186.474609"/>
       <use xlink:href="#DejaVuSans-Bold-28" x="257.666016"/>
       <use xlink:href="#DejaVuSans-Bold-41" x="303.369141"/>
       <use xlink:href="#DejaVuSans-Bold-46" x="380.761719"/>
       <use xlink:href="#DejaVuSans-Bold-29" x="449.072266"/>
      </g>
     </g>
    </g>
    <g id="xtick_14">
     <g id="line2d_26">
      <g>
       <use xlink:href="#m8c786c02e3" x="808.280116" y="301.037812" style="stroke: #000000; stroke-width: 0.8"/>
      </g>
     </g>
     <g id="text_62">
      <!-- Swish -->
      <g transform="translate(812.143241 354.1525)rotate(-90)scale(0.14 -0.14)">
       <use xlink:href="#DejaVuSans-Bold-53"/>
       <use xlink:href="#DejaVuSans-Bold-77" x="72.021484"/>
       <use xlink:href="#DejaVuSans-Bold-69" x="164.404297"/>
       <use xlink:href="#DejaVuSans-Bold-73" x="198.681641"/>
       <use xlink:href="#DejaVuSans-Bold-68" x="258.203125"/>
      </g>
     </g>
    </g>
    <g id="xtick_15">
     <g id="line2d_27">
      <g>
       <use xlink:href="#m8c786c02e3" x="856.931593" y="301.037812" style="stroke: #000000; stroke-width: 0.8"/>
      </g>
     </g>
     <g id="text_63">
      <!-- Rowdy -->
      <g transform="translate(860.74003 360.518125)rotate(-90)scale(0.14 -0.14)">
       <use xlink:href="#DejaVuSans-Bold-52"/>
       <use xlink:href="#DejaVuSans-Bold-6f" x="77.001953"/>
       <use xlink:href="#DejaVuSans-Bold-77" x="145.703125"/>
       <use xlink:href="#DejaVuSans-Bold-64" x="238.085938"/>
       <use xlink:href="#DejaVuSans-Bold-79" x="309.667969"/>
      </g>
     </g>
    </g>
   </g>
   <g id="matplotlib.axis_6">
    <g id="ytick_13">
     <g id="line2d_28">
      <g>
       <use xlink:href="#m576740dab7" x="636.540404" y="301.037812" style="stroke: #000000; stroke-width: 0.8"/>
      </g>
     </g>
     <g id="text_64">
      <!-- 0.0 -->
      <g transform="translate(613.637279 304.837031)scale(0.1 -0.1)">
       <use xlink:href="#DejaVuSans-30"/>
       <use xlink:href="#DejaVuSans-2e" x="63.623047"/>
       <use xlink:href="#DejaVuSans-30" x="95.410156"/>
      </g>
     </g>
    </g>
    <g id="ytick_14">
     <g id="line2d_29">
      <g>
       <use xlink:href="#m576740dab7" x="636.540404" y="248.243928" style="stroke: #000000; stroke-width: 0.8"/>
      </g>
     </g>
     <g id="text_65">
      <!-- 0.2 -->
      <g transform="translate(613.637279 252.043147)scale(0.1 -0.1)">
       <use xlink:href="#DejaVuSans-30"/>
       <use xlink:href="#DejaVuSans-2e" x="63.623047"/>
       <use xlink:href="#DejaVuSans-32" x="95.410156"/>
      </g>
     </g>
    </g>
    <g id="ytick_15">
     <g id="line2d_30">
      <g>
       <use xlink:href="#m576740dab7" x="636.540404" y="195.450043" style="stroke: #000000; stroke-width: 0.8"/>
      </g>
     </g>
     <g id="text_66">
      <!-- 0.4 -->
      <g transform="translate(613.637279 199.249262)scale(0.1 -0.1)">
       <use xlink:href="#DejaVuSans-30"/>
       <use xlink:href="#DejaVuSans-2e" x="63.623047"/>
       <use xlink:href="#DejaVuSans-34" x="95.410156"/>
      </g>
     </g>
    </g>
    <g id="ytick_16">
     <g id="line2d_31">
      <g>
       <use xlink:href="#m576740dab7" x="636.540404" y="142.656159" style="stroke: #000000; stroke-width: 0.8"/>
      </g>
     </g>
     <g id="text_67">
      <!-- 0.6 -->
      <g transform="translate(613.637279 146.455378)scale(0.1 -0.1)">
       <use xlink:href="#DejaVuSans-30"/>
       <use xlink:href="#DejaVuSans-2e" x="63.623047"/>
       <use xlink:href="#DejaVuSans-36" x="95.410156"/>
      </g>
     </g>
    </g>
    <g id="ytick_17">
     <g id="line2d_32">
      <g>
       <use xlink:href="#m576740dab7" x="636.540404" y="89.862274" style="stroke: #000000; stroke-width: 0.8"/>
      </g>
     </g>
     <g id="text_68">
      <!-- 0.8 -->
      <g transform="translate(613.637279 93.661493)scale(0.1 -0.1)">
       <use xlink:href="#DejaVuSans-30"/>
       <use xlink:href="#DejaVuSans-2e" x="63.623047"/>
       <use xlink:href="#DejaVuSans-38" x="95.410156"/>
      </g>
     </g>
    </g>
    <g id="ytick_18">
     <g id="line2d_33">
      <g>
       <use xlink:href="#m576740dab7" x="636.540404" y="37.06839" style="stroke: #000000; stroke-width: 0.8"/>
      </g>
     </g>
     <g id="text_69">
      <!-- 1.0 -->
      <g transform="translate(613.637279 40.867608)scale(0.1 -0.1)">
       <use xlink:href="#DejaVuSans-31"/>
       <use xlink:href="#DejaVuSans-2e" x="63.623047"/>
       <use xlink:href="#DejaVuSans-30" x="95.410156"/>
      </g>
     </g>
    </g>
    <g id="text_70">
     <!-- Relative Error -->
     <g transform="translate(607.141654 203.16375)rotate(-90)scale(0.12 -0.12)">
      <use xlink:href="#DejaVuSans-52"/>
      <use xlink:href="#DejaVuSans-65" x="64.982422"/>
      <use xlink:href="#DejaVuSans-6c" x="126.505859"/>
      <use xlink:href="#DejaVuSans-61" x="154.289062"/>
      <use xlink:href="#DejaVuSans-74" x="215.568359"/>
      <use xlink:href="#DejaVuSans-69" x="254.777344"/>
      <use xlink:href="#DejaVuSans-76" x="282.560547"/>
      <use xlink:href="#DejaVuSans-65" x="341.740234"/>
      <use xlink:href="#DejaVuSans-20" x="403.263672"/>
      <use xlink:href="#DejaVuSans-45" x="435.050781"/>
      <use xlink:href="#DejaVuSans-72" x="498.234375"/>
      <use xlink:href="#DejaVuSans-72" x="537.597656"/>
      <use xlink:href="#DejaVuSans-6f" x="576.460938"/>
      <use xlink:href="#DejaVuSans-72" x="637.642578"/>
     </g>
    </g>
   </g>
   <g id="patch_58">
    <path d="M 636.540404 301.037812 
L 636.540404 23.837812 
" style="fill: none; stroke: #000000; stroke-width: 0.8; stroke-linejoin: miter; stroke-linecap: square"/>
   </g>
   <g id="patch_59">
    <path d="M 882.716875 301.037812 
L 882.716875 23.837812 
" style="fill: none; stroke: #000000; stroke-width: 0.8; stroke-linejoin: miter; stroke-linecap: square"/>
   </g>
   <g id="patch_60">
    <path d="M 636.540404 301.037812 
L 882.716875 301.037812 
" style="fill: none; stroke: #000000; stroke-width: 0.8; stroke-linejoin: miter; stroke-linecap: square"/>
   </g>
   <g id="patch_61">
    <path d="M 636.540404 23.837812 
L 882.716875 23.837812 
" style="fill: none; stroke: #000000; stroke-width: 0.8; stroke-linejoin: miter; stroke-linecap: square"/>
   </g>
   <g id="text_71">
    <!-- L -->
    <g transform="translate(649.809454 298.908701)scale(0.1 -0.1)">
     <use xlink:href="#DejaVuSans-4c"/>
    </g>
   </g>
   <g id="text_72">
    <!-- M -->
    <g transform="translate(658.011624 298.582682)scale(0.1 -0.1)">
     <use xlink:href="#DejaVuSans-4d"/>
    </g>
   </g>
   <g id="text_73">
    <!-- H -->
    <g transform="translate(668.295826 231.468512)scale(0.1 -0.1)">
     <use xlink:href="#DejaVuSans-48"/>
    </g>
   </g>
   <g id="text_74">
    <!-- L -->
    <g transform="translate(698.460931 298.848317)scale(0.1 -0.1)">
     <use xlink:href="#DejaVuSans-4c"/>
    </g>
   </g>
   <g id="text_75">
    <!-- M -->
    <g transform="translate(706.663101 234.980093)scale(0.1 -0.1)">
     <use xlink:href="#DejaVuSans-4d"/>
    </g>
   </g>
   <g id="text_76">
    <!-- H -->
    <g transform="translate(716.947302 34.988829)scale(0.1 -0.1)">
     <use xlink:href="#DejaVuSans-48"/>
    </g>
   </g>
   <g id="text_77">
    <!-- L -->
    <g transform="translate(747.112407 298.666712)scale(0.1 -0.1)">
     <use xlink:href="#DejaVuSans-4c"/>
    </g>
   </g>
   <g id="text_78">
    <!-- M -->
    <g transform="translate(755.314577 108.586838)scale(0.1 -0.1)">
     <use xlink:href="#DejaVuSans-4d"/>
    </g>
   </g>
   <g id="text_79">
    <!-- H -->
    <g transform="translate(765.598779 35.939592)scale(0.1 -0.1)">
     <use xlink:href="#DejaVuSans-48"/>
    </g>
   </g>
   <g id="text_80">
    <!-- L -->
    <g transform="translate(795.763883 298.889659)scale(0.1 -0.1)">
     <use xlink:href="#DejaVuSans-4c"/>
    </g>
   </g>
   <g id="text_81">
    <!-- M -->
    <g transform="translate(803.966054 193.41749)scale(0.1 -0.1)">
     <use xlink:href="#DejaVuSans-4d"/>
    </g>
   </g>
   <g id="text_82">
    <!-- H -->
    <g transform="translate(814.250255 34.995262)scale(0.1 -0.1)">
     <use xlink:href="#DejaVuSans-48"/>
    </g>
   </g>
   <g id="text_83">
    <!-- L -->
    <g transform="translate(844.41536 273.025167)scale(0.1 -0.1)">
     <use xlink:href="#DejaVuSans-4c"/>
    </g>
   </g>
   <g id="text_84">
    <!-- M -->
    <g transform="translate(852.61753 238.338668)scale(0.1 -0.1)">
     <use xlink:href="#DejaVuSans-4d"/>
    </g>
   </g>
   <g id="text_85">
    <!-- H -->
    <g transform="translate(862.901732 34.958125)scale(0.1 -0.1)">
     <use xlink:href="#DejaVuSans-48"/>
    </g>
   </g>
   <g id="text_86">
    <!-- (Proposed) -->
    <g style="fill: #ff0000" transform="translate(677.281989 374.805182)rotate(-90)scale(0.12 -0.12)">
     <use xlink:href="#DejaVuSans-Bold-28"/>
     <use xlink:href="#DejaVuSans-Bold-50" x="45.703125"/>
     <use xlink:href="#DejaVuSans-Bold-72" x="118.994141"/>
     <use xlink:href="#DejaVuSans-Bold-6f" x="168.310547"/>
     <use xlink:href="#DejaVuSans-Bold-70" x="237.011719"/>
     <use xlink:href="#DejaVuSans-Bold-6f" x="308.59375"/>
     <use xlink:href="#DejaVuSans-Bold-73" x="377.294922"/>
     <use xlink:href="#DejaVuSans-Bold-65" x="436.816406"/>
     <use xlink:href="#DejaVuSans-Bold-64" x="504.638672"/>
     <use xlink:href="#DejaVuSans-Bold-29" x="576.220703"/>
    </g>
   </g>
   <g id="text_87">
    <!-- Second-order ODE -->
    <g transform="translate(694.993483 17.837812)scale(0.14 -0.14)">
     <defs>
      <path id="DejaVuSans-53" d="M 3425 4513 
L 3425 3897 
Q 3066 4069 2747 4153 
Q 2428 4238 2131 4238 
Q 1616 4238 1336 4038 
Q 1056 3838 1056 3469 
Q 1056 3159 1242 3001 
Q 1428 2844 1947 2747 
L 2328 2669 
Q 3034 2534 3370 2195 
Q 3706 1856 3706 1288 
Q 3706 609 3251 259 
Q 2797 -91 1919 -91 
Q 1588 -91 1214 -16 
Q 841 59 441 206 
L 441 856 
Q 825 641 1194 531 
Q 1563 422 1919 422 
Q 2459 422 2753 634 
Q 3047 847 3047 1241 
Q 3047 1584 2836 1778 
Q 2625 1972 2144 2069 
L 1759 2144 
Q 1053 2284 737 2584 
Q 422 2884 422 3419 
Q 422 4038 858 4394 
Q 1294 4750 2059 4750 
Q 2388 4750 2728 4690 
Q 3069 4631 3425 4513 
z
" transform="scale(0.015625)"/>
      <path id="DejaVuSans-63" d="M 3122 3366 
L 3122 2828 
Q 2878 2963 2633 3030 
Q 2388 3097 2138 3097 
Q 1578 3097 1268 2742 
Q 959 2388 959 1747 
Q 959 1106 1268 751 
Q 1578 397 2138 397 
Q 2388 397 2633 464 
Q 2878 531 3122 666 
L 3122 134 
Q 2881 22 2623 -34 
Q 2366 -91 2075 -91 
Q 1284 -91 818 406 
Q 353 903 353 1747 
Q 353 2603 823 3093 
Q 1294 3584 2113 3584 
Q 2378 3584 2631 3529 
Q 2884 3475 3122 3366 
z
" transform="scale(0.015625)"/>
     </defs>
     <use xlink:href="#DejaVuSans-53"/>
     <use xlink:href="#DejaVuSans-65" x="63.476562"/>
     <use xlink:href="#DejaVuSans-63" x="125"/>
     <use xlink:href="#DejaVuSans-6f" x="179.980469"/>
     <use xlink:href="#DejaVuSans-6e" x="241.162109"/>
     <use xlink:href="#DejaVuSans-64" x="304.541016"/>
     <use xlink:href="#DejaVuSans-2d" x="368.017578"/>
     <use xlink:href="#DejaVuSans-6f" x="405.976562"/>
     <use xlink:href="#DejaVuSans-72" x="467.158203"/>
     <use xlink:href="#DejaVuSans-64" x="506.521484"/>
     <use xlink:href="#DejaVuSans-65" x="569.998047"/>
     <use xlink:href="#DejaVuSans-72" x="631.521484"/>
     <use xlink:href="#DejaVuSans-20" x="672.634766"/>
     <use xlink:href="#DejaVuSans-4f" x="704.421875"/>
     <use xlink:href="#DejaVuSans-44" x="783.132812"/>
     <use xlink:href="#DejaVuSans-45" x="860.134766"/>
    </g>
   </g>
  </g>
 </g>
 <defs>
  <clipPath id="p2623dd2f07">
   <rect x="45.716875" y="23.837812" width="246.176471" height="277.2"/>
  </clipPath>
  <clipPath id="pc337372088">
   <rect x="341.12864" y="23.837812" width="246.176471" height="277.2"/>
  </clipPath>
  <clipPath id="p5c7b3bfb32">
   <rect x="636.540404" y="23.837812" width="246.176471" height="277.2"/>
  </clipPath>
 </defs>
</svg>
