<?xml version="1.0" encoding="utf-8" standalone="no"?>
<!DOCTYPE svg PUBLIC "-//W3C//DTD SVG 1.1//EN"
  "http://www.w3.org/Graphics/SVG/1.1/DTD/svg11.dtd">
<svg xmlns:xlink="http://www.w3.org/1999/xlink" width="720pt" height="216pt" viewBox="0 0 720 216" xmlns="http://www.w3.org/2000/svg" version="1.1">
 <metadata>
  <rdf:RDF xmlns:dc="http://purl.org/dc/elements/1.1/" xmlns:cc="http://creativecommons.org/ns#" xmlns:rdf="http://www.w3.org/1999/02/22-rdf-syntax-ns#">
   <cc:Work>
    <dc:type rdf:resource="http://purl.org/dc/dcmitype/StillImage"/>
    <dc:date>2023-05-17T11:21:39.966549</dc:date>
    <dc:format>image/svg+xml</dc:format>
    <dc:creator>
     <cc:Agent>
      <dc:title>Matplotlib v3.5.2, https://matplotlib.org/</dc:title>
     </cc:Agent>
    </dc:creator>
   </cc:Work>
  </rdf:RDF>
 </metadata>
 <defs>
  <style type="text/css">*{stroke-linejoin: round; stroke-linecap: butt}</style>
 </defs>
 <g id="figure_1">
  <g id="patch_1">
   <path d="M 0 216 
L 720 216 
L 720 0 
L 0 0 
z
" style="fill: #ffffff"/>
  </g>
  <g id="axes_1">
   <g id="patch_2">
    <path d="M 90 192.24 
L 322.5 192.24 
L 322.5 25.92 
L 90 25.92 
z
" style="fill: #ffffff"/>
   </g>
   <g id="matplotlib.axis_1">
    <g id="xtick_1">
     <g id="line2d_1">
      <defs>
       <path id="m120c4c691a" d="M 0 0 
L 0 3.5 
" style="stroke: #000000; stroke-width: 0.8"/>
      </defs>
      <g>
       <use xlink:href="#m120c4c691a" x="90" y="192.24" style="stroke: #000000; stroke-width: 0.8"/>
      </g>
     </g>
     <g id="text_1">
      <!-- 0.0 -->
      <g transform="translate(82.048438 206.838437)scale(0.1 -0.1)">
       <defs>
        <path id="DejaVuSans-30" d="M 2034 4250 
Q 1547 4250 1301 3770 
Q 1056 3291 1056 2328 
Q 1056 1369 1301 889 
Q 1547 409 2034 409 
Q 2525 409 2770 889 
Q 3016 1369 3016 2328 
Q 3016 3291 2770 3770 
Q 2525 4250 2034 4250 
z
M 2034 4750 
Q 2819 4750 3233 4129 
Q 3647 3509 3647 2328 
Q 3647 1150 3233 529 
Q 2819 -91 2034 -91 
Q 1250 -91 836 529 
Q 422 1150 422 2328 
Q 422 3509 836 4129 
Q 1250 4750 2034 4750 
z
" transform="scale(0.015625)"/>
        <path id="DejaVuSans-2e" d="M 684 794 
L 1344 794 
L 1344 0 
L 684 0 
L 684 794 
z
" transform="scale(0.015625)"/>
       </defs>
       <use xlink:href="#DejaVuSans-30"/>
       <use xlink:href="#DejaVuSans-2e" x="63.623047"/>
       <use xlink:href="#DejaVuSans-30" x="95.410156"/>
      </g>
     </g>
    </g>
    <g id="xtick_2">
     <g id="line2d_2">
      <g>
       <use xlink:href="#m120c4c691a" x="136.5" y="192.24" style="stroke: #000000; stroke-width: 0.8"/>
      </g>
     </g>
     <g id="text_2">
      <!-- 0.2 -->
      <g transform="translate(128.548438 206.838437)scale(0.1 -0.1)">
       <defs>
        <path id="DejaVuSans-32" d="M 1228 531 
L 3431 531 
L 3431 0 
L 469 0 
L 469 531 
Q 828 903 1448 1529 
Q 2069 2156 2228 2338 
Q 2531 2678 2651 2914 
Q 2772 3150 2772 3378 
Q 2772 3750 2511 3984 
Q 2250 4219 1831 4219 
Q 1534 4219 1204 4116 
Q 875 4013 500 3803 
L 500 4441 
Q 881 4594 1212 4672 
Q 1544 4750 1819 4750 
Q 2544 4750 2975 4387 
Q 3406 4025 3406 3419 
Q 3406 3131 3298 2873 
Q 3191 2616 2906 2266 
Q 2828 2175 2409 1742 
Q 1991 1309 1228 531 
z
" transform="scale(0.015625)"/>
       </defs>
       <use xlink:href="#DejaVuSans-30"/>
       <use xlink:href="#DejaVuSans-2e" x="63.623047"/>
       <use xlink:href="#DejaVuSans-32" x="95.410156"/>
      </g>
     </g>
    </g>
    <g id="xtick_3">
     <g id="line2d_3">
      <g>
       <use xlink:href="#m120c4c691a" x="183" y="192.24" style="stroke: #000000; stroke-width: 0.8"/>
      </g>
     </g>
     <g id="text_3">
      <!-- 0.4 -->
      <g transform="translate(175.048438 206.838437)scale(0.1 -0.1)">
       <defs>
        <path id="DejaVuSans-34" d="M 2419 4116 
L 825 1625 
L 2419 1625 
L 2419 4116 
z
M 2253 4666 
L 3047 4666 
L 3047 1625 
L 3713 1625 
L 3713 1100 
L 3047 1100 
L 3047 0 
L 2419 0 
L 2419 1100 
L 313 1100 
L 313 1709 
L 2253 4666 
z
" transform="scale(0.015625)"/>
       </defs>
       <use xlink:href="#DejaVuSans-30"/>
       <use xlink:href="#DejaVuSans-2e" x="63.623047"/>
       <use xlink:href="#DejaVuSans-34" x="95.410156"/>
      </g>
     </g>
    </g>
    <g id="xtick_4">
     <g id="line2d_4">
      <g>
       <use xlink:href="#m120c4c691a" x="229.5" y="192.24" style="stroke: #000000; stroke-width: 0.8"/>
      </g>
     </g>
     <g id="text_4">
      <!-- 0.6 -->
      <g transform="translate(221.548438 206.838437)scale(0.1 -0.1)">
       <defs>
        <path id="DejaVuSans-36" d="M 2113 2584 
Q 1688 2584 1439 2293 
Q 1191 2003 1191 1497 
Q 1191 994 1439 701 
Q 1688 409 2113 409 
Q 2538 409 2786 701 
Q 3034 994 3034 1497 
Q 3034 2003 2786 2293 
Q 2538 2584 2113 2584 
z
M 3366 4563 
L 3366 3988 
Q 3128 4100 2886 4159 
Q 2644 4219 2406 4219 
Q 1781 4219 1451 3797 
Q 1122 3375 1075 2522 
Q 1259 2794 1537 2939 
Q 1816 3084 2150 3084 
Q 2853 3084 3261 2657 
Q 3669 2231 3669 1497 
Q 3669 778 3244 343 
Q 2819 -91 2113 -91 
Q 1303 -91 875 529 
Q 447 1150 447 2328 
Q 447 3434 972 4092 
Q 1497 4750 2381 4750 
Q 2619 4750 2861 4703 
Q 3103 4656 3366 4563 
z
" transform="scale(0.015625)"/>
       </defs>
       <use xlink:href="#DejaVuSans-30"/>
       <use xlink:href="#DejaVuSans-2e" x="63.623047"/>
       <use xlink:href="#DejaVuSans-36" x="95.410156"/>
      </g>
     </g>
    </g>
    <g id="xtick_5">
     <g id="line2d_5">
      <g>
       <use xlink:href="#m120c4c691a" x="276" y="192.24" style="stroke: #000000; stroke-width: 0.8"/>
      </g>
     </g>
     <g id="text_5">
      <!-- 0.8 -->
      <g transform="translate(268.048437 206.838437)scale(0.1 -0.1)">
       <defs>
        <path id="DejaVuSans-38" d="M 2034 2216 
Q 1584 2216 1326 1975 
Q 1069 1734 1069 1313 
Q 1069 891 1326 650 
Q 1584 409 2034 409 
Q 2484 409 2743 651 
Q 3003 894 3003 1313 
Q 3003 1734 2745 1975 
Q 2488 2216 2034 2216 
z
M 1403 2484 
Q 997 2584 770 2862 
Q 544 3141 544 3541 
Q 544 4100 942 4425 
Q 1341 4750 2034 4750 
Q 2731 4750 3128 4425 
Q 3525 4100 3525 3541 
Q 3525 3141 3298 2862 
Q 3072 2584 2669 2484 
Q 3125 2378 3379 2068 
Q 3634 1759 3634 1313 
Q 3634 634 3220 271 
Q 2806 -91 2034 -91 
Q 1263 -91 848 271 
Q 434 634 434 1313 
Q 434 1759 690 2068 
Q 947 2378 1403 2484 
z
M 1172 3481 
Q 1172 3119 1398 2916 
Q 1625 2713 2034 2713 
Q 2441 2713 2670 2916 
Q 2900 3119 2900 3481 
Q 2900 3844 2670 4047 
Q 2441 4250 2034 4250 
Q 1625 4250 1398 4047 
Q 1172 3844 1172 3481 
z
" transform="scale(0.015625)"/>
       </defs>
       <use xlink:href="#DejaVuSans-30"/>
       <use xlink:href="#DejaVuSans-2e" x="63.623047"/>
       <use xlink:href="#DejaVuSans-38" x="95.410156"/>
      </g>
     </g>
    </g>
    <g id="xtick_6">
     <g id="line2d_6">
      <g>
       <use xlink:href="#m120c4c691a" x="322.5" y="192.24" style="stroke: #000000; stroke-width: 0.8"/>
      </g>
     </g>
     <g id="text_6">
      <!-- 1.0 -->
      <g transform="translate(314.548437 206.838437)scale(0.1 -0.1)">
       <defs>
        <path id="DejaVuSans-31" d="M 794 531 
L 1825 531 
L 1825 4091 
L 703 3866 
L 703 4441 
L 1819 4666 
L 2450 4666 
L 2450 531 
L 3481 531 
L 3481 0 
L 794 0 
L 794 531 
z
" transform="scale(0.015625)"/>
       </defs>
       <use xlink:href="#DejaVuSans-31"/>
       <use xlink:href="#DejaVuSans-2e" x="63.623047"/>
       <use xlink:href="#DejaVuSans-30" x="95.410156"/>
      </g>
     </g>
    </g>
    <g id="text_7">
     <!-- $y$ -->
     <g transform="translate(203.25 220.49625)scale(0.1 -0.1)">
      <defs>
       <path id="DejaVuSans-Oblique-79" d="M 1588 -325 
Q 1188 -997 936 -1164 
Q 684 -1331 294 -1331 
L -159 -1331 
L -63 -850 
L 269 -850 
Q 509 -850 678 -719 
Q 847 -588 1056 -206 
L 1234 128 
L 459 3500 
L 1069 3500 
L 1650 819 
L 3256 3500 
L 3859 3500 
L 1588 -325 
z
" transform="scale(0.015625)"/>
      </defs>
      <use xlink:href="#DejaVuSans-Oblique-79" transform="translate(0 0.3125)"/>
     </g>
    </g>
   </g>
   <g id="matplotlib.axis_2">
    <g id="ytick_1">
     <g id="line2d_7">
      <defs>
       <path id="m1bf5b930f9" d="M 0 0 
L -3.5 0 
" style="stroke: #000000; stroke-width: 0.8"/>
      </defs>
      <g>
       <use xlink:href="#m1bf5b930f9" x="90" y="180.520805" style="stroke: #000000; stroke-width: 0.8"/>
      </g>
     </g>
     <g id="text_8">
      <!-- −0.2 -->
      <g transform="translate(58.717187 184.320024)scale(0.1 -0.1)">
       <defs>
        <path id="DejaVuSans-2212" d="M 678 2272 
L 4684 2272 
L 4684 1741 
L 678 1741 
L 678 2272 
z
" transform="scale(0.015625)"/>
       </defs>
       <use xlink:href="#DejaVuSans-2212"/>
       <use xlink:href="#DejaVuSans-30" x="83.789062"/>
       <use xlink:href="#DejaVuSans-2e" x="147.412109"/>
       <use xlink:href="#DejaVuSans-32" x="179.199219"/>
      </g>
     </g>
    </g>
    <g id="ytick_2">
     <g id="line2d_8">
      <g>
       <use xlink:href="#m1bf5b930f9" x="90" y="156.014004" style="stroke: #000000; stroke-width: 0.8"/>
      </g>
     </g>
     <g id="text_9">
      <!-- 0.0 -->
      <g transform="translate(67.096875 159.813223)scale(0.1 -0.1)">
       <use xlink:href="#DejaVuSans-30"/>
       <use xlink:href="#DejaVuSans-2e" x="63.623047"/>
       <use xlink:href="#DejaVuSans-30" x="95.410156"/>
      </g>
     </g>
    </g>
    <g id="ytick_3">
     <g id="line2d_9">
      <g>
       <use xlink:href="#m1bf5b930f9" x="90" y="131.507203" style="stroke: #000000; stroke-width: 0.8"/>
      </g>
     </g>
     <g id="text_10">
      <!-- 0.2 -->
      <g transform="translate(67.096875 135.306422)scale(0.1 -0.1)">
       <use xlink:href="#DejaVuSans-30"/>
       <use xlink:href="#DejaVuSans-2e" x="63.623047"/>
       <use xlink:href="#DejaVuSans-32" x="95.410156"/>
      </g>
     </g>
    </g>
    <g id="ytick_4">
     <g id="line2d_10">
      <g>
       <use xlink:href="#m1bf5b930f9" x="90" y="107.000402" style="stroke: #000000; stroke-width: 0.8"/>
      </g>
     </g>
     <g id="text_11">
      <!-- 0.4 -->
      <g transform="translate(67.096875 110.799621)scale(0.1 -0.1)">
       <use xlink:href="#DejaVuSans-30"/>
       <use xlink:href="#DejaVuSans-2e" x="63.623047"/>
       <use xlink:href="#DejaVuSans-34" x="95.410156"/>
      </g>
     </g>
    </g>
    <g id="ytick_5">
     <g id="line2d_11">
      <g>
       <use xlink:href="#m1bf5b930f9" x="90" y="82.493602" style="stroke: #000000; stroke-width: 0.8"/>
      </g>
     </g>
     <g id="text_12">
      <!-- 0.6 -->
      <g transform="translate(67.096875 86.29282)scale(0.1 -0.1)">
       <use xlink:href="#DejaVuSans-30"/>
       <use xlink:href="#DejaVuSans-2e" x="63.623047"/>
       <use xlink:href="#DejaVuSans-36" x="95.410156"/>
      </g>
     </g>
    </g>
    <g id="ytick_6">
     <g id="line2d_12">
      <g>
       <use xlink:href="#m1bf5b930f9" x="90" y="57.986801" style="stroke: #000000; stroke-width: 0.8"/>
      </g>
     </g>
     <g id="text_13">
      <!-- 0.8 -->
      <g transform="translate(67.096875 61.78602)scale(0.1 -0.1)">
       <use xlink:href="#DejaVuSans-30"/>
       <use xlink:href="#DejaVuSans-2e" x="63.623047"/>
       <use xlink:href="#DejaVuSans-38" x="95.410156"/>
      </g>
     </g>
    </g>
    <g id="ytick_7">
     <g id="line2d_13">
      <g>
       <use xlink:href="#m1bf5b930f9" x="90" y="33.48" style="stroke: #000000; stroke-width: 0.8"/>
      </g>
     </g>
     <g id="text_14">
      <!-- 1.0 -->
      <g transform="translate(67.096875 37.279219)scale(0.1 -0.1)">
       <use xlink:href="#DejaVuSans-31"/>
       <use xlink:href="#DejaVuSans-2e" x="63.623047"/>
       <use xlink:href="#DejaVuSans-30" x="95.410156"/>
      </g>
     </g>
    </g>
    <g id="text_15">
     <!-- Velocity in x-direction ($u$) -->
     <g transform="translate(52.617187 172.28)rotate(-90)scale(0.1 -0.1)">
      <defs>
       <path id="DejaVuSans-56" d="M 1831 0 
L 50 4666 
L 709 4666 
L 2188 738 
L 3669 4666 
L 4325 4666 
L 2547 0 
L 1831 0 
z
" transform="scale(0.015625)"/>
       <path id="DejaVuSans-65" d="M 3597 1894 
L 3597 1613 
L 953 1613 
Q 991 1019 1311 708 
Q 1631 397 2203 397 
Q 2534 397 2845 478 
Q 3156 559 3463 722 
L 3463 178 
Q 3153 47 2828 -22 
Q 2503 -91 2169 -91 
Q 1331 -91 842 396 
Q 353 884 353 1716 
Q 353 2575 817 3079 
Q 1281 3584 2069 3584 
Q 2775 3584 3186 3129 
Q 3597 2675 3597 1894 
z
M 3022 2063 
Q 3016 2534 2758 2815 
Q 2500 3097 2075 3097 
Q 1594 3097 1305 2825 
Q 1016 2553 972 2059 
L 3022 2063 
z
" transform="scale(0.015625)"/>
       <path id="DejaVuSans-6c" d="M 603 4863 
L 1178 4863 
L 1178 0 
L 603 0 
L 603 4863 
z
" transform="scale(0.015625)"/>
       <path id="DejaVuSans-6f" d="M 1959 3097 
Q 1497 3097 1228 2736 
Q 959 2375 959 1747 
Q 959 1119 1226 758 
Q 1494 397 1959 397 
Q 2419 397 2687 759 
Q 2956 1122 2956 1747 
Q 2956 2369 2687 2733 
Q 2419 3097 1959 3097 
z
M 1959 3584 
Q 2709 3584 3137 3096 
Q 3566 2609 3566 1747 
Q 3566 888 3137 398 
Q 2709 -91 1959 -91 
Q 1206 -91 779 398 
Q 353 888 353 1747 
Q 353 2609 779 3096 
Q 1206 3584 1959 3584 
z
" transform="scale(0.015625)"/>
       <path id="DejaVuSans-63" d="M 3122 3366 
L 3122 2828 
Q 2878 2963 2633 3030 
Q 2388 3097 2138 3097 
Q 1578 3097 1268 2742 
Q 959 2388 959 1747 
Q 959 1106 1268 751 
Q 1578 397 2138 397 
Q 2388 397 2633 464 
Q 2878 531 3122 666 
L 3122 134 
Q 2881 22 2623 -34 
Q 2366 -91 2075 -91 
Q 1284 -91 818 406 
Q 353 903 353 1747 
Q 353 2603 823 3093 
Q 1294 3584 2113 3584 
Q 2378 3584 2631 3529 
Q 2884 3475 3122 3366 
z
" transform="scale(0.015625)"/>
       <path id="DejaVuSans-69" d="M 603 3500 
L 1178 3500 
L 1178 0 
L 603 0 
L 603 3500 
z
M 603 4863 
L 1178 4863 
L 1178 4134 
L 603 4134 
L 603 4863 
z
" transform="scale(0.015625)"/>
       <path id="DejaVuSans-74" d="M 1172 4494 
L 1172 3500 
L 2356 3500 
L 2356 3053 
L 1172 3053 
L 1172 1153 
Q 1172 725 1289 603 
Q 1406 481 1766 481 
L 2356 481 
L 2356 0 
L 1766 0 
Q 1100 0 847 248 
Q 594 497 594 1153 
L 594 3053 
L 172 3053 
L 172 3500 
L 594 3500 
L 594 4494 
L 1172 4494 
z
" transform="scale(0.015625)"/>
       <path id="DejaVuSans-79" d="M 2059 -325 
Q 1816 -950 1584 -1140 
Q 1353 -1331 966 -1331 
L 506 -1331 
L 506 -850 
L 844 -850 
Q 1081 -850 1212 -737 
Q 1344 -625 1503 -206 
L 1606 56 
L 191 3500 
L 800 3500 
L 1894 763 
L 2988 3500 
L 3597 3500 
L 2059 -325 
z
" transform="scale(0.015625)"/>
       <path id="DejaVuSans-20" transform="scale(0.015625)"/>
       <path id="DejaVuSans-6e" d="M 3513 2113 
L 3513 0 
L 2938 0 
L 2938 2094 
Q 2938 2591 2744 2837 
Q 2550 3084 2163 3084 
Q 1697 3084 1428 2787 
Q 1159 2491 1159 1978 
L 1159 0 
L 581 0 
L 581 3500 
L 1159 3500 
L 1159 2956 
Q 1366 3272 1645 3428 
Q 1925 3584 2291 3584 
Q 2894 3584 3203 3211 
Q 3513 2838 3513 2113 
z
" transform="scale(0.015625)"/>
       <path id="DejaVuSans-78" d="M 3513 3500 
L 2247 1797 
L 3578 0 
L 2900 0 
L 1881 1375 
L 863 0 
L 184 0 
L 1544 1831 
L 300 3500 
L 978 3500 
L 1906 2253 
L 2834 3500 
L 3513 3500 
z
" transform="scale(0.015625)"/>
       <path id="DejaVuSans-2d" d="M 313 2009 
L 1997 2009 
L 1997 1497 
L 313 1497 
L 313 2009 
z
" transform="scale(0.015625)"/>
       <path id="DejaVuSans-64" d="M 2906 2969 
L 2906 4863 
L 3481 4863 
L 3481 0 
L 2906 0 
L 2906 525 
Q 2725 213 2448 61 
Q 2172 -91 1784 -91 
Q 1150 -91 751 415 
Q 353 922 353 1747 
Q 353 2572 751 3078 
Q 1150 3584 1784 3584 
Q 2172 3584 2448 3432 
Q 2725 3281 2906 2969 
z
M 947 1747 
Q 947 1113 1208 752 
Q 1469 391 1925 391 
Q 2381 391 2643 752 
Q 2906 1113 2906 1747 
Q 2906 2381 2643 2742 
Q 2381 3103 1925 3103 
Q 1469 3103 1208 2742 
Q 947 2381 947 1747 
z
" transform="scale(0.015625)"/>
       <path id="DejaVuSans-72" d="M 2631 2963 
Q 2534 3019 2420 3045 
Q 2306 3072 2169 3072 
Q 1681 3072 1420 2755 
Q 1159 2438 1159 1844 
L 1159 0 
L 581 0 
L 581 3500 
L 1159 3500 
L 1159 2956 
Q 1341 3275 1631 3429 
Q 1922 3584 2338 3584 
Q 2397 3584 2469 3576 
Q 2541 3569 2628 3553 
L 2631 2963 
z
" transform="scale(0.015625)"/>
       <path id="DejaVuSans-28" d="M 1984 4856 
Q 1566 4138 1362 3434 
Q 1159 2731 1159 2009 
Q 1159 1288 1364 580 
Q 1569 -128 1984 -844 
L 1484 -844 
Q 1016 -109 783 600 
Q 550 1309 550 2009 
Q 550 2706 781 3412 
Q 1013 4119 1484 4856 
L 1984 4856 
z
" transform="scale(0.015625)"/>
       <path id="DejaVuSans-Oblique-75" d="M 428 1388 
L 838 3500 
L 1416 3500 
L 1006 1409 
Q 975 1256 961 1147 
Q 947 1038 947 966 
Q 947 700 1109 554 
Q 1272 409 1569 409 
Q 2031 409 2368 721 
Q 2706 1034 2809 1563 
L 3194 3500 
L 3769 3500 
L 3091 0 
L 2516 0 
L 2631 550 
Q 2388 244 2052 76 
Q 1716 -91 1338 -91 
Q 878 -91 622 161 
Q 366 413 366 863 
Q 366 956 381 1097 
Q 397 1238 428 1388 
z
" transform="scale(0.015625)"/>
       <path id="DejaVuSans-29" d="M 513 4856 
L 1013 4856 
Q 1481 4119 1714 3412 
Q 1947 2706 1947 2009 
Q 1947 1309 1714 600 
Q 1481 -109 1013 -844 
L 513 -844 
Q 928 -128 1133 580 
Q 1338 1288 1338 2009 
Q 1338 2731 1133 3434 
Q 928 4138 513 4856 
z
" transform="scale(0.015625)"/>
      </defs>
      <use xlink:href="#DejaVuSans-56" transform="translate(0 0.015625)"/>
      <use xlink:href="#DejaVuSans-65" transform="translate(68.408203 0.015625)"/>
      <use xlink:href="#DejaVuSans-6c" transform="translate(129.931641 0.015625)"/>
      <use xlink:href="#DejaVuSans-6f" transform="translate(157.714844 0.015625)"/>
      <use xlink:href="#DejaVuSans-63" transform="translate(218.896484 0.015625)"/>
      <use xlink:href="#DejaVuSans-69" transform="translate(273.876953 0.015625)"/>
      <use xlink:href="#DejaVuSans-74" transform="translate(301.660156 0.015625)"/>
      <use xlink:href="#DejaVuSans-79" transform="translate(340.869141 0.015625)"/>
      <use xlink:href="#DejaVuSans-20" transform="translate(400.048828 0.015625)"/>
      <use xlink:href="#DejaVuSans-69" transform="translate(431.835938 0.015625)"/>
      <use xlink:href="#DejaVuSans-6e" transform="translate(459.619141 0.015625)"/>
      <use xlink:href="#DejaVuSans-20" transform="translate(522.998047 0.015625)"/>
      <use xlink:href="#DejaVuSans-78" transform="translate(554.785156 0.015625)"/>
      <use xlink:href="#DejaVuSans-2d" transform="translate(613.964844 0.015625)"/>
      <use xlink:href="#DejaVuSans-64" transform="translate(650.048828 0.015625)"/>
      <use xlink:href="#DejaVuSans-69" transform="translate(713.525391 0.015625)"/>
      <use xlink:href="#DejaVuSans-72" transform="translate(741.308594 0.015625)"/>
      <use xlink:href="#DejaVuSans-65" transform="translate(782.421875 0.015625)"/>
      <use xlink:href="#DejaVuSans-63" transform="translate(843.945312 0.015625)"/>
      <use xlink:href="#DejaVuSans-74" transform="translate(898.925781 0.015625)"/>
      <use xlink:href="#DejaVuSans-69" transform="translate(938.134766 0.015625)"/>
      <use xlink:href="#DejaVuSans-6f" transform="translate(965.917969 0.015625)"/>
      <use xlink:href="#DejaVuSans-6e" transform="translate(1027.099609 0.015625)"/>
      <use xlink:href="#DejaVuSans-20" transform="translate(1090.478516 0.015625)"/>
      <use xlink:href="#DejaVuSans-28" transform="translate(1122.265625 0.015625)"/>
      <use xlink:href="#DejaVuSans-Oblique-75" transform="translate(1161.279297 0.015625)"/>
      <use xlink:href="#DejaVuSans-29" transform="translate(1224.658203 0.015625)"/>
     </g>
    </g>
   </g>
   <g id="line2d_14">
    <path d="M 90 156.014004 
L 92.325 156.149226 
L 94.65 156.266088 
L 96.975 156.368253 
L 99.3 156.459093 
L 101.625 156.54159 
L 103.95 156.618385 
L 106.275 156.691818 
L 108.6 156.763976 
L 110.925 156.836723 
L 113.25 156.911739 
L 115.575 156.990548 
L 117.9 157.074546 
L 120.225 157.165024 
L 122.55 157.263196 
L 124.875 157.370209 
L 127.2 157.48717 
L 129.525 157.615151 
L 131.85 157.755209 
L 134.175 157.908393 
L 136.5 158.075752 
L 138.825 158.258346 
L 141.15 158.457245 
L 143.475 158.673537 
L 145.8 158.908329 
L 148.125 159.162745 
L 150.45 159.437926 
L 152.775 159.735024 
L 155.1 160.055203 
L 157.425 160.399624 
L 159.75 160.769442 
L 162.075 161.165792 
L 164.4 161.589777 
L 166.725 162.042453 
L 169.05 162.524808 
L 171.375 163.037749 
L 173.7 163.58207 
L 176.025 164.158434 
L 178.35 164.767342 
L 180.675 165.4091 
L 183 166.083791 
L 185.325 166.791233 
L 187.65 167.530943 
L 189.975 168.302097 
L 192.3 169.103487 
L 194.625 169.933472 
L 196.95 170.789941 
L 199.275 171.670261 
L 201.6 172.571238 
L 203.925 173.489068 
L 206.25 174.419304 
L 208.575 175.356816 
L 210.9 176.295763 
L 213.225 177.229572 
L 215.55 178.150921 
L 217.875 179.051741 
L 220.2 179.923221 
L 222.525 180.755833 
L 224.85 181.539368 
L 227.175 182.262986 
L 229.5 182.915287 
L 231.825 183.48439 
L 234.15 183.958028 
L 236.475 184.323655 
L 238.8 184.568563 
L 241.125 184.68 
L 243.45 184.645295 
L 245.775 184.451975 
L 248.1 184.087875 
L 250.425 183.541238 
L 252.75 182.800789 
L 255.075 181.855792 
L 257.4 180.696082 
L 259.725 179.312062 
L 262.05 177.694675 
L 264.375 175.835348 
L 266.7 173.725901 
L 269.025 171.358444 
L 271.35 168.725247 
L 273.675 165.818602 
L 276 162.63069 
L 278.325 159.153456 
L 280.65 155.378504 
L 282.975 151.297054 
L 285.3 146.899945 
L 287.625 142.177753 
L 289.95 137.121024 
L 292.275 131.720675 
L 294.6 125.968606 
L 296.925 119.858549 
L 299.25 113.387198 
L 301.575 106.555629 
L 303.9 99.370999 
L 306.225 91.848462 
L 308.55 84.013188 
L 310.875 75.902305 
L 313.2 67.566494 
L 315.525 59.070904 
L 317.85 50.495025 
L 320.175 41.931092 
L 322.5 33.48 
" clip-path="url(#p8b93e5649f)" style="fill: none; stroke-dasharray: 9.6,2.4,1.5,2.4; stroke-dashoffset: 0; stroke: #0000ff; stroke-width: 1.5"/>
   </g>
   <g id="line2d_15">
    <path d="M 90 156.396483 
L 92.325 156.72532 
L 94.65 157.028482 
L 96.975 157.308184 
L 99.3 157.566109 
L 101.625 157.804149 
L 103.95 158.024057 
L 106.275 158.227734 
L 108.6 158.416819 
L 110.925 158.592954 
L 113.25 158.757796 
L 115.575 158.913071 
L 117.9 159.060116 
L 120.225 159.200591 
L 122.55 159.33583 
L 124.875 159.46713 
L 127.2 159.59567 
L 129.525 159.723081 
L 131.85 159.850031 
L 134.175 159.978052 
L 136.5 160.107939 
L 138.825 160.240901 
L 141.15 160.377712 
L 143.475 160.519517 
L 145.8 160.667005 
L 148.125 160.82098 
L 150.45 160.982391 
L 152.775 161.15174 
L 155.1 161.329776 
L 157.425 161.517213 
L 159.75 161.714587 
L 162.075 161.922254 
L 164.4 162.140904 
L 166.725 162.370905 
L 169.05 162.612561 
L 171.375 162.86616 
L 173.7 163.131987 
L 176.025 163.410196 
L 178.35 163.700674 
L 180.675 164.003792 
L 183 164.319079 
L 185.325 164.646461 
L 187.65 164.985612 
L 189.975 165.336132 
L 192.3 165.697266 
L 194.625 166.068549 
L 196.95 166.448952 
L 199.275 166.837386 
L 201.6 167.232666 
L 203.925 167.633212 
L 206.25 168.037453 
L 208.575 168.443388 
L 210.9 168.848751 
L 213.225 169.251057 
L 215.55 169.647578 
L 217.875 170.034968 
L 220.2 170.40988 
L 222.525 170.768494 
L 224.85 171.106274 
L 227.175 171.418679 
L 229.5 171.700634 
L 231.825 171.94682 
L 234.15 172.151273 
L 236.475 172.307957 
L 238.8 172.410241 
L 241.125 172.451309 
L 243.45 172.424446 
L 245.775 172.322046 
L 248.1 172.137035 
L 250.425 171.861763 
L 252.75 171.488264 
L 255.075 171.008433 
L 257.4 170.414136 
L 259.725 169.695422 
L 262.05 168.84265 
L 264.375 167.844453 
L 266.7 166.687584 
L 269.025 165.356633 
L 271.35 163.834818 
L 273.675 162.10172 
L 276 160.135057 
L 278.325 157.910285 
L 280.65 155.399455 
L 282.975 152.573639 
L 285.3 149.402607 
L 287.625 145.854529 
L 289.95 141.898479 
L 292.275 137.502232 
L 294.6 132.636436 
L 296.925 127.273602 
L 299.25 121.390246 
L 301.575 114.968851 
L 303.9 107.998968 
L 306.225 100.477936 
L 308.55 92.410983 
L 310.875 83.809918 
L 313.2 74.689677 
L 315.525 65.069279 
L 317.85 54.97102 
L 320.175 44.434342 
L 322.5 33.531666 
" clip-path="url(#p8b93e5649f)" style="fill: none; stroke: #ff0000; stroke-width: 1.5; stroke-linecap: square"/>
   </g>
   <g id="patch_3">
    <path d="M 90 192.24 
L 90 25.92 
" style="fill: none; stroke: #000000; stroke-width: 0.8; stroke-linejoin: miter; stroke-linecap: square"/>
   </g>
   <g id="patch_4">
    <path d="M 322.5 192.24 
L 322.5 25.92 
" style="fill: none; stroke: #000000; stroke-width: 0.8; stroke-linejoin: miter; stroke-linecap: square"/>
   </g>
   <g id="patch_5">
    <path d="M 90 192.24 
L 322.5 192.24 
" style="fill: none; stroke: #000000; stroke-width: 0.8; stroke-linejoin: miter; stroke-linecap: square"/>
   </g>
   <g id="patch_6">
    <path d="M 90 25.92 
L 322.5 25.92 
" style="fill: none; stroke: #000000; stroke-width: 0.8; stroke-linejoin: miter; stroke-linecap: square"/>
   </g>
   <g id="legend_1">
    <g id="patch_7">
     <path d="M 97 63.27625 
L 152.942187 63.27625 
Q 154.942187 63.27625 154.942187 61.27625 
L 154.942187 32.92 
Q 154.942187 30.92 152.942187 30.92 
L 97 30.92 
Q 95 30.92 95 32.92 
L 95 61.27625 
Q 95 63.27625 97 63.27625 
z
" style="fill: #ffffff; opacity: 0.8; stroke: #cccccc; stroke-linejoin: miter"/>
    </g>
    <g id="line2d_16">
     <path d="M 99 39.018437 
L 109 39.018437 
L 119 39.018437 
" style="fill: none; stroke-dasharray: 9.6,2.4,1.5,2.4; stroke-dashoffset: 0; stroke: #0000ff; stroke-width: 1.5"/>
    </g>
    <g id="text_16">
     <!-- SOR -->
     <g transform="translate(127 42.518437)scale(0.1 -0.1)">
      <defs>
       <path id="DejaVuSans-53" d="M 3425 4513 
L 3425 3897 
Q 3066 4069 2747 4153 
Q 2428 4238 2131 4238 
Q 1616 4238 1336 4038 
Q 1056 3838 1056 3469 
Q 1056 3159 1242 3001 
Q 1428 2844 1947 2747 
L 2328 2669 
Q 3034 2534 3370 2195 
Q 3706 1856 3706 1288 
Q 3706 609 3251 259 
Q 2797 -91 1919 -91 
Q 1588 -91 1214 -16 
Q 841 59 441 206 
L 441 856 
Q 825 641 1194 531 
Q 1563 422 1919 422 
Q 2459 422 2753 634 
Q 3047 847 3047 1241 
Q 3047 1584 2836 1778 
Q 2625 1972 2144 2069 
L 1759 2144 
Q 1053 2284 737 2584 
Q 422 2884 422 3419 
Q 422 4038 858 4394 
Q 1294 4750 2059 4750 
Q 2388 4750 2728 4690 
Q 3069 4631 3425 4513 
z
" transform="scale(0.015625)"/>
       <path id="DejaVuSans-4f" d="M 2522 4238 
Q 1834 4238 1429 3725 
Q 1025 3213 1025 2328 
Q 1025 1447 1429 934 
Q 1834 422 2522 422 
Q 3209 422 3611 934 
Q 4013 1447 4013 2328 
Q 4013 3213 3611 3725 
Q 3209 4238 2522 4238 
z
M 2522 4750 
Q 3503 4750 4090 4092 
Q 4678 3434 4678 2328 
Q 4678 1225 4090 567 
Q 3503 -91 2522 -91 
Q 1538 -91 948 565 
Q 359 1222 359 2328 
Q 359 3434 948 4092 
Q 1538 4750 2522 4750 
z
" transform="scale(0.015625)"/>
       <path id="DejaVuSans-52" d="M 2841 2188 
Q 3044 2119 3236 1894 
Q 3428 1669 3622 1275 
L 4263 0 
L 3584 0 
L 2988 1197 
Q 2756 1666 2539 1819 
Q 2322 1972 1947 1972 
L 1259 1972 
L 1259 0 
L 628 0 
L 628 4666 
L 2053 4666 
Q 2853 4666 3247 4331 
Q 3641 3997 3641 3322 
Q 3641 2881 3436 2590 
Q 3231 2300 2841 2188 
z
M 1259 4147 
L 1259 2491 
L 2053 2491 
Q 2509 2491 2742 2702 
Q 2975 2913 2975 3322 
Q 2975 3731 2742 3939 
Q 2509 4147 2053 4147 
L 1259 4147 
z
" transform="scale(0.015625)"/>
      </defs>
      <use xlink:href="#DejaVuSans-53"/>
      <use xlink:href="#DejaVuSans-4f" x="63.476562"/>
      <use xlink:href="#DejaVuSans-52" x="142.1875"/>
     </g>
    </g>
    <g id="line2d_17">
     <path d="M 99 53.696562 
L 109 53.696562 
L 119 53.696562 
" style="fill: none; stroke: #ff0000; stroke-width: 1.5; stroke-linecap: square"/>
    </g>
    <g id="text_17">
     <!-- PINN -->
     <g transform="translate(127 57.196562)scale(0.1 -0.1)">
      <defs>
       <path id="DejaVuSans-50" d="M 1259 4147 
L 1259 2394 
L 2053 2394 
Q 2494 2394 2734 2622 
Q 2975 2850 2975 3272 
Q 2975 3691 2734 3919 
Q 2494 4147 2053 4147 
L 1259 4147 
z
M 628 4666 
L 2053 4666 
Q 2838 4666 3239 4311 
Q 3641 3956 3641 3272 
Q 3641 2581 3239 2228 
Q 2838 1875 2053 1875 
L 1259 1875 
L 1259 0 
L 628 0 
L 628 4666 
z
" transform="scale(0.015625)"/>
       <path id="DejaVuSans-49" d="M 628 4666 
L 1259 4666 
L 1259 0 
L 628 0 
L 628 4666 
z
" transform="scale(0.015625)"/>
       <path id="DejaVuSans-4e" d="M 628 4666 
L 1478 4666 
L 3547 763 
L 3547 4666 
L 4159 4666 
L 4159 0 
L 3309 0 
L 1241 3903 
L 1241 0 
L 628 0 
L 628 4666 
z
" transform="scale(0.015625)"/>
      </defs>
      <use xlink:href="#DejaVuSans-50"/>
      <use xlink:href="#DejaVuSans-49" x="60.302734"/>
      <use xlink:href="#DejaVuSans-4e" x="89.794922"/>
      <use xlink:href="#DejaVuSans-4e" x="164.599609"/>
     </g>
    </g>
   </g>
  </g>
  <g id="axes_2">
   <g id="patch_8">
    <path d="M 415.5 192.24 
L 648 192.24 
L 648 25.92 
L 415.5 25.92 
z
" style="fill: #ffffff"/>
   </g>
   <g id="matplotlib.axis_3">
    <g id="xtick_7">
     <g id="line2d_18">
      <g>
       <use xlink:href="#m120c4c691a" x="415.5" y="192.24" style="stroke: #000000; stroke-width: 0.8"/>
      </g>
     </g>
     <g id="text_18">
      <!-- 0.0 -->
      <g transform="translate(407.548438 206.838437)scale(0.1 -0.1)">
       <use xlink:href="#DejaVuSans-30"/>
       <use xlink:href="#DejaVuSans-2e" x="63.623047"/>
       <use xlink:href="#DejaVuSans-30" x="95.410156"/>
      </g>
     </g>
    </g>
    <g id="xtick_8">
     <g id="line2d_19">
      <g>
       <use xlink:href="#m120c4c691a" x="462" y="192.24" style="stroke: #000000; stroke-width: 0.8"/>
      </g>
     </g>
     <g id="text_19">
      <!-- 0.2 -->
      <g transform="translate(454.048438 206.838437)scale(0.1 -0.1)">
       <use xlink:href="#DejaVuSans-30"/>
       <use xlink:href="#DejaVuSans-2e" x="63.623047"/>
       <use xlink:href="#DejaVuSans-32" x="95.410156"/>
      </g>
     </g>
    </g>
    <g id="xtick_9">
     <g id="line2d_20">
      <g>
       <use xlink:href="#m120c4c691a" x="508.5" y="192.24" style="stroke: #000000; stroke-width: 0.8"/>
      </g>
     </g>
     <g id="text_20">
      <!-- 0.4 -->
      <g transform="translate(500.548438 206.838437)scale(0.1 -0.1)">
       <use xlink:href="#DejaVuSans-30"/>
       <use xlink:href="#DejaVuSans-2e" x="63.623047"/>
       <use xlink:href="#DejaVuSans-34" x="95.410156"/>
      </g>
     </g>
    </g>
    <g id="xtick_10">
     <g id="line2d_21">
      <g>
       <use xlink:href="#m120c4c691a" x="555" y="192.24" style="stroke: #000000; stroke-width: 0.8"/>
      </g>
     </g>
     <g id="text_21">
      <!-- 0.6 -->
      <g transform="translate(547.048438 206.838437)scale(0.1 -0.1)">
       <use xlink:href="#DejaVuSans-30"/>
       <use xlink:href="#DejaVuSans-2e" x="63.623047"/>
       <use xlink:href="#DejaVuSans-36" x="95.410156"/>
      </g>
     </g>
    </g>
    <g id="xtick_11">
     <g id="line2d_22">
      <g>
       <use xlink:href="#m120c4c691a" x="601.5" y="192.24" style="stroke: #000000; stroke-width: 0.8"/>
      </g>
     </g>
     <g id="text_22">
      <!-- 0.8 -->
      <g transform="translate(593.548438 206.838437)scale(0.1 -0.1)">
       <use xlink:href="#DejaVuSans-30"/>
       <use xlink:href="#DejaVuSans-2e" x="63.623047"/>
       <use xlink:href="#DejaVuSans-38" x="95.410156"/>
      </g>
     </g>
    </g>
    <g id="xtick_12">
     <g id="line2d_23">
      <g>
       <use xlink:href="#m120c4c691a" x="648" y="192.24" style="stroke: #000000; stroke-width: 0.8"/>
      </g>
     </g>
     <g id="text_23">
      <!-- 1.0 -->
      <g transform="translate(640.048438 206.838437)scale(0.1 -0.1)">
       <use xlink:href="#DejaVuSans-31"/>
       <use xlink:href="#DejaVuSans-2e" x="63.623047"/>
       <use xlink:href="#DejaVuSans-30" x="95.410156"/>
      </g>
     </g>
    </g>
    <g id="text_24">
     <!-- $x$ -->
     <g transform="translate(528.75 220.516562)scale(0.1 -0.1)">
      <defs>
       <path id="DejaVuSans-Oblique-78" d="M 3841 3500 
L 2234 1784 
L 3219 0 
L 2559 0 
L 1819 1388 
L 531 0 
L -166 0 
L 1556 1844 
L 641 3500 
L 1300 3500 
L 1972 2234 
L 3144 3500 
L 3841 3500 
z
" transform="scale(0.015625)"/>
      </defs>
      <use xlink:href="#DejaVuSans-Oblique-78" transform="translate(0 0.3125)"/>
     </g>
    </g>
   </g>
   <g id="matplotlib.axis_4">
    <g id="ytick_8">
     <g id="line2d_24">
      <g>
       <use xlink:href="#m1bf5b930f9" x="415.5" y="178.960917" style="stroke: #000000; stroke-width: 0.8"/>
      </g>
     </g>
     <g id="text_25">
      <!-- −0.075 -->
      <g transform="translate(371.492188 182.760135)scale(0.1 -0.1)">
       <defs>
        <path id="DejaVuSans-37" d="M 525 4666 
L 3525 4666 
L 3525 4397 
L 1831 0 
L 1172 0 
L 2766 4134 
L 525 4134 
L 525 4666 
z
" transform="scale(0.015625)"/>
        <path id="DejaVuSans-35" d="M 691 4666 
L 3169 4666 
L 3169 4134 
L 1269 4134 
L 1269 2991 
Q 1406 3038 1543 3061 
Q 1681 3084 1819 3084 
Q 2600 3084 3056 2656 
Q 3513 2228 3513 1497 
Q 3513 744 3044 326 
Q 2575 -91 1722 -91 
Q 1428 -91 1123 -41 
Q 819 9 494 109 
L 494 744 
Q 775 591 1075 516 
Q 1375 441 1709 441 
Q 2250 441 2565 725 
Q 2881 1009 2881 1497 
Q 2881 1984 2565 2268 
Q 2250 2553 1709 2553 
Q 1456 2553 1204 2497 
Q 953 2441 691 2322 
L 691 4666 
z
" transform="scale(0.015625)"/>
       </defs>
       <use xlink:href="#DejaVuSans-2212"/>
       <use xlink:href="#DejaVuSans-30" x="83.789062"/>
       <use xlink:href="#DejaVuSans-2e" x="147.412109"/>
       <use xlink:href="#DejaVuSans-30" x="179.199219"/>
       <use xlink:href="#DejaVuSans-37" x="242.822266"/>
       <use xlink:href="#DejaVuSans-35" x="306.445312"/>
      </g>
     </g>
    </g>
    <g id="ytick_9">
     <g id="line2d_25">
      <g>
       <use xlink:href="#m1bf5b930f9" x="415.5" y="156.582349" style="stroke: #000000; stroke-width: 0.8"/>
      </g>
     </g>
     <g id="text_26">
      <!-- −0.050 -->
      <g transform="translate(371.492188 160.381568)scale(0.1 -0.1)">
       <use xlink:href="#DejaVuSans-2212"/>
       <use xlink:href="#DejaVuSans-30" x="83.789062"/>
       <use xlink:href="#DejaVuSans-2e" x="147.412109"/>
       <use xlink:href="#DejaVuSans-30" x="179.199219"/>
       <use xlink:href="#DejaVuSans-35" x="242.822266"/>
       <use xlink:href="#DejaVuSans-30" x="306.445312"/>
      </g>
     </g>
    </g>
    <g id="ytick_10">
     <g id="line2d_26">
      <g>
       <use xlink:href="#m1bf5b930f9" x="415.5" y="134.203781" style="stroke: #000000; stroke-width: 0.8"/>
      </g>
     </g>
     <g id="text_27">
      <!-- −0.025 -->
      <g transform="translate(371.492188 138.003)scale(0.1 -0.1)">
       <use xlink:href="#DejaVuSans-2212"/>
       <use xlink:href="#DejaVuSans-30" x="83.789062"/>
       <use xlink:href="#DejaVuSans-2e" x="147.412109"/>
       <use xlink:href="#DejaVuSans-30" x="179.199219"/>
       <use xlink:href="#DejaVuSans-32" x="242.822266"/>
       <use xlink:href="#DejaVuSans-35" x="306.445312"/>
      </g>
     </g>
    </g>
    <g id="ytick_11">
     <g id="line2d_27">
      <g>
       <use xlink:href="#m1bf5b930f9" x="415.5" y="111.825214" style="stroke: #000000; stroke-width: 0.8"/>
      </g>
     </g>
     <g id="text_28">
      <!-- 0.000 -->
      <g transform="translate(379.871875 115.624432)scale(0.1 -0.1)">
       <use xlink:href="#DejaVuSans-30"/>
       <use xlink:href="#DejaVuSans-2e" x="63.623047"/>
       <use xlink:href="#DejaVuSans-30" x="95.410156"/>
       <use xlink:href="#DejaVuSans-30" x="159.033203"/>
       <use xlink:href="#DejaVuSans-30" x="222.65625"/>
      </g>
     </g>
    </g>
    <g id="ytick_12">
     <g id="line2d_28">
      <g>
       <use xlink:href="#m1bf5b930f9" x="415.5" y="89.446646" style="stroke: #000000; stroke-width: 0.8"/>
      </g>
     </g>
     <g id="text_29">
      <!-- 0.025 -->
      <g transform="translate(379.871875 93.245865)scale(0.1 -0.1)">
       <use xlink:href="#DejaVuSans-30"/>
       <use xlink:href="#DejaVuSans-2e" x="63.623047"/>
       <use xlink:href="#DejaVuSans-30" x="95.410156"/>
       <use xlink:href="#DejaVuSans-32" x="159.033203"/>
       <use xlink:href="#DejaVuSans-35" x="222.65625"/>
      </g>
     </g>
    </g>
    <g id="ytick_13">
     <g id="line2d_29">
      <g>
       <use xlink:href="#m1bf5b930f9" x="415.5" y="67.068078" style="stroke: #000000; stroke-width: 0.8"/>
      </g>
     </g>
     <g id="text_30">
      <!-- 0.050 -->
      <g transform="translate(379.871875 70.867297)scale(0.1 -0.1)">
       <use xlink:href="#DejaVuSans-30"/>
       <use xlink:href="#DejaVuSans-2e" x="63.623047"/>
       <use xlink:href="#DejaVuSans-30" x="95.410156"/>
       <use xlink:href="#DejaVuSans-35" x="159.033203"/>
       <use xlink:href="#DejaVuSans-30" x="222.65625"/>
      </g>
     </g>
    </g>
    <g id="ytick_14">
     <g id="line2d_30">
      <g>
       <use xlink:href="#m1bf5b930f9" x="415.5" y="44.689511" style="stroke: #000000; stroke-width: 0.8"/>
      </g>
     </g>
     <g id="text_31">
      <!-- 0.075 -->
      <g transform="translate(379.871875 48.488729)scale(0.1 -0.1)">
       <use xlink:href="#DejaVuSans-30"/>
       <use xlink:href="#DejaVuSans-2e" x="63.623047"/>
       <use xlink:href="#DejaVuSans-30" x="95.410156"/>
       <use xlink:href="#DejaVuSans-37" x="159.033203"/>
       <use xlink:href="#DejaVuSans-35" x="222.65625"/>
      </g>
     </g>
    </g>
    <g id="text_32">
     <!-- Velocity in y-direction ($v$) -->
     <g transform="translate(365.392188 172.08)rotate(-90)scale(0.1 -0.1)">
      <defs>
       <path id="DejaVuSans-Oblique-76" d="M 459 3500 
L 1069 3500 
L 1581 525 
L 3256 3500 
L 3866 3500 
L 1875 0 
L 1100 0 
L 459 3500 
z
" transform="scale(0.015625)"/>
      </defs>
      <use xlink:href="#DejaVuSans-56" transform="translate(0 0.015625)"/>
      <use xlink:href="#DejaVuSans-65" transform="translate(68.408203 0.015625)"/>
      <use xlink:href="#DejaVuSans-6c" transform="translate(129.931641 0.015625)"/>
      <use xlink:href="#DejaVuSans-6f" transform="translate(157.714844 0.015625)"/>
      <use xlink:href="#DejaVuSans-63" transform="translate(218.896484 0.015625)"/>
      <use xlink:href="#DejaVuSans-69" transform="translate(273.876953 0.015625)"/>
      <use xlink:href="#DejaVuSans-74" transform="translate(301.660156 0.015625)"/>
      <use xlink:href="#DejaVuSans-79" transform="translate(340.869141 0.015625)"/>
      <use xlink:href="#DejaVuSans-20" transform="translate(400.048828 0.015625)"/>
      <use xlink:href="#DejaVuSans-69" transform="translate(431.835938 0.015625)"/>
      <use xlink:href="#DejaVuSans-6e" transform="translate(459.619141 0.015625)"/>
      <use xlink:href="#DejaVuSans-20" transform="translate(522.998047 0.015625)"/>
      <use xlink:href="#DejaVuSans-79" transform="translate(554.785156 0.015625)"/>
      <use xlink:href="#DejaVuSans-2d" transform="translate(613.964844 0.015625)"/>
      <use xlink:href="#DejaVuSans-64" transform="translate(650.048828 0.015625)"/>
      <use xlink:href="#DejaVuSans-69" transform="translate(713.525391 0.015625)"/>
      <use xlink:href="#DejaVuSans-72" transform="translate(741.308594 0.015625)"/>
      <use xlink:href="#DejaVuSans-65" transform="translate(782.421875 0.015625)"/>
      <use xlink:href="#DejaVuSans-63" transform="translate(843.945312 0.015625)"/>
      <use xlink:href="#DejaVuSans-74" transform="translate(898.925781 0.015625)"/>
      <use xlink:href="#DejaVuSans-69" transform="translate(938.134766 0.015625)"/>
      <use xlink:href="#DejaVuSans-6f" transform="translate(965.917969 0.015625)"/>
      <use xlink:href="#DejaVuSans-6e" transform="translate(1027.099609 0.015625)"/>
      <use xlink:href="#DejaVuSans-20" transform="translate(1090.478516 0.015625)"/>
      <use xlink:href="#DejaVuSans-28" transform="translate(1122.265625 0.015625)"/>
      <use xlink:href="#DejaVuSans-Oblique-76" transform="translate(1161.279297 0.015625)"/>
      <use xlink:href="#DejaVuSans-29" transform="translate(1220.458984 0.015625)"/>
     </g>
    </g>
   </g>
   <g id="line2d_31">
    <path d="M 415.5 111.825214 
L 417.825 103.761658 
L 420.15 96.439824 
L 422.475 89.843939 
L 424.8 83.949656 
L 427.125 78.727914 
L 429.45 74.145954 
L 431.775 70.168274 
L 434.1 66.757496 
L 436.425 63.875161 
L 438.75 61.482415 
L 441.075 59.540612 
L 443.4 58.011821 
L 445.725 56.859245 
L 448.05 56.047552 
L 450.375 55.543134 
L 452.7 55.314288 
L 455.025 55.331343 
L 457.35 55.56672 
L 459.675 55.994961 
L 462 56.592707 
L 464.325 57.338653 
L 466.65 58.213476 
L 468.975 59.199747 
L 471.3 60.281833 
L 473.625 61.445794 
L 475.95 62.679274 
L 478.275 63.971397 
L 480.6 65.312666 
L 482.925 66.694868 
L 485.25 68.110986 
L 487.575 69.55512 
L 489.9 71.022416 
L 492.225 72.509 
L 494.55 74.011924 
L 496.875 75.529115 
L 499.2 77.059331 
L 501.525 78.602125 
L 503.85 80.157802 
L 506.175 81.727392 
L 508.5 83.312609 
L 510.825 84.915821 
L 513.15 86.54001 
L 515.475 88.188735 
L 517.8 89.866083 
L 520.125 91.576621 
L 522.45 93.325336 
L 524.775 95.117573 
L 527.1 96.958956 
L 529.425 98.855309 
L 531.75 100.812558 
L 534.075 102.836633 
L 536.4 104.933344 
L 538.725 107.108264 
L 541.05 109.366586 
L 543.375 111.712979 
L 545.7 114.151427 
L 548.025 116.685067 
L 550.35 119.316011 
L 552.675 122.045167 
L 555 124.872057 
L 557.325 127.794627 
L 559.65 130.809065 
L 561.975 133.909625 
L 564.3 137.088451 
L 566.625 140.335428 
L 568.95 143.638042 
L 571.275 146.981273 
L 573.6 150.34751 
L 575.925 153.716513 
L 578.25 157.065413 
L 580.575 160.368768 
L 582.9 163.598667 
L 585.225 166.724905 
L 587.55 169.71522 
L 589.875 172.535601 
L 592.2 175.150664 
L 594.525 177.524098 
L 596.85 179.619179 
L 599.175 181.399336 
L 601.5 182.828769 
L 603.825 183.873098 
L 606.15 184.500025 
L 608.475 184.68 
L 610.8 184.386848 
L 613.125 183.598356 
L 615.45 182.296774 
L 617.775 180.469223 
L 620.1 178.107981 
L 622.425 175.210622 
L 624.75 171.780014 
L 627.075 167.824153 
L 629.4 163.355847 
L 631.725 158.392248 
L 634.05 152.954262 
L 636.375 147.065855 
L 638.7 140.753289 
L 641.025 134.044324 
L 643.35 126.967424 
L 645.675 119.551008 
L 648 111.825214 
" clip-path="url(#p332eb0953a)" style="fill: none; stroke-dasharray: 9.6,2.4,1.5,2.4; stroke-dashoffset: 0; stroke: #0000ff; stroke-width: 1.5"/>
   </g>
   <g id="line2d_32">
    <path d="M 415.5 122.031534 
L 417.825 107.440074 
L 420.15 94.728592 
L 422.475 83.71679 
L 424.8 74.231158 
L 427.125 66.110445 
L 429.45 59.209766 
L 431.775 53.394361 
L 434.1 48.542088 
L 436.425 44.544557 
L 438.75 41.304008 
L 441.075 38.732847 
L 443.4 36.753602 
L 445.725 35.296646 
L 448.05 34.301422 
L 450.375 33.712039 
L 452.7 33.48 
L 455.025 33.563687 
L 457.35 33.92311 
L 459.675 34.525004 
L 462 35.339303 
L 464.325 36.33933 
L 466.65 37.500994 
L 468.975 38.804102 
L 471.3 40.229818 
L 473.625 41.763765 
L 475.95 43.390629 
L 478.275 45.098578 
L 480.6 46.878303 
L 482.925 48.721106 
L 485.25 50.620892 
L 487.575 52.571192 
L 489.9 54.568671 
L 492.225 56.60954 
L 494.55 58.692146 
L 496.875 60.815235 
L 499.2 62.979446 
L 501.525 65.185222 
L 503.85 67.433254 
L 506.175 69.72637 
L 508.5 72.066132 
L 510.825 74.456915 
L 513.15 76.900918 
L 515.475 79.401518 
L 517.8 81.962862 
L 520.125 84.588498 
L 522.45 87.281415 
L 524.775 90.045173 
L 527.1 92.882401 
L 529.425 95.794525 
L 531.75 98.783773 
L 534.075 101.850266 
L 536.4 104.992976 
L 538.725 108.210435 
L 541.05 111.49859 
L 543.375 114.85209 
L 545.7 118.265201 
L 548.025 121.726799 
L 550.35 125.226611 
L 552.675 128.75182 
L 555 132.285833 
L 557.325 135.810882 
L 559.65 139.30636 
L 561.975 142.749389 
L 564.3 146.115442 
L 566.625 149.378946 
L 568.95 152.510518 
L 571.275 155.482653 
L 573.6 158.264612 
L 575.925 160.827263 
L 578.25 163.142602 
L 580.575 165.182571 
L 582.9 166.921353 
L 585.225 168.337872 
L 587.55 169.410995 
L 589.875 170.126928 
L 592.2 170.475374 
L 594.525 170.449937 
L 596.85 170.053091 
L 599.175 169.289533 
L 601.5 168.17232 
L 603.825 166.719939 
L 606.15 164.95498 
L 608.475 162.907702 
L 610.8 160.610356 
L 613.125 158.10142 
L 615.45 155.421836 
L 617.775 152.613373 
L 620.1 149.723404 
L 622.425 146.792419 
L 624.75 143.86913 
L 627.075 140.996169 
L 629.4 138.212696 
L 631.725 135.559435 
L 634.05 133.07012 
L 636.375 130.776523 
L 638.7 128.706215 
L 641.025 126.880325 
L 643.35 125.318314 
L 645.675 124.033921 
L 648 123.035682 
" clip-path="url(#p332eb0953a)" style="fill: none; stroke: #ff0000; stroke-width: 1.5; stroke-linecap: square"/>
   </g>
   <g id="patch_9">
    <path d="M 415.5 192.24 
L 415.5 25.92 
" style="fill: none; stroke: #000000; stroke-width: 0.8; stroke-linejoin: miter; stroke-linecap: square"/>
   </g>
   <g id="patch_10">
    <path d="M 648 192.24 
L 648 25.92 
" style="fill: none; stroke: #000000; stroke-width: 0.8; stroke-linejoin: miter; stroke-linecap: square"/>
   </g>
   <g id="patch_11">
    <path d="M 415.5 192.24 
L 648 192.24 
" style="fill: none; stroke: #000000; stroke-width: 0.8; stroke-linejoin: miter; stroke-linecap: square"/>
   </g>
   <g id="patch_12">
    <path d="M 415.5 25.92 
L 648 25.92 
" style="fill: none; stroke: #000000; stroke-width: 0.8; stroke-linejoin: miter; stroke-linecap: square"/>
   </g>
   <g id="legend_2">
    <g id="patch_13">
     <path d="M 585.057813 63.27625 
L 641 63.27625 
Q 643 63.27625 643 61.27625 
L 643 32.92 
Q 643 30.92 641 30.92 
L 585.057813 30.92 
Q 583.057813 30.92 583.057813 32.92 
L 583.057813 61.27625 
Q 583.057813 63.27625 585.057813 63.27625 
z
" style="fill: #ffffff; opacity: 0.8; stroke: #cccccc; stroke-linejoin: miter"/>
    </g>
    <g id="line2d_33">
     <path d="M 587.057813 39.018437 
L 597.057813 39.018437 
L 607.057813 39.018437 
" style="fill: none; stroke-dasharray: 9.6,2.4,1.5,2.4; stroke-dashoffset: 0; stroke: #0000ff; stroke-width: 1.5"/>
    </g>
    <g id="text_33">
     <!-- SOR -->
     <g transform="translate(615.057813 42.518437)scale(0.1 -0.1)">
      <use xlink:href="#DejaVuSans-53"/>
      <use xlink:href="#DejaVuSans-4f" x="63.476562"/>
      <use xlink:href="#DejaVuSans-52" x="142.1875"/>
     </g>
    </g>
    <g id="line2d_34">
     <path d="M 587.057813 53.696562 
L 597.057813 53.696562 
L 607.057813 53.696562 
" style="fill: none; stroke: #ff0000; stroke-width: 1.5; stroke-linecap: square"/>
    </g>
    <g id="text_34">
     <!-- PINN -->
     <g transform="translate(615.057813 57.196562)scale(0.1 -0.1)">
      <use xlink:href="#DejaVuSans-50"/>
      <use xlink:href="#DejaVuSans-49" x="60.302734"/>
      <use xlink:href="#DejaVuSans-4e" x="89.794922"/>
      <use xlink:href="#DejaVuSans-4e" x="164.599609"/>
     </g>
    </g>
   </g>
  </g>
 </g>
 <defs>
  <clipPath id="p8b93e5649f">
   <rect x="90" y="25.92" width="232.5" height="166.32"/>
  </clipPath>
  <clipPath id="p332eb0953a">
   <rect x="415.5" y="25.92" width="232.5" height="166.32"/>
  </clipPath>
 </defs>
</svg>
