<?xml version="1.0" encoding="utf-8" standalone="no"?>
<!DOCTYPE svg PUBLIC "-//W3C//DTD SVG 1.1//EN"
  "http://www.w3.org/Graphics/SVG/1.1/DTD/svg11.dtd">
<svg xmlns:xlink="http://www.w3.org/1999/xlink" width="1030.94625pt" height="270.689687pt" viewBox="0 0 1030.94625 270.689687" xmlns="http://www.w3.org/2000/svg" version="1.1">
 <metadata>
  <rdf:RDF xmlns:dc="http://purl.org/dc/elements/1.1/" xmlns:cc="http://creativecommons.org/ns#" xmlns:rdf="http://www.w3.org/1999/02/22-rdf-syntax-ns#">
   <cc:Work>
    <dc:type rdf:resource="http://purl.org/dc/dcmitype/StillImage"/>
    <dc:date>2024-01-12T05:10:55.183310</dc:date>
    <dc:format>image/svg+xml</dc:format>
    <dc:creator>
     <cc:Agent>
      <dc:title>Matplotlib v3.5.2, https://matplotlib.org/</dc:title>
     </cc:Agent>
    </dc:creator>
   </cc:Work>
  </rdf:RDF>
 </metadata>
 <defs>
  <style type="text/css">*{stroke-linejoin: round; stroke-linecap: butt}</style>
 </defs>
 <g id="figure_1">
  <g id="patch_1">
   <path d="M 0 270.689687 
L 1030.94625 270.689687 
L 1030.94625 0 
L 0 0 
L 0 270.689687 
z
" style="fill: none"/>
  </g>
  <g id="axes_1">
   <g id="patch_2">
    <path d="M 31.4025 238.397812 
L 322.578971 238.397812 
L 322.578971 16.637812 
L 31.4025 16.637812 
L 31.4025 238.397812 
z
" style="fill: none"/>
   </g>
   <g id="matplotlib.axis_1">
    <g id="xtick_1">
     <g id="line2d_1">
      <defs>
       <path id="mca6c339a37" d="M 0 0 
L 0 3.5 
" style="stroke: #000000; stroke-width: 0.8"/>
      </defs>
      <g>
       <use xlink:href="#mca6c339a37" x="31.4025" y="238.397812" style="stroke: #000000; stroke-width: 0.8"/>
      </g>
     </g>
     <g id="text_1">
      <!-- 0 -->
      <g transform="translate(28.22125 252.99625)scale(0.1 -0.1)">
       <defs>
        <path id="DejaVuSans-30" d="M 2034 4250 
Q 1547 4250 1301 3770 
Q 1056 3291 1056 2328 
Q 1056 1369 1301 889 
Q 1547 409 2034 409 
Q 2525 409 2770 889 
Q 3016 1369 3016 2328 
Q 3016 3291 2770 3770 
Q 2525 4250 2034 4250 
z
M 2034 4750 
Q 2819 4750 3233 4129 
Q 3647 3509 3647 2328 
Q 3647 1150 3233 529 
Q 2819 -91 2034 -91 
Q 1250 -91 836 529 
Q 422 1150 422 2328 
Q 422 3509 836 4129 
Q 1250 4750 2034 4750 
z
" transform="scale(0.015625)"/>
       </defs>
       <use xlink:href="#DejaVuSans-30"/>
      </g>
     </g>
    </g>
    <g id="xtick_2">
     <g id="line2d_2">
      <g>
       <use xlink:href="#mca6c339a37" x="67.799559" y="238.397812" style="stroke: #000000; stroke-width: 0.8"/>
      </g>
     </g>
     <g id="text_2">
      <!-- 25 -->
      <g transform="translate(61.437059 252.99625)scale(0.1 -0.1)">
       <defs>
        <path id="DejaVuSans-32" d="M 1228 531 
L 3431 531 
L 3431 0 
L 469 0 
L 469 531 
Q 828 903 1448 1529 
Q 2069 2156 2228 2338 
Q 2531 2678 2651 2914 
Q 2772 3150 2772 3378 
Q 2772 3750 2511 3984 
Q 2250 4219 1831 4219 
Q 1534 4219 1204 4116 
Q 875 4013 500 3803 
L 500 4441 
Q 881 4594 1212 4672 
Q 1544 4750 1819 4750 
Q 2544 4750 2975 4387 
Q 3406 4025 3406 3419 
Q 3406 3131 3298 2873 
Q 3191 2616 2906 2266 
Q 2828 2175 2409 1742 
Q 1991 1309 1228 531 
z
" transform="scale(0.015625)"/>
        <path id="DejaVuSans-35" d="M 691 4666 
L 3169 4666 
L 3169 4134 
L 1269 4134 
L 1269 2991 
Q 1406 3038 1543 3061 
Q 1681 3084 1819 3084 
Q 2600 3084 3056 2656 
Q 3513 2228 3513 1497 
Q 3513 744 3044 326 
Q 2575 -91 1722 -91 
Q 1428 -91 1123 -41 
Q 819 9 494 109 
L 494 744 
Q 775 591 1075 516 
Q 1375 441 1709 441 
Q 2250 441 2565 725 
Q 2881 1009 2881 1497 
Q 2881 1984 2565 2268 
Q 2250 2553 1709 2553 
Q 1456 2553 1204 2497 
Q 953 2441 691 2322 
L 691 4666 
z
" transform="scale(0.015625)"/>
       </defs>
       <use xlink:href="#DejaVuSans-32"/>
       <use xlink:href="#DejaVuSans-35" x="63.623047"/>
      </g>
     </g>
    </g>
    <g id="xtick_3">
     <g id="line2d_3">
      <g>
       <use xlink:href="#mca6c339a37" x="104.196618" y="238.397812" style="stroke: #000000; stroke-width: 0.8"/>
      </g>
     </g>
     <g id="text_3">
      <!-- 50 -->
      <g transform="translate(97.834118 252.99625)scale(0.1 -0.1)">
       <use xlink:href="#DejaVuSans-35"/>
       <use xlink:href="#DejaVuSans-30" x="63.623047"/>
      </g>
     </g>
    </g>
    <g id="xtick_4">
     <g id="line2d_4">
      <g>
       <use xlink:href="#mca6c339a37" x="140.593676" y="238.397812" style="stroke: #000000; stroke-width: 0.8"/>
      </g>
     </g>
     <g id="text_4">
      <!-- 75 -->
      <g transform="translate(134.231176 252.99625)scale(0.1 -0.1)">
       <defs>
        <path id="DejaVuSans-37" d="M 525 4666 
L 3525 4666 
L 3525 4397 
L 1831 0 
L 1172 0 
L 2766 4134 
L 525 4134 
L 525 4666 
z
" transform="scale(0.015625)"/>
       </defs>
       <use xlink:href="#DejaVuSans-37"/>
       <use xlink:href="#DejaVuSans-35" x="63.623047"/>
      </g>
     </g>
    </g>
    <g id="xtick_5">
     <g id="line2d_5">
      <g>
       <use xlink:href="#mca6c339a37" x="176.990735" y="238.397812" style="stroke: #000000; stroke-width: 0.8"/>
      </g>
     </g>
     <g id="text_5">
      <!-- 100 -->
      <g transform="translate(167.446985 252.99625)scale(0.1 -0.1)">
       <defs>
        <path id="DejaVuSans-31" d="M 794 531 
L 1825 531 
L 1825 4091 
L 703 3866 
L 703 4441 
L 1819 4666 
L 2450 4666 
L 2450 531 
L 3481 531 
L 3481 0 
L 794 0 
L 794 531 
z
" transform="scale(0.015625)"/>
       </defs>
       <use xlink:href="#DejaVuSans-31"/>
       <use xlink:href="#DejaVuSans-30" x="63.623047"/>
       <use xlink:href="#DejaVuSans-30" x="127.246094"/>
      </g>
     </g>
    </g>
    <g id="xtick_6">
     <g id="line2d_6">
      <g>
       <use xlink:href="#mca6c339a37" x="213.387794" y="238.397812" style="stroke: #000000; stroke-width: 0.8"/>
      </g>
     </g>
     <g id="text_6">
      <!-- 125 -->
      <g transform="translate(203.844044 252.99625)scale(0.1 -0.1)">
       <use xlink:href="#DejaVuSans-31"/>
       <use xlink:href="#DejaVuSans-32" x="63.623047"/>
       <use xlink:href="#DejaVuSans-35" x="127.246094"/>
      </g>
     </g>
    </g>
    <g id="xtick_7">
     <g id="line2d_7">
      <g>
       <use xlink:href="#mca6c339a37" x="249.784853" y="238.397812" style="stroke: #000000; stroke-width: 0.8"/>
      </g>
     </g>
     <g id="text_7">
      <!-- 150 -->
      <g transform="translate(240.241103 252.99625)scale(0.1 -0.1)">
       <use xlink:href="#DejaVuSans-31"/>
       <use xlink:href="#DejaVuSans-35" x="63.623047"/>
       <use xlink:href="#DejaVuSans-30" x="127.246094"/>
      </g>
     </g>
    </g>
    <g id="xtick_8">
     <g id="line2d_8">
      <g>
       <use xlink:href="#mca6c339a37" x="286.181912" y="238.397812" style="stroke: #000000; stroke-width: 0.8"/>
      </g>
     </g>
     <g id="text_8">
      <!-- 175 -->
      <g transform="translate(276.638162 252.99625)scale(0.1 -0.1)">
       <use xlink:href="#DejaVuSans-31"/>
       <use xlink:href="#DejaVuSans-37" x="63.623047"/>
       <use xlink:href="#DejaVuSans-35" x="127.246094"/>
      </g>
     </g>
    </g>
    <g id="xtick_9">
     <g id="line2d_9">
      <g>
       <use xlink:href="#mca6c339a37" x="322.578971" y="238.397812" style="stroke: #000000; stroke-width: 0.8"/>
      </g>
     </g>
     <g id="text_9">
      <!-- 200 -->
      <g transform="translate(313.035221 252.99625)scale(0.1 -0.1)">
       <use xlink:href="#DejaVuSans-32"/>
       <use xlink:href="#DejaVuSans-30" x="63.623047"/>
       <use xlink:href="#DejaVuSans-30" x="127.246094"/>
      </g>
     </g>
    </g>
    <g id="text_10">
     <!-- Epochs -->
     <g transform="translate(155.491985 268.194062)scale(0.12 -0.12)">
      <defs>
       <path id="DejaVuSans-45" d="M 628 4666 
L 3578 4666 
L 3578 4134 
L 1259 4134 
L 1259 2753 
L 3481 2753 
L 3481 2222 
L 1259 2222 
L 1259 531 
L 3634 531 
L 3634 0 
L 628 0 
L 628 4666 
z
" transform="scale(0.015625)"/>
       <path id="DejaVuSans-70" d="M 1159 525 
L 1159 -1331 
L 581 -1331 
L 581 3500 
L 1159 3500 
L 1159 2969 
Q 1341 3281 1617 3432 
Q 1894 3584 2278 3584 
Q 2916 3584 3314 3078 
Q 3713 2572 3713 1747 
Q 3713 922 3314 415 
Q 2916 -91 2278 -91 
Q 1894 -91 1617 61 
Q 1341 213 1159 525 
z
M 3116 1747 
Q 3116 2381 2855 2742 
Q 2594 3103 2138 3103 
Q 1681 3103 1420 2742 
Q 1159 2381 1159 1747 
Q 1159 1113 1420 752 
Q 1681 391 2138 391 
Q 2594 391 2855 752 
Q 3116 1113 3116 1747 
z
" transform="scale(0.015625)"/>
       <path id="DejaVuSans-6f" d="M 1959 3097 
Q 1497 3097 1228 2736 
Q 959 2375 959 1747 
Q 959 1119 1226 758 
Q 1494 397 1959 397 
Q 2419 397 2687 759 
Q 2956 1122 2956 1747 
Q 2956 2369 2687 2733 
Q 2419 3097 1959 3097 
z
M 1959 3584 
Q 2709 3584 3137 3096 
Q 3566 2609 3566 1747 
Q 3566 888 3137 398 
Q 2709 -91 1959 -91 
Q 1206 -91 779 398 
Q 353 888 353 1747 
Q 353 2609 779 3096 
Q 1206 3584 1959 3584 
z
" transform="scale(0.015625)"/>
       <path id="DejaVuSans-63" d="M 3122 3366 
L 3122 2828 
Q 2878 2963 2633 3030 
Q 2388 3097 2138 3097 
Q 1578 3097 1268 2742 
Q 959 2388 959 1747 
Q 959 1106 1268 751 
Q 1578 397 2138 397 
Q 2388 397 2633 464 
Q 2878 531 3122 666 
L 3122 134 
Q 2881 22 2623 -34 
Q 2366 -91 2075 -91 
Q 1284 -91 818 406 
Q 353 903 353 1747 
Q 353 2603 823 3093 
Q 1294 3584 2113 3584 
Q 2378 3584 2631 3529 
Q 2884 3475 3122 3366 
z
" transform="scale(0.015625)"/>
       <path id="DejaVuSans-68" d="M 3513 2113 
L 3513 0 
L 2938 0 
L 2938 2094 
Q 2938 2591 2744 2837 
Q 2550 3084 2163 3084 
Q 1697 3084 1428 2787 
Q 1159 2491 1159 1978 
L 1159 0 
L 581 0 
L 581 4863 
L 1159 4863 
L 1159 2956 
Q 1366 3272 1645 3428 
Q 1925 3584 2291 3584 
Q 2894 3584 3203 3211 
Q 3513 2838 3513 2113 
z
" transform="scale(0.015625)"/>
       <path id="DejaVuSans-73" d="M 2834 3397 
L 2834 2853 
Q 2591 2978 2328 3040 
Q 2066 3103 1784 3103 
Q 1356 3103 1142 2972 
Q 928 2841 928 2578 
Q 928 2378 1081 2264 
Q 1234 2150 1697 2047 
L 1894 2003 
Q 2506 1872 2764 1633 
Q 3022 1394 3022 966 
Q 3022 478 2636 193 
Q 2250 -91 1575 -91 
Q 1294 -91 989 -36 
Q 684 19 347 128 
L 347 722 
Q 666 556 975 473 
Q 1284 391 1588 391 
Q 1994 391 2212 530 
Q 2431 669 2431 922 
Q 2431 1156 2273 1281 
Q 2116 1406 1581 1522 
L 1381 1569 
Q 847 1681 609 1914 
Q 372 2147 372 2553 
Q 372 3047 722 3315 
Q 1072 3584 1716 3584 
Q 2034 3584 2315 3537 
Q 2597 3491 2834 3397 
z
" transform="scale(0.015625)"/>
      </defs>
      <use xlink:href="#DejaVuSans-45"/>
      <use xlink:href="#DejaVuSans-70" x="63.183594"/>
      <use xlink:href="#DejaVuSans-6f" x="126.660156"/>
      <use xlink:href="#DejaVuSans-63" x="187.841797"/>
      <use xlink:href="#DejaVuSans-68" x="242.822266"/>
      <use xlink:href="#DejaVuSans-73" x="306.201172"/>
     </g>
    </g>
   </g>
   <g id="matplotlib.axis_2">
    <g id="ytick_1">
     <g id="line2d_10">
      <defs>
       <path id="m4b0b590913" d="M 0 0 
L -3.5 0 
" style="stroke: #000000; stroke-width: 0.8"/>
      </defs>
      <g>
       <use xlink:href="#m4b0b590913" x="31.4025" y="238.397812" style="stroke: #000000; stroke-width: 0.8"/>
      </g>
     </g>
     <g id="text_11">
      <!-- 0 -->
      <g transform="translate(18.04 242.197031)scale(0.1 -0.1)">
       <use xlink:href="#DejaVuSans-30"/>
      </g>
     </g>
    </g>
    <g id="ytick_2">
     <g id="line2d_11">
      <g>
       <use xlink:href="#m4b0b590913" x="31.4025" y="198.077812" style="stroke: #000000; stroke-width: 0.8"/>
      </g>
     </g>
     <g id="text_12">
      <!-- 1 -->
      <g transform="translate(18.04 201.877031)scale(0.1 -0.1)">
       <use xlink:href="#DejaVuSans-31"/>
      </g>
     </g>
    </g>
    <g id="ytick_3">
     <g id="line2d_12">
      <g>
       <use xlink:href="#m4b0b590913" x="31.4025" y="157.757812" style="stroke: #000000; stroke-width: 0.8"/>
      </g>
     </g>
     <g id="text_13">
      <!-- 2 -->
      <g transform="translate(18.04 161.557031)scale(0.1 -0.1)">
       <use xlink:href="#DejaVuSans-32"/>
      </g>
     </g>
    </g>
    <g id="ytick_4">
     <g id="line2d_13">
      <g>
       <use xlink:href="#m4b0b590913" x="31.4025" y="117.437812" style="stroke: #000000; stroke-width: 0.8"/>
      </g>
     </g>
     <g id="text_14">
      <!-- 3 -->
      <g transform="translate(18.04 121.237031)scale(0.1 -0.1)">
       <defs>
        <path id="DejaVuSans-33" d="M 2597 2516 
Q 3050 2419 3304 2112 
Q 3559 1806 3559 1356 
Q 3559 666 3084 287 
Q 2609 -91 1734 -91 
Q 1441 -91 1130 -33 
Q 819 25 488 141 
L 488 750 
Q 750 597 1062 519 
Q 1375 441 1716 441 
Q 2309 441 2620 675 
Q 2931 909 2931 1356 
Q 2931 1769 2642 2001 
Q 2353 2234 1838 2234 
L 1294 2234 
L 1294 2753 
L 1863 2753 
Q 2328 2753 2575 2939 
Q 2822 3125 2822 3475 
Q 2822 3834 2567 4026 
Q 2313 4219 1838 4219 
Q 1578 4219 1281 4162 
Q 984 4106 628 3988 
L 628 4550 
Q 988 4650 1302 4700 
Q 1616 4750 1894 4750 
Q 2613 4750 3031 4423 
Q 3450 4097 3450 3541 
Q 3450 3153 3228 2886 
Q 3006 2619 2597 2516 
z
" transform="scale(0.015625)"/>
       </defs>
       <use xlink:href="#DejaVuSans-33"/>
      </g>
     </g>
    </g>
    <g id="ytick_5">
     <g id="line2d_14">
      <g>
       <use xlink:href="#m4b0b590913" x="31.4025" y="77.117812" style="stroke: #000000; stroke-width: 0.8"/>
      </g>
     </g>
     <g id="text_15">
      <!-- 4 -->
      <g transform="translate(18.04 80.917031)scale(0.1 -0.1)">
       <defs>
        <path id="DejaVuSans-34" d="M 2419 4116 
L 825 1625 
L 2419 1625 
L 2419 4116 
z
M 2253 4666 
L 3047 4666 
L 3047 1625 
L 3713 1625 
L 3713 1100 
L 3047 1100 
L 3047 0 
L 2419 0 
L 2419 1100 
L 313 1100 
L 313 1709 
L 2253 4666 
z
" transform="scale(0.015625)"/>
       </defs>
       <use xlink:href="#DejaVuSans-34"/>
      </g>
     </g>
    </g>
    <g id="ytick_6">
     <g id="line2d_15">
      <g>
       <use xlink:href="#m4b0b590913" x="31.4025" y="36.797812" style="stroke: #000000; stroke-width: 0.8"/>
      </g>
     </g>
     <g id="text_16">
      <!-- 5 -->
      <g transform="translate(18.04 40.597031)scale(0.1 -0.1)">
       <use xlink:href="#DejaVuSans-35"/>
      </g>
     </g>
    </g>
    <g id="text_17">
     <!-- $|\hat{m}-m^{*}$| -->
     <g transform="translate(11.16 153.197812)rotate(-90)scale(0.12 -0.12)">
      <defs>
       <path id="DejaVuSans-7c" d="M 1344 4891 
L 1344 -1509 
L 813 -1509 
L 813 4891 
L 1344 4891 
z
" transform="scale(0.015625)"/>
       <path id="DejaVuSans-302" d="M -1831 5119 
L -1369 5119 
L -603 3944 
L -1038 3944 
L -1600 4709 
L -2163 3944 
L -2597 3944 
L -1831 5119 
z
M -1600 3584 
L -1600 3584 
z
" transform="scale(0.015625)"/>
       <path id="DejaVuSans-Oblique-6d" d="M 5747 2113 
L 5338 0 
L 4763 0 
L 5166 2094 
Q 5191 2228 5203 2325 
Q 5216 2422 5216 2491 
Q 5216 2772 5059 2928 
Q 4903 3084 4622 3084 
Q 4203 3084 3875 2770 
Q 3547 2456 3450 1953 
L 3066 0 
L 2491 0 
L 2900 2094 
Q 2925 2209 2937 2307 
Q 2950 2406 2950 2484 
Q 2950 2769 2794 2926 
Q 2638 3084 2363 3084 
Q 1938 3084 1609 2770 
Q 1281 2456 1184 1953 
L 800 0 
L 225 0 
L 909 3500 
L 1484 3500 
L 1375 2956 
Q 1609 3263 1923 3423 
Q 2238 3584 2597 3584 
Q 2978 3584 3223 3384 
Q 3469 3184 3519 2828 
Q 3781 3197 4126 3390 
Q 4472 3584 4856 3584 
Q 5306 3584 5551 3325 
Q 5797 3066 5797 2591 
Q 5797 2488 5784 2364 
Q 5772 2241 5747 2113 
z
" transform="scale(0.015625)"/>
       <path id="DejaVuSans-2212" d="M 678 2272 
L 4684 2272 
L 4684 1741 
L 678 1741 
L 678 2272 
z
" transform="scale(0.015625)"/>
       <path id="DejaVuSans-2a" d="M 3009 3897 
L 1888 3291 
L 3009 2681 
L 2828 2375 
L 1778 3009 
L 1778 1831 
L 1422 1831 
L 1422 3009 
L 372 2375 
L 191 2681 
L 1313 3291 
L 191 3897 
L 372 4206 
L 1422 3572 
L 1422 4750 
L 1778 4750 
L 1778 3572 
L 2828 4206 
L 3009 3897 
z
" transform="scale(0.015625)"/>
      </defs>
      <use xlink:href="#DejaVuSans-7c" transform="translate(0 0.515625)"/>
      <use xlink:href="#DejaVuSans-302" transform="translate(119.622559 13.015625)"/>
      <use xlink:href="#DejaVuSans-Oblique-6d" transform="translate(33.691406 0.515625)"/>
      <use xlink:href="#DejaVuSans-2212" transform="translate(150.585938 0.515625)"/>
      <use xlink:href="#DejaVuSans-Oblique-6d" transform="translate(253.857422 0.515625)"/>
      <use xlink:href="#DejaVuSans-2a" transform="translate(355.919427 38.796875)scale(0.7)"/>
      <use xlink:href="#DejaVuSans-7c" transform="translate(393.653802 0.515625)"/>
     </g>
    </g>
   </g>
   <g id="line2d_16">
    <path d="M 31.4025 36.797563 
L 34.314265 36.844436 
L 35.770147 37.105891 
L 37.226029 37.66387 
L 38.681912 38.561959 
L 43.049559 40.461764 
L 44.505441 40.807545 
L 45.961324 41.409725 
L 48.873088 43.053439 
L 50.328971 43.77084 
L 53.240735 45.887708 
L 56.1525 48.633038 
L 57.608382 49.602416 
L 59.064265 51.187702 
L 61.976029 55.234887 
L 63.431912 56.860356 
L 66.343676 59.805675 
L 67.799559 61.787441 
L 69.255441 64.381788 
L 70.711324 69.569137 
L 72.167206 71.740626 
L 73.623088 75.331268 
L 75.078971 79.554227 
L 76.534853 84.518919 
L 77.990735 88.783743 
L 79.446618 90.585053 
L 80.9025 93.309214 
L 82.358382 98.194992 
L 85.270147 105.999 
L 86.726029 112.553573 
L 88.181912 123.913404 
L 89.637794 133.450777 
L 92.549559 143.886729 
L 94.005441 147.181414 
L 95.461324 151.52743 
L 98.373088 160.859699 
L 101.284853 170.279755 
L 102.740735 173.980332 
L 104.196618 178.788831 
L 105.6525 182.582693 
L 107.108382 185.671131 
L 110.020147 188.383315 
L 111.476029 191.072783 
L 112.931912 194.62158 
L 114.387794 196.370095 
L 115.843676 199.179774 
L 117.299559 200.37652 
L 118.755441 202.391778 
L 120.211324 206.427754 
L 121.667206 210.028856 
L 123.123088 212.644005 
L 124.578971 214.101496 
L 126.034853 216.840058 
L 127.490735 218.593322 
L 128.946618 219.757557 
L 130.4025 221.118744 
L 131.858382 223.459499 
L 134.770147 225.346442 
L 136.226029 226.882355 
L 137.681912 227.668375 
L 139.137794 229.346292 
L 142.049559 233.640782 
L 144.961324 236.167703 
L 146.417206 236.849767 
L 147.873088 236.914482 
L 149.328971 238.042072 
L 152.240735 238.346786 
L 155.1525 238.143298 
L 158.064265 238.396294 
L 160.976029 237.976223 
L 162.431912 237.817973 
L 163.887794 237.267838 
L 165.343676 237.802919 
L 166.799559 238.132858 
L 168.255441 238.039977 
L 169.711324 237.827029 
L 171.167206 237.737935 
L 174.078971 238.225585 
L 176.990735 237.891436 
L 181.358382 237.924755 
L 182.814265 238.146624 
L 184.270147 238.050301 
L 187.181912 238.152834 
L 190.093676 238.096463 
L 194.461324 238.044014 
L 197.373088 238.067585 
L 200.284853 238.260961 
L 203.196618 238.305354 
L 206.108382 238.358803 
L 211.931912 238.179789 
L 232.314265 238.263403 
L 233.770147 238.170829 
L 236.681912 238.302393 
L 273.078971 238.274766 
L 280.358382 238.321946 
L 287.637794 238.345306 
L 289.093676 238.377356 
L 292.005441 238.249387 
L 305.108382 238.296568 
L 321.123088 238.290454 
L 321.123088 238.290454 
" clip-path="url(#pbff81cde83)" style="fill: none; stroke: #ff0000; stroke-width: 2; stroke-linecap: square"/>
   </g>
   <g id="line2d_17">
    <path d="M 31.4025 36.72981 
L 35.770147 36.680533 
L 38.681912 36.703528 
L 40.137794 36.943565 
L 41.593676 37.686038 
L 43.049559 37.599424 
L 45.961324 35.663436 
L 50.328971 35.162846 
L 51.784853 36.36711 
L 53.240735 38.910162 
L 54.696618 40.263985 
L 56.1525 43.346809 
L 59.064265 42.883384 
L 60.520147 42.808883 
L 61.976029 43.711778 
L 63.431912 42.73667 
L 64.887794 41.462616 
L 66.343676 41.07223 
L 67.799559 39.599744 
L 69.255441 38.818223 
L 70.711324 38.865288 
L 73.623088 39.229353 
L 75.078971 39.226066 
L 76.534853 38.533273 
L 77.990735 38.031165 
L 79.446618 37.759193 
L 80.9025 37.629513 
L 85.270147 37.677886 
L 86.726029 37.387495 
L 88.181912 37.261584 
L 321.123088 37.278926 
L 321.123088 37.278926 
" clip-path="url(#pbff81cde83)" style="fill: none; stroke: #000000; stroke-width: 2; stroke-linecap: square"/>
   </g>
   <g id="line2d_18">
    <path d="M 31.4025 36.728945 
L 37.226029 36.6923 
L 82.358382 36.745402 
L 147.873088 36.872256 
L 321.123088 36.872256 
L 321.123088 36.872256 
" clip-path="url(#pbff81cde83)" style="fill: none; stroke-dasharray: 7.4,3.2; stroke-dashoffset: 0; stroke: #0000ff; stroke-width: 2"/>
   </g>
   <g id="line2d_19">
    <path d="M 31.4025 36.801696 
L 35.770147 36.851876 
L 37.226029 37.075629 
L 38.681912 37.589427 
L 40.137794 38.232251 
L 41.593676 38.640132 
L 44.505441 39.195746 
L 47.417206 40.019891 
L 51.784853 42.42017 
L 53.240735 43.305223 
L 54.696618 44.602426 
L 56.1525 46.260444 
L 57.608382 47.433984 
L 59.064265 48.456792 
L 60.520147 49.776355 
L 61.976029 51.531349 
L 63.431912 52.545217 
L 64.887794 54.140462 
L 67.799559 58.240269 
L 69.255441 61.502395 
L 70.711324 63.887466 
L 73.623088 68.242095 
L 75.078971 73.064975 
L 76.534853 78.791269 
L 77.990735 82.402983 
L 79.446618 84.564879 
L 80.9025 87.716099 
L 83.814265 93.026947 
L 85.270147 95.357993 
L 86.726029 98.720479 
L 88.181912 104.877784 
L 89.637794 109.131658 
L 91.093676 113.823907 
L 92.549559 118.117281 
L 94.005441 120.827254 
L 95.461324 122.026903 
L 96.917206 124.829008 
L 98.373088 129.255302 
L 99.828971 129.532234 
L 101.284853 130.224325 
L 102.740735 131.671875 
L 104.196618 133.897485 
L 105.6525 137.336367 
L 107.108382 140.16434 
L 108.564265 142.205687 
L 110.020147 143.52674 
L 111.476029 143.716068 
L 112.931912 144.313586 
L 114.387794 144.295696 
L 115.843676 145.14596 
L 117.299559 146.131517 
L 118.755441 148.620255 
L 120.211324 149.648197 
L 121.667206 152.192921 
L 126.034853 153.9811 
L 127.490735 154.43448 
L 128.946618 155.279533 
L 130.4025 155.682954 
L 133.314265 156.855504 
L 134.770147 158.140046 
L 136.226029 160.757301 
L 137.681912 163.981908 
L 139.137794 169.073895 
L 140.593676 169.07726 
L 142.049559 168.456815 
L 143.505441 168.973554 
L 144.961324 169.202691 
L 146.417206 169.720305 
L 147.873088 172.412436 
L 149.328971 176.222044 
L 150.784853 177.211466 
L 152.240735 178.496921 
L 153.696618 179.545819 
L 155.1525 181.386225 
L 156.608382 181.850727 
L 158.064265 179.054669 
L 159.520147 177.743672 
L 160.976029 177.742673 
L 162.431912 177.917563 
L 163.887794 178.397032 
L 168.255441 178.698208 
L 172.623088 178.690451 
L 174.078971 178.602165 
L 176.990735 178.686067 
L 179.9025 178.939813 
L 181.358382 178.906542 
L 185.726029 179.044614 
L 187.181912 178.758473 
L 190.093676 178.808653 
L 193.005441 178.871733 
L 204.6525 178.693681 
L 220.667206 178.645404 
L 225.034853 178.611547 
L 242.505441 178.573422 
L 271.623088 178.617824 
L 284.726029 178.597771 
L 306.564265 178.62935 
L 321.123088 178.62935 
L 321.123088 178.62935 
" clip-path="url(#pbff81cde83)" style="fill: none; stroke-dasharray: 2,3.3; stroke-dashoffset: 0; stroke: #008000; stroke-width: 2"/>
   </g>
   <g id="line2d_20">
    <path d="M 31.4025 36.797697 
L 64.887794 36.889809 
L 136.226029 37.609037 
L 159.520147 37.701265 
L 172.623088 37.787186 
L 182.814265 37.82808 
L 303.6525 38.093496 
L 321.123088 38.093496 
L 321.123088 38.093496 
" clip-path="url(#pbff81cde83)" style="fill: none; stroke-dasharray: 12.8,3.2,2,3.2; stroke-dashoffset: 0; stroke: #00bfbf; stroke-width: 2"/>
   </g>
   <g id="patch_3">
    <path d="M 31.4025 238.397812 
L 31.4025 16.637812 
" style="fill: none; stroke: #000000; stroke-width: 0.8; stroke-linejoin: miter; stroke-linecap: square"/>
   </g>
   <g id="patch_4">
    <path d="M 322.578971 238.397812 
L 322.578971 16.637812 
" style="fill: none; stroke: #000000; stroke-width: 0.8; stroke-linejoin: miter; stroke-linecap: square"/>
   </g>
   <g id="patch_5">
    <path d="M 31.4025 238.397812 
L 322.578971 238.397812 
" style="fill: none; stroke: #000000; stroke-width: 0.8; stroke-linejoin: miter; stroke-linecap: square"/>
   </g>
   <g id="patch_6">
    <path d="M 31.4025 16.637812 
L 322.578971 16.637812 
" style="fill: none; stroke: #000000; stroke-width: 0.8; stroke-linejoin: miter; stroke-linecap: square"/>
   </g>
   <g id="text_18">
    <!-- Value -->
    <g transform="translate(157.766985 10.637812)scale(0.14 -0.14)">
     <defs>
      <path id="DejaVuSans-56" d="M 1831 0 
L 50 4666 
L 709 4666 
L 2188 738 
L 3669 4666 
L 4325 4666 
L 2547 0 
L 1831 0 
z
" transform="scale(0.015625)"/>
      <path id="DejaVuSans-61" d="M 2194 1759 
Q 1497 1759 1228 1600 
Q 959 1441 959 1056 
Q 959 750 1161 570 
Q 1363 391 1709 391 
Q 2188 391 2477 730 
Q 2766 1069 2766 1631 
L 2766 1759 
L 2194 1759 
z
M 3341 1997 
L 3341 0 
L 2766 0 
L 2766 531 
Q 2569 213 2275 61 
Q 1981 -91 1556 -91 
Q 1019 -91 701 211 
Q 384 513 384 1019 
Q 384 1609 779 1909 
Q 1175 2209 1959 2209 
L 2766 2209 
L 2766 2266 
Q 2766 2663 2505 2880 
Q 2244 3097 1772 3097 
Q 1472 3097 1187 3025 
Q 903 2953 641 2809 
L 641 3341 
Q 956 3463 1253 3523 
Q 1550 3584 1831 3584 
Q 2591 3584 2966 3190 
Q 3341 2797 3341 1997 
z
" transform="scale(0.015625)"/>
      <path id="DejaVuSans-6c" d="M 603 4863 
L 1178 4863 
L 1178 0 
L 603 0 
L 603 4863 
z
" transform="scale(0.015625)"/>
      <path id="DejaVuSans-75" d="M 544 1381 
L 544 3500 
L 1119 3500 
L 1119 1403 
Q 1119 906 1312 657 
Q 1506 409 1894 409 
Q 2359 409 2629 706 
Q 2900 1003 2900 1516 
L 2900 3500 
L 3475 3500 
L 3475 0 
L 2900 0 
L 2900 538 
Q 2691 219 2414 64 
Q 2138 -91 1772 -91 
Q 1169 -91 856 284 
Q 544 659 544 1381 
z
M 1991 3584 
L 1991 3584 
z
" transform="scale(0.015625)"/>
      <path id="DejaVuSans-65" d="M 3597 1894 
L 3597 1613 
L 953 1613 
Q 991 1019 1311 708 
Q 1631 397 2203 397 
Q 2534 397 2845 478 
Q 3156 559 3463 722 
L 3463 178 
Q 3153 47 2828 -22 
Q 2503 -91 2169 -91 
Q 1331 -91 842 396 
Q 353 884 353 1716 
Q 353 2575 817 3079 
Q 1281 3584 2069 3584 
Q 2775 3584 3186 3129 
Q 3597 2675 3597 1894 
z
M 3022 2063 
Q 3016 2534 2758 2815 
Q 2500 3097 2075 3097 
Q 1594 3097 1305 2825 
Q 1016 2553 972 2059 
L 3022 2063 
z
" transform="scale(0.015625)"/>
     </defs>
     <use xlink:href="#DejaVuSans-56"/>
     <use xlink:href="#DejaVuSans-61" x="60.658203"/>
     <use xlink:href="#DejaVuSans-6c" x="121.9375"/>
     <use xlink:href="#DejaVuSans-75" x="149.720703"/>
     <use xlink:href="#DejaVuSans-65" x="213.099609"/>
    </g>
   </g>
   <g id="legend_1">
    <g id="patch_7">
     <path d="M 240.460221 98.028437 
L 315.578971 98.028437 
Q 317.578971 98.028437 317.578971 96.028437 
L 317.578971 23.637812 
Q 317.578971 21.637812 315.578971 21.637812 
L 240.460221 21.637812 
Q 238.460221 21.637812 238.460221 23.637812 
L 238.460221 96.028437 
Q 238.460221 98.028437 240.460221 98.028437 
z
" style="fill: #ffffff; opacity: 0.8; stroke: #cccccc; stroke-linejoin: miter"/>
    </g>
    <g id="line2d_21">
     <path d="M 242.460221 29.73625 
L 252.460221 29.73625 
L 262.460221 29.73625 
" style="fill: none; stroke: #ff0000; stroke-width: 2; stroke-linecap: square"/>
    </g>
    <g id="text_19">
     <!-- Stan -->
     <g transform="translate(270.460221 33.23625)scale(0.1 -0.1)">
      <defs>
       <path id="DejaVuSans-53" d="M 3425 4513 
L 3425 3897 
Q 3066 4069 2747 4153 
Q 2428 4238 2131 4238 
Q 1616 4238 1336 4038 
Q 1056 3838 1056 3469 
Q 1056 3159 1242 3001 
Q 1428 2844 1947 2747 
L 2328 2669 
Q 3034 2534 3370 2195 
Q 3706 1856 3706 1288 
Q 3706 609 3251 259 
Q 2797 -91 1919 -91 
Q 1588 -91 1214 -16 
Q 841 59 441 206 
L 441 856 
Q 825 641 1194 531 
Q 1563 422 1919 422 
Q 2459 422 2753 634 
Q 3047 847 3047 1241 
Q 3047 1584 2836 1778 
Q 2625 1972 2144 2069 
L 1759 2144 
Q 1053 2284 737 2584 
Q 422 2884 422 3419 
Q 422 4038 858 4394 
Q 1294 4750 2059 4750 
Q 2388 4750 2728 4690 
Q 3069 4631 3425 4513 
z
" transform="scale(0.015625)"/>
       <path id="DejaVuSans-74" d="M 1172 4494 
L 1172 3500 
L 2356 3500 
L 2356 3053 
L 1172 3053 
L 1172 1153 
Q 1172 725 1289 603 
Q 1406 481 1766 481 
L 2356 481 
L 2356 0 
L 1766 0 
Q 1100 0 847 248 
Q 594 497 594 1153 
L 594 3053 
L 172 3053 
L 172 3500 
L 594 3500 
L 594 4494 
L 1172 4494 
z
" transform="scale(0.015625)"/>
       <path id="DejaVuSans-6e" d="M 3513 2113 
L 3513 0 
L 2938 0 
L 2938 2094 
Q 2938 2591 2744 2837 
Q 2550 3084 2163 3084 
Q 1697 3084 1428 2787 
Q 1159 2491 1159 1978 
L 1159 0 
L 581 0 
L 581 3500 
L 1159 3500 
L 1159 2956 
Q 1366 3272 1645 3428 
Q 1925 3584 2291 3584 
Q 2894 3584 3203 3211 
Q 3513 2838 3513 2113 
z
" transform="scale(0.015625)"/>
      </defs>
      <use xlink:href="#DejaVuSans-53"/>
      <use xlink:href="#DejaVuSans-74" x="63.476562"/>
      <use xlink:href="#DejaVuSans-61" x="102.685547"/>
      <use xlink:href="#DejaVuSans-6e" x="163.964844"/>
     </g>
    </g>
    <g id="line2d_22">
     <path d="M 242.460221 44.414375 
L 252.460221 44.414375 
L 262.460221 44.414375 
" style="fill: none; stroke: #000000; stroke-width: 2; stroke-linecap: square"/>
    </g>
    <g id="text_20">
     <!-- tanh -->
     <g transform="translate(270.460221 47.914375)scale(0.1 -0.1)">
      <use xlink:href="#DejaVuSans-74"/>
      <use xlink:href="#DejaVuSans-61" x="39.208984"/>
      <use xlink:href="#DejaVuSans-6e" x="100.488281"/>
      <use xlink:href="#DejaVuSans-68" x="163.867188"/>
     </g>
    </g>
    <g id="line2d_23">
     <path d="M 242.460221 59.0925 
L 252.460221 59.0925 
L 262.460221 59.0925 
" style="fill: none; stroke-dasharray: 7.4,3.2; stroke-dashoffset: 0; stroke: #0000ff; stroke-width: 2"/>
    </g>
    <g id="text_21">
     <!-- tanh(AF) -->
     <g transform="translate(270.460221 62.5925)scale(0.1 -0.1)">
      <defs>
       <path id="DejaVuSans-28" d="M 1984 4856 
Q 1566 4138 1362 3434 
Q 1159 2731 1159 2009 
Q 1159 1288 1364 580 
Q 1569 -128 1984 -844 
L 1484 -844 
Q 1016 -109 783 600 
Q 550 1309 550 2009 
Q 550 2706 781 3412 
Q 1013 4119 1484 4856 
L 1984 4856 
z
" transform="scale(0.015625)"/>
       <path id="DejaVuSans-41" d="M 2188 4044 
L 1331 1722 
L 3047 1722 
L 2188 4044 
z
M 1831 4666 
L 2547 4666 
L 4325 0 
L 3669 0 
L 3244 1197 
L 1141 1197 
L 716 0 
L 50 0 
L 1831 4666 
z
" transform="scale(0.015625)"/>
       <path id="DejaVuSans-46" d="M 628 4666 
L 3309 4666 
L 3309 4134 
L 1259 4134 
L 1259 2759 
L 3109 2759 
L 3109 2228 
L 1259 2228 
L 1259 0 
L 628 0 
L 628 4666 
z
" transform="scale(0.015625)"/>
       <path id="DejaVuSans-29" d="M 513 4856 
L 1013 4856 
Q 1481 4119 1714 3412 
Q 1947 2706 1947 2009 
Q 1947 1309 1714 600 
Q 1481 -109 1013 -844 
L 513 -844 
Q 928 -128 1133 580 
Q 1338 1288 1338 2009 
Q 1338 2731 1133 3434 
Q 928 4138 513 4856 
z
" transform="scale(0.015625)"/>
      </defs>
      <use xlink:href="#DejaVuSans-74"/>
      <use xlink:href="#DejaVuSans-61" x="39.208984"/>
      <use xlink:href="#DejaVuSans-6e" x="100.488281"/>
      <use xlink:href="#DejaVuSans-68" x="163.867188"/>
      <use xlink:href="#DejaVuSans-28" x="227.246094"/>
      <use xlink:href="#DejaVuSans-41" x="266.259766"/>
      <use xlink:href="#DejaVuSans-46" x="334.667969"/>
      <use xlink:href="#DejaVuSans-29" x="392.1875"/>
     </g>
    </g>
    <g id="line2d_24">
     <path d="M 242.460221 73.770625 
L 252.460221 73.770625 
L 262.460221 73.770625 
" style="fill: none; stroke-dasharray: 2,3.3; stroke-dashoffset: 0; stroke: #008000; stroke-width: 2"/>
    </g>
    <g id="text_22">
     <!-- Swish -->
     <g transform="translate(270.460221 77.270625)scale(0.1 -0.1)">
      <defs>
       <path id="DejaVuSans-77" d="M 269 3500 
L 844 3500 
L 1563 769 
L 2278 3500 
L 2956 3500 
L 3675 769 
L 4391 3500 
L 4966 3500 
L 4050 0 
L 3372 0 
L 2619 2869 
L 1863 0 
L 1184 0 
L 269 3500 
z
" transform="scale(0.015625)"/>
       <path id="DejaVuSans-69" d="M 603 3500 
L 1178 3500 
L 1178 0 
L 603 0 
L 603 3500 
z
M 603 4863 
L 1178 4863 
L 1178 4134 
L 603 4134 
L 603 4863 
z
" transform="scale(0.015625)"/>
      </defs>
      <use xlink:href="#DejaVuSans-53"/>
      <use xlink:href="#DejaVuSans-77" x="63.476562"/>
      <use xlink:href="#DejaVuSans-69" x="145.263672"/>
      <use xlink:href="#DejaVuSans-73" x="173.046875"/>
      <use xlink:href="#DejaVuSans-68" x="225.146484"/>
     </g>
    </g>
    <g id="line2d_25">
     <path d="M 242.460221 88.44875 
L 252.460221 88.44875 
L 262.460221 88.44875 
" style="fill: none; stroke-dasharray: 12.8,3.2,2,3.2; stroke-dashoffset: 0; stroke: #00bfbf; stroke-width: 2"/>
    </g>
    <g id="text_23">
     <!-- Rowdy -->
     <g transform="translate(270.460221 91.94875)scale(0.1 -0.1)">
      <defs>
       <path id="DejaVuSans-52" d="M 2841 2188 
Q 3044 2119 3236 1894 
Q 3428 1669 3622 1275 
L 4263 0 
L 3584 0 
L 2988 1197 
Q 2756 1666 2539 1819 
Q 2322 1972 1947 1972 
L 1259 1972 
L 1259 0 
L 628 0 
L 628 4666 
L 2053 4666 
Q 2853 4666 3247 4331 
Q 3641 3997 3641 3322 
Q 3641 2881 3436 2590 
Q 3231 2300 2841 2188 
z
M 1259 4147 
L 1259 2491 
L 2053 2491 
Q 2509 2491 2742 2702 
Q 2975 2913 2975 3322 
Q 2975 3731 2742 3939 
Q 2509 4147 2053 4147 
L 1259 4147 
z
" transform="scale(0.015625)"/>
       <path id="DejaVuSans-64" d="M 2906 2969 
L 2906 4863 
L 3481 4863 
L 3481 0 
L 2906 0 
L 2906 525 
Q 2725 213 2448 61 
Q 2172 -91 1784 -91 
Q 1150 -91 751 415 
Q 353 922 353 1747 
Q 353 2572 751 3078 
Q 1150 3584 1784 3584 
Q 2172 3584 2448 3432 
Q 2725 3281 2906 2969 
z
M 947 1747 
Q 947 1113 1208 752 
Q 1469 391 1925 391 
Q 2381 391 2643 752 
Q 2906 1113 2906 1747 
Q 2906 2381 2643 2742 
Q 2381 3103 1925 3103 
Q 1469 3103 1208 2742 
Q 947 2381 947 1747 
z
" transform="scale(0.015625)"/>
       <path id="DejaVuSans-79" d="M 2059 -325 
Q 1816 -950 1584 -1140 
Q 1353 -1331 966 -1331 
L 506 -1331 
L 506 -850 
L 844 -850 
Q 1081 -850 1212 -737 
Q 1344 -625 1503 -206 
L 1606 56 
L 191 3500 
L 800 3500 
L 1894 763 
L 2988 3500 
L 3597 3500 
L 2059 -325 
z
" transform="scale(0.015625)"/>
      </defs>
      <use xlink:href="#DejaVuSans-52"/>
      <use xlink:href="#DejaVuSans-6f" x="64.982422"/>
      <use xlink:href="#DejaVuSans-77" x="126.164062"/>
      <use xlink:href="#DejaVuSans-64" x="207.951172"/>
      <use xlink:href="#DejaVuSans-79" x="271.427734"/>
     </g>
    </g>
   </g>
  </g>
  <g id="axes_2">
   <g id="patch_8">
    <path d="M 380.814265 238.397812 
L 671.990735 238.397812 
L 671.990735 16.637812 
L 380.814265 16.637812 
L 380.814265 238.397812 
z
" style="fill: none"/>
   </g>
   <g id="matplotlib.axis_3">
    <g id="xtick_10">
     <g id="line2d_26">
      <g>
       <use xlink:href="#mca6c339a37" x="380.814265" y="238.397812" style="stroke: #000000; stroke-width: 0.8"/>
      </g>
     </g>
     <g id="text_24">
      <!-- 0 -->
      <g transform="translate(377.633015 252.99625)scale(0.1 -0.1)">
       <use xlink:href="#DejaVuSans-30"/>
      </g>
     </g>
    </g>
    <g id="xtick_11">
     <g id="line2d_27">
      <g>
       <use xlink:href="#mca6c339a37" x="417.211324" y="238.397812" style="stroke: #000000; stroke-width: 0.8"/>
      </g>
     </g>
     <g id="text_25">
      <!-- 25 -->
      <g transform="translate(410.848824 252.99625)scale(0.1 -0.1)">
       <use xlink:href="#DejaVuSans-32"/>
       <use xlink:href="#DejaVuSans-35" x="63.623047"/>
      </g>
     </g>
    </g>
    <g id="xtick_12">
     <g id="line2d_28">
      <g>
       <use xlink:href="#mca6c339a37" x="453.608382" y="238.397812" style="stroke: #000000; stroke-width: 0.8"/>
      </g>
     </g>
     <g id="text_26">
      <!-- 50 -->
      <g transform="translate(447.245882 252.99625)scale(0.1 -0.1)">
       <use xlink:href="#DejaVuSans-35"/>
       <use xlink:href="#DejaVuSans-30" x="63.623047"/>
      </g>
     </g>
    </g>
    <g id="xtick_13">
     <g id="line2d_29">
      <g>
       <use xlink:href="#mca6c339a37" x="490.005441" y="238.397812" style="stroke: #000000; stroke-width: 0.8"/>
      </g>
     </g>
     <g id="text_27">
      <!-- 75 -->
      <g transform="translate(483.642941 252.99625)scale(0.1 -0.1)">
       <use xlink:href="#DejaVuSans-37"/>
       <use xlink:href="#DejaVuSans-35" x="63.623047"/>
      </g>
     </g>
    </g>
    <g id="xtick_14">
     <g id="line2d_30">
      <g>
       <use xlink:href="#mca6c339a37" x="526.4025" y="238.397812" style="stroke: #000000; stroke-width: 0.8"/>
      </g>
     </g>
     <g id="text_28">
      <!-- 100 -->
      <g transform="translate(516.85875 252.99625)scale(0.1 -0.1)">
       <use xlink:href="#DejaVuSans-31"/>
       <use xlink:href="#DejaVuSans-30" x="63.623047"/>
       <use xlink:href="#DejaVuSans-30" x="127.246094"/>
      </g>
     </g>
    </g>
    <g id="xtick_15">
     <g id="line2d_31">
      <g>
       <use xlink:href="#mca6c339a37" x="562.799559" y="238.397812" style="stroke: #000000; stroke-width: 0.8"/>
      </g>
     </g>
     <g id="text_29">
      <!-- 125 -->
      <g transform="translate(553.255809 252.99625)scale(0.1 -0.1)">
       <use xlink:href="#DejaVuSans-31"/>
       <use xlink:href="#DejaVuSans-32" x="63.623047"/>
       <use xlink:href="#DejaVuSans-35" x="127.246094"/>
      </g>
     </g>
    </g>
    <g id="xtick_16">
     <g id="line2d_32">
      <g>
       <use xlink:href="#mca6c339a37" x="599.196618" y="238.397812" style="stroke: #000000; stroke-width: 0.8"/>
      </g>
     </g>
     <g id="text_30">
      <!-- 150 -->
      <g transform="translate(589.652868 252.99625)scale(0.1 -0.1)">
       <use xlink:href="#DejaVuSans-31"/>
       <use xlink:href="#DejaVuSans-35" x="63.623047"/>
       <use xlink:href="#DejaVuSans-30" x="127.246094"/>
      </g>
     </g>
    </g>
    <g id="xtick_17">
     <g id="line2d_33">
      <g>
       <use xlink:href="#mca6c339a37" x="635.593676" y="238.397812" style="stroke: #000000; stroke-width: 0.8"/>
      </g>
     </g>
     <g id="text_31">
      <!-- 175 -->
      <g transform="translate(626.049926 252.99625)scale(0.1 -0.1)">
       <use xlink:href="#DejaVuSans-31"/>
       <use xlink:href="#DejaVuSans-37" x="63.623047"/>
       <use xlink:href="#DejaVuSans-35" x="127.246094"/>
      </g>
     </g>
    </g>
    <g id="xtick_18">
     <g id="line2d_34">
      <g>
       <use xlink:href="#mca6c339a37" x="671.990735" y="238.397812" style="stroke: #000000; stroke-width: 0.8"/>
      </g>
     </g>
     <g id="text_32">
      <!-- 200 -->
      <g transform="translate(662.446985 252.99625)scale(0.1 -0.1)">
       <use xlink:href="#DejaVuSans-32"/>
       <use xlink:href="#DejaVuSans-30" x="63.623047"/>
       <use xlink:href="#DejaVuSans-30" x="127.246094"/>
      </g>
     </g>
    </g>
    <g id="text_33">
     <!-- Epochs -->
     <g transform="translate(504.90375 268.194062)scale(0.12 -0.12)">
      <use xlink:href="#DejaVuSans-45"/>
      <use xlink:href="#DejaVuSans-70" x="63.183594"/>
      <use xlink:href="#DejaVuSans-6f" x="126.660156"/>
      <use xlink:href="#DejaVuSans-63" x="187.841797"/>
      <use xlink:href="#DejaVuSans-68" x="242.822266"/>
      <use xlink:href="#DejaVuSans-73" x="306.201172"/>
     </g>
    </g>
   </g>
   <g id="matplotlib.axis_4">
    <g id="ytick_7">
     <g id="line2d_35">
      <g>
       <use xlink:href="#m4b0b590913" x="380.814265" y="238.397812" style="stroke: #000000; stroke-width: 0.8"/>
      </g>
     </g>
     <g id="text_34">
      <!-- 0.0 -->
      <g transform="translate(357.91114 242.197031)scale(0.1 -0.1)">
       <defs>
        <path id="DejaVuSans-2e" d="M 684 794 
L 1344 794 
L 1344 0 
L 684 0 
L 684 794 
z
" transform="scale(0.015625)"/>
       </defs>
       <use xlink:href="#DejaVuSans-30"/>
       <use xlink:href="#DejaVuSans-2e" x="63.623047"/>
       <use xlink:href="#DejaVuSans-30" x="95.410156"/>
      </g>
     </g>
    </g>
    <g id="ytick_8">
     <g id="line2d_36">
      <g>
       <use xlink:href="#m4b0b590913" x="380.814265" y="201.437812" style="stroke: #000000; stroke-width: 0.8"/>
      </g>
     </g>
     <g id="text_35">
      <!-- 0.2 -->
      <g transform="translate(357.91114 205.237031)scale(0.1 -0.1)">
       <use xlink:href="#DejaVuSans-30"/>
       <use xlink:href="#DejaVuSans-2e" x="63.623047"/>
       <use xlink:href="#DejaVuSans-32" x="95.410156"/>
      </g>
     </g>
    </g>
    <g id="ytick_9">
     <g id="line2d_37">
      <g>
       <use xlink:href="#m4b0b590913" x="380.814265" y="164.477812" style="stroke: #000000; stroke-width: 0.8"/>
      </g>
     </g>
     <g id="text_36">
      <!-- 0.4 -->
      <g transform="translate(357.91114 168.277031)scale(0.1 -0.1)">
       <use xlink:href="#DejaVuSans-30"/>
       <use xlink:href="#DejaVuSans-2e" x="63.623047"/>
       <use xlink:href="#DejaVuSans-34" x="95.410156"/>
      </g>
     </g>
    </g>
    <g id="ytick_10">
     <g id="line2d_38">
      <g>
       <use xlink:href="#m4b0b590913" x="380.814265" y="127.517812" style="stroke: #000000; stroke-width: 0.8"/>
      </g>
     </g>
     <g id="text_37">
      <!-- 0.6 -->
      <g transform="translate(357.91114 131.317031)scale(0.1 -0.1)">
       <defs>
        <path id="DejaVuSans-36" d="M 2113 2584 
Q 1688 2584 1439 2293 
Q 1191 2003 1191 1497 
Q 1191 994 1439 701 
Q 1688 409 2113 409 
Q 2538 409 2786 701 
Q 3034 994 3034 1497 
Q 3034 2003 2786 2293 
Q 2538 2584 2113 2584 
z
M 3366 4563 
L 3366 3988 
Q 3128 4100 2886 4159 
Q 2644 4219 2406 4219 
Q 1781 4219 1451 3797 
Q 1122 3375 1075 2522 
Q 1259 2794 1537 2939 
Q 1816 3084 2150 3084 
Q 2853 3084 3261 2657 
Q 3669 2231 3669 1497 
Q 3669 778 3244 343 
Q 2819 -91 2113 -91 
Q 1303 -91 875 529 
Q 447 1150 447 2328 
Q 447 3434 972 4092 
Q 1497 4750 2381 4750 
Q 2619 4750 2861 4703 
Q 3103 4656 3366 4563 
z
" transform="scale(0.015625)"/>
       </defs>
       <use xlink:href="#DejaVuSans-30"/>
       <use xlink:href="#DejaVuSans-2e" x="63.623047"/>
       <use xlink:href="#DejaVuSans-36" x="95.410156"/>
      </g>
     </g>
    </g>
    <g id="ytick_11">
     <g id="line2d_39">
      <g>
       <use xlink:href="#m4b0b590913" x="380.814265" y="90.557812" style="stroke: #000000; stroke-width: 0.8"/>
      </g>
     </g>
     <g id="text_38">
      <!-- 0.8 -->
      <g transform="translate(357.91114 94.357031)scale(0.1 -0.1)">
       <defs>
        <path id="DejaVuSans-38" d="M 2034 2216 
Q 1584 2216 1326 1975 
Q 1069 1734 1069 1313 
Q 1069 891 1326 650 
Q 1584 409 2034 409 
Q 2484 409 2743 651 
Q 3003 894 3003 1313 
Q 3003 1734 2745 1975 
Q 2488 2216 2034 2216 
z
M 1403 2484 
Q 997 2584 770 2862 
Q 544 3141 544 3541 
Q 544 4100 942 4425 
Q 1341 4750 2034 4750 
Q 2731 4750 3128 4425 
Q 3525 4100 3525 3541 
Q 3525 3141 3298 2862 
Q 3072 2584 2669 2484 
Q 3125 2378 3379 2068 
Q 3634 1759 3634 1313 
Q 3634 634 3220 271 
Q 2806 -91 2034 -91 
Q 1263 -91 848 271 
Q 434 634 434 1313 
Q 434 1759 690 2068 
Q 947 2378 1403 2484 
z
M 1172 3481 
Q 1172 3119 1398 2916 
Q 1625 2713 2034 2713 
Q 2441 2713 2670 2916 
Q 2900 3119 2900 3481 
Q 2900 3844 2670 4047 
Q 2441 4250 2034 4250 
Q 1625 4250 1398 4047 
Q 1172 3844 1172 3481 
z
" transform="scale(0.015625)"/>
       </defs>
       <use xlink:href="#DejaVuSans-30"/>
       <use xlink:href="#DejaVuSans-2e" x="63.623047"/>
       <use xlink:href="#DejaVuSans-38" x="95.410156"/>
      </g>
     </g>
    </g>
    <g id="ytick_12">
     <g id="line2d_40">
      <g>
       <use xlink:href="#m4b0b590913" x="380.814265" y="53.597812" style="stroke: #000000; stroke-width: 0.8"/>
      </g>
     </g>
     <g id="text_39">
      <!-- 1.0 -->
      <g transform="translate(357.91114 57.397031)scale(0.1 -0.1)">
       <use xlink:href="#DejaVuSans-31"/>
       <use xlink:href="#DejaVuSans-2e" x="63.623047"/>
       <use xlink:href="#DejaVuSans-30" x="95.410156"/>
      </g>
     </g>
    </g>
    <g id="ytick_13">
     <g id="line2d_41">
      <g>
       <use xlink:href="#m4b0b590913" x="380.814265" y="16.637812" style="stroke: #000000; stroke-width: 0.8"/>
      </g>
     </g>
     <g id="text_40">
      <!-- 1.2 -->
      <g transform="translate(357.91114 20.437031)scale(0.1 -0.1)">
       <use xlink:href="#DejaVuSans-31"/>
       <use xlink:href="#DejaVuSans-2e" x="63.623047"/>
       <use xlink:href="#DejaVuSans-32" x="95.410156"/>
      </g>
     </g>
    </g>
    <g id="text_41">
     <!-- $|\hat{c}-c^{*}$| -->
     <g transform="translate(351.03114 148.097812)rotate(-90)scale(0.12 -0.12)">
      <defs>
       <path id="DejaVuSans-Oblique-63" d="M 3431 3366 
L 3316 2797 
Q 3109 2947 2876 3022 
Q 2644 3097 2394 3097 
Q 2119 3097 1870 3000 
Q 1622 2903 1453 2725 
Q 1184 2453 1037 2087 
Q 891 1722 891 1331 
Q 891 859 1127 628 
Q 1363 397 1844 397 
Q 2081 397 2348 469 
Q 2616 541 2906 684 
L 2797 116 
Q 2547 13 2283 -39 
Q 2019 -91 1741 -91 
Q 1044 -91 669 257 
Q 294 606 294 1253 
Q 294 1797 489 2255 
Q 684 2713 1069 3078 
Q 1331 3328 1684 3456 
Q 2038 3584 2456 3584 
Q 2700 3584 2940 3529 
Q 3181 3475 3431 3366 
z
" transform="scale(0.015625)"/>
      </defs>
      <use xlink:href="#DejaVuSans-7c" transform="translate(0 0.515625)"/>
      <use xlink:href="#DejaVuSans-302" transform="translate(93.014648 13.015625)"/>
      <use xlink:href="#DejaVuSans-Oblique-63" transform="translate(33.691406 0.515625)"/>
      <use xlink:href="#DejaVuSans-2212" transform="translate(108.154297 0.515625)"/>
      <use xlink:href="#DejaVuSans-Oblique-63" transform="translate(211.425781 0.515625)"/>
      <use xlink:href="#DejaVuSans-2a" transform="translate(271.056146 38.796875)scale(0.7)"/>
      <use xlink:href="#DejaVuSans-7c" transform="translate(308.790521 0.515625)"/>
     </g>
    </g>
   </g>
   <g id="line2d_42">
    <path d="M 380.814265 53.89038 
L 382.270147 54.37333 
L 383.726029 57.541403 
L 385.181912 76.063991 
L 386.637794 113.760954 
L 388.093676 173.30065 
L 389.549559 211.978846 
L 391.005441 232.589459 
L 392.461324 210.144892 
L 393.917206 207.880067 
L 395.373088 207.821599 
L 396.828971 204.297105 
L 398.284853 203.15913 
L 399.740735 202.858224 
L 401.196618 202.732191 
L 402.6525 203.871929 
L 404.108382 204.407717 
L 405.564265 204.437193 
L 407.020147 206.336455 
L 408.476029 206.62053 
L 409.931912 205.743741 
L 411.387794 206.577638 
L 412.843676 207.184341 
L 414.299559 207.148807 
L 415.755441 206.227275 
L 417.211324 207.86491 
L 418.667206 207.701801 
L 420.123088 206.364675 
L 421.578971 209.144515 
L 423.034853 210.029081 
L 424.490735 209.601371 
L 425.946618 210.87298 
L 428.858382 211.858927 
L 430.314265 213.386148 
L 431.770147 213.600146 
L 433.226029 214.5141 
L 436.137794 216.487073 
L 437.593676 218.399179 
L 439.049559 220.090324 
L 440.505441 220.952507 
L 441.961324 222.314218 
L 443.417206 222.319924 
L 444.873088 223.514934 
L 446.328971 223.572609 
L 447.784853 224.564107 
L 449.240735 225.287106 
L 450.696618 225.677255 
L 452.1525 226.268273 
L 453.608382 227.074588 
L 455.064265 227.681731 
L 457.976029 228.403122 
L 459.431912 229.18201 
L 460.887794 229.421827 
L 462.343676 230.499859 
L 463.799559 230.260835 
L 465.255441 230.912677 
L 466.711324 231.223343 
L 468.167206 231.830728 
L 469.623088 232.77451 
L 471.078971 232.558529 
L 472.534853 233.767948 
L 473.990735 233.898849 
L 475.446618 234.203765 
L 476.9025 234.863978 
L 478.358382 234.737747 
L 479.814265 235.199669 
L 481.270147 235.849903 
L 482.726029 235.350508 
L 484.181912 235.714221 
L 487.093676 236.088949 
L 488.549559 236.556533 
L 490.005441 236.843627 
L 491.461324 237.266931 
L 492.917206 237.334893 
L 494.373088 237.744737 
L 497.284853 237.679528 
L 498.740735 238.103648 
L 500.196618 238.225583 
L 501.6525 238.110234 
L 504.564265 238.20743 
L 511.843676 238.056482 
L 514.755441 238.056966 
L 517.667206 238.146628 
L 520.578971 238.014272 
L 522.034853 238.16434 
L 532.226029 238.176919 
L 581.726029 238.248119 
L 586.093676 238.268079 
L 602.108382 238.287619 
L 670.534853 238.299846 
L 670.534853 238.299846 
" clip-path="url(#p1364e819f7)" style="fill: none; stroke: #ff0000; stroke-width: 2; stroke-linecap: square"/>
   </g>
   <g id="line2d_43">
    <path d="M 380.814265 63.101611 
L 382.270147 70.172233 
L 383.726029 70.410453 
L 385.181912 70.272072 
L 386.637794 70.258931 
L 388.093676 69.854286 
L 389.549559 70.992052 
L 391.005441 74.905891 
L 392.461324 82.46541 
L 393.917206 111.565038 
L 395.373088 134.567908 
L 396.828971 149.083912 
L 398.284853 159.359506 
L 399.740735 168.028703 
L 401.196618 170.86007 
L 402.6525 130.86212 
L 404.108382 110.187785 
L 405.564265 66.406401 
L 407.020147 69.536527 
L 408.476029 67.412957 
L 409.931912 58.299385 
L 411.387794 33.84382 
L 412.843676 31.99254 
L 414.299559 36.089832 
L 415.755441 43.508592 
L 417.211324 64.82578 
L 418.667206 69.020434 
L 420.123088 68.04288 
L 421.578971 70.216755 
L 423.034853 73.272321 
L 424.490735 73.979887 
L 425.946618 73.29814 
L 427.4025 72.258936 
L 428.858382 73.123939 
L 430.314265 72.905942 
L 431.770147 72.204434 
L 433.226029 72.17292 
L 434.681912 72.339686 
L 436.137794 71.136282 
L 437.593676 71.007429 
L 439.049559 71.089314 
L 440.505441 71.011626 
L 444.873088 71.036145 
L 670.534853 71.036145 
L 670.534853 71.036145 
" clip-path="url(#p1364e819f7)" style="fill: none; stroke: #000000; stroke-width: 2; stroke-linecap: square"/>
   </g>
   <g id="line2d_44">
    <path d="M 380.814265 63.500694 
L 382.270147 72.608649 
L 386.637794 72.667105 
L 388.093676 72.926176 
L 392.461324 73.0813 
L 393.917206 72.785207 
L 395.373088 72.659747 
L 396.828971 72.671081 
L 399.740735 71.591507 
L 401.196618 71.59425 
L 404.108382 71.327887 
L 405.564265 70.72602 
L 407.020147 70.514357 
L 408.476029 70.084377 
L 411.387794 69.659619 
L 412.843676 69.073713 
L 414.299559 68.291652 
L 418.667206 67.521036 
L 420.123088 67.405423 
L 421.578971 67.16011 
L 423.034853 66.719876 
L 430.314265 65.82424 
L 436.137794 64.874587 
L 437.593676 64.513539 
L 439.049559 64.300951 
L 441.961324 63.564173 
L 444.873088 62.765986 
L 670.534853 62.765986 
L 670.534853 62.765986 
" clip-path="url(#p1364e819f7)" style="fill: none; stroke-dasharray: 7.4,3.2; stroke-dashoffset: 0; stroke: #0000ff; stroke-width: 2"/>
   </g>
   <g id="line2d_45">
    <path d="M 380.814265 53.460897 
L 382.270147 52.897967 
L 383.726029 52.89387 
L 385.181912 57.150108 
L 386.637794 75.813831 
L 388.093676 120.734919 
L 389.549559 172.64991 
L 391.005441 230.384896 
L 392.461324 216.640445 
L 393.917206 208.655144 
L 396.828971 202.460431 
L 398.284853 206.757975 
L 399.740735 204.987676 
L 401.196618 207.607865 
L 402.6525 210.85258 
L 404.108382 206.665075 
L 405.564265 205.153473 
L 407.020147 201.5604 
L 408.476029 203.93586 
L 409.931912 208.25442 
L 411.387794 208.641265 
L 414.299559 208.554071 
L 415.755441 207.883944 
L 417.211324 208.080605 
L 418.667206 209.459785 
L 420.123088 209.711234 
L 421.578971 210.629638 
L 423.034853 210.996479 
L 424.490735 210.967113 
L 425.946618 212.533371 
L 428.858382 213.194356 
L 430.314265 212.700005 
L 431.770147 212.831546 
L 433.226029 214.094056 
L 436.137794 214.16649 
L 437.593676 215.433825 
L 439.049559 215.918769 
L 440.505441 216.227165 
L 441.961324 217.371925 
L 443.417206 217.355447 
L 444.873088 218.063708 
L 446.328971 218.333265 
L 447.784853 218.226332 
L 449.240735 218.964399 
L 450.696618 219.163461 
L 452.1525 219.529972 
L 453.608382 219.671955 
L 455.064265 220.511513 
L 456.520147 220.606903 
L 457.976029 220.827972 
L 459.431912 221.700334 
L 460.887794 221.784157 
L 462.343676 221.7284 
L 463.799559 222.04541 
L 465.255441 221.875757 
L 466.711324 222.226517 
L 468.167206 222.459505 
L 469.623088 222.994589 
L 472.534853 223.466381 
L 473.990735 223.363149 
L 475.446618 223.433314 
L 476.9025 223.621713 
L 478.358382 223.66465 
L 481.270147 224.28598 
L 482.726029 224.190855 
L 484.181912 224.733605 
L 487.093676 225.181495 
L 488.549559 225.999332 
L 490.005441 225.893632 
L 491.461324 225.913041 
L 492.917206 226.052204 
L 494.373088 225.813091 
L 495.828971 226.271621 
L 497.284853 226.338702 
L 498.740735 227.182094 
L 500.196618 227.368423 
L 501.6525 227.375164 
L 503.108382 228.196107 
L 504.564265 228.395059 
L 508.931912 227.757712 
L 519.123088 227.920469 
L 523.490735 227.884516 
L 533.681912 228.068664 
L 538.049559 227.974464 
L 670.534853 227.997882 
L 670.534853 227.997882 
" clip-path="url(#p1364e819f7)" style="fill: none; stroke-dasharray: 2,3.3; stroke-dashoffset: 0; stroke: #008000; stroke-width: 2"/>
   </g>
   <g id="line2d_46">
    <path d="M 380.814265 53.60158 
L 383.726029 53.675457 
L 388.093676 54.049348 
L 402.6525 54.739654 
L 407.020147 55.235062 
L 408.476029 55.716194 
L 409.931912 56.56505 
L 414.299559 58.32668 
L 417.211324 60.083562 
L 418.667206 61.307774 
L 420.123088 61.80034 
L 423.034853 63.587205 
L 424.490735 64.571907 
L 425.946618 65.267402 
L 427.4025 66.421899 
L 428.858382 67.390013 
L 430.314265 68.134965 
L 433.226029 69.330934 
L 434.681912 70.453951 
L 436.137794 71.881839 
L 439.049559 74.336243 
L 440.505441 75.811451 
L 441.961324 77.019074 
L 443.417206 78.407298 
L 444.873088 79.225664 
L 446.328971 80.206632 
L 447.784853 81.35874 
L 449.240735 81.88608 
L 450.696618 82.821512 
L 452.1525 84.03765 
L 453.608382 84.070904 
L 455.064265 83.937601 
L 456.520147 84.169653 
L 459.431912 84.38711 
L 462.343676 84.921389 
L 463.799559 86.077671 
L 465.255441 88.367457 
L 466.711324 90.058074 
L 469.623088 91.222991 
L 471.078971 91.549155 
L 475.446618 91.729657 
L 476.9025 92.221782 
L 478.358382 93.326878 
L 479.814265 94.683775 
L 481.270147 96.232883 
L 482.726029 98.078656 
L 484.181912 98.52616 
L 487.093676 98.499614 
L 490.005441 97.458636 
L 492.917206 97.075801 
L 494.373088 96.645051 
L 495.828971 96.700863 
L 497.284853 97.220361 
L 500.196618 98.792083 
L 501.6525 100.239038 
L 503.108382 101.295811 
L 507.476029 103.291465 
L 508.931912 104.236965 
L 510.387794 105.617798 
L 511.843676 106.733875 
L 513.299559 107.079502 
L 516.211324 107.242148 
L 517.667206 107.59271 
L 522.034853 109.790278 
L 523.490735 109.259733 
L 524.946618 107.692131 
L 526.4025 109.352016 
L 527.858382 110.689273 
L 529.314265 111.507309 
L 532.226029 112.863358 
L 533.681912 113.202376 
L 535.137794 113.668098 
L 536.593676 113.713931 
L 538.049559 113.538552 
L 539.505441 113.481582 
L 540.961324 112.775216 
L 542.417206 112.538252 
L 543.873088 112.848113 
L 545.328971 113.305685 
L 546.784853 113.902441 
L 548.240735 114.09073 
L 551.1525 114.123996 
L 552.608382 114.31028 
L 554.064265 115.375469 
L 555.520147 116.25532 
L 556.976029 116.637869 
L 558.431912 116.411644 
L 559.887794 116.350214 
L 561.343676 117.009755 
L 562.799559 117.457182 
L 565.711324 117.986141 
L 567.167206 118.29847 
L 568.623088 118.75972 
L 570.078971 119.048995 
L 575.9025 119.638371 
L 580.270147 119.776366 
L 583.181912 120.15929 
L 584.637794 120.42627 
L 587.549559 121.293421 
L 589.005441 121.442144 
L 597.740735 121.486336 
L 599.196618 121.729348 
L 600.6525 122.231882 
L 603.564265 122.530619 
L 605.020147 123.444814 
L 606.476029 124.001003 
L 610.843676 124.913557 
L 612.299559 125.454842 
L 613.755441 126.130928 
L 615.211324 127.220669 
L 616.667206 127.666367 
L 618.123088 127.859745 
L 621.034853 128.47776 
L 626.858382 131.18999 
L 628.314265 131.521441 
L 629.770147 131.671013 
L 637.049559 131.49528 
L 645.784853 131.647331 
L 648.696618 132.002816 
L 653.064265 132.021178 
L 670.534853 132.021178 
L 670.534853 132.021178 
" clip-path="url(#p1364e819f7)" style="fill: none; stroke-dasharray: 12.8,3.2,2,3.2; stroke-dashoffset: 0; stroke: #00bfbf; stroke-width: 2"/>
   </g>
   <g id="patch_9">
    <path d="M 380.814265 238.397812 
L 380.814265 16.637812 
" style="fill: none; stroke: #000000; stroke-width: 0.8; stroke-linejoin: miter; stroke-linecap: square"/>
   </g>
   <g id="patch_10">
    <path d="M 671.990735 238.397812 
L 671.990735 16.637812 
" style="fill: none; stroke: #000000; stroke-width: 0.8; stroke-linejoin: miter; stroke-linecap: square"/>
   </g>
   <g id="patch_11">
    <path d="M 380.814265 238.397812 
L 671.990735 238.397812 
" style="fill: none; stroke: #000000; stroke-width: 0.8; stroke-linejoin: miter; stroke-linecap: square"/>
   </g>
   <g id="patch_12">
    <path d="M 380.814265 16.637812 
L 671.990735 16.637812 
" style="fill: none; stroke: #000000; stroke-width: 0.8; stroke-linejoin: miter; stroke-linecap: square"/>
   </g>
   <g id="text_42">
    <!-- Value -->
    <g transform="translate(507.17875 10.637812)scale(0.14 -0.14)">
     <use xlink:href="#DejaVuSans-56"/>
     <use xlink:href="#DejaVuSans-61" x="60.658203"/>
     <use xlink:href="#DejaVuSans-6c" x="121.9375"/>
     <use xlink:href="#DejaVuSans-75" x="149.720703"/>
     <use xlink:href="#DejaVuSans-65" x="213.099609"/>
    </g>
   </g>
   <g id="legend_2">
    <g id="patch_13">
     <path d="M 589.871985 98.028437 
L 664.990735 98.028437 
Q 666.990735 98.028437 666.990735 96.028437 
L 666.990735 23.637812 
Q 666.990735 21.637812 664.990735 21.637812 
L 589.871985 21.637812 
Q 587.871985 21.637812 587.871985 23.637812 
L 587.871985 96.028437 
Q 587.871985 98.028437 589.871985 98.028437 
z
" style="fill: #ffffff; opacity: 0.8; stroke: #cccccc; stroke-linejoin: miter"/>
    </g>
    <g id="line2d_47">
     <path d="M 591.871985 29.73625 
L 601.871985 29.73625 
L 611.871985 29.73625 
" style="fill: none; stroke: #ff0000; stroke-width: 2; stroke-linecap: square"/>
    </g>
    <g id="text_43">
     <!-- Stan -->
     <g transform="translate(619.871985 33.23625)scale(0.1 -0.1)">
      <use xlink:href="#DejaVuSans-53"/>
      <use xlink:href="#DejaVuSans-74" x="63.476562"/>
      <use xlink:href="#DejaVuSans-61" x="102.685547"/>
      <use xlink:href="#DejaVuSans-6e" x="163.964844"/>
     </g>
    </g>
    <g id="line2d_48">
     <path d="M 591.871985 44.414375 
L 601.871985 44.414375 
L 611.871985 44.414375 
" style="fill: none; stroke: #000000; stroke-width: 2; stroke-linecap: square"/>
    </g>
    <g id="text_44">
     <!-- tanh -->
     <g transform="translate(619.871985 47.914375)scale(0.1 -0.1)">
      <use xlink:href="#DejaVuSans-74"/>
      <use xlink:href="#DejaVuSans-61" x="39.208984"/>
      <use xlink:href="#DejaVuSans-6e" x="100.488281"/>
      <use xlink:href="#DejaVuSans-68" x="163.867188"/>
     </g>
    </g>
    <g id="line2d_49">
     <path d="M 591.871985 59.0925 
L 601.871985 59.0925 
L 611.871985 59.0925 
" style="fill: none; stroke-dasharray: 7.4,3.2; stroke-dashoffset: 0; stroke: #0000ff; stroke-width: 2"/>
    </g>
    <g id="text_45">
     <!-- tanh(AF) -->
     <g transform="translate(619.871985 62.5925)scale(0.1 -0.1)">
      <use xlink:href="#DejaVuSans-74"/>
      <use xlink:href="#DejaVuSans-61" x="39.208984"/>
      <use xlink:href="#DejaVuSans-6e" x="100.488281"/>
      <use xlink:href="#DejaVuSans-68" x="163.867188"/>
      <use xlink:href="#DejaVuSans-28" x="227.246094"/>
      <use xlink:href="#DejaVuSans-41" x="266.259766"/>
      <use xlink:href="#DejaVuSans-46" x="334.667969"/>
      <use xlink:href="#DejaVuSans-29" x="392.1875"/>
     </g>
    </g>
    <g id="line2d_50">
     <path d="M 591.871985 73.770625 
L 601.871985 73.770625 
L 611.871985 73.770625 
" style="fill: none; stroke-dasharray: 2,3.3; stroke-dashoffset: 0; stroke: #008000; stroke-width: 2"/>
    </g>
    <g id="text_46">
     <!-- Swish -->
     <g transform="translate(619.871985 77.270625)scale(0.1 -0.1)">
      <use xlink:href="#DejaVuSans-53"/>
      <use xlink:href="#DejaVuSans-77" x="63.476562"/>
      <use xlink:href="#DejaVuSans-69" x="145.263672"/>
      <use xlink:href="#DejaVuSans-73" x="173.046875"/>
      <use xlink:href="#DejaVuSans-68" x="225.146484"/>
     </g>
    </g>
    <g id="line2d_51">
     <path d="M 591.871985 88.44875 
L 601.871985 88.44875 
L 611.871985 88.44875 
" style="fill: none; stroke-dasharray: 12.8,3.2,2,3.2; stroke-dashoffset: 0; stroke: #00bfbf; stroke-width: 2"/>
    </g>
    <g id="text_47">
     <!-- Rowdy -->
     <g transform="translate(619.871985 91.94875)scale(0.1 -0.1)">
      <use xlink:href="#DejaVuSans-52"/>
      <use xlink:href="#DejaVuSans-6f" x="64.982422"/>
      <use xlink:href="#DejaVuSans-77" x="126.164062"/>
      <use xlink:href="#DejaVuSans-64" x="207.951172"/>
      <use xlink:href="#DejaVuSans-79" x="271.427734"/>
     </g>
    </g>
   </g>
  </g>
  <g id="axes_3">
   <g id="patch_14">
    <path d="M 730.226029 238.397812 
L 1021.4025 238.397812 
L 1021.4025 16.637812 
L 730.226029 16.637812 
L 730.226029 238.397812 
z
" style="fill: none"/>
   </g>
   <g id="matplotlib.axis_5">
    <g id="xtick_19">
     <g id="line2d_52">
      <g>
       <use xlink:href="#mca6c339a37" x="730.226029" y="238.397812" style="stroke: #000000; stroke-width: 0.8"/>
      </g>
     </g>
     <g id="text_48">
      <!-- 0 -->
      <g transform="translate(727.044779 252.99625)scale(0.1 -0.1)">
       <use xlink:href="#DejaVuSans-30"/>
      </g>
     </g>
    </g>
    <g id="xtick_20">
     <g id="line2d_53">
      <g>
       <use xlink:href="#mca6c339a37" x="766.623088" y="238.397812" style="stroke: #000000; stroke-width: 0.8"/>
      </g>
     </g>
     <g id="text_49">
      <!-- 25 -->
      <g transform="translate(760.260588 252.99625)scale(0.1 -0.1)">
       <use xlink:href="#DejaVuSans-32"/>
       <use xlink:href="#DejaVuSans-35" x="63.623047"/>
      </g>
     </g>
    </g>
    <g id="xtick_21">
     <g id="line2d_54">
      <g>
       <use xlink:href="#mca6c339a37" x="803.020147" y="238.397812" style="stroke: #000000; stroke-width: 0.8"/>
      </g>
     </g>
     <g id="text_50">
      <!-- 50 -->
      <g transform="translate(796.657647 252.99625)scale(0.1 -0.1)">
       <use xlink:href="#DejaVuSans-35"/>
       <use xlink:href="#DejaVuSans-30" x="63.623047"/>
      </g>
     </g>
    </g>
    <g id="xtick_22">
     <g id="line2d_55">
      <g>
       <use xlink:href="#mca6c339a37" x="839.417206" y="238.397812" style="stroke: #000000; stroke-width: 0.8"/>
      </g>
     </g>
     <g id="text_51">
      <!-- 75 -->
      <g transform="translate(833.054706 252.99625)scale(0.1 -0.1)">
       <use xlink:href="#DejaVuSans-37"/>
       <use xlink:href="#DejaVuSans-35" x="63.623047"/>
      </g>
     </g>
    </g>
    <g id="xtick_23">
     <g id="line2d_56">
      <g>
       <use xlink:href="#mca6c339a37" x="875.814265" y="238.397812" style="stroke: #000000; stroke-width: 0.8"/>
      </g>
     </g>
     <g id="text_52">
      <!-- 100 -->
      <g transform="translate(866.270515 252.99625)scale(0.1 -0.1)">
       <use xlink:href="#DejaVuSans-31"/>
       <use xlink:href="#DejaVuSans-30" x="63.623047"/>
       <use xlink:href="#DejaVuSans-30" x="127.246094"/>
      </g>
     </g>
    </g>
    <g id="xtick_24">
     <g id="line2d_57">
      <g>
       <use xlink:href="#mca6c339a37" x="912.211324" y="238.397812" style="stroke: #000000; stroke-width: 0.8"/>
      </g>
     </g>
     <g id="text_53">
      <!-- 125 -->
      <g transform="translate(902.667574 252.99625)scale(0.1 -0.1)">
       <use xlink:href="#DejaVuSans-31"/>
       <use xlink:href="#DejaVuSans-32" x="63.623047"/>
       <use xlink:href="#DejaVuSans-35" x="127.246094"/>
      </g>
     </g>
    </g>
    <g id="xtick_25">
     <g id="line2d_58">
      <g>
       <use xlink:href="#mca6c339a37" x="948.608382" y="238.397812" style="stroke: #000000; stroke-width: 0.8"/>
      </g>
     </g>
     <g id="text_54">
      <!-- 150 -->
      <g transform="translate(939.064632 252.99625)scale(0.1 -0.1)">
       <use xlink:href="#DejaVuSans-31"/>
       <use xlink:href="#DejaVuSans-35" x="63.623047"/>
       <use xlink:href="#DejaVuSans-30" x="127.246094"/>
      </g>
     </g>
    </g>
    <g id="xtick_26">
     <g id="line2d_59">
      <g>
       <use xlink:href="#mca6c339a37" x="985.005441" y="238.397812" style="stroke: #000000; stroke-width: 0.8"/>
      </g>
     </g>
     <g id="text_55">
      <!-- 175 -->
      <g transform="translate(975.461691 252.99625)scale(0.1 -0.1)">
       <use xlink:href="#DejaVuSans-31"/>
       <use xlink:href="#DejaVuSans-37" x="63.623047"/>
       <use xlink:href="#DejaVuSans-35" x="127.246094"/>
      </g>
     </g>
    </g>
    <g id="xtick_27">
     <g id="line2d_60">
      <g>
       <use xlink:href="#mca6c339a37" x="1021.4025" y="238.397812" style="stroke: #000000; stroke-width: 0.8"/>
      </g>
     </g>
     <g id="text_56">
      <!-- 200 -->
      <g transform="translate(1011.85875 252.99625)scale(0.1 -0.1)">
       <use xlink:href="#DejaVuSans-32"/>
       <use xlink:href="#DejaVuSans-30" x="63.623047"/>
       <use xlink:href="#DejaVuSans-30" x="127.246094"/>
      </g>
     </g>
    </g>
    <g id="text_57">
     <!-- Epochs -->
     <g transform="translate(854.315515 268.194062)scale(0.12 -0.12)">
      <use xlink:href="#DejaVuSans-45"/>
      <use xlink:href="#DejaVuSans-70" x="63.183594"/>
      <use xlink:href="#DejaVuSans-6f" x="126.660156"/>
      <use xlink:href="#DejaVuSans-63" x="187.841797"/>
      <use xlink:href="#DejaVuSans-68" x="242.822266"/>
      <use xlink:href="#DejaVuSans-73" x="306.201172"/>
     </g>
    </g>
   </g>
   <g id="matplotlib.axis_6">
    <g id="ytick_14">
     <g id="line2d_61">
      <g>
       <use xlink:href="#m4b0b590913" x="730.226029" y="196.306458" style="stroke: #000000; stroke-width: 0.8"/>
      </g>
     </g>
     <g id="text_58">
      <!-- $\mathdefault{10^{-4}}$ -->
      <g transform="translate(699.726029 200.105677)scale(0.1 -0.1)">
       <use xlink:href="#DejaVuSans-31" transform="translate(0 0.684375)"/>
       <use xlink:href="#DejaVuSans-30" transform="translate(63.623047 0.684375)"/>
       <use xlink:href="#DejaVuSans-2212" transform="translate(128.203125 38.965625)scale(0.7)"/>
       <use xlink:href="#DejaVuSans-34" transform="translate(186.855469 38.965625)scale(0.7)"/>
      </g>
     </g>
    </g>
    <g id="ytick_15">
     <g id="line2d_62">
      <g>
       <use xlink:href="#m4b0b590913" x="730.226029" y="147.177356" style="stroke: #000000; stroke-width: 0.8"/>
      </g>
     </g>
     <g id="text_59">
      <!-- $\mathdefault{10^{-3}}$ -->
      <g transform="translate(699.726029 150.976574)scale(0.1 -0.1)">
       <use xlink:href="#DejaVuSans-31" transform="translate(0 0.765625)"/>
       <use xlink:href="#DejaVuSans-30" transform="translate(63.623047 0.765625)"/>
       <use xlink:href="#DejaVuSans-2212" transform="translate(128.203125 39.046875)scale(0.7)"/>
       <use xlink:href="#DejaVuSans-33" transform="translate(186.855469 39.046875)scale(0.7)"/>
      </g>
     </g>
    </g>
    <g id="ytick_16">
     <g id="line2d_63">
      <g>
       <use xlink:href="#m4b0b590913" x="730.226029" y="98.048253" style="stroke: #000000; stroke-width: 0.8"/>
      </g>
     </g>
     <g id="text_60">
      <!-- $\mathdefault{10^{-2}}$ -->
      <g transform="translate(699.726029 101.847472)scale(0.1 -0.1)">
       <use xlink:href="#DejaVuSans-31" transform="translate(0 0.765625)"/>
       <use xlink:href="#DejaVuSans-30" transform="translate(63.623047 0.765625)"/>
       <use xlink:href="#DejaVuSans-2212" transform="translate(128.203125 39.046875)scale(0.7)"/>
       <use xlink:href="#DejaVuSans-32" transform="translate(186.855469 39.046875)scale(0.7)"/>
      </g>
     </g>
    </g>
    <g id="ytick_17">
     <g id="line2d_64">
      <g>
       <use xlink:href="#m4b0b590913" x="730.226029" y="48.919151" style="stroke: #000000; stroke-width: 0.8"/>
      </g>
     </g>
     <g id="text_61">
      <!-- $\mathdefault{10^{-1}}$ -->
      <g transform="translate(699.726029 52.71837)scale(0.1 -0.1)">
       <use xlink:href="#DejaVuSans-31" transform="translate(0 0.684375)"/>
       <use xlink:href="#DejaVuSans-30" transform="translate(63.623047 0.684375)"/>
       <use xlink:href="#DejaVuSans-2212" transform="translate(128.203125 38.965625)scale(0.7)"/>
       <use xlink:href="#DejaVuSans-31" transform="translate(186.855469 38.965625)scale(0.7)"/>
      </g>
     </g>
    </g>
    <g id="ytick_18">
     <g id="line2d_65">
      <defs>
       <path id="mb00a3d63ea" d="M 0 0 
L -2 0 
" style="stroke: #000000; stroke-width: 0.6"/>
      </defs>
      <g>
       <use xlink:href="#mb00a3d63ea" x="730.226029" y="230.646227" style="stroke: #000000; stroke-width: 0.6"/>
      </g>
     </g>
    </g>
    <g id="ytick_19">
     <g id="line2d_66">
      <g>
       <use xlink:href="#mb00a3d63ea" x="730.226029" y="221.995021" style="stroke: #000000; stroke-width: 0.6"/>
      </g>
     </g>
    </g>
    <g id="ytick_20">
     <g id="line2d_67">
      <g>
       <use xlink:href="#mb00a3d63ea" x="730.226029" y="215.856893" style="stroke: #000000; stroke-width: 0.6"/>
      </g>
     </g>
    </g>
    <g id="ytick_21">
     <g id="line2d_68">
      <g>
       <use xlink:href="#mb00a3d63ea" x="730.226029" y="211.095791" style="stroke: #000000; stroke-width: 0.6"/>
      </g>
     </g>
    </g>
    <g id="ytick_22">
     <g id="line2d_69">
      <g>
       <use xlink:href="#mb00a3d63ea" x="730.226029" y="207.205688" style="stroke: #000000; stroke-width: 0.6"/>
      </g>
     </g>
    </g>
    <g id="ytick_23">
     <g id="line2d_70">
      <g>
       <use xlink:href="#mb00a3d63ea" x="730.226029" y="203.916652" style="stroke: #000000; stroke-width: 0.6"/>
      </g>
     </g>
    </g>
    <g id="ytick_24">
     <g id="line2d_71">
      <g>
       <use xlink:href="#mb00a3d63ea" x="730.226029" y="201.06756" style="stroke: #000000; stroke-width: 0.6"/>
      </g>
     </g>
    </g>
    <g id="ytick_25">
     <g id="line2d_72">
      <g>
       <use xlink:href="#mb00a3d63ea" x="730.226029" y="198.554482" style="stroke: #000000; stroke-width: 0.6"/>
      </g>
     </g>
    </g>
    <g id="ytick_26">
     <g id="line2d_73">
      <g>
       <use xlink:href="#mb00a3d63ea" x="730.226029" y="181.517124" style="stroke: #000000; stroke-width: 0.6"/>
      </g>
     </g>
    </g>
    <g id="ytick_27">
     <g id="line2d_74">
      <g>
       <use xlink:href="#mb00a3d63ea" x="730.226029" y="172.865919" style="stroke: #000000; stroke-width: 0.6"/>
      </g>
     </g>
    </g>
    <g id="ytick_28">
     <g id="line2d_75">
      <g>
       <use xlink:href="#mb00a3d63ea" x="730.226029" y="166.727791" style="stroke: #000000; stroke-width: 0.6"/>
      </g>
     </g>
    </g>
    <g id="ytick_29">
     <g id="line2d_76">
      <g>
       <use xlink:href="#mb00a3d63ea" x="730.226029" y="161.966689" style="stroke: #000000; stroke-width: 0.6"/>
      </g>
     </g>
    </g>
    <g id="ytick_30">
     <g id="line2d_77">
      <g>
       <use xlink:href="#mb00a3d63ea" x="730.226029" y="158.076586" style="stroke: #000000; stroke-width: 0.6"/>
      </g>
     </g>
    </g>
    <g id="ytick_31">
     <g id="line2d_78">
      <g>
       <use xlink:href="#mb00a3d63ea" x="730.226029" y="154.78755" style="stroke: #000000; stroke-width: 0.6"/>
      </g>
     </g>
    </g>
    <g id="ytick_32">
     <g id="line2d_79">
      <g>
       <use xlink:href="#mb00a3d63ea" x="730.226029" y="151.938458" style="stroke: #000000; stroke-width: 0.6"/>
      </g>
     </g>
    </g>
    <g id="ytick_33">
     <g id="line2d_80">
      <g>
       <use xlink:href="#mb00a3d63ea" x="730.226029" y="149.42538" style="stroke: #000000; stroke-width: 0.6"/>
      </g>
     </g>
    </g>
    <g id="ytick_34">
     <g id="line2d_81">
      <g>
       <use xlink:href="#mb00a3d63ea" x="730.226029" y="132.388022" style="stroke: #000000; stroke-width: 0.6"/>
      </g>
     </g>
    </g>
    <g id="ytick_35">
     <g id="line2d_82">
      <g>
       <use xlink:href="#mb00a3d63ea" x="730.226029" y="123.736817" style="stroke: #000000; stroke-width: 0.6"/>
      </g>
     </g>
    </g>
    <g id="ytick_36">
     <g id="line2d_83">
      <g>
       <use xlink:href="#mb00a3d63ea" x="730.226029" y="117.598689" style="stroke: #000000; stroke-width: 0.6"/>
      </g>
     </g>
    </g>
    <g id="ytick_37">
     <g id="line2d_84">
      <g>
       <use xlink:href="#mb00a3d63ea" x="730.226029" y="112.837587" style="stroke: #000000; stroke-width: 0.6"/>
      </g>
     </g>
    </g>
    <g id="ytick_38">
     <g id="line2d_85">
      <g>
       <use xlink:href="#mb00a3d63ea" x="730.226029" y="108.947483" style="stroke: #000000; stroke-width: 0.6"/>
      </g>
     </g>
    </g>
    <g id="ytick_39">
     <g id="line2d_86">
      <g>
       <use xlink:href="#mb00a3d63ea" x="730.226029" y="105.658448" style="stroke: #000000; stroke-width: 0.6"/>
      </g>
     </g>
    </g>
    <g id="ytick_40">
     <g id="line2d_87">
      <g>
       <use xlink:href="#mb00a3d63ea" x="730.226029" y="102.809355" style="stroke: #000000; stroke-width: 0.6"/>
      </g>
     </g>
    </g>
    <g id="ytick_41">
     <g id="line2d_88">
      <g>
       <use xlink:href="#mb00a3d63ea" x="730.226029" y="100.296278" style="stroke: #000000; stroke-width: 0.6"/>
      </g>
     </g>
    </g>
    <g id="ytick_42">
     <g id="line2d_89">
      <g>
       <use xlink:href="#mb00a3d63ea" x="730.226029" y="83.25892" style="stroke: #000000; stroke-width: 0.6"/>
      </g>
     </g>
    </g>
    <g id="ytick_43">
     <g id="line2d_90">
      <g>
       <use xlink:href="#mb00a3d63ea" x="730.226029" y="74.607714" style="stroke: #000000; stroke-width: 0.6"/>
      </g>
     </g>
    </g>
    <g id="ytick_44">
     <g id="line2d_91">
      <g>
       <use xlink:href="#mb00a3d63ea" x="730.226029" y="68.469587" style="stroke: #000000; stroke-width: 0.6"/>
      </g>
     </g>
    </g>
    <g id="ytick_45">
     <g id="line2d_92">
      <g>
       <use xlink:href="#mb00a3d63ea" x="730.226029" y="63.708485" style="stroke: #000000; stroke-width: 0.6"/>
      </g>
     </g>
    </g>
    <g id="ytick_46">
     <g id="line2d_93">
      <g>
       <use xlink:href="#mb00a3d63ea" x="730.226029" y="59.818381" style="stroke: #000000; stroke-width: 0.6"/>
      </g>
     </g>
    </g>
    <g id="ytick_47">
     <g id="line2d_94">
      <g>
       <use xlink:href="#mb00a3d63ea" x="730.226029" y="56.529345" style="stroke: #000000; stroke-width: 0.6"/>
      </g>
     </g>
    </g>
    <g id="ytick_48">
     <g id="line2d_95">
      <g>
       <use xlink:href="#mb00a3d63ea" x="730.226029" y="53.680253" style="stroke: #000000; stroke-width: 0.6"/>
      </g>
     </g>
    </g>
    <g id="ytick_49">
     <g id="line2d_96">
      <g>
       <use xlink:href="#mb00a3d63ea" x="730.226029" y="51.167176" style="stroke: #000000; stroke-width: 0.6"/>
      </g>
     </g>
    </g>
    <g id="ytick_50">
     <g id="line2d_97">
      <g>
       <use xlink:href="#mb00a3d63ea" x="730.226029" y="34.129818" style="stroke: #000000; stroke-width: 0.6"/>
      </g>
     </g>
    </g>
    <g id="ytick_51">
     <g id="line2d_98">
      <g>
       <use xlink:href="#mb00a3d63ea" x="730.226029" y="25.478612" style="stroke: #000000; stroke-width: 0.6"/>
      </g>
     </g>
    </g>
    <g id="ytick_52">
     <g id="line2d_99">
      <g>
       <use xlink:href="#mb00a3d63ea" x="730.226029" y="19.340484" style="stroke: #000000; stroke-width: 0.6"/>
      </g>
     </g>
    </g>
    <g id="text_62">
     <!-- $\log|\hat{k}-k^{*}$| -->
     <g transform="translate(692.846029 157.757812)rotate(-90)scale(0.12 -0.12)">
      <defs>
       <path id="DejaVuSans-67" d="M 2906 1791 
Q 2906 2416 2648 2759 
Q 2391 3103 1925 3103 
Q 1463 3103 1205 2759 
Q 947 2416 947 1791 
Q 947 1169 1205 825 
Q 1463 481 1925 481 
Q 2391 481 2648 825 
Q 2906 1169 2906 1791 
z
M 3481 434 
Q 3481 -459 3084 -895 
Q 2688 -1331 1869 -1331 
Q 1566 -1331 1297 -1286 
Q 1028 -1241 775 -1147 
L 775 -588 
Q 1028 -725 1275 -790 
Q 1522 -856 1778 -856 
Q 2344 -856 2625 -561 
Q 2906 -266 2906 331 
L 2906 616 
Q 2728 306 2450 153 
Q 2172 0 1784 0 
Q 1141 0 747 490 
Q 353 981 353 1791 
Q 353 2603 747 3093 
Q 1141 3584 1784 3584 
Q 2172 3584 2450 3431 
Q 2728 3278 2906 2969 
L 2906 3500 
L 3481 3500 
L 3481 434 
z
" transform="scale(0.015625)"/>
       <path id="DejaVuSans-Oblique-6b" d="M 1172 4863 
L 1747 4863 
L 1197 2028 
L 3169 3500 
L 3916 3500 
L 1716 1825 
L 3322 0 
L 2625 0 
L 1131 1709 
L 800 0 
L 225 0 
L 1172 4863 
z
" transform="scale(0.015625)"/>
      </defs>
      <use xlink:href="#DejaVuSans-6c" transform="translate(0 0.53125)"/>
      <use xlink:href="#DejaVuSans-6f" transform="translate(27.783203 0.53125)"/>
      <use xlink:href="#DejaVuSans-67" transform="translate(88.964844 0.53125)"/>
      <use xlink:href="#DejaVuSans-7c" transform="translate(152.441406 0.53125)"/>
      <use xlink:href="#DejaVuSans-302" transform="translate(247.188477 33.015625)"/>
      <use xlink:href="#DejaVuSans-Oblique-6b" transform="translate(186.132812 0.53125)"/>
      <use xlink:href="#DejaVuSans-2212" transform="translate(263.525391 0.53125)"/>
      <use xlink:href="#DejaVuSans-Oblique-6b" transform="translate(366.796875 0.53125)"/>
      <use xlink:href="#DejaVuSans-2a" transform="translate(432.15474 38.8125)scale(0.7)"/>
      <use xlink:href="#DejaVuSans-7c" transform="translate(469.889115 0.53125)"/>
     </g>
    </g>
   </g>
   <g id="line2d_100">
    <path d="M 730.226029 46.793418 
L 731.681912 81.535005 
L 733.137794 82.133627 
L 734.593676 83.094312 
L 736.049559 88.739658 
L 737.505441 106.818927 
L 738.961324 129.613774 
L 740.417206 134.904614 
L 741.873088 114.319243 
L 743.328971 113.284609 
L 744.784853 113.224284 
L 746.240735 111.150596 
L 749.1525 110.542648 
L 750.608382 110.504072 
L 752.064265 111.263141 
L 753.520147 111.58271 
L 754.976029 111.677765 
L 756.431912 112.738721 
L 757.887794 113.016115 
L 759.343676 112.566627 
L 762.255441 113.304064 
L 763.711324 113.428911 
L 765.167206 112.921575 
L 766.623088 113.875816 
L 768.078971 113.782939 
L 769.534853 113.052959 
L 770.990735 114.900785 
L 772.446618 115.411572 
L 773.9025 115.230567 
L 775.358382 116.260251 
L 778.270147 116.853587 
L 779.726029 117.952215 
L 781.181912 118.257086 
L 784.093676 119.938838 
L 785.549559 121.157338 
L 788.461324 124.712973 
L 789.917206 125.524875 
L 791.373088 127.406264 
L 792.828971 127.525901 
L 794.284853 128.700268 
L 795.740735 129.0216 
L 797.196618 130.354374 
L 798.6525 131.259529 
L 800.108382 131.931509 
L 801.564265 132.738619 
L 803.020147 134.239757 
L 805.931912 136.344241 
L 807.387794 136.926723 
L 808.843676 138.88461 
L 810.299559 139.667085 
L 811.755441 142.015875 
L 813.211324 141.06368 
L 814.667206 143.35514 
L 816.123088 143.987727 
L 817.578971 145.780305 
L 819.034853 148.458136 
L 820.490735 148.249003 
L 821.946618 152.167391 
L 823.4025 152.885005 
L 824.858382 154.815879 
L 826.314265 157.534558 
L 827.770147 157.51713 
L 829.226029 159.537315 
L 830.681912 162.654998 
L 832.137794 160.898725 
L 833.593676 162.189528 
L 835.049559 164.098138 
L 836.505441 165.385296 
L 839.417206 173.960367 
L 840.873088 179.893658 
L 842.328971 181.619045 
L 843.784853 188.662863 
L 845.240735 188.240431 
L 846.696618 188.151298 
L 848.1525 199.355287 
L 849.608382 207.373432 
L 851.064265 203.858234 
L 853.976029 207.692922 
L 855.431912 206.064526 
L 856.887794 207.80912 
L 858.343676 202.632902 
L 859.799559 203.22454 
L 862.711324 200.109343 
L 864.167206 202.471797 
L 865.623088 205.727212 
L 867.078971 206.445896 
L 868.534853 202.013821 
L 869.990735 200.55133 
L 871.446618 207.964011 
L 872.9025 207.913625 
L 874.358382 206.136224 
L 875.814265 207.677003 
L 877.270147 206.150089 
L 878.726029 205.867345 
L 880.181912 210.064413 
L 881.637794 208.200733 
L 883.093676 208.4061 
L 884.549559 208.281041 
L 886.005441 207.843216 
L 887.461324 208.165715 
L 888.917206 208.230248 
L 890.373088 208.965886 
L 891.828971 211.421405 
L 893.284853 211.945938 
L 894.740735 207.918419 
L 896.196618 209.558498 
L 897.6525 210.803742 
L 899.108382 213.693475 
L 900.564265 220.334082 
L 902.020147 217.00639 
L 903.476029 223.235411 
L 904.931912 223.870263 
L 906.387794 221.067779 
L 907.843676 223.261401 
L 909.299559 223.716052 
L 910.755441 222.472093 
L 912.211324 221.656764 
L 913.667206 220.177788 
L 915.123088 221.705063 
L 916.578971 222.633914 
L 918.034853 221.758057 
L 919.490735 219.899792 
L 920.946618 221.940944 
L 922.4025 221.874976 
L 923.858382 221.272335 
L 925.314265 220.395447 
L 926.770147 218.328368 
L 928.226029 217.847438 
L 929.681912 222.168775 
L 932.593676 216.838237 
L 934.049559 218.70994 
L 935.505441 221.000659 
L 936.961324 222.195503 
L 938.417206 222.55489 
L 939.873088 219.490062 
L 941.328971 219.210943 
L 942.784853 220.411431 
L 944.240735 220.228946 
L 945.696618 221.974004 
L 947.1525 225.480861 
L 948.608382 224.196017 
L 951.520147 224.145407 
L 952.976029 224.508185 
L 954.431912 226.643654 
L 955.887794 226.680749 
L 957.343676 227.572865 
L 958.799559 227.876978 
L 960.255441 225.146565 
L 961.711324 225.33861 
L 963.167206 225.040106 
L 964.623088 224.101496 
L 966.078971 225.145029 
L 967.534853 225.077574 
L 968.990735 222.827254 
L 970.446618 223.331805 
L 971.9025 224.449397 
L 973.358382 225.17653 
L 974.814265 228.317812 
L 976.270147 228.256433 
L 977.726029 227.701433 
L 979.181912 226.948081 
L 980.637794 226.891347 
L 983.549559 227.225576 
L 985.005441 226.800717 
L 986.461324 227.03934 
L 987.917206 227.695375 
L 989.373088 224.567134 
L 990.828971 224.467239 
L 992.284853 225.089057 
L 993.740735 224.496265 
L 995.196618 225.16039 
L 996.6525 224.78494 
L 998.108382 224.578346 
L 999.564265 225.634278 
L 1002.476029 225.355661 
L 1003.931912 227.131833 
L 1005.387794 227.903173 
L 1006.843676 227.130148 
L 1008.299559 227.946027 
L 1009.755441 225.894304 
L 1011.211324 225.135051 
L 1012.667206 225.354886 
L 1014.123088 226.057943 
L 1015.578971 226.964797 
L 1017.034853 226.778327 
L 1018.490735 227.311232 
L 1019.946618 226.406134 
L 1019.946618 226.406134 
" clip-path="url(#pf61bafe6b0)" style="fill: none; stroke: #ff0000; stroke-width: 2; stroke-linecap: square"/>
   </g>
   <g id="line2d_101">
    <path d="M 730.226029 41.124479 
L 731.681912 73.055556 
L 733.137794 71.607692 
L 734.593676 71.771241 
L 736.049559 71.330712 
L 737.505441 71.700598 
L 738.961324 71.14068 
L 740.417206 74.828552 
L 741.873088 68.674522 
L 743.328971 73.940694 
L 744.784853 72.716427 
L 746.240735 76.254284 
L 747.696618 74.747405 
L 749.1525 75.868024 
L 750.608382 76.400023 
L 752.064265 73.814175 
L 753.520147 75.183965 
L 754.976029 72.464113 
L 756.431912 71.823451 
L 757.887794 72.595389 
L 759.343676 72.178768 
L 760.799559 70.657395 
L 762.255441 70.569973 
L 763.711324 70.348126 
L 765.167206 71.29303 
L 766.623088 72.450703 
L 773.9025 73.260234 
L 775.358382 73.286726 
L 776.814265 73.149329 
L 779.726029 73.196891 
L 782.637794 73.134705 
L 785.549559 73.126457 
L 788.461324 73.072882 
L 807.387794 73.075269 
L 1019.946618 73.075269 
L 1019.946618 73.075269 
" clip-path="url(#pf61bafe6b0)" style="fill: none; stroke: #000000; stroke-width: 2; stroke-linecap: square"/>
   </g>
   <g id="line2d_102">
    <path d="M 730.226029 30.470581 
L 731.681912 71.68729 
L 733.137794 71.550473 
L 734.593676 71.564036 
L 736.049559 71.272902 
L 737.505441 73.93675 
L 738.961324 70.371219 
L 740.417206 72.130726 
L 741.873088 72.033977 
L 743.328971 72.817648 
L 744.784853 71.90766 
L 746.240735 71.449682 
L 747.696618 71.930738 
L 749.1525 71.813147 
L 750.608382 71.380874 
L 753.520147 72.033644 
L 754.976029 71.655211 
L 756.431912 71.65492 
L 757.887794 71.817991 
L 759.343676 71.603392 
L 760.799559 71.74352 
L 762.255441 71.717682 
L 763.711324 71.518292 
L 765.167206 71.747908 
L 768.078971 71.678581 
L 775.358382 71.689675 
L 776.814265 71.81086 
L 779.726029 71.643872 
L 782.637794 71.692249 
L 797.196618 71.700917 
L 1019.946618 71.700917 
L 1019.946618 71.700917 
" clip-path="url(#pf61bafe6b0)" style="fill: none; stroke-dasharray: 7.4,3.2; stroke-dashoffset: 0; stroke: #0000ff; stroke-width: 2"/>
   </g>
   <g id="line2d_103">
    <path d="M 730.226029 26.717813 
L 731.681912 91.30951 
L 733.137794 89.277878 
L 734.593676 81.145625 
L 736.049559 84.627608 
L 737.505441 91.718644 
L 738.961324 105.082419 
L 740.417206 140.257005 
L 741.873088 115.837763 
L 743.328971 109.345125 
L 744.784853 111.251131 
L 746.240735 110.395296 
L 747.696618 111.010359 
L 749.1525 109.277166 
L 750.608382 113.628523 
L 753.520147 111.474804 
L 754.976029 111.897518 
L 756.431912 109.602981 
L 757.887794 110.949833 
L 759.343676 113.170671 
L 760.799559 113.996774 
L 762.255441 113.972666 
L 763.711324 113.649407 
L 765.167206 113.509178 
L 766.623088 113.790131 
L 768.078971 114.555015 
L 769.534853 114.5255 
L 770.990735 115.407559 
L 772.446618 115.666025 
L 773.9025 115.559059 
L 775.358382 116.725476 
L 776.814265 116.823378 
L 778.270147 117.097375 
L 781.181912 116.995593 
L 782.637794 117.851762 
L 784.093676 118.010008 
L 785.549559 118.343739 
L 787.005441 119.191875 
L 789.917206 119.923012 
L 791.373088 120.998954 
L 792.828971 121.057796 
L 794.284853 121.8416 
L 795.740735 122.103482 
L 797.196618 122.072198 
L 798.6525 122.815276 
L 801.564265 123.442148 
L 803.020147 123.68271 
L 804.476029 124.776164 
L 805.931912 124.698972 
L 807.387794 125.207173 
L 808.843676 125.932548 
L 811.755441 125.934126 
L 813.211324 126.380129 
L 814.667206 126.2933 
L 817.578971 127.123187 
L 819.034853 127.83688 
L 820.490735 128.273019 
L 821.946618 128.439411 
L 824.858382 128.459084 
L 826.314265 128.814328 
L 829.226029 129.318348 
L 830.681912 129.75277 
L 832.137794 129.724395 
L 833.593676 130.428422 
L 835.049559 130.895355 
L 836.505441 131.185032 
L 837.961324 132.540997 
L 839.417206 132.308998 
L 840.873088 132.284167 
L 842.328971 132.503854 
L 843.784853 131.956995 
L 845.240735 132.674941 
L 846.696618 132.687251 
L 848.1525 134.198143 
L 849.608382 134.598625 
L 851.064265 134.6302 
L 852.520147 136.024749 
L 853.976029 136.560161 
L 855.431912 136.374029 
L 856.887794 135.832769 
L 858.343676 135.502559 
L 867.078971 135.917673 
L 871.446618 135.75767 
L 875.814265 136.037419 
L 877.270147 136.174824 
L 878.726029 136.015302 
L 881.637794 136.214799 
L 884.549559 136.158599 
L 887.461324 136.030452 
L 897.6525 135.942575 
L 900.564265 135.906082 
L 902.020147 136.047807 
L 952.976029 136.157117 
L 961.711324 136.183452 
L 979.181912 136.166722 
L 1006.843676 136.171372 
L 1019.946618 136.171372 
L 1019.946618 136.171372 
" clip-path="url(#pf61bafe6b0)" style="fill: none; stroke-dasharray: 2,3.3; stroke-dashoffset: 0; stroke: #008000; stroke-width: 2"/>
   </g>
   <g id="line2d_104">
    <path d="M 730.226029 156.260812 
L 731.681912 83.135734 
L 733.137794 65.467175 
L 734.593676 54.112208 
L 736.049559 47.95871 
L 738.961324 42.551353 
L 740.417206 43.235446 
L 741.873088 43.674104 
L 743.328971 43.867264 
L 744.784853 44.956905 
L 746.240735 45.561733 
L 747.696618 46.386106 
L 749.1525 45.981767 
L 750.608382 46.397124 
L 752.064265 48.985158 
L 753.520147 49.161274 
L 754.976029 50.163413 
L 756.431912 52.117103 
L 757.887794 54.288042 
L 759.343676 55.299122 
L 760.799559 54.98782 
L 762.255441 55.169004 
L 763.711324 55.843348 
L 765.167206 57.12993 
L 769.534853 57.605136 
L 770.990735 59.168155 
L 772.446618 60.095781 
L 773.9025 61.245594 
L 775.358382 61.4499 
L 776.814265 62.439393 
L 778.270147 63.686232 
L 779.726029 64.682618 
L 781.181912 64.858868 
L 782.637794 65.410814 
L 784.093676 66.725906 
L 785.549559 67.264544 
L 788.461324 68.493231 
L 789.917206 69.571076 
L 792.828971 73.956912 
L 794.284853 76.711208 
L 795.740735 78.074715 
L 797.196618 78.710314 
L 798.6525 80.773646 
L 800.108382 82.508605 
L 801.564265 82.73896 
L 803.020147 84.545506 
L 804.476029 85.280455 
L 805.931912 84.936585 
L 807.387794 84.875519 
L 808.843676 84.644135 
L 810.299559 84.559335 
L 811.755441 84.593174 
L 813.211324 84.924524 
L 814.667206 85.501565 
L 816.123088 85.904868 
L 819.034853 86.162633 
L 820.490735 85.801895 
L 821.946618 85.960376 
L 823.4025 85.938391 
L 824.858382 86.110208 
L 826.314265 86.450569 
L 827.770147 86.376499 
L 829.226029 86.687949 
L 830.681912 86.697192 
L 833.593676 87.401234 
L 835.049559 87.149864 
L 836.505441 87.18885 
L 837.961324 87.410683 
L 839.417206 86.861648 
L 840.873088 86.812879 
L 842.328971 86.896976 
L 843.784853 86.792913 
L 845.240735 86.990724 
L 848.1525 86.899665 
L 849.608382 87.24622 
L 851.064265 87.477032 
L 852.520147 87.53016 
L 853.976029 87.758904 
L 855.431912 87.794453 
L 862.711324 88.565916 
L 864.167206 88.600792 
L 865.623088 88.523341 
L 872.9025 89.009393 
L 874.358382 88.653897 
L 875.814265 88.879249 
L 877.270147 89.464453 
L 878.726029 89.274171 
L 880.181912 89.765447 
L 881.637794 89.501903 
L 883.093676 89.580046 
L 884.549559 89.777642 
L 888.917206 89.658059 
L 891.828971 89.438021 
L 896.196618 89.749696 
L 897.6525 89.862042 
L 899.108382 89.721214 
L 900.564265 89.890371 
L 902.020147 89.836506 
L 904.931912 90.188564 
L 906.387794 90.370729 
L 909.299559 90.245552 
L 913.667206 90.531527 
L 918.034853 90.683078 
L 919.490735 90.788286 
L 923.858382 90.828102 
L 926.770147 90.84884 
L 934.049559 90.920776 
L 935.505441 91.135763 
L 936.961324 91.059915 
L 941.328971 91.18391 
L 948.608382 91.271216 
L 951.520147 91.37486 
L 952.976029 91.354045 
L 954.431912 91.620377 
L 955.887794 91.595861 
L 958.799559 91.82894 
L 961.711324 92.048857 
L 964.623088 92.393581 
L 968.990735 92.521131 
L 974.814265 93.028428 
L 977.726029 93.261501 
L 1014.123088 93.375928 
L 1019.946618 93.375928 
L 1019.946618 93.375928 
" clip-path="url(#pf61bafe6b0)" style="fill: none; stroke-dasharray: 12.8,3.2,2,3.2; stroke-dashoffset: 0; stroke: #00bfbf; stroke-width: 2"/>
   </g>
   <g id="patch_15">
    <path d="M 730.226029 238.397812 
L 730.226029 16.637813 
" style="fill: none; stroke: #000000; stroke-width: 0.8; stroke-linejoin: miter; stroke-linecap: square"/>
   </g>
   <g id="patch_16">
    <path d="M 1021.4025 238.397812 
L 1021.4025 16.637813 
" style="fill: none; stroke: #000000; stroke-width: 0.8; stroke-linejoin: miter; stroke-linecap: square"/>
   </g>
   <g id="patch_17">
    <path d="M 730.226029 238.397812 
L 1021.4025 238.397812 
" style="fill: none; stroke: #000000; stroke-width: 0.8; stroke-linejoin: miter; stroke-linecap: square"/>
   </g>
   <g id="patch_18">
    <path d="M 730.226029 16.637812 
L 1021.4025 16.637812 
" style="fill: none; stroke: #000000; stroke-width: 0.8; stroke-linejoin: miter; stroke-linecap: square"/>
   </g>
   <g id="text_63">
    <!-- Value -->
    <g transform="translate(856.590515 10.637812)scale(0.14 -0.14)">
     <use xlink:href="#DejaVuSans-56"/>
     <use xlink:href="#DejaVuSans-61" x="60.658203"/>
     <use xlink:href="#DejaVuSans-6c" x="121.9375"/>
     <use xlink:href="#DejaVuSans-75" x="149.720703"/>
     <use xlink:href="#DejaVuSans-65" x="213.099609"/>
    </g>
   </g>
   <g id="legend_3">
    <g id="patch_19">
     <path d="M 939.28375 98.028437 
L 1014.4025 98.028437 
Q 1016.4025 98.028437 1016.4025 96.028437 
L 1016.4025 23.637812 
Q 1016.4025 21.637812 1014.4025 21.637812 
L 939.28375 21.637812 
Q 937.28375 21.637812 937.28375 23.637812 
L 937.28375 96.028437 
Q 937.28375 98.028437 939.28375 98.028437 
z
" style="fill: #ffffff; opacity: 0.8; stroke: #cccccc; stroke-linejoin: miter"/>
    </g>
    <g id="line2d_105">
     <path d="M 941.28375 29.73625 
L 951.28375 29.73625 
L 961.28375 29.73625 
" style="fill: none; stroke: #ff0000; stroke-width: 2; stroke-linecap: square"/>
    </g>
    <g id="text_64">
     <!-- Stan -->
     <g transform="translate(969.28375 33.23625)scale(0.1 -0.1)">
      <use xlink:href="#DejaVuSans-53"/>
      <use xlink:href="#DejaVuSans-74" x="63.476562"/>
      <use xlink:href="#DejaVuSans-61" x="102.685547"/>
      <use xlink:href="#DejaVuSans-6e" x="163.964844"/>
     </g>
    </g>
    <g id="line2d_106">
     <path d="M 941.28375 44.414375 
L 951.28375 44.414375 
L 961.28375 44.414375 
" style="fill: none; stroke: #000000; stroke-width: 2; stroke-linecap: square"/>
    </g>
    <g id="text_65">
     <!-- tanh -->
     <g transform="translate(969.28375 47.914375)scale(0.1 -0.1)">
      <use xlink:href="#DejaVuSans-74"/>
      <use xlink:href="#DejaVuSans-61" x="39.208984"/>
      <use xlink:href="#DejaVuSans-6e" x="100.488281"/>
      <use xlink:href="#DejaVuSans-68" x="163.867188"/>
     </g>
    </g>
    <g id="line2d_107">
     <path d="M 941.28375 59.0925 
L 951.28375 59.0925 
L 961.28375 59.0925 
" style="fill: none; stroke-dasharray: 7.4,3.2; stroke-dashoffset: 0; stroke: #0000ff; stroke-width: 2"/>
    </g>
    <g id="text_66">
     <!-- tanh(AF) -->
     <g transform="translate(969.28375 62.5925)scale(0.1 -0.1)">
      <use xlink:href="#DejaVuSans-74"/>
      <use xlink:href="#DejaVuSans-61" x="39.208984"/>
      <use xlink:href="#DejaVuSans-6e" x="100.488281"/>
      <use xlink:href="#DejaVuSans-68" x="163.867188"/>
      <use xlink:href="#DejaVuSans-28" x="227.246094"/>
      <use xlink:href="#DejaVuSans-41" x="266.259766"/>
      <use xlink:href="#DejaVuSans-46" x="334.667969"/>
      <use xlink:href="#DejaVuSans-29" x="392.1875"/>
     </g>
    </g>
    <g id="line2d_108">
     <path d="M 941.28375 73.770625 
L 951.28375 73.770625 
L 961.28375 73.770625 
" style="fill: none; stroke-dasharray: 2,3.3; stroke-dashoffset: 0; stroke: #008000; stroke-width: 2"/>
    </g>
    <g id="text_67">
     <!-- Swish -->
     <g transform="translate(969.28375 77.270625)scale(0.1 -0.1)">
      <use xlink:href="#DejaVuSans-53"/>
      <use xlink:href="#DejaVuSans-77" x="63.476562"/>
      <use xlink:href="#DejaVuSans-69" x="145.263672"/>
      <use xlink:href="#DejaVuSans-73" x="173.046875"/>
      <use xlink:href="#DejaVuSans-68" x="225.146484"/>
     </g>
    </g>
    <g id="line2d_109">
     <path d="M 941.28375 88.44875 
L 951.28375 88.44875 
L 961.28375 88.44875 
" style="fill: none; stroke-dasharray: 12.8,3.2,2,3.2; stroke-dashoffset: 0; stroke: #00bfbf; stroke-width: 2"/>
    </g>
    <g id="text_68">
     <!-- Rowdy -->
     <g transform="translate(969.28375 91.94875)scale(0.1 -0.1)">
      <use xlink:href="#DejaVuSans-52"/>
      <use xlink:href="#DejaVuSans-6f" x="64.982422"/>
      <use xlink:href="#DejaVuSans-77" x="126.164062"/>
      <use xlink:href="#DejaVuSans-64" x="207.951172"/>
      <use xlink:href="#DejaVuSans-79" x="271.427734"/>
     </g>
    </g>
   </g>
  </g>
 </g>
 <defs>
  <clipPath id="pbff81cde83">
   <rect x="31.4025" y="16.637812" width="291.176471" height="221.76"/>
  </clipPath>
  <clipPath id="p1364e819f7">
   <rect x="380.814265" y="16.637812" width="291.176471" height="221.76"/>
  </clipPath>
  <clipPath id="pf61bafe6b0">
   <rect x="730.226029" y="16.637812" width="291.176471" height="221.76"/>
  </clipPath>
 </defs>
</svg>
