<?xml version="1.0" encoding="utf-8" standalone="no"?>
<!DOCTYPE svg PUBLIC "-//W3C//DTD SVG 1.1//EN"
  "http://www.w3.org/Graphics/SVG/1.1/DTD/svg11.dtd">
<svg xmlns:xlink="http://www.w3.org/1999/xlink" width="430.842679pt" height="65.270211pt" viewBox="0 0 430.842679 65.270211" xmlns="http://www.w3.org/2000/svg" version="1.1">
 <metadata>
  <rdf:RDF xmlns:dc="http://purl.org/dc/elements/1.1/" xmlns:cc="http://creativecommons.org/ns#" xmlns:rdf="http://www.w3.org/1999/02/22-rdf-syntax-ns#">
   <cc:Work>
    <dc:type rdf:resource="http://purl.org/dc/dcmitype/StillImage"/>
    <dc:date>2024-01-12T05:09:27.151181</dc:date>
    <dc:format>image/svg+xml</dc:format>
    <dc:creator>
     <cc:Agent>
      <dc:title>Matplotlib v3.5.2, https://matplotlib.org/</dc:title>
     </cc:Agent>
    </dc:creator>
   </cc:Work>
  </rdf:RDF>
 </metadata>
 <defs>
  <style type="text/css">*{stroke-linejoin: round; stroke-linecap: butt}</style>
 </defs>
 <g id="figure_1">
  <g id="patch_1">
   <path d="M 0 65.270211 
L 430.842679 65.270211 
L 430.842679 0 
L 0 0 
z
" style="fill: #ffffff"/>
  </g>
  <g id="axes_1">
   <g id="patch_2">
    <path d="M 20.583929 51.956415 
L 78.919643 51.956415 
L 78.919643 12.182233 
L 20.583929 12.182233 
z
" style="fill: #ffffff"/>
   </g>
   <g id="matplotlib.axis_1">
    <g id="xtick_1">
     <g id="line2d_1">
      <defs>
       <path id="mf2d80273b4" d="M 0 0 
L 0 1 
" style="stroke: #000000; stroke-width: 0.8"/>
      </defs>
      <g>
       <use xlink:href="#mf2d80273b4" x="20.583929" y="51.956415" style="stroke: #000000; stroke-width: 0.8"/>
      </g>
     </g>
     <g id="text_1">
      <!-- 0 -->
      <g transform="translate(19.629554 58.735946)scale(0.03 -0.03)">
       <defs>
        <path id="DejaVuSans-30" d="M 2034 4250 
Q 1547 4250 1301 3770 
Q 1056 3291 1056 2328 
Q 1056 1369 1301 889 
Q 1547 409 2034 409 
Q 2525 409 2770 889 
Q 3016 1369 3016 2328 
Q 3016 3291 2770 3770 
Q 2525 4250 2034 4250 
z
M 2034 4750 
Q 2819 4750 3233 4129 
Q 3647 3509 3647 2328 
Q 3647 1150 3233 529 
Q 2819 -91 2034 -91 
Q 1250 -91 836 529 
Q 422 1150 422 2328 
Q 422 3509 836 4129 
Q 1250 4750 2034 4750 
z
" transform="scale(0.015625)"/>
       </defs>
       <use xlink:href="#DejaVuSans-30"/>
      </g>
     </g>
    </g>
    <g id="xtick_2">
     <g id="line2d_2">
      <g>
       <use xlink:href="#mf2d80273b4" x="30.306548" y="51.956415" style="stroke: #000000; stroke-width: 0.8"/>
      </g>
     </g>
     <g id="text_2">
      <!-- 10 -->
      <g transform="translate(28.397798 58.735946)scale(0.03 -0.03)">
       <defs>
        <path id="DejaVuSans-31" d="M 794 531 
L 1825 531 
L 1825 4091 
L 703 3866 
L 703 4441 
L 1819 4666 
L 2450 4666 
L 2450 531 
L 3481 531 
L 3481 0 
L 794 0 
L 794 531 
z
" transform="scale(0.015625)"/>
       </defs>
       <use xlink:href="#DejaVuSans-31"/>
       <use xlink:href="#DejaVuSans-30" x="63.623047"/>
      </g>
     </g>
    </g>
    <g id="xtick_3">
     <g id="line2d_3">
      <g>
       <use xlink:href="#mf2d80273b4" x="40.029167" y="51.956415" style="stroke: #000000; stroke-width: 0.8"/>
      </g>
     </g>
     <g id="text_3">
      <!-- 20 -->
      <g transform="translate(38.120417 58.735946)scale(0.03 -0.03)">
       <defs>
        <path id="DejaVuSans-32" d="M 1228 531 
L 3431 531 
L 3431 0 
L 469 0 
L 469 531 
Q 828 903 1448 1529 
Q 2069 2156 2228 2338 
Q 2531 2678 2651 2914 
Q 2772 3150 2772 3378 
Q 2772 3750 2511 3984 
Q 2250 4219 1831 4219 
Q 1534 4219 1204 4116 
Q 875 4013 500 3803 
L 500 4441 
Q 881 4594 1212 4672 
Q 1544 4750 1819 4750 
Q 2544 4750 2975 4387 
Q 3406 4025 3406 3419 
Q 3406 3131 3298 2873 
Q 3191 2616 2906 2266 
Q 2828 2175 2409 1742 
Q 1991 1309 1228 531 
z
" transform="scale(0.015625)"/>
       </defs>
       <use xlink:href="#DejaVuSans-32"/>
       <use xlink:href="#DejaVuSans-30" x="63.623047"/>
      </g>
     </g>
    </g>
    <g id="xtick_4">
     <g id="line2d_4">
      <g>
       <use xlink:href="#mf2d80273b4" x="49.751786" y="51.956415" style="stroke: #000000; stroke-width: 0.8"/>
      </g>
     </g>
     <g id="text_4">
      <!-- 30 -->
      <g transform="translate(47.843036 58.735946)scale(0.03 -0.03)">
       <defs>
        <path id="DejaVuSans-33" d="M 2597 2516 
Q 3050 2419 3304 2112 
Q 3559 1806 3559 1356 
Q 3559 666 3084 287 
Q 2609 -91 1734 -91 
Q 1441 -91 1130 -33 
Q 819 25 488 141 
L 488 750 
Q 750 597 1062 519 
Q 1375 441 1716 441 
Q 2309 441 2620 675 
Q 2931 909 2931 1356 
Q 2931 1769 2642 2001 
Q 2353 2234 1838 2234 
L 1294 2234 
L 1294 2753 
L 1863 2753 
Q 2328 2753 2575 2939 
Q 2822 3125 2822 3475 
Q 2822 3834 2567 4026 
Q 2313 4219 1838 4219 
Q 1578 4219 1281 4162 
Q 984 4106 628 3988 
L 628 4550 
Q 988 4650 1302 4700 
Q 1616 4750 1894 4750 
Q 2613 4750 3031 4423 
Q 3450 4097 3450 3541 
Q 3450 3153 3228 2886 
Q 3006 2619 2597 2516 
z
" transform="scale(0.015625)"/>
       </defs>
       <use xlink:href="#DejaVuSans-33"/>
       <use xlink:href="#DejaVuSans-30" x="63.623047"/>
      </g>
     </g>
    </g>
    <g id="xtick_5">
     <g id="line2d_5">
      <g>
       <use xlink:href="#mf2d80273b4" x="59.474405" y="51.956415" style="stroke: #000000; stroke-width: 0.8"/>
      </g>
     </g>
     <g id="text_5">
      <!-- 40 -->
      <g transform="translate(57.565655 58.735946)scale(0.03 -0.03)">
       <defs>
        <path id="DejaVuSans-34" d="M 2419 4116 
L 825 1625 
L 2419 1625 
L 2419 4116 
z
M 2253 4666 
L 3047 4666 
L 3047 1625 
L 3713 1625 
L 3713 1100 
L 3047 1100 
L 3047 0 
L 2419 0 
L 2419 1100 
L 313 1100 
L 313 1709 
L 2253 4666 
z
" transform="scale(0.015625)"/>
       </defs>
       <use xlink:href="#DejaVuSans-34"/>
       <use xlink:href="#DejaVuSans-30" x="63.623047"/>
      </g>
     </g>
    </g>
    <g id="xtick_6">
     <g id="line2d_6">
      <g>
       <use xlink:href="#mf2d80273b4" x="69.197024" y="51.956415" style="stroke: #000000; stroke-width: 0.8"/>
      </g>
     </g>
     <g id="text_6">
      <!-- 50 -->
      <g transform="translate(67.288274 58.735946)scale(0.03 -0.03)">
       <defs>
        <path id="DejaVuSans-35" d="M 691 4666 
L 3169 4666 
L 3169 4134 
L 1269 4134 
L 1269 2991 
Q 1406 3038 1543 3061 
Q 1681 3084 1819 3084 
Q 2600 3084 3056 2656 
Q 3513 2228 3513 1497 
Q 3513 744 3044 326 
Q 2575 -91 1722 -91 
Q 1428 -91 1123 -41 
Q 819 9 494 109 
L 494 744 
Q 775 591 1075 516 
Q 1375 441 1709 441 
Q 2250 441 2565 725 
Q 2881 1009 2881 1497 
Q 2881 1984 2565 2268 
Q 2250 2553 1709 2553 
Q 1456 2553 1204 2497 
Q 953 2441 691 2322 
L 691 4666 
z
" transform="scale(0.015625)"/>
       </defs>
       <use xlink:href="#DejaVuSans-35"/>
       <use xlink:href="#DejaVuSans-30" x="63.623047"/>
      </g>
     </g>
    </g>
    <g id="xtick_7">
     <g id="line2d_7">
      <g>
       <use xlink:href="#mf2d80273b4" x="78.919643" y="51.956415" style="stroke: #000000; stroke-width: 0.8"/>
      </g>
     </g>
     <g id="text_7">
      <!-- 60 -->
      <g transform="translate(77.010893 58.735946)scale(0.03 -0.03)">
       <defs>
        <path id="DejaVuSans-36" d="M 2113 2584 
Q 1688 2584 1439 2293 
Q 1191 2003 1191 1497 
Q 1191 994 1439 701 
Q 1688 409 2113 409 
Q 2538 409 2786 701 
Q 3034 994 3034 1497 
Q 3034 2003 2786 2293 
Q 2538 2584 2113 2584 
z
M 3366 4563 
L 3366 3988 
Q 3128 4100 2886 4159 
Q 2644 4219 2406 4219 
Q 1781 4219 1451 3797 
Q 1122 3375 1075 2522 
Q 1259 2794 1537 2939 
Q 1816 3084 2150 3084 
Q 2853 3084 3261 2657 
Q 3669 2231 3669 1497 
Q 3669 778 3244 343 
Q 2819 -91 2113 -91 
Q 1303 -91 875 529 
Q 447 1150 447 2328 
Q 447 3434 972 4092 
Q 1497 4750 2381 4750 
Q 2619 4750 2861 4703 
Q 3103 4656 3366 4563 
z
" transform="scale(0.015625)"/>
       </defs>
       <use xlink:href="#DejaVuSans-36"/>
       <use xlink:href="#DejaVuSans-30" x="63.623047"/>
      </g>
     </g>
    </g>
    <g id="text_8">
     <!-- $t$ -->
     <g transform="translate(48.641786 63.918915)scale(0.06 -0.06)">
      <defs>
       <path id="Cmmi10-74" d="M 397 519 
Q 397 613 416 697 
L 878 2534 
L 206 2534 
Q 141 2534 141 2619 
Q 166 2759 225 2759 
L 934 2759 
L 1191 3803 
Q 1216 3888 1291 3947 
Q 1366 4006 1459 4006 
Q 1541 4006 1595 3957 
Q 1650 3909 1650 3828 
Q 1650 3809 1648 3798 
Q 1647 3788 1644 3775 
L 1388 2759 
L 2047 2759 
Q 2113 2759 2113 2675 
Q 2109 2659 2100 2621 
Q 2091 2584 2075 2559 
Q 2059 2534 2028 2534 
L 1331 2534 
L 872 684 
Q 825 503 825 372 
Q 825 97 1013 97 
Q 1294 97 1511 361 
Q 1728 625 1844 941 
Q 1869 978 1894 978 
L 1972 978 
Q 1997 978 2012 961 
Q 2028 944 2028 922 
Q 2028 909 2022 903 
Q 1881 516 1612 222 
Q 1344 -72 997 -72 
Q 744 -72 570 93 
Q 397 259 397 519 
z
" transform="scale(0.015625)"/>
      </defs>
      <use xlink:href="#Cmmi10-74" transform="translate(0 0.40625)"/>
     </g>
    </g>
   </g>
   <g id="matplotlib.axis_2">
    <g id="ytick_1">
     <g id="line2d_8">
      <defs>
       <path id="mb933fac791" d="M 0 0 
L -1 0 
" style="stroke: #000000; stroke-width: 0.8"/>
      </defs>
      <g>
       <use xlink:href="#mb933fac791" x="20.583929" y="50.119259" style="stroke: #000000; stroke-width: 0.8"/>
      </g>
     </g>
     <g id="text_9">
      <!-- 0 -->
      <g transform="translate(14.175179 51.259024)scale(0.03 -0.03)">
       <use xlink:href="#DejaVuSans-30"/>
      </g>
     </g>
    </g>
    <g id="ytick_2">
     <g id="line2d_9">
      <g>
       <use xlink:href="#mb933fac791" x="20.583929" y="37.965985" style="stroke: #000000; stroke-width: 0.8"/>
      </g>
     </g>
     <g id="text_10">
      <!-- 50 -->
      <g transform="translate(12.266429 39.105751)scale(0.03 -0.03)">
       <use xlink:href="#DejaVuSans-35"/>
       <use xlink:href="#DejaVuSans-30" x="63.623047"/>
      </g>
     </g>
    </g>
    <g id="ytick_3">
     <g id="line2d_10">
      <g>
       <use xlink:href="#mb933fac791" x="20.583929" y="25.812711" style="stroke: #000000; stroke-width: 0.8"/>
      </g>
     </g>
     <g id="text_11">
      <!-- 100 -->
      <g transform="translate(10.357679 26.952477)scale(0.03 -0.03)">
       <use xlink:href="#DejaVuSans-31"/>
       <use xlink:href="#DejaVuSans-30" x="63.623047"/>
       <use xlink:href="#DejaVuSans-30" x="127.246094"/>
      </g>
     </g>
    </g>
    <g id="ytick_4">
     <g id="line2d_11">
      <g>
       <use xlink:href="#mb933fac791" x="20.583929" y="13.659437" style="stroke: #000000; stroke-width: 0.8"/>
      </g>
     </g>
     <g id="text_12">
      <!-- 150 -->
      <g transform="translate(10.357679 14.799203)scale(0.03 -0.03)">
       <use xlink:href="#DejaVuSans-31"/>
       <use xlink:href="#DejaVuSans-35" x="63.623047"/>
       <use xlink:href="#DejaVuSans-30" x="127.246094"/>
      </g>
     </g>
    </g>
    <g id="text_13">
     <!--  $x(t)$ -->
     <g transform="translate(4.5 38.159324)rotate(-90)scale(0.06 -0.06)">
      <defs>
       <path id="DejaVuSans-20" transform="scale(0.015625)"/>
       <path id="Cmmi10-78" d="M 500 184 
Q 613 97 819 97 
Q 1019 97 1172 289 
Q 1325 481 1381 709 
L 1672 1844 
Q 1741 2153 1741 2266 
Q 1741 2425 1652 2544 
Q 1563 2663 1403 2663 
Q 1200 2663 1022 2536 
Q 844 2409 722 2214 
Q 600 2019 550 1819 
Q 538 1778 500 1778 
L 422 1778 
Q 372 1778 372 1838 
L 372 1856 
Q 434 2094 584 2320 
Q 734 2547 951 2687 
Q 1169 2828 1416 2828 
Q 1650 2828 1839 2703 
Q 2028 2578 2106 2363 
Q 2216 2559 2386 2693 
Q 2556 2828 2759 2828 
Q 2897 2828 3040 2779 
Q 3184 2731 3275 2631 
Q 3366 2531 3366 2381 
Q 3366 2219 3261 2101 
Q 3156 1984 2994 1984 
Q 2891 1984 2822 2050 
Q 2753 2116 2753 2216 
Q 2753 2350 2845 2451 
Q 2938 2553 3066 2572 
Q 2950 2663 2747 2663 
Q 2541 2663 2389 2472 
Q 2238 2281 2175 2047 
L 1894 916 
Q 1825 659 1825 494 
Q 1825 331 1917 214 
Q 2009 97 2163 97 
Q 2463 97 2698 361 
Q 2934 625 3009 941 
Q 3022 978 3059 978 
L 3138 978 
Q 3163 978 3178 961 
Q 3194 944 3194 922 
Q 3194 916 3188 903 
Q 3097 522 2806 225 
Q 2516 -72 2150 -72 
Q 1916 -72 1727 54 
Q 1538 181 1459 397 
Q 1359 209 1182 68 
Q 1006 -72 806 -72 
Q 669 -72 523 -23 
Q 378 25 287 125 
Q 197 225 197 378 
Q 197 528 301 651 
Q 406 775 563 775 
Q 669 775 741 711 
Q 813 647 813 544 
Q 813 409 723 309 
Q 634 209 500 184 
z
" transform="scale(0.015625)"/>
       <path id="Cmr10-28" d="M 1984 -1588 
Q 1628 -1306 1370 -942 
Q 1113 -578 948 -165 
Q 784 247 703 697 
Q 622 1147 622 1600 
Q 622 2059 703 2509 
Q 784 2959 951 3375 
Q 1119 3791 1378 4153 
Q 1638 4516 1984 4788 
Q 1984 4800 2016 4800 
L 2075 4800 
Q 2094 4800 2109 4783 
Q 2125 4766 2125 4744 
Q 2125 4716 2113 4703 
Q 1800 4397 1592 4047 
Q 1384 3697 1257 3301 
Q 1131 2906 1075 2482 
Q 1019 2059 1019 1600 
Q 1019 -434 2106 -1491 
Q 2125 -1509 2125 -1544 
Q 2125 -1559 2108 -1579 
Q 2091 -1600 2075 -1600 
L 2016 -1600 
Q 1984 -1600 1984 -1588 
z
" transform="scale(0.015625)"/>
       <path id="Cmr10-29" d="M 416 -1600 
Q 359 -1600 359 -1544 
Q 359 -1516 372 -1503 
Q 1466 -434 1466 1600 
Q 1466 3634 384 4691 
Q 359 4706 359 4744 
Q 359 4766 376 4783 
Q 394 4800 416 4800 
L 475 4800 
Q 494 4800 506 4788 
Q 966 4425 1272 3906 
Q 1578 3388 1720 2800 
Q 1863 2213 1863 1600 
Q 1863 1147 1786 708 
Q 1709 269 1542 -157 
Q 1375 -584 1119 -945 
Q 863 -1306 506 -1588 
Q 494 -1600 475 -1600 
L 416 -1600 
z
" transform="scale(0.015625)"/>
      </defs>
      <use xlink:href="#DejaVuSans-20"/>
      <use xlink:href="#Cmmi10-78" transform="translate(31.787109 0)"/>
      <use xlink:href="#Cmr10-28" transform="translate(88.867188 0)"/>
      <use xlink:href="#Cmmi10-74" transform="translate(127.685547 0)"/>
      <use xlink:href="#Cmr10-29" transform="translate(163.769531 0)"/>
     </g>
    </g>
   </g>
   <g id="line2d_12">
    <path d="M 20.583929 50.119259 
L 20.778381 50.02338 
L 21.07006 49.533783 
L 21.458964 48.288044 
L 21.945095 45.907924 
L 22.625679 41.404804 
L 24.084071 29.730171 
L 25.250786 21.312044 
L 26.028595 17.25247 
L 26.611952 15.252619 
L 27.098083 14.303555 
L 27.486988 14.003796 
L 27.778667 14.0334 
L 28.070345 14.266763 
L 28.45925 14.866981 
L 29.042607 16.294937 
L 29.820417 18.914676 
L 32.54275 28.808519 
L 33.223333 30.338262 
L 33.80669 31.164486 
L 34.292821 31.50516 
L 34.681726 31.559028 
L 35.167857 31.374684 
L 35.653988 30.944337 
L 36.334571 30.013061 
L 37.40406 28.080455 
L 39.154131 24.913403 
L 40.029167 23.801779 
L 40.70975 23.265128 
L 41.293107 23.045262 
L 41.876464 23.0369 
L 42.557048 23.262717 
L 43.334857 23.764174 
L 44.598798 24.886464 
L 46.251643 26.315461 
L 47.223905 26.877265 
L 48.09894 27.133871 
L 48.973976 27.154964 
L 49.946238 26.946479 
L 51.307405 26.400081 
L 53.640833 25.445039 
L 54.904774 25.188372 
L 56.168714 25.171124 
L 57.724333 25.400703 
L 61.613381 26.097615 
L 63.363452 26.117226 
L 65.98856 25.879503 
L 69.002571 25.663046 
L 71.724905 25.714554 
L 77.46125 25.883814 
L 79.794679 25.833842 
L 79.794679 25.833842 
" clip-path="url(#p76334c3726)" style="fill: none; stroke: #0000ff; stroke-width: 1.5; stroke-linecap: square"/>
   </g>
   <g id="line2d_13">
    <path d="M 20.583929 50.148498 
L 20.778381 50.054887 
L 21.07006 49.569064 
L 21.458964 48.317234 
L 21.945095 45.924643 
L 22.722905 40.694141 
L 25.736917 18.581131 
L 26.4175 15.814051 
L 26.903631 14.629589 
L 27.292536 14.147705 
L 27.584214 14.044538 
L 27.875893 14.148895 
L 28.264798 14.586299 
L 28.750929 15.556617 
L 29.431512 17.548518 
L 30.501 21.572666 
L 32.056619 27.40714 
L 32.834429 29.560435 
L 33.515012 30.806224 
L 34.001143 31.30775 
L 34.487274 31.496006 
L 34.973405 31.397841 
L 35.459536 31.050587 
L 36.140119 30.231749 
L 37.112381 28.623597 
L 39.44581 24.563149 
L 40.223619 23.653738 
L 40.904202 23.179574 
L 41.48756 23.032639 
L 42.070917 23.115185 
L 42.7515 23.456796 
L 43.723762 24.241743 
L 45.862738 26.05943 
L 46.835 26.579777 
L 47.807262 26.850403 
L 48.87675 26.895266 
L 50.14069 26.696214 
L 52.18244 26.096706 
L 54.418643 25.505391 
L 55.974262 25.319965 
L 57.627107 25.352422 
L 60.057762 25.65954 
L 63.460679 26.044778 
L 65.98856 26.078829 
L 69.488702 25.880428 
L 74.15556 25.63684 
L 77.072345 25.687844 
L 79.794679 25.950086 
L 79.794679 25.950086 
" clip-path="url(#p76334c3726)" style="fill: none; stroke-dasharray: 9.6,2.4,1.5,2.4; stroke-dashoffset: 0; stroke: #ff0000; stroke-width: 1.5"/>
   </g>
   <g id="patch_3">
    <path d="M 20.583929 51.956415 
L 20.583929 12.182233 
" style="fill: none; stroke: #000000; stroke-width: 0.8; stroke-linejoin: miter; stroke-linecap: square"/>
   </g>
   <g id="patch_4">
    <path d="M 78.919643 51.956415 
L 78.919643 12.182233 
" style="fill: none; stroke: #000000; stroke-width: 0.8; stroke-linejoin: miter; stroke-linecap: square"/>
   </g>
   <g id="patch_5">
    <path d="M 20.583929 51.956415 
L 78.919643 51.956415 
" style="fill: none; stroke: #000000; stroke-width: 0.8; stroke-linejoin: miter; stroke-linecap: square"/>
   </g>
   <g id="patch_6">
    <path d="M 20.583929 12.182233 
L 78.919643 12.182233 
" style="fill: none; stroke: #000000; stroke-width: 0.8; stroke-linejoin: miter; stroke-linecap: square"/>
   </g>
   <g id="text_14">
    <!-- Stan (Proposed) -->
    <g transform="translate(17.850536 6.182233)scale(0.08 -0.08)">
     <defs>
      <path id="DejaVuSans-53" d="M 3425 4513 
L 3425 3897 
Q 3066 4069 2747 4153 
Q 2428 4238 2131 4238 
Q 1616 4238 1336 4038 
Q 1056 3838 1056 3469 
Q 1056 3159 1242 3001 
Q 1428 2844 1947 2747 
L 2328 2669 
Q 3034 2534 3370 2195 
Q 3706 1856 3706 1288 
Q 3706 609 3251 259 
Q 2797 -91 1919 -91 
Q 1588 -91 1214 -16 
Q 841 59 441 206 
L 441 856 
Q 825 641 1194 531 
Q 1563 422 1919 422 
Q 2459 422 2753 634 
Q 3047 847 3047 1241 
Q 3047 1584 2836 1778 
Q 2625 1972 2144 2069 
L 1759 2144 
Q 1053 2284 737 2584 
Q 422 2884 422 3419 
Q 422 4038 858 4394 
Q 1294 4750 2059 4750 
Q 2388 4750 2728 4690 
Q 3069 4631 3425 4513 
z
" transform="scale(0.015625)"/>
      <path id="DejaVuSans-74" d="M 1172 4494 
L 1172 3500 
L 2356 3500 
L 2356 3053 
L 1172 3053 
L 1172 1153 
Q 1172 725 1289 603 
Q 1406 481 1766 481 
L 2356 481 
L 2356 0 
L 1766 0 
Q 1100 0 847 248 
Q 594 497 594 1153 
L 594 3053 
L 172 3053 
L 172 3500 
L 594 3500 
L 594 4494 
L 1172 4494 
z
" transform="scale(0.015625)"/>
      <path id="DejaVuSans-61" d="M 2194 1759 
Q 1497 1759 1228 1600 
Q 959 1441 959 1056 
Q 959 750 1161 570 
Q 1363 391 1709 391 
Q 2188 391 2477 730 
Q 2766 1069 2766 1631 
L 2766 1759 
L 2194 1759 
z
M 3341 1997 
L 3341 0 
L 2766 0 
L 2766 531 
Q 2569 213 2275 61 
Q 1981 -91 1556 -91 
Q 1019 -91 701 211 
Q 384 513 384 1019 
Q 384 1609 779 1909 
Q 1175 2209 1959 2209 
L 2766 2209 
L 2766 2266 
Q 2766 2663 2505 2880 
Q 2244 3097 1772 3097 
Q 1472 3097 1187 3025 
Q 903 2953 641 2809 
L 641 3341 
Q 956 3463 1253 3523 
Q 1550 3584 1831 3584 
Q 2591 3584 2966 3190 
Q 3341 2797 3341 1997 
z
" transform="scale(0.015625)"/>
      <path id="DejaVuSans-6e" d="M 3513 2113 
L 3513 0 
L 2938 0 
L 2938 2094 
Q 2938 2591 2744 2837 
Q 2550 3084 2163 3084 
Q 1697 3084 1428 2787 
Q 1159 2491 1159 1978 
L 1159 0 
L 581 0 
L 581 3500 
L 1159 3500 
L 1159 2956 
Q 1366 3272 1645 3428 
Q 1925 3584 2291 3584 
Q 2894 3584 3203 3211 
Q 3513 2838 3513 2113 
z
" transform="scale(0.015625)"/>
      <path id="DejaVuSans-28" d="M 1984 4856 
Q 1566 4138 1362 3434 
Q 1159 2731 1159 2009 
Q 1159 1288 1364 580 
Q 1569 -128 1984 -844 
L 1484 -844 
Q 1016 -109 783 600 
Q 550 1309 550 2009 
Q 550 2706 781 3412 
Q 1013 4119 1484 4856 
L 1984 4856 
z
" transform="scale(0.015625)"/>
      <path id="DejaVuSans-50" d="M 1259 4147 
L 1259 2394 
L 2053 2394 
Q 2494 2394 2734 2622 
Q 2975 2850 2975 3272 
Q 2975 3691 2734 3919 
Q 2494 4147 2053 4147 
L 1259 4147 
z
M 628 4666 
L 2053 4666 
Q 2838 4666 3239 4311 
Q 3641 3956 3641 3272 
Q 3641 2581 3239 2228 
Q 2838 1875 2053 1875 
L 1259 1875 
L 1259 0 
L 628 0 
L 628 4666 
z
" transform="scale(0.015625)"/>
      <path id="DejaVuSans-72" d="M 2631 2963 
Q 2534 3019 2420 3045 
Q 2306 3072 2169 3072 
Q 1681 3072 1420 2755 
Q 1159 2438 1159 1844 
L 1159 0 
L 581 0 
L 581 3500 
L 1159 3500 
L 1159 2956 
Q 1341 3275 1631 3429 
Q 1922 3584 2338 3584 
Q 2397 3584 2469 3576 
Q 2541 3569 2628 3553 
L 2631 2963 
z
" transform="scale(0.015625)"/>
      <path id="DejaVuSans-6f" d="M 1959 3097 
Q 1497 3097 1228 2736 
Q 959 2375 959 1747 
Q 959 1119 1226 758 
Q 1494 397 1959 397 
Q 2419 397 2687 759 
Q 2956 1122 2956 1747 
Q 2956 2369 2687 2733 
Q 2419 3097 1959 3097 
z
M 1959 3584 
Q 2709 3584 3137 3096 
Q 3566 2609 3566 1747 
Q 3566 888 3137 398 
Q 2709 -91 1959 -91 
Q 1206 -91 779 398 
Q 353 888 353 1747 
Q 353 2609 779 3096 
Q 1206 3584 1959 3584 
z
" transform="scale(0.015625)"/>
      <path id="DejaVuSans-70" d="M 1159 525 
L 1159 -1331 
L 581 -1331 
L 581 3500 
L 1159 3500 
L 1159 2969 
Q 1341 3281 1617 3432 
Q 1894 3584 2278 3584 
Q 2916 3584 3314 3078 
Q 3713 2572 3713 1747 
Q 3713 922 3314 415 
Q 2916 -91 2278 -91 
Q 1894 -91 1617 61 
Q 1341 213 1159 525 
z
M 3116 1747 
Q 3116 2381 2855 2742 
Q 2594 3103 2138 3103 
Q 1681 3103 1420 2742 
Q 1159 2381 1159 1747 
Q 1159 1113 1420 752 
Q 1681 391 2138 391 
Q 2594 391 2855 752 
Q 3116 1113 3116 1747 
z
" transform="scale(0.015625)"/>
      <path id="DejaVuSans-73" d="M 2834 3397 
L 2834 2853 
Q 2591 2978 2328 3040 
Q 2066 3103 1784 3103 
Q 1356 3103 1142 2972 
Q 928 2841 928 2578 
Q 928 2378 1081 2264 
Q 1234 2150 1697 2047 
L 1894 2003 
Q 2506 1872 2764 1633 
Q 3022 1394 3022 966 
Q 3022 478 2636 193 
Q 2250 -91 1575 -91 
Q 1294 -91 989 -36 
Q 684 19 347 128 
L 347 722 
Q 666 556 975 473 
Q 1284 391 1588 391 
Q 1994 391 2212 530 
Q 2431 669 2431 922 
Q 2431 1156 2273 1281 
Q 2116 1406 1581 1522 
L 1381 1569 
Q 847 1681 609 1914 
Q 372 2147 372 2553 
Q 372 3047 722 3315 
Q 1072 3584 1716 3584 
Q 2034 3584 2315 3537 
Q 2597 3491 2834 3397 
z
" transform="scale(0.015625)"/>
      <path id="DejaVuSans-65" d="M 3597 1894 
L 3597 1613 
L 953 1613 
Q 991 1019 1311 708 
Q 1631 397 2203 397 
Q 2534 397 2845 478 
Q 3156 559 3463 722 
L 3463 178 
Q 3153 47 2828 -22 
Q 2503 -91 2169 -91 
Q 1331 -91 842 396 
Q 353 884 353 1716 
Q 353 2575 817 3079 
Q 1281 3584 2069 3584 
Q 2775 3584 3186 3129 
Q 3597 2675 3597 1894 
z
M 3022 2063 
Q 3016 2534 2758 2815 
Q 2500 3097 2075 3097 
Q 1594 3097 1305 2825 
Q 1016 2553 972 2059 
L 3022 2063 
z
" transform="scale(0.015625)"/>
      <path id="DejaVuSans-64" d="M 2906 2969 
L 2906 4863 
L 3481 4863 
L 3481 0 
L 2906 0 
L 2906 525 
Q 2725 213 2448 61 
Q 2172 -91 1784 -91 
Q 1150 -91 751 415 
Q 353 922 353 1747 
Q 353 2572 751 3078 
Q 1150 3584 1784 3584 
Q 2172 3584 2448 3432 
Q 2725 3281 2906 2969 
z
M 947 1747 
Q 947 1113 1208 752 
Q 1469 391 1925 391 
Q 2381 391 2643 752 
Q 2906 1113 2906 1747 
Q 2906 2381 2643 2742 
Q 2381 3103 1925 3103 
Q 1469 3103 1208 2742 
Q 947 2381 947 1747 
z
" transform="scale(0.015625)"/>
      <path id="DejaVuSans-29" d="M 513 4856 
L 1013 4856 
Q 1481 4119 1714 3412 
Q 1947 2706 1947 2009 
Q 1947 1309 1714 600 
Q 1481 -109 1013 -844 
L 513 -844 
Q 928 -128 1133 580 
Q 1338 1288 1338 2009 
Q 1338 2731 1133 3434 
Q 928 4138 513 4856 
z
" transform="scale(0.015625)"/>
     </defs>
     <use xlink:href="#DejaVuSans-53"/>
     <use xlink:href="#DejaVuSans-74" x="63.476562"/>
     <use xlink:href="#DejaVuSans-61" x="102.685547"/>
     <use xlink:href="#DejaVuSans-6e" x="163.964844"/>
     <use xlink:href="#DejaVuSans-20" x="227.34375"/>
     <use xlink:href="#DejaVuSans-28" x="259.130859"/>
     <use xlink:href="#DejaVuSans-50" x="298.144531"/>
     <use xlink:href="#DejaVuSans-72" x="356.697266"/>
     <use xlink:href="#DejaVuSans-6f" x="395.560547"/>
     <use xlink:href="#DejaVuSans-70" x="456.742188"/>
     <use xlink:href="#DejaVuSans-6f" x="520.21875"/>
     <use xlink:href="#DejaVuSans-73" x="581.400391"/>
     <use xlink:href="#DejaVuSans-65" x="633.5"/>
     <use xlink:href="#DejaVuSans-64" x="695.023438"/>
     <use xlink:href="#DejaVuSans-29" x="758.5"/>
    </g>
   </g>
   <g id="legend_1">
    <g id="patch_7">
     <path d="M 22.683929 23.389108 
L 47.18596 23.389108 
Q 47.78596 23.389108 47.78596 22.789108 
L 47.78596 14.282233 
Q 47.78596 13.682233 47.18596 13.682233 
L 22.683929 13.682233 
Q 22.083929 13.682233 22.083929 14.282233 
L 22.083929 22.789108 
Q 22.083929 23.389108 22.683929 23.389108 
z
" style="fill: #ffffff; opacity: 0.8; stroke: #cccccc; stroke-linejoin: miter"/>
    </g>
    <g id="line2d_14">
     <path d="M 23.283929 16.111764 
L 26.283929 16.111764 
L 29.283929 16.111764 
" style="fill: none; stroke: #0000ff; stroke-width: 1.5; stroke-linecap: square"/>
    </g>
    <g id="text_15">
     <!-- Exact -->
     <g transform="translate(31.683929 17.161764)scale(0.03 -0.03)">
      <defs>
       <path id="DejaVuSans-45" d="M 628 4666 
L 3578 4666 
L 3578 4134 
L 1259 4134 
L 1259 2753 
L 3481 2753 
L 3481 2222 
L 1259 2222 
L 1259 531 
L 3634 531 
L 3634 0 
L 628 0 
L 628 4666 
z
" transform="scale(0.015625)"/>
       <path id="DejaVuSans-78" d="M 3513 3500 
L 2247 1797 
L 3578 0 
L 2900 0 
L 1881 1375 
L 863 0 
L 184 0 
L 1544 1831 
L 300 3500 
L 978 3500 
L 1906 2253 
L 2834 3500 
L 3513 3500 
z
" transform="scale(0.015625)"/>
       <path id="DejaVuSans-63" d="M 3122 3366 
L 3122 2828 
Q 2878 2963 2633 3030 
Q 2388 3097 2138 3097 
Q 1578 3097 1268 2742 
Q 959 2388 959 1747 
Q 959 1106 1268 751 
Q 1578 397 2138 397 
Q 2388 397 2633 464 
Q 2878 531 3122 666 
L 3122 134 
Q 2881 22 2623 -34 
Q 2366 -91 2075 -91 
Q 1284 -91 818 406 
Q 353 903 353 1747 
Q 353 2603 823 3093 
Q 1294 3584 2113 3584 
Q 2378 3584 2631 3529 
Q 2884 3475 3122 3366 
z
" transform="scale(0.015625)"/>
      </defs>
      <use xlink:href="#DejaVuSans-45"/>
      <use xlink:href="#DejaVuSans-78" x="63.183594"/>
      <use xlink:href="#DejaVuSans-61" x="122.363281"/>
      <use xlink:href="#DejaVuSans-63" x="183.642578"/>
      <use xlink:href="#DejaVuSans-74" x="238.623047"/>
     </g>
    </g>
    <g id="line2d_15">
     <path d="M 23.283929 20.515202 
L 26.283929 20.515202 
L 29.283929 20.515202 
" style="fill: none; stroke-dasharray: 9.6,2.4,1.5,2.4; stroke-dashoffset: 0; stroke: #ff0000; stroke-width: 1.5"/>
    </g>
    <g id="text_16">
     <!-- Prediction -->
     <g transform="translate(31.683929 21.565202)scale(0.03 -0.03)">
      <defs>
       <path id="DejaVuSans-69" d="M 603 3500 
L 1178 3500 
L 1178 0 
L 603 0 
L 603 3500 
z
M 603 4863 
L 1178 4863 
L 1178 4134 
L 603 4134 
L 603 4863 
z
" transform="scale(0.015625)"/>
      </defs>
      <use xlink:href="#DejaVuSans-50"/>
      <use xlink:href="#DejaVuSans-72" x="58.552734"/>
      <use xlink:href="#DejaVuSans-65" x="97.416016"/>
      <use xlink:href="#DejaVuSans-64" x="158.939453"/>
      <use xlink:href="#DejaVuSans-69" x="222.416016"/>
      <use xlink:href="#DejaVuSans-63" x="250.199219"/>
      <use xlink:href="#DejaVuSans-74" x="305.179688"/>
      <use xlink:href="#DejaVuSans-69" x="344.388672"/>
      <use xlink:href="#DejaVuSans-6f" x="372.171875"/>
      <use xlink:href="#DejaVuSans-6e" x="433.353516"/>
     </g>
    </g>
   </g>
  </g>
  <g id="axes_2">
   <g id="patch_8">
    <path d="M 108.0875 52.020977 
L 166.423214 52.020977 
L 166.423214 12.117671 
L 108.0875 12.117671 
z
" style="fill: #ffffff"/>
   </g>
   <g id="matplotlib.axis_3">
    <g id="xtick_8">
     <g id="line2d_16">
      <g>
       <use xlink:href="#mf2d80273b4" x="108.0875" y="52.020977" style="stroke: #000000; stroke-width: 0.8"/>
      </g>
     </g>
     <g id="text_17">
      <!-- 0 -->
      <g transform="translate(107.133125 58.800509)scale(0.03 -0.03)">
       <use xlink:href="#DejaVuSans-30"/>
      </g>
     </g>
    </g>
    <g id="xtick_9">
     <g id="line2d_17">
      <g>
       <use xlink:href="#mf2d80273b4" x="117.810119" y="52.020977" style="stroke: #000000; stroke-width: 0.8"/>
      </g>
     </g>
     <g id="text_18">
      <!-- 10 -->
      <g transform="translate(115.901369 58.800509)scale(0.03 -0.03)">
       <use xlink:href="#DejaVuSans-31"/>
       <use xlink:href="#DejaVuSans-30" x="63.623047"/>
      </g>
     </g>
    </g>
    <g id="xtick_10">
     <g id="line2d_18">
      <g>
       <use xlink:href="#mf2d80273b4" x="127.532738" y="52.020977" style="stroke: #000000; stroke-width: 0.8"/>
      </g>
     </g>
     <g id="text_19">
      <!-- 20 -->
      <g transform="translate(125.623988 58.800509)scale(0.03 -0.03)">
       <use xlink:href="#DejaVuSans-32"/>
       <use xlink:href="#DejaVuSans-30" x="63.623047"/>
      </g>
     </g>
    </g>
    <g id="xtick_11">
     <g id="line2d_19">
      <g>
       <use xlink:href="#mf2d80273b4" x="137.255357" y="52.020977" style="stroke: #000000; stroke-width: 0.8"/>
      </g>
     </g>
     <g id="text_20">
      <!-- 30 -->
      <g transform="translate(135.346607 58.800509)scale(0.03 -0.03)">
       <use xlink:href="#DejaVuSans-33"/>
       <use xlink:href="#DejaVuSans-30" x="63.623047"/>
      </g>
     </g>
    </g>
    <g id="xtick_12">
     <g id="line2d_20">
      <g>
       <use xlink:href="#mf2d80273b4" x="146.977976" y="52.020977" style="stroke: #000000; stroke-width: 0.8"/>
      </g>
     </g>
     <g id="text_21">
      <!-- 40 -->
      <g transform="translate(145.069226 58.800509)scale(0.03 -0.03)">
       <use xlink:href="#DejaVuSans-34"/>
       <use xlink:href="#DejaVuSans-30" x="63.623047"/>
      </g>
     </g>
    </g>
    <g id="xtick_13">
     <g id="line2d_21">
      <g>
       <use xlink:href="#mf2d80273b4" x="156.700595" y="52.020977" style="stroke: #000000; stroke-width: 0.8"/>
      </g>
     </g>
     <g id="text_22">
      <!-- 50 -->
      <g transform="translate(154.791845 58.800509)scale(0.03 -0.03)">
       <use xlink:href="#DejaVuSans-35"/>
       <use xlink:href="#DejaVuSans-30" x="63.623047"/>
      </g>
     </g>
    </g>
    <g id="xtick_14">
     <g id="line2d_22">
      <g>
       <use xlink:href="#mf2d80273b4" x="166.423214" y="52.020977" style="stroke: #000000; stroke-width: 0.8"/>
      </g>
     </g>
     <g id="text_23">
      <!-- 60 -->
      <g transform="translate(164.514464 58.800509)scale(0.03 -0.03)">
       <use xlink:href="#DejaVuSans-36"/>
       <use xlink:href="#DejaVuSans-30" x="63.623047"/>
      </g>
     </g>
    </g>
    <g id="text_24">
     <!-- $t$ -->
     <g transform="translate(136.145357 63.983477)scale(0.06 -0.06)">
      <use xlink:href="#Cmmi10-74" transform="translate(0 0.40625)"/>
     </g>
    </g>
   </g>
   <g id="matplotlib.axis_4">
    <g id="ytick_5">
     <g id="line2d_23">
      <g>
       <use xlink:href="#mb933fac791" x="108.0875" y="50.060566" style="stroke: #000000; stroke-width: 0.8"/>
      </g>
     </g>
     <g id="text_25">
      <!-- 0 -->
      <g transform="translate(101.67875 51.200332)scale(0.03 -0.03)">
       <use xlink:href="#DejaVuSans-30"/>
      </g>
     </g>
    </g>
    <g id="ytick_6">
     <g id="line2d_24">
      <g>
       <use xlink:href="#mb933fac791" x="108.0875" y="37.907292" style="stroke: #000000; stroke-width: 0.8"/>
      </g>
     </g>
     <g id="text_26">
      <!-- 50 -->
      <g transform="translate(99.77 39.047058)scale(0.03 -0.03)">
       <use xlink:href="#DejaVuSans-35"/>
       <use xlink:href="#DejaVuSans-30" x="63.623047"/>
      </g>
     </g>
    </g>
    <g id="ytick_7">
     <g id="line2d_25">
      <g>
       <use xlink:href="#mb933fac791" x="108.0875" y="25.754018" style="stroke: #000000; stroke-width: 0.8"/>
      </g>
     </g>
     <g id="text_27">
      <!-- 100 -->
      <g transform="translate(97.86125 26.893784)scale(0.03 -0.03)">
       <use xlink:href="#DejaVuSans-31"/>
       <use xlink:href="#DejaVuSans-30" x="63.623047"/>
       <use xlink:href="#DejaVuSans-30" x="127.246094"/>
      </g>
     </g>
    </g>
    <g id="ytick_8">
     <g id="line2d_26">
      <g>
       <use xlink:href="#mb933fac791" x="108.0875" y="13.600744" style="stroke: #000000; stroke-width: 0.8"/>
      </g>
     </g>
     <g id="text_28">
      <!-- 150 -->
      <g transform="translate(97.86125 14.74051)scale(0.03 -0.03)">
       <use xlink:href="#DejaVuSans-31"/>
       <use xlink:href="#DejaVuSans-35" x="63.623047"/>
       <use xlink:href="#DejaVuSans-30" x="127.246094"/>
      </g>
     </g>
    </g>
    <g id="text_29">
     <!--  $x(t)$ -->
     <g transform="translate(92.003571 38.159324)rotate(-90)scale(0.06 -0.06)">
      <use xlink:href="#DejaVuSans-20"/>
      <use xlink:href="#Cmmi10-78" transform="translate(31.787109 0)"/>
      <use xlink:href="#Cmr10-28" transform="translate(88.867188 0)"/>
      <use xlink:href="#Cmmi10-74" transform="translate(127.685547 0)"/>
      <use xlink:href="#Cmr10-29" transform="translate(163.769531 0)"/>
     </g>
    </g>
   </g>
   <g id="line2d_27">
    <path d="M 108.0875 50.060566 
L 108.281952 49.964687 
L 108.573631 49.47509 
L 108.962536 48.229352 
L 109.448667 45.849231 
L 110.12925 41.346111 
L 111.587643 29.671478 
L 112.754357 21.253351 
L 113.532167 17.193778 
L 114.115524 15.193926 
L 114.601655 14.244863 
L 114.99056 13.945103 
L 115.282238 13.974707 
L 115.573917 14.20807 
L 115.962821 14.808288 
L 116.546179 16.236245 
L 117.323988 18.855983 
L 120.046321 28.749826 
L 120.726905 30.279569 
L 121.310262 31.105793 
L 121.796393 31.446467 
L 122.185298 31.500335 
L 122.671429 31.315991 
L 123.15756 30.885644 
L 123.838143 29.954368 
L 124.907631 28.021762 
L 126.657702 24.85471 
L 127.532738 23.743087 
L 128.213321 23.206435 
L 128.796679 22.986569 
L 129.380036 22.978207 
L 130.060619 23.204024 
L 130.838429 23.705481 
L 132.102369 24.827771 
L 133.755214 26.256768 
L 134.727476 26.818572 
L 135.602512 27.075178 
L 136.477548 27.096271 
L 137.44981 26.887786 
L 138.810976 26.341388 
L 141.144405 25.386346 
L 142.408345 25.129679 
L 143.672286 25.112431 
L 145.227905 25.34201 
L 149.116952 26.038922 
L 150.867024 26.058533 
L 153.492131 25.82081 
L 156.506143 25.604353 
L 159.228476 25.655861 
L 164.964821 25.825121 
L 167.29825 25.77515 
L 167.29825 25.77515 
" clip-path="url(#p6623f3ad73)" style="fill: none; stroke: #0000ff; stroke-width: 1.5; stroke-linecap: square"/>
   </g>
   <g id="line2d_28">
    <path d="M 108.0875 50.207191 
L 108.281952 50.05156 
L 108.573631 49.43306 
L 108.962536 47.878295 
L 109.545893 44.568134 
L 110.323702 38.795444 
L 111.879321 26.992111 
L 112.754357 21.990602 
L 113.337714 19.713495 
L 113.921071 18.29409 
L 114.407202 17.663991 
L 114.796107 17.566981 
L 115.47669 17.652223 
L 115.865595 17.951118 
L 116.351726 18.518741 
L 117.421214 20.492874 
L 119.365738 24.616214 
L 119.949095 25.193383 
L 120.629679 25.557177 
L 121.60194 25.782903 
L 123.060333 25.855794 
L 167.29825 25.854653 
L 167.29825 25.854653 
" clip-path="url(#p6623f3ad73)" style="fill: none; stroke-dasharray: 9.6,2.4,1.5,2.4; stroke-dashoffset: 0; stroke: #ff0000; stroke-width: 1.5"/>
   </g>
   <g id="patch_9">
    <path d="M 108.0875 52.020977 
L 108.0875 12.117671 
" style="fill: none; stroke: #000000; stroke-width: 0.8; stroke-linejoin: miter; stroke-linecap: square"/>
   </g>
   <g id="patch_10">
    <path d="M 166.423214 52.020977 
L 166.423214 12.117671 
" style="fill: none; stroke: #000000; stroke-width: 0.8; stroke-linejoin: miter; stroke-linecap: square"/>
   </g>
   <g id="patch_11">
    <path d="M 108.0875 52.020977 
L 166.423214 52.020977 
" style="fill: none; stroke: #000000; stroke-width: 0.8; stroke-linejoin: miter; stroke-linecap: square"/>
   </g>
   <g id="patch_12">
    <path d="M 108.0875 12.117671 
L 166.423214 12.117671 
" style="fill: none; stroke: #000000; stroke-width: 0.8; stroke-linejoin: miter; stroke-linecap: square"/>
   </g>
   <g id="text_30">
    <!-- tanh -->
    <g transform="translate(128.165982 6.117671)scale(0.08 -0.08)">
     <defs>
      <path id="DejaVuSans-68" d="M 3513 2113 
L 3513 0 
L 2938 0 
L 2938 2094 
Q 2938 2591 2744 2837 
Q 2550 3084 2163 3084 
Q 1697 3084 1428 2787 
Q 1159 2491 1159 1978 
L 1159 0 
L 581 0 
L 581 4863 
L 1159 4863 
L 1159 2956 
Q 1366 3272 1645 3428 
Q 1925 3584 2291 3584 
Q 2894 3584 3203 3211 
Q 3513 2838 3513 2113 
z
" transform="scale(0.015625)"/>
     </defs>
     <use xlink:href="#DejaVuSans-74"/>
     <use xlink:href="#DejaVuSans-61" x="39.208984"/>
     <use xlink:href="#DejaVuSans-6e" x="100.488281"/>
     <use xlink:href="#DejaVuSans-68" x="163.867188"/>
    </g>
   </g>
   <g id="legend_2">
    <g id="patch_13">
     <path d="M 110.1875 23.324546 
L 134.689531 23.324546 
Q 135.289531 23.324546 135.289531 22.724546 
L 135.289531 14.217671 
Q 135.289531 13.617671 134.689531 13.617671 
L 110.1875 13.617671 
Q 109.5875 13.617671 109.5875 14.217671 
L 109.5875 22.724546 
Q 109.5875 23.324546 110.1875 23.324546 
z
" style="fill: #ffffff; opacity: 0.8; stroke: #cccccc; stroke-linejoin: miter"/>
    </g>
    <g id="line2d_29">
     <path d="M 110.7875 16.047202 
L 113.7875 16.047202 
L 116.7875 16.047202 
" style="fill: none; stroke: #0000ff; stroke-width: 1.5; stroke-linecap: square"/>
    </g>
    <g id="text_31">
     <!-- Exact -->
     <g transform="translate(119.1875 17.097202)scale(0.03 -0.03)">
      <use xlink:href="#DejaVuSans-45"/>
      <use xlink:href="#DejaVuSans-78" x="63.183594"/>
      <use xlink:href="#DejaVuSans-61" x="122.363281"/>
      <use xlink:href="#DejaVuSans-63" x="183.642578"/>
      <use xlink:href="#DejaVuSans-74" x="238.623047"/>
     </g>
    </g>
    <g id="line2d_30">
     <path d="M 110.7875 20.45064 
L 113.7875 20.45064 
L 116.7875 20.45064 
" style="fill: none; stroke-dasharray: 9.6,2.4,1.5,2.4; stroke-dashoffset: 0; stroke: #ff0000; stroke-width: 1.5"/>
    </g>
    <g id="text_32">
     <!-- Prediction -->
     <g transform="translate(119.1875 21.50064)scale(0.03 -0.03)">
      <use xlink:href="#DejaVuSans-50"/>
      <use xlink:href="#DejaVuSans-72" x="58.552734"/>
      <use xlink:href="#DejaVuSans-65" x="97.416016"/>
      <use xlink:href="#DejaVuSans-64" x="158.939453"/>
      <use xlink:href="#DejaVuSans-69" x="222.416016"/>
      <use xlink:href="#DejaVuSans-63" x="250.199219"/>
      <use xlink:href="#DejaVuSans-74" x="305.179688"/>
      <use xlink:href="#DejaVuSans-69" x="344.388672"/>
      <use xlink:href="#DejaVuSans-6f" x="372.171875"/>
      <use xlink:href="#DejaVuSans-6e" x="433.353516"/>
     </g>
    </g>
   </g>
  </g>
  <g id="axes_3">
   <g id="patch_14">
    <path d="M 195.591071 51.940334 
L 253.926786 51.940334 
L 253.926786 12.198314 
L 195.591071 12.198314 
z
" style="fill: #ffffff"/>
   </g>
   <g id="matplotlib.axis_5">
    <g id="xtick_15">
     <g id="line2d_31">
      <g>
       <use xlink:href="#mf2d80273b4" x="195.591071" y="51.940334" style="stroke: #000000; stroke-width: 0.8"/>
      </g>
     </g>
     <g id="text_33">
      <!-- 0 -->
      <g transform="translate(194.636696 58.719865)scale(0.03 -0.03)">
       <use xlink:href="#DejaVuSans-30"/>
      </g>
     </g>
    </g>
    <g id="xtick_16">
     <g id="line2d_32">
      <g>
       <use xlink:href="#mf2d80273b4" x="205.31369" y="51.940334" style="stroke: #000000; stroke-width: 0.8"/>
      </g>
     </g>
     <g id="text_34">
      <!-- 10 -->
      <g transform="translate(203.40494 58.719865)scale(0.03 -0.03)">
       <use xlink:href="#DejaVuSans-31"/>
       <use xlink:href="#DejaVuSans-30" x="63.623047"/>
      </g>
     </g>
    </g>
    <g id="xtick_17">
     <g id="line2d_33">
      <g>
       <use xlink:href="#mf2d80273b4" x="215.03631" y="51.940334" style="stroke: #000000; stroke-width: 0.8"/>
      </g>
     </g>
     <g id="text_35">
      <!-- 20 -->
      <g transform="translate(213.12756 58.719865)scale(0.03 -0.03)">
       <use xlink:href="#DejaVuSans-32"/>
       <use xlink:href="#DejaVuSans-30" x="63.623047"/>
      </g>
     </g>
    </g>
    <g id="xtick_18">
     <g id="line2d_34">
      <g>
       <use xlink:href="#mf2d80273b4" x="224.758929" y="51.940334" style="stroke: #000000; stroke-width: 0.8"/>
      </g>
     </g>
     <g id="text_36">
      <!-- 30 -->
      <g transform="translate(222.850179 58.719865)scale(0.03 -0.03)">
       <use xlink:href="#DejaVuSans-33"/>
       <use xlink:href="#DejaVuSans-30" x="63.623047"/>
      </g>
     </g>
    </g>
    <g id="xtick_19">
     <g id="line2d_35">
      <g>
       <use xlink:href="#mf2d80273b4" x="234.481548" y="51.940334" style="stroke: #000000; stroke-width: 0.8"/>
      </g>
     </g>
     <g id="text_37">
      <!-- 40 -->
      <g transform="translate(232.572798 58.719865)scale(0.03 -0.03)">
       <use xlink:href="#DejaVuSans-34"/>
       <use xlink:href="#DejaVuSans-30" x="63.623047"/>
      </g>
     </g>
    </g>
    <g id="xtick_20">
     <g id="line2d_36">
      <g>
       <use xlink:href="#mf2d80273b4" x="244.204167" y="51.940334" style="stroke: #000000; stroke-width: 0.8"/>
      </g>
     </g>
     <g id="text_38">
      <!-- 50 -->
      <g transform="translate(242.295417 58.719865)scale(0.03 -0.03)">
       <use xlink:href="#DejaVuSans-35"/>
       <use xlink:href="#DejaVuSans-30" x="63.623047"/>
      </g>
     </g>
    </g>
    <g id="xtick_21">
     <g id="line2d_37">
      <g>
       <use xlink:href="#mf2d80273b4" x="253.926786" y="51.940334" style="stroke: #000000; stroke-width: 0.8"/>
      </g>
     </g>
     <g id="text_39">
      <!-- 60 -->
      <g transform="translate(252.018036 58.719865)scale(0.03 -0.03)">
       <use xlink:href="#DejaVuSans-36"/>
       <use xlink:href="#DejaVuSans-30" x="63.623047"/>
      </g>
     </g>
    </g>
    <g id="text_40">
     <!-- $t$ -->
     <g transform="translate(223.648929 63.902834)scale(0.06 -0.06)">
      <use xlink:href="#Cmmi10-74" transform="translate(0 0.40625)"/>
     </g>
    </g>
   </g>
   <g id="matplotlib.axis_6">
    <g id="ytick_9">
     <g id="line2d_38">
      <g>
       <use xlink:href="#mb933fac791" x="195.591071" y="50.133878" style="stroke: #000000; stroke-width: 0.8"/>
      </g>
     </g>
     <g id="text_41">
      <!-- 0 -->
      <g transform="translate(189.182321 51.273644)scale(0.03 -0.03)">
       <use xlink:href="#DejaVuSans-30"/>
      </g>
     </g>
    </g>
    <g id="ytick_10">
     <g id="line2d_39">
      <g>
       <use xlink:href="#mb933fac791" x="195.591071" y="37.980604" style="stroke: #000000; stroke-width: 0.8"/>
      </g>
     </g>
     <g id="text_42">
      <!-- 50 -->
      <g transform="translate(187.273571 39.12037)scale(0.03 -0.03)">
       <use xlink:href="#DejaVuSans-35"/>
       <use xlink:href="#DejaVuSans-30" x="63.623047"/>
      </g>
     </g>
    </g>
    <g id="ytick_11">
     <g id="line2d_40">
      <g>
       <use xlink:href="#mb933fac791" x="195.591071" y="25.827331" style="stroke: #000000; stroke-width: 0.8"/>
      </g>
     </g>
     <g id="text_43">
      <!-- 100 -->
      <g transform="translate(185.364821 26.967096)scale(0.03 -0.03)">
       <use xlink:href="#DejaVuSans-31"/>
       <use xlink:href="#DejaVuSans-30" x="63.623047"/>
       <use xlink:href="#DejaVuSans-30" x="127.246094"/>
      </g>
     </g>
    </g>
    <g id="ytick_12">
     <g id="line2d_41">
      <g>
       <use xlink:href="#mb933fac791" x="195.591071" y="13.674057" style="stroke: #000000; stroke-width: 0.8"/>
      </g>
     </g>
     <g id="text_44">
      <!-- 150 -->
      <g transform="translate(185.364821 14.813822)scale(0.03 -0.03)">
       <use xlink:href="#DejaVuSans-31"/>
       <use xlink:href="#DejaVuSans-35" x="63.623047"/>
       <use xlink:href="#DejaVuSans-30" x="127.246094"/>
      </g>
     </g>
    </g>
    <g id="text_45">
     <!--  $x(t)$ -->
     <g transform="translate(179.507143 38.159324)rotate(-90)scale(0.06 -0.06)">
      <use xlink:href="#DejaVuSans-20"/>
      <use xlink:href="#Cmmi10-78" transform="translate(31.787109 0)"/>
      <use xlink:href="#Cmr10-28" transform="translate(88.867188 0)"/>
      <use xlink:href="#Cmmi10-74" transform="translate(127.685547 0)"/>
      <use xlink:href="#Cmr10-29" transform="translate(163.769531 0)"/>
     </g>
    </g>
   </g>
   <g id="line2d_42">
    <path d="M 195.591071 50.133878 
L 195.785524 50.037999 
L 196.077202 49.548403 
L 196.466107 48.302664 
L 196.952238 45.922543 
L 197.632821 41.419423 
L 199.091214 29.744791 
L 200.257929 21.326663 
L 201.035738 17.26709 
L 201.619095 15.267238 
L 202.105226 14.318175 
L 202.494131 14.018416 
L 202.78581 14.048019 
L 203.077488 14.281382 
L 203.466393 14.8816 
L 204.04975 16.309557 
L 204.82756 18.929295 
L 207.549893 28.823139 
L 208.230476 30.352882 
L 208.813833 31.179105 
L 209.299964 31.519779 
L 209.688869 31.573648 
L 210.175 31.389303 
L 210.661131 30.958956 
L 211.341714 30.027681 
L 212.411202 28.095075 
L 214.161274 24.928023 
L 215.03631 23.816399 
L 215.716893 23.279747 
L 216.30025 23.059881 
L 216.883607 23.051519 
L 217.56419 23.277337 
L 218.342 23.778794 
L 219.60594 24.901083 
L 221.258786 26.33008 
L 222.231048 26.891884 
L 223.106083 27.14849 
L 223.981119 27.169584 
L 224.953381 26.961099 
L 226.314548 26.414701 
L 228.647976 25.459658 
L 229.911917 25.202992 
L 231.175857 25.185743 
L 232.731476 25.415323 
L 236.620524 26.112234 
L 238.370595 26.131846 
L 240.995702 25.894122 
L 244.009714 25.677666 
L 246.732048 25.729174 
L 252.468393 25.898434 
L 254.801821 25.848462 
L 254.801821 25.848462 
" clip-path="url(#p9397e75da3)" style="fill: none; stroke: #0000ff; stroke-width: 1.5; stroke-linecap: square"/>
   </g>
   <g id="line2d_43">
    <path d="M 195.591071 25.818797 
L 254.801821 25.77561 
L 254.801821 25.77561 
" clip-path="url(#p9397e75da3)" style="fill: none; stroke-dasharray: 9.6,2.4,1.5,2.4; stroke-dashoffset: 0; stroke: #ff0000; stroke-width: 1.5"/>
   </g>
   <g id="patch_15">
    <path d="M 195.591071 51.940334 
L 195.591071 12.198314 
" style="fill: none; stroke: #000000; stroke-width: 0.8; stroke-linejoin: miter; stroke-linecap: square"/>
   </g>
   <g id="patch_16">
    <path d="M 253.926786 51.940334 
L 253.926786 12.198314 
" style="fill: none; stroke: #000000; stroke-width: 0.8; stroke-linejoin: miter; stroke-linecap: square"/>
   </g>
   <g id="patch_17">
    <path d="M 195.591071 51.940334 
L 253.926786 51.940334 
" style="fill: none; stroke: #000000; stroke-width: 0.8; stroke-linejoin: miter; stroke-linecap: square"/>
   </g>
   <g id="patch_18">
    <path d="M 195.591071 12.198314 
L 253.926786 12.198314 
" style="fill: none; stroke: #000000; stroke-width: 0.8; stroke-linejoin: miter; stroke-linecap: square"/>
   </g>
   <g id="text_46">
    <!-- tanh(AF) -->
    <g transform="translate(207.511429 6.198314)scale(0.08 -0.08)">
     <defs>
      <path id="DejaVuSans-41" d="M 2188 4044 
L 1331 1722 
L 3047 1722 
L 2188 4044 
z
M 1831 4666 
L 2547 4666 
L 4325 0 
L 3669 0 
L 3244 1197 
L 1141 1197 
L 716 0 
L 50 0 
L 1831 4666 
z
" transform="scale(0.015625)"/>
      <path id="DejaVuSans-46" d="M 628 4666 
L 3309 4666 
L 3309 4134 
L 1259 4134 
L 1259 2759 
L 3109 2759 
L 3109 2228 
L 1259 2228 
L 1259 0 
L 628 0 
L 628 4666 
z
" transform="scale(0.015625)"/>
     </defs>
     <use xlink:href="#DejaVuSans-74"/>
     <use xlink:href="#DejaVuSans-61" x="39.208984"/>
     <use xlink:href="#DejaVuSans-6e" x="100.488281"/>
     <use xlink:href="#DejaVuSans-68" x="163.867188"/>
     <use xlink:href="#DejaVuSans-28" x="227.246094"/>
     <use xlink:href="#DejaVuSans-41" x="266.259766"/>
     <use xlink:href="#DejaVuSans-46" x="334.667969"/>
     <use xlink:href="#DejaVuSans-29" x="392.1875"/>
    </g>
   </g>
   <g id="legend_3">
    <g id="patch_19">
     <path d="M 197.691071 23.405189 
L 222.193103 23.405189 
Q 222.793103 23.405189 222.793103 22.805189 
L 222.793103 14.298314 
Q 222.793103 13.698314 222.193103 13.698314 
L 197.691071 13.698314 
Q 197.091071 13.698314 197.091071 14.298314 
L 197.091071 22.805189 
Q 197.091071 23.405189 197.691071 23.405189 
z
" style="fill: #ffffff; opacity: 0.8; stroke: #cccccc; stroke-linejoin: miter"/>
    </g>
    <g id="line2d_44">
     <path d="M 198.291071 16.127846 
L 201.291071 16.127846 
L 204.291071 16.127846 
" style="fill: none; stroke: #0000ff; stroke-width: 1.5; stroke-linecap: square"/>
    </g>
    <g id="text_47">
     <!-- Exact -->
     <g transform="translate(206.691071 17.177846)scale(0.03 -0.03)">
      <use xlink:href="#DejaVuSans-45"/>
      <use xlink:href="#DejaVuSans-78" x="63.183594"/>
      <use xlink:href="#DejaVuSans-61" x="122.363281"/>
      <use xlink:href="#DejaVuSans-63" x="183.642578"/>
      <use xlink:href="#DejaVuSans-74" x="238.623047"/>
     </g>
    </g>
    <g id="line2d_45">
     <path d="M 198.291071 20.531283 
L 201.291071 20.531283 
L 204.291071 20.531283 
" style="fill: none; stroke-dasharray: 9.6,2.4,1.5,2.4; stroke-dashoffset: 0; stroke: #ff0000; stroke-width: 1.5"/>
    </g>
    <g id="text_48">
     <!-- Prediction -->
     <g transform="translate(206.691071 21.581283)scale(0.03 -0.03)">
      <use xlink:href="#DejaVuSans-50"/>
      <use xlink:href="#DejaVuSans-72" x="58.552734"/>
      <use xlink:href="#DejaVuSans-65" x="97.416016"/>
      <use xlink:href="#DejaVuSans-64" x="158.939453"/>
      <use xlink:href="#DejaVuSans-69" x="222.416016"/>
      <use xlink:href="#DejaVuSans-63" x="250.199219"/>
      <use xlink:href="#DejaVuSans-74" x="305.179688"/>
      <use xlink:href="#DejaVuSans-69" x="344.388672"/>
      <use xlink:href="#DejaVuSans-6f" x="372.171875"/>
      <use xlink:href="#DejaVuSans-6e" x="433.353516"/>
     </g>
    </g>
   </g>
  </g>
  <g id="axes_4">
   <g id="patch_20">
    <path d="M 283.094643 51.940334 
L 341.430357 51.940334 
L 341.430357 12.198314 
L 283.094643 12.198314 
z
" style="fill: #ffffff"/>
   </g>
   <g id="matplotlib.axis_7">
    <g id="xtick_22">
     <g id="line2d_46">
      <g>
       <use xlink:href="#mf2d80273b4" x="283.094643" y="51.940334" style="stroke: #000000; stroke-width: 0.8"/>
      </g>
     </g>
     <g id="text_49">
      <!-- 0 -->
      <g transform="translate(282.140268 58.719865)scale(0.03 -0.03)">
       <use xlink:href="#DejaVuSans-30"/>
      </g>
     </g>
    </g>
    <g id="xtick_23">
     <g id="line2d_47">
      <g>
       <use xlink:href="#mf2d80273b4" x="292.817262" y="51.940334" style="stroke: #000000; stroke-width: 0.8"/>
      </g>
     </g>
     <g id="text_50">
      <!-- 10 -->
      <g transform="translate(290.908512 58.719865)scale(0.03 -0.03)">
       <use xlink:href="#DejaVuSans-31"/>
       <use xlink:href="#DejaVuSans-30" x="63.623047"/>
      </g>
     </g>
    </g>
    <g id="xtick_24">
     <g id="line2d_48">
      <g>
       <use xlink:href="#mf2d80273b4" x="302.539881" y="51.940334" style="stroke: #000000; stroke-width: 0.8"/>
      </g>
     </g>
     <g id="text_51">
      <!-- 20 -->
      <g transform="translate(300.631131 58.719865)scale(0.03 -0.03)">
       <use xlink:href="#DejaVuSans-32"/>
       <use xlink:href="#DejaVuSans-30" x="63.623047"/>
      </g>
     </g>
    </g>
    <g id="xtick_25">
     <g id="line2d_49">
      <g>
       <use xlink:href="#mf2d80273b4" x="312.2625" y="51.940334" style="stroke: #000000; stroke-width: 0.8"/>
      </g>
     </g>
     <g id="text_52">
      <!-- 30 -->
      <g transform="translate(310.35375 58.719865)scale(0.03 -0.03)">
       <use xlink:href="#DejaVuSans-33"/>
       <use xlink:href="#DejaVuSans-30" x="63.623047"/>
      </g>
     </g>
    </g>
    <g id="xtick_26">
     <g id="line2d_50">
      <g>
       <use xlink:href="#mf2d80273b4" x="321.985119" y="51.940334" style="stroke: #000000; stroke-width: 0.8"/>
      </g>
     </g>
     <g id="text_53">
      <!-- 40 -->
      <g transform="translate(320.076369 58.719865)scale(0.03 -0.03)">
       <use xlink:href="#DejaVuSans-34"/>
       <use xlink:href="#DejaVuSans-30" x="63.623047"/>
      </g>
     </g>
    </g>
    <g id="xtick_27">
     <g id="line2d_51">
      <g>
       <use xlink:href="#mf2d80273b4" x="331.707738" y="51.940334" style="stroke: #000000; stroke-width: 0.8"/>
      </g>
     </g>
     <g id="text_54">
      <!-- 50 -->
      <g transform="translate(329.798988 58.719865)scale(0.03 -0.03)">
       <use xlink:href="#DejaVuSans-35"/>
       <use xlink:href="#DejaVuSans-30" x="63.623047"/>
      </g>
     </g>
    </g>
    <g id="xtick_28">
     <g id="line2d_52">
      <g>
       <use xlink:href="#mf2d80273b4" x="341.430357" y="51.940334" style="stroke: #000000; stroke-width: 0.8"/>
      </g>
     </g>
     <g id="text_55">
      <!-- 60 -->
      <g transform="translate(339.521607 58.719865)scale(0.03 -0.03)">
       <use xlink:href="#DejaVuSans-36"/>
       <use xlink:href="#DejaVuSans-30" x="63.623047"/>
      </g>
     </g>
    </g>
    <g id="text_56">
     <!-- $t$ -->
     <g transform="translate(311.1525 63.902834)scale(0.06 -0.06)">
      <use xlink:href="#Cmmi10-74" transform="translate(0 0.40625)"/>
     </g>
    </g>
   </g>
   <g id="matplotlib.axis_8">
    <g id="ytick_13">
     <g id="line2d_53">
      <g>
       <use xlink:href="#mb933fac791" x="283.094643" y="50.133878" style="stroke: #000000; stroke-width: 0.8"/>
      </g>
     </g>
     <g id="text_57">
      <!-- 0 -->
      <g transform="translate(276.685893 51.273644)scale(0.03 -0.03)">
       <use xlink:href="#DejaVuSans-30"/>
      </g>
     </g>
    </g>
    <g id="ytick_14">
     <g id="line2d_54">
      <g>
       <use xlink:href="#mb933fac791" x="283.094643" y="37.980604" style="stroke: #000000; stroke-width: 0.8"/>
      </g>
     </g>
     <g id="text_58">
      <!-- 50 -->
      <g transform="translate(274.777143 39.12037)scale(0.03 -0.03)">
       <use xlink:href="#DejaVuSans-35"/>
       <use xlink:href="#DejaVuSans-30" x="63.623047"/>
      </g>
     </g>
    </g>
    <g id="ytick_15">
     <g id="line2d_55">
      <g>
       <use xlink:href="#mb933fac791" x="283.094643" y="25.827331" style="stroke: #000000; stroke-width: 0.8"/>
      </g>
     </g>
     <g id="text_59">
      <!-- 100 -->
      <g transform="translate(272.868393 26.967096)scale(0.03 -0.03)">
       <use xlink:href="#DejaVuSans-31"/>
       <use xlink:href="#DejaVuSans-30" x="63.623047"/>
       <use xlink:href="#DejaVuSans-30" x="127.246094"/>
      </g>
     </g>
    </g>
    <g id="ytick_16">
     <g id="line2d_56">
      <g>
       <use xlink:href="#mb933fac791" x="283.094643" y="13.674057" style="stroke: #000000; stroke-width: 0.8"/>
      </g>
     </g>
     <g id="text_60">
      <!-- 150 -->
      <g transform="translate(272.868393 14.813822)scale(0.03 -0.03)">
       <use xlink:href="#DejaVuSans-31"/>
       <use xlink:href="#DejaVuSans-35" x="63.623047"/>
       <use xlink:href="#DejaVuSans-30" x="127.246094"/>
      </g>
     </g>
    </g>
    <g id="text_61">
     <!--  $x(t)$ -->
     <g transform="translate(267.010714 38.159324)rotate(-90)scale(0.06 -0.06)">
      <use xlink:href="#DejaVuSans-20"/>
      <use xlink:href="#Cmmi10-78" transform="translate(31.787109 0)"/>
      <use xlink:href="#Cmr10-28" transform="translate(88.867188 0)"/>
      <use xlink:href="#Cmmi10-74" transform="translate(127.685547 0)"/>
      <use xlink:href="#Cmr10-29" transform="translate(163.769531 0)"/>
     </g>
    </g>
   </g>
   <g id="line2d_57">
    <path d="M 283.094643 50.133878 
L 283.289095 50.037999 
L 283.580774 49.548403 
L 283.969679 48.302664 
L 284.45581 45.922543 
L 285.136393 41.419423 
L 286.594786 29.744791 
L 287.7615 21.326663 
L 288.53931 17.26709 
L 289.122667 15.267238 
L 289.608798 14.318175 
L 289.997702 14.018416 
L 290.289381 14.048019 
L 290.58106 14.281382 
L 290.969964 14.8816 
L 291.553321 16.309557 
L 292.331131 18.929295 
L 295.053464 28.823139 
L 295.734048 30.352882 
L 296.317405 31.179105 
L 296.803536 31.519779 
L 297.19244 31.573648 
L 297.678571 31.389303 
L 298.164702 30.958956 
L 298.845286 30.027681 
L 299.914774 28.095075 
L 301.664845 24.928023 
L 302.539881 23.816399 
L 303.220464 23.279747 
L 303.803821 23.059881 
L 304.387179 23.051519 
L 305.067762 23.277337 
L 305.845571 23.778794 
L 307.109512 24.901083 
L 308.762357 26.33008 
L 309.734619 26.891884 
L 310.609655 27.14849 
L 311.48469 27.169584 
L 312.456952 26.961099 
L 313.818119 26.414701 
L 316.151548 25.459658 
L 317.415488 25.202992 
L 318.679429 25.185743 
L 320.235048 25.415323 
L 324.124095 26.112234 
L 325.874167 26.131846 
L 328.499274 25.894122 
L 331.513286 25.677666 
L 334.235619 25.729174 
L 339.971964 25.898434 
L 342.305393 25.848462 
L 342.305393 25.848462 
" clip-path="url(#pabbf5cdc1d)" style="fill: none; stroke: #0000ff; stroke-width: 1.5; stroke-linecap: square"/>
   </g>
   <g id="line2d_58">
    <path d="M 283.094643 26.882507 
L 286.205881 26.213615 
L 289.900476 25.480364 
L 292.428357 25.214931 
L 294.859012 25.192477 
L 297.775798 25.408687 
L 304.776083 26.009589 
L 308.859583 26.083349 
L 314.401476 25.938041 
L 322.276798 25.719699 
L 334.624524 25.845923 
L 342.305393 25.891057 
L 342.305393 25.891057 
" clip-path="url(#pabbf5cdc1d)" style="fill: none; stroke-dasharray: 9.6,2.4,1.5,2.4; stroke-dashoffset: 0; stroke: #ff0000; stroke-width: 1.5"/>
   </g>
   <g id="patch_21">
    <path d="M 283.094643 51.940334 
L 283.094643 12.198314 
" style="fill: none; stroke: #000000; stroke-width: 0.8; stroke-linejoin: miter; stroke-linecap: square"/>
   </g>
   <g id="patch_22">
    <path d="M 341.430357 51.940334 
L 341.430357 12.198314 
" style="fill: none; stroke: #000000; stroke-width: 0.8; stroke-linejoin: miter; stroke-linecap: square"/>
   </g>
   <g id="patch_23">
    <path d="M 283.094643 51.940334 
L 341.430357 51.940334 
" style="fill: none; stroke: #000000; stroke-width: 0.8; stroke-linejoin: miter; stroke-linecap: square"/>
   </g>
   <g id="patch_24">
    <path d="M 283.094643 12.198314 
L 341.430357 12.198314 
" style="fill: none; stroke: #000000; stroke-width: 0.8; stroke-linejoin: miter; stroke-linecap: square"/>
   </g>
   <g id="text_62">
    <!-- Swish -->
    <g transform="translate(300.721875 6.198314)scale(0.08 -0.08)">
     <defs>
      <path id="DejaVuSans-77" d="M 269 3500 
L 844 3500 
L 1563 769 
L 2278 3500 
L 2956 3500 
L 3675 769 
L 4391 3500 
L 4966 3500 
L 4050 0 
L 3372 0 
L 2619 2869 
L 1863 0 
L 1184 0 
L 269 3500 
z
" transform="scale(0.015625)"/>
     </defs>
     <use xlink:href="#DejaVuSans-53"/>
     <use xlink:href="#DejaVuSans-77" x="63.476562"/>
     <use xlink:href="#DejaVuSans-69" x="145.263672"/>
     <use xlink:href="#DejaVuSans-73" x="173.046875"/>
     <use xlink:href="#DejaVuSans-68" x="225.146484"/>
    </g>
   </g>
   <g id="legend_4">
    <g id="patch_25">
     <path d="M 285.194643 23.405189 
L 309.696674 23.405189 
Q 310.296674 23.405189 310.296674 22.805189 
L 310.296674 14.298314 
Q 310.296674 13.698314 309.696674 13.698314 
L 285.194643 13.698314 
Q 284.594643 13.698314 284.594643 14.298314 
L 284.594643 22.805189 
Q 284.594643 23.405189 285.194643 23.405189 
z
" style="fill: #ffffff; opacity: 0.8; stroke: #cccccc; stroke-linejoin: miter"/>
    </g>
    <g id="line2d_59">
     <path d="M 285.794643 16.127846 
L 288.794643 16.127846 
L 291.794643 16.127846 
" style="fill: none; stroke: #0000ff; stroke-width: 1.5; stroke-linecap: square"/>
    </g>
    <g id="text_63">
     <!-- Exact -->
     <g transform="translate(294.194643 17.177846)scale(0.03 -0.03)">
      <use xlink:href="#DejaVuSans-45"/>
      <use xlink:href="#DejaVuSans-78" x="63.183594"/>
      <use xlink:href="#DejaVuSans-61" x="122.363281"/>
      <use xlink:href="#DejaVuSans-63" x="183.642578"/>
      <use xlink:href="#DejaVuSans-74" x="238.623047"/>
     </g>
    </g>
    <g id="line2d_60">
     <path d="M 285.794643 20.531283 
L 288.794643 20.531283 
L 291.794643 20.531283 
" style="fill: none; stroke-dasharray: 9.6,2.4,1.5,2.4; stroke-dashoffset: 0; stroke: #ff0000; stroke-width: 1.5"/>
    </g>
    <g id="text_64">
     <!-- Prediction -->
     <g transform="translate(294.194643 21.581283)scale(0.03 -0.03)">
      <use xlink:href="#DejaVuSans-50"/>
      <use xlink:href="#DejaVuSans-72" x="58.552734"/>
      <use xlink:href="#DejaVuSans-65" x="97.416016"/>
      <use xlink:href="#DejaVuSans-64" x="158.939453"/>
      <use xlink:href="#DejaVuSans-69" x="222.416016"/>
      <use xlink:href="#DejaVuSans-63" x="250.199219"/>
      <use xlink:href="#DejaVuSans-74" x="305.179688"/>
      <use xlink:href="#DejaVuSans-69" x="344.388672"/>
      <use xlink:href="#DejaVuSans-6f" x="372.171875"/>
      <use xlink:href="#DejaVuSans-6e" x="433.353516"/>
     </g>
    </g>
   </g>
  </g>
  <g id="axes_5">
   <g id="patch_26">
    <path d="M 370.598214 52.059898 
L 428.933929 52.059898 
L 428.933929 12.07875 
L 370.598214 12.07875 
z
" style="fill: #ffffff"/>
   </g>
   <g id="matplotlib.axis_9">
    <g id="xtick_29">
     <g id="line2d_61">
      <g>
       <use xlink:href="#mf2d80273b4" x="370.598214" y="52.059898" style="stroke: #000000; stroke-width: 0.8"/>
      </g>
     </g>
     <g id="text_65">
      <!-- 0 -->
      <g transform="translate(369.643839 58.839429)scale(0.03 -0.03)">
       <use xlink:href="#DejaVuSans-30"/>
      </g>
     </g>
    </g>
    <g id="xtick_30">
     <g id="line2d_62">
      <g>
       <use xlink:href="#mf2d80273b4" x="380.320833" y="52.059898" style="stroke: #000000; stroke-width: 0.8"/>
      </g>
     </g>
     <g id="text_66">
      <!-- 10 -->
      <g transform="translate(378.412083 58.839429)scale(0.03 -0.03)">
       <use xlink:href="#DejaVuSans-31"/>
       <use xlink:href="#DejaVuSans-30" x="63.623047"/>
      </g>
     </g>
    </g>
    <g id="xtick_31">
     <g id="line2d_63">
      <g>
       <use xlink:href="#mf2d80273b4" x="390.043452" y="52.059898" style="stroke: #000000; stroke-width: 0.8"/>
      </g>
     </g>
     <g id="text_67">
      <!-- 20 -->
      <g transform="translate(388.134702 58.839429)scale(0.03 -0.03)">
       <use xlink:href="#DejaVuSans-32"/>
       <use xlink:href="#DejaVuSans-30" x="63.623047"/>
      </g>
     </g>
    </g>
    <g id="xtick_32">
     <g id="line2d_64">
      <g>
       <use xlink:href="#mf2d80273b4" x="399.766071" y="52.059898" style="stroke: #000000; stroke-width: 0.8"/>
      </g>
     </g>
     <g id="text_68">
      <!-- 30 -->
      <g transform="translate(397.857321 58.839429)scale(0.03 -0.03)">
       <use xlink:href="#DejaVuSans-33"/>
       <use xlink:href="#DejaVuSans-30" x="63.623047"/>
      </g>
     </g>
    </g>
    <g id="xtick_33">
     <g id="line2d_65">
      <g>
       <use xlink:href="#mf2d80273b4" x="409.48869" y="52.059898" style="stroke: #000000; stroke-width: 0.8"/>
      </g>
     </g>
     <g id="text_69">
      <!-- 40 -->
      <g transform="translate(407.57994 58.839429)scale(0.03 -0.03)">
       <use xlink:href="#DejaVuSans-34"/>
       <use xlink:href="#DejaVuSans-30" x="63.623047"/>
      </g>
     </g>
    </g>
    <g id="xtick_34">
     <g id="line2d_66">
      <g>
       <use xlink:href="#mf2d80273b4" x="419.21131" y="52.059898" style="stroke: #000000; stroke-width: 0.8"/>
      </g>
     </g>
     <g id="text_70">
      <!-- 50 -->
      <g transform="translate(417.30256 58.839429)scale(0.03 -0.03)">
       <use xlink:href="#DejaVuSans-35"/>
       <use xlink:href="#DejaVuSans-30" x="63.623047"/>
      </g>
     </g>
    </g>
    <g id="xtick_35">
     <g id="line2d_67">
      <g>
       <use xlink:href="#mf2d80273b4" x="428.933929" y="52.059898" style="stroke: #000000; stroke-width: 0.8"/>
      </g>
     </g>
     <g id="text_71">
      <!-- 60 -->
      <g transform="translate(427.025179 58.839429)scale(0.03 -0.03)">
       <use xlink:href="#DejaVuSans-36"/>
       <use xlink:href="#DejaVuSans-30" x="63.623047"/>
      </g>
     </g>
    </g>
    <g id="text_72">
     <!-- $t$ -->
     <g transform="translate(398.656071 64.022398)scale(0.06 -0.06)">
      <use xlink:href="#Cmmi10-74" transform="translate(0 0.40625)"/>
     </g>
    </g>
   </g>
   <g id="matplotlib.axis_10">
    <g id="ytick_17">
     <g id="line2d_68">
      <g>
       <use xlink:href="#mb933fac791" x="370.598214" y="50.025183" style="stroke: #000000; stroke-width: 0.8"/>
      </g>
     </g>
     <g id="text_73">
      <!-- 0 -->
      <g transform="translate(364.189464 51.164949)scale(0.03 -0.03)">
       <use xlink:href="#DejaVuSans-30"/>
      </g>
     </g>
    </g>
    <g id="ytick_18">
     <g id="line2d_69">
      <g>
       <use xlink:href="#mb933fac791" x="370.598214" y="37.87191" style="stroke: #000000; stroke-width: 0.8"/>
      </g>
     </g>
     <g id="text_74">
      <!-- 50 -->
      <g transform="translate(362.280714 39.011675)scale(0.03 -0.03)">
       <use xlink:href="#DejaVuSans-35"/>
       <use xlink:href="#DejaVuSans-30" x="63.623047"/>
      </g>
     </g>
    </g>
    <g id="ytick_19">
     <g id="line2d_70">
      <g>
       <use xlink:href="#mb933fac791" x="370.598214" y="25.718636" style="stroke: #000000; stroke-width: 0.8"/>
      </g>
     </g>
     <g id="text_75">
      <!-- 100 -->
      <g transform="translate(360.371964 26.858401)scale(0.03 -0.03)">
       <use xlink:href="#DejaVuSans-31"/>
       <use xlink:href="#DejaVuSans-30" x="63.623047"/>
       <use xlink:href="#DejaVuSans-30" x="127.246094"/>
      </g>
     </g>
    </g>
    <g id="ytick_20">
     <g id="line2d_71">
      <g>
       <use xlink:href="#mb933fac791" x="370.598214" y="13.565362" style="stroke: #000000; stroke-width: 0.8"/>
      </g>
     </g>
     <g id="text_76">
      <!-- 150 -->
      <g transform="translate(360.371964 14.705128)scale(0.03 -0.03)">
       <use xlink:href="#DejaVuSans-31"/>
       <use xlink:href="#DejaVuSans-35" x="63.623047"/>
       <use xlink:href="#DejaVuSans-30" x="127.246094"/>
      </g>
     </g>
    </g>
    <g id="text_77">
     <!--  $x(t)$ -->
     <g transform="translate(354.514286 38.159324)rotate(-90)scale(0.06 -0.06)">
      <use xlink:href="#DejaVuSans-20"/>
      <use xlink:href="#Cmmi10-78" transform="translate(31.787109 0)"/>
      <use xlink:href="#Cmr10-28" transform="translate(88.867188 0)"/>
      <use xlink:href="#Cmmi10-74" transform="translate(127.685547 0)"/>
      <use xlink:href="#Cmr10-29" transform="translate(163.769531 0)"/>
     </g>
    </g>
   </g>
   <g id="line2d_72">
    <path d="M 370.598214 50.025183 
L 370.792667 49.929304 
L 371.084345 49.439708 
L 371.47325 48.193969 
L 371.959381 45.813848 
L 372.639964 41.310728 
L 374.098357 29.636096 
L 375.265071 21.217969 
L 376.042881 17.158395 
L 376.626238 15.158543 
L 377.112369 14.20948 
L 377.501274 13.909721 
L 377.792952 13.939324 
L 378.084631 14.172687 
L 378.473536 14.772905 
L 379.056893 16.200862 
L 379.834702 18.8206 
L 382.557036 28.714444 
L 383.237619 30.244187 
L 383.820976 31.07041 
L 384.307107 31.411084 
L 384.696012 31.464953 
L 385.182143 31.280608 
L 385.668274 30.850261 
L 386.348857 29.918986 
L 387.418345 27.98638 
L 389.168417 24.819328 
L 390.043452 23.707704 
L 390.724036 23.171052 
L 391.307393 22.951187 
L 391.89075 22.942825 
L 392.571333 23.168642 
L 393.349143 23.670099 
L 394.613083 24.792388 
L 396.265929 26.221385 
L 397.23819 26.783189 
L 398.113226 27.039795 
L 398.988262 27.060889 
L 399.960524 26.852404 
L 401.32169 26.306006 
L 403.655119 25.350963 
L 404.91906 25.094297 
L 406.183 25.077048 
L 407.738619 25.306628 
L 411.627667 26.003539 
L 413.377738 26.023151 
L 416.002845 25.785427 
L 419.016857 25.568971 
L 421.73919 25.620479 
L 427.475536 25.789739 
L 429.808964 25.739767 
L 429.808964 25.739767 
" clip-path="url(#p76f03185a9)" style="fill: none; stroke: #0000ff; stroke-width: 1.5; stroke-linecap: square"/>
   </g>
   <g id="line2d_73">
    <path d="M 370.598214 50.242573 
L 370.792667 50.151821 
L 371.084345 49.661497 
L 371.47325 48.387249 
L 371.959381 45.92381 
L 372.639964 41.247419 
L 375.653976 18.756362 
L 376.33456 15.937416 
L 376.82069 14.694799 
L 377.209595 14.162448 
L 377.501274 14.024514 
L 377.792952 14.099731 
L 378.181857 14.510022 
L 378.667988 15.465776 
L 379.348571 17.460203 
L 380.515286 21.843958 
L 381.876452 26.770088 
L 382.654262 28.878368 
L 383.334845 30.153835 
L 383.918202 30.803187 
L 384.404333 31.034113 
L 384.890464 30.994328 
L 385.376595 30.703638 
L 385.959952 30.067848 
L 386.737762 28.861209 
L 389.557321 24.119394 
L 390.335131 23.355766 
L 391.015714 23.007517 
L 391.599071 22.951437 
L 392.279655 23.133439 
L 393.15469 23.635517 
L 395.390893 25.308201 
L 397.23819 26.626667 
L 398.016 26.914124 
L 398.696583 26.948938 
L 399.571619 26.752476 
L 405.599643 24.828021 
L 406.669131 24.841242 
L 407.738619 25.084049 
L 411.433214 26.170877 
L 412.599929 26.105771 
L 414.544452 25.70829 
L 416.39175 25.43011 
L 418.044595 25.423034 
L 423.683714 25.605225 
L 428.64225 25.615983 
L 429.808964 25.613263 
L 429.808964 25.613263 
" clip-path="url(#p76f03185a9)" style="fill: none; stroke-dasharray: 9.6,2.4,1.5,2.4; stroke-dashoffset: 0; stroke: #ff0000; stroke-width: 1.5"/>
   </g>
   <g id="patch_27">
    <path d="M 370.598214 52.059898 
L 370.598214 12.07875 
" style="fill: none; stroke: #000000; stroke-width: 0.8; stroke-linejoin: miter; stroke-linecap: square"/>
   </g>
   <g id="patch_28">
    <path d="M 428.933929 52.059898 
L 428.933929 12.07875 
" style="fill: none; stroke: #000000; stroke-width: 0.8; stroke-linejoin: miter; stroke-linecap: square"/>
   </g>
   <g id="patch_29">
    <path d="M 370.598214 52.059898 
L 428.933929 52.059898 
" style="fill: none; stroke: #000000; stroke-width: 0.8; stroke-linejoin: miter; stroke-linecap: square"/>
   </g>
   <g id="patch_30">
    <path d="M 370.598214 12.07875 
L 428.933929 12.07875 
" style="fill: none; stroke: #000000; stroke-width: 0.8; stroke-linejoin: miter; stroke-linecap: square"/>
   </g>
   <g id="text_78">
    <!-- Rowdy -->
    <g transform="translate(386.541071 6.07875)scale(0.08 -0.08)">
     <defs>
      <path id="DejaVuSans-52" d="M 2841 2188 
Q 3044 2119 3236 1894 
Q 3428 1669 3622 1275 
L 4263 0 
L 3584 0 
L 2988 1197 
Q 2756 1666 2539 1819 
Q 2322 1972 1947 1972 
L 1259 1972 
L 1259 0 
L 628 0 
L 628 4666 
L 2053 4666 
Q 2853 4666 3247 4331 
Q 3641 3997 3641 3322 
Q 3641 2881 3436 2590 
Q 3231 2300 2841 2188 
z
M 1259 4147 
L 1259 2491 
L 2053 2491 
Q 2509 2491 2742 2702 
Q 2975 2913 2975 3322 
Q 2975 3731 2742 3939 
Q 2509 4147 2053 4147 
L 1259 4147 
z
" transform="scale(0.015625)"/>
      <path id="DejaVuSans-79" d="M 2059 -325 
Q 1816 -950 1584 -1140 
Q 1353 -1331 966 -1331 
L 506 -1331 
L 506 -850 
L 844 -850 
Q 1081 -850 1212 -737 
Q 1344 -625 1503 -206 
L 1606 56 
L 191 3500 
L 800 3500 
L 1894 763 
L 2988 3500 
L 3597 3500 
L 2059 -325 
z
" transform="scale(0.015625)"/>
     </defs>
     <use xlink:href="#DejaVuSans-52"/>
     <use xlink:href="#DejaVuSans-6f" x="64.982422"/>
     <use xlink:href="#DejaVuSans-77" x="126.164062"/>
     <use xlink:href="#DejaVuSans-64" x="207.951172"/>
     <use xlink:href="#DejaVuSans-79" x="271.427734"/>
    </g>
   </g>
   <g id="legend_5">
    <g id="patch_31">
     <path d="M 372.698214 23.285625 
L 397.200246 23.285625 
Q 397.800246 23.285625 397.800246 22.685625 
L 397.800246 14.17875 
Q 397.800246 13.57875 397.200246 13.57875 
L 372.698214 13.57875 
Q 372.098214 13.57875 372.098214 14.17875 
L 372.098214 22.685625 
Q 372.098214 23.285625 372.698214 23.285625 
z
" style="fill: #ffffff; opacity: 0.8; stroke: #cccccc; stroke-linejoin: miter"/>
    </g>
    <g id="line2d_74">
     <path d="M 373.298214 16.008281 
L 376.298214 16.008281 
L 379.298214 16.008281 
" style="fill: none; stroke: #0000ff; stroke-width: 1.5; stroke-linecap: square"/>
    </g>
    <g id="text_79">
     <!-- Exact -->
     <g transform="translate(381.698214 17.058281)scale(0.03 -0.03)">
      <use xlink:href="#DejaVuSans-45"/>
      <use xlink:href="#DejaVuSans-78" x="63.183594"/>
      <use xlink:href="#DejaVuSans-61" x="122.363281"/>
      <use xlink:href="#DejaVuSans-63" x="183.642578"/>
      <use xlink:href="#DejaVuSans-74" x="238.623047"/>
     </g>
    </g>
    <g id="line2d_75">
     <path d="M 373.298214 20.411719 
L 376.298214 20.411719 
L 379.298214 20.411719 
" style="fill: none; stroke-dasharray: 9.6,2.4,1.5,2.4; stroke-dashoffset: 0; stroke: #ff0000; stroke-width: 1.5"/>
    </g>
    <g id="text_80">
     <!-- Prediction -->
     <g transform="translate(381.698214 21.461719)scale(0.03 -0.03)">
      <use xlink:href="#DejaVuSans-50"/>
      <use xlink:href="#DejaVuSans-72" x="58.552734"/>
      <use xlink:href="#DejaVuSans-65" x="97.416016"/>
      <use xlink:href="#DejaVuSans-64" x="158.939453"/>
      <use xlink:href="#DejaVuSans-69" x="222.416016"/>
      <use xlink:href="#DejaVuSans-63" x="250.199219"/>
      <use xlink:href="#DejaVuSans-74" x="305.179688"/>
      <use xlink:href="#DejaVuSans-69" x="344.388672"/>
      <use xlink:href="#DejaVuSans-6f" x="372.171875"/>
      <use xlink:href="#DejaVuSans-6e" x="433.353516"/>
     </g>
    </g>
   </g>
  </g>
 </g>
 <defs>
  <clipPath id="p76334c3726">
   <rect x="20.583929" y="12.182233" width="58.335714" height="39.774182"/>
  </clipPath>
  <clipPath id="p6623f3ad73">
   <rect x="108.0875" y="12.117671" width="58.335714" height="39.903307"/>
  </clipPath>
  <clipPath id="p9397e75da3">
   <rect x="195.591071" y="12.198314" width="58.335714" height="39.742019"/>
  </clipPath>
  <clipPath id="pabbf5cdc1d">
   <rect x="283.094643" y="12.198314" width="58.335714" height="39.742019"/>
  </clipPath>
  <clipPath id="p76f03185a9">
   <rect x="370.598214" y="12.07875" width="58.335714" height="39.981148"/>
  </clipPath>
 </defs>
</svg>
